<?xml version="1.0" encoding="utf-8"?>
<!-- Generator: Adobe Illustrator 24.1.1, SVG Export Plug-In . SVG Version: 6.00 Build 0)  -->
<svg version="1.1" id="Layer_1" xmlns="http://www.w3.org/2000/svg" xmlns:xlink="http://www.w3.org/1999/xlink" x="0px" y="0px"
	 viewBox="0 0 512 512" style="enable-background:new 0 0 512 512;" xml:space="preserve">
<style type="text/css">
	.st0{fill:#C2D5D8;}
	.st1{fill:#B7C9CC;}
	.st2{fill:#333333;}
	.st3{fill:#242424;}
	.st4{fill:#F5F5F5;}
	.st5{fill:#CC584C;}
</style>
<g id="XMLID_1_">
	<circle id="XMLID_3_" class="st0" cx="256" cy="251.7" r="251.7"/>
	<path id="XMLID_4_" class="st1" d="M489.1,347.8c0-0.8-0.8-1.5-0.8-2.3c0-0.8-0.8-1.5-0.8-2.3s-0.8-1.5-0.8-2.3s-0.8-1.5-0.8-2.3
		s-0.8-1.5-0.8-2.3c0-0.8-0.8-1.5-0.8-2.3s-0.8-1.5-0.8-2.3s-0.8-1.5-0.8-2.3s-0.8-1.5-0.8-2.3c0-0.8-0.8-1.5-0.8-2.3
		s-0.8-1.5-0.8-2.3s-0.8-1.5-0.8-2.3c0-0.8-0.8-1.5-0.8-2.3s-0.8-1.5-0.8-2.3s-0.8-1.5-0.8-2.3s-0.8-1.5-0.8-2.3
		c0-0.8-0.8-1.5-0.8-2.3s-0.8-1.5-0.8-2.3s-0.8-1.5-0.8-2.3s-0.8-1.5-0.8-2.3c0-0.8-0.8-1.5-0.8-2.3s-0.8-1.5-0.8-2.3
		s-0.8-1.5-0.8-2.3c0-0.8-0.8-1.5-0.8-2.3s-0.8-1.5-0.8-2.3s-0.8-1.5-0.8-2.3s-0.8-1.5-0.8-2.3c0-0.8-0.8-1.5-0.8-2.3
		s-0.8-1.5-0.8-2.3s-0.8-1.5-0.8-2.3s-0.8-1.5-0.8-2.3c0-0.8-0.8-1.5-0.8-2.3s-0.8-1.5-0.8-2.3s-0.8-1.5-0.8-2.3
		c0-0.8-0.8-1.5-0.8-2.3s-0.8-1.5-0.8-2.3s-0.8-1.5-0.8-2.3s-0.8-1.5-0.8-2.3c0-0.8-0.8-1.5-0.8-2.3s-0.8-1.5-0.8-2.3
		s-0.8-1.5-0.8-2.3c0-0.8-0.8-1.5-0.8-2.3s-0.8-1.5-0.8-2.3s-0.8-1.5-0.8-2.3s-0.8-1.5-0.8-2.3s-0.8-1.5-0.8-2.3
		c0-0.8-0.8-1.5-0.8-2.3s-0.8-1.5-0.8-2.3c0-0.8-0.8-1.5-0.8-2.3s-0.8-1.5-0.8-2.3c0-0.8-0.8-1.5-0.8-2.3s-0.8-1.5-0.8-2.3
		c0-0.8-0.8-1.5-0.8-2.3s-0.8-1.5-0.8-2.3s-0.8-1.5-0.8-2.3s-0.8-1.5-0.8-2.3s-0.8-1.5-0.8-2.3c0-0.8-0.8-1.5-0.8-2.3
		s-0.8-1.5-0.8-2.3c0-0.8-0.8-1.5-0.8-2.3s-0.8-1.5-0.8-2.3c0-0.8-0.8-1.5-0.8-2.3s-0.8-1.5-0.8-2.3c0-0.8-0.8-1.5-0.8-2.3
		s-0.8-1.5-0.8-2.3s-0.8-1.5-0.8-2.3s-0.8-1.5-0.8-2.3s-0.8-1.5-0.8-2.3c0-0.8-0.8-1.5-0.8-2.3s-0.8-1.5-0.8-2.3
		c0-0.8-0.8-1.5-0.8-2.3s-0.8-1.5-0.8-2.3c0-0.8-0.8-1.5-0.8-2.3s-0.8-1.5-0.8-2.3c0-0.8-0.8-1.5-0.8-2.3s-0.8-1.5-0.8-2.3
		s-0.8-1.5-0.8-2.3s-0.8-1.5-0.8-2.3s-0.8-1.5-0.8-2.3c0-0.8-0.8-1.5-0.8-2.3s-0.8-1.5-0.8-2.3c0-0.8-0.8-1.5-0.8-2.3
		s-0.8-1.5-0.8-2.3c-0.8-1.5-1.5-3.9-2.3-5.4l0,0l0,0l0,0l0,0v0.8v0.8l0,0c-0.8,2.3-2.3,5.4-4.6,10.1c-9.3,18.6-32.5,52.7-98.4,63.5
		l0,0c0-0.8,0-1.5,0-2.3h-0.8l0,0c0-0.8,0-1.5,0-2.3H318l0,0c0-0.8,0-1.5,0-2.3h-0.8l0,0c0-0.8,0-1.5,0-2.3h-0.8l0,0
		c0-0.8,0-1.5,0-2.3h-0.8l0,0c0-0.8,0-1.5,0-2.3c-0.8,0-0.8,0-1.5,0c0-0.8,0-1.5,0-2.3c-0.8,0-0.8,0-1.5,0c0-0.8,0-1.5,0-2.3
		c-0.8,0-0.8,0-1.5,0c0-0.8,0-1.5,0-2.3c-0.8,0-0.8,0-1.5,0c0-0.8,0-1.5,0-2.3c-0.8,0-0.8,0-1.5,0c0-0.8,0-1.5,0-2.3
		c-0.8,0-0.8,0-1.5,0c0-0.8,0-1.5,0-2.3c-0.8,0-0.8,0-1.5,0c0-0.8,0-1.5,0-2.3c-0.8,0-0.8,0-1.5,0c0-0.8,0-1.5,0-2.3
		c-0.8,0-0.8,0-1.5,0c0-0.8,0-1.5,0-2.3c-0.8,0-0.8,0-1.5,0c0-0.8,0-1.5,0-2.3c-0.8,0-0.8,0-1.5,0c0-0.8,0-1.5,0-2.3
		c-0.8,0-0.8,0-1.5,0c0-0.8,0-1.5,0-2.3c-0.8,0-0.8,0-1.5,0c0-0.8,0-1.5,0-2.3c-0.8,0-0.8,0-1.5,0c0-0.8,0-1.5,0-2.3
		c-0.8,0-0.8,0-1.5,0c0-0.8,0-1.5,0-2.3c-0.8,0-0.8,0-1.5,0c0-0.8,0-1.5,0-2.3c-0.8,0-0.8,0-1.5,0c0-0.8,0-1.5,0-2.3
		c-0.8,0-1.5,0-2.3,0h-0.8c-0.8,0-1.5,0-2.3,0.8l0,0c-8.5,3.1-14.7,12.4-17.8,18.6c0-0.8-0.8-0.8-0.8-1.5
		c-7.7-13.9-15.5-17.8-22.5-17.8c3.9,26.3-21.7,34.9-16.3,56.5c-90.6-16.3-106.1-75.9-109.2-75.9l0,0c-0.8,1.5-1.5,3.1-2.3,5.4
		c0,0,0,0.8-0.8,1.5c-10.8,28.7-7.7,75.1,7.7,114.6c0,0.8,0.8,1.5,0.8,2.3s0.8,1.5,0.8,2.3s0.8,1.5,0.8,2.3c0,0.8,0.8,2.3,1.5,3.1
		c0,0.8,0.8,0.8,0.8,1.5c0,0.8,0.8,1.5,0.8,3.1c0,0.8,0.8,1.5,0.8,2.3s0.8,1.5,0.8,2.3s0.8,1.5,0.8,2.3s0.8,1.5,0.8,2.3
		c0,0.8,0.8,1.5,0.8,2.3s0.8,1.5,0.8,2.3s0.8,1.5,0.8,2.3s0.8,1.5,0.8,2.3c0,0.8,0.8,1.5,0.8,2.3s0.8,1.5,0.8,2.3s0.8,2.3,1.5,3.1
		c0,0.8,0.8,1.5,0.8,2.3s0.8,1.5,0.8,1.5c0,0.8,0.8,1.5,0.8,3.1c0,0.8,0.8,1.5,0.8,2.3c0,0.8,0.8,1.5,0.8,2.3s0.8,1.5,0.8,2.3
		s0.8,1.5,0.8,2.3s0.8,1.5,0.8,2.3c0,0.8,0.8,1.5,0.8,2.3s0.8,1.5,0.8,2.3s0.8,1.5,0.8,2.3c0,0.8,0.8,1.5,0.8,2.3s0.8,1.5,1.5,3.1
		c0,0.8,0.8,1.5,0.8,2.3s0.8,1.5,0.8,1.5c0,0.8,0.8,1.5,0.8,3.1c0,0.8,0.8,1.5,0.8,2.3s0.8,1.5,0.8,2.3s0.8,1.5,0.8,2.3
		s0.8,1.5,0.8,2.3s0.8,1.5,0.8,2.3s0.8,1.5,0.8,2.3c0,0.8,0.8,1.5,0.8,2.3s0.8,1.5,0.8,2.3c0.8,0.8,0.8,2.3,1.5,3.1
		c0,0.8,0.8,1.5,0.8,1.5c0,0.8,0.8,1.5,0.8,2.3c0,0.8,0.8,1.5,0.8,2.3c0,0.8,0.8,1.5,0.8,2.3c0,0.8,0.8,1.5,0.8,3.1
		c0,0.8,0.8,1.5,0.8,2.3c0,0.8,0.8,1.5,0.8,2.3c0,0.8,0.8,1.5,0.8,2.3c0,0.8,0.8,1.5,0.8,2.3c0,0.8,0.8,1.5,0.8,2.3
		c0,0.8,0.8,1.5,0.8,2.3c0,0.8,0.8,1.5,0.8,2.3c0,0.8,0.8,1.5,1.5,3.1c0,0.8,0.8,1.5,0.8,2.3c0,0.8,0.8,1.5,0.8,2.3
		c0,0.8,0.8,1.5,0.8,2.3c0,0.8,0.8,1.5,0.8,2.3c0,0.8,0.8,1.5,0.8,1.5c0,0.8,0.8,1.5,0.8,3.1c0,0.8,0.8,1.5,0.8,2.3
		c0,0.8,0.8,1.5,0.8,2.3c0,0.8,0.8,1.5,0.8,2.3c0,0.8,0.8,1.5,0.8,2.3c0,0.8,0.8,1.5,0.8,2.3c0.8,0.8,0.8,2.3,1.5,3.1
		c0,0.8,0.8,1.5,0.8,2.3c0,0.8,0.8,1.5,0.8,2.3c0,0.8,0.8,1.5,0.8,2.3c0,0.8,0.8,1.5,0.8,2.3c0,0.8,0.8,1.5,0.8,2.3
		c0,0.8,0.8,1.5,0.8,2.3c0,0.8,0.8,1.5,0.8,3.1c0,0.8,0.8,1.5,0.8,2.3c0,0.8,0.8,1.5,0.8,2.3c0,0.8,0.8,1.5,0.8,2.3
		c0,0.8,0.8,1.5,0.8,2.3c0,0.8,0.8,1.5,0.8,2.3c0,0.8,0.8,2.3,1.5,3.1c0,0.8,0.8,1.5,0.8,2.3c0,0.8,0.8,1.5,0.8,2.3
		c0,0.8,0.8,1.5,0.8,2.3c0,0.8,0.8,1.5,0.8,2.3c0,0.8,0.8,1.5,0.8,2.3c0,0.8,0.8,1.5,0.8,2.3c0,0.8,0.8,1.5,0.8,1.5
		c0,0.8,0.8,1.5,0.8,3.1c0,0.8,0.8,1.5,0.8,2.3c0,0.8,0.8,1.5,0.8,2.3c0,0.8,0.8,1.5,0.8,2.3c0,0.8,0.8,1.5,0.8,2.3
		c0.8,0.8,0.8,2.3,1.5,3.1c0,0.8,0.8,1.5,0.8,2.3c0,0.8,0.8,1.5,0.8,2.3c0,0.8,0.8,1.5,0.8,2.3c0,0.8,0.8,1.5,0.8,2.3
		c0,0.8,0.8,1.5,0.8,1.5c15.5,3.1,31.8,4.6,48.8,4.6C361.3,503.5,451.2,439.2,489.1,347.8z"/>
	<path id="XMLID_5_" class="st2" d="M405.5,141.7c-2.3-4.6-10.1,62-109.2,75.9c4.6-21.7-20.1-30.2-16.3-56.5
		c-11.6,0-19.4,11.6-23.2,19.4c-3.9-7.7-11.6-19.4-23.2-19.4c3.9,26.3-21.7,34.9-16.3,56.5c-100.7-14.7-108.4-80.6-110.8-75.9
		c-19.4,39.5-7.7,123.9,34.1,166.5c3.9,3.9,10.1,3.9,13.9,0c4.6-4.6,10.8-7.7,17-7.7c9.3,0,19.4,6.2,25.6,15.5
		c3.1,5.4,7.7,16.3,0.8,30.2c-2.3,4.6-0.8,9.3,3.1,12.4c3.9,3.1,9.3,2.3,12.4-0.8c4.6-4.6,9.3-7,13.9-7c10.8,0,24.8,31,28.7,51.1
		c3.9-19.4,17-51.1,28.7-51.1c4.6,0,9.3,2.3,13.9,7c3.1,3.1,8.5,3.9,12.4,0.8c3.9-3.1,5.4-7.7,3.1-12.4c-7-13.2-2.3-24.8,0.8-30.2
		c5.4-9.3,15.5-15.5,25.6-15.5c6.2,0,11.6,2.3,17,7.7c3.9,3.9,10.1,3.9,13.9,0C413.2,265.7,424.9,181.3,405.5,141.7z"/>
	<path id="XMLID_6_" class="st3" d="M245.9,180.5c2.3,3.9,8.5,3.1,10.1,0c-7.7-15.5-15.5-19.4-23.2-19.4c0,1.5,0,2.3,0,3.9
		C239,168.9,242.8,175.8,245.9,180.5z"/>
	<path id="XMLID_7_" class="st3" d="M161.5,300.5c-6.2,0-11.6,2.3-17,7.7c-0.8,0.8-0.8,0.8-1.5,1.5c3.9,2.3,8.5,1.5,12.4-1.5
		c3.9-3.9,7.7-5.4,11.6-7C164.6,300.5,163.1,300.5,161.5,300.5z"/>
	<path id="XMLID_8_" class="st3" d="M269.2,165c-1.5,24,21.7,32.5,17,52.7c3.9-0.8,7-0.8,10.8-1.5c3.1-20.1-20.1-28.7-17-54.2
		C275.4,161.1,272.3,162.7,269.2,165z"/>
	<path id="XMLID_9_" class="st3" d="M215.7,217.7c-93.7-17-106.9-80.6-109.2-75.9c-1.5,3.9-3.1,7.7-4.6,11.6
		C111.2,172,146,212.2,215.7,217.7z"/>
	<path id="XMLID_10_" class="st3" d="M329.6,300.5c-9.3,0-19.4,6.2-25.6,15.5c-3.1,5.4-7.7,16.3-0.8,30.2c2.3,4.6,0.8,9.3-3.1,12.4
		h-0.8c3.1,2.3,7.7,2.3,10.8,0c3.9-3.1,5.4-7.7,3.1-12.4c-7-13.2-2.3-24.8,0.8-30.2c4.6-7.7,12.4-13.2,20.1-14.7
		C333.5,300.5,331.9,300.5,329.6,300.5z"/>
	<path id="XMLID_11_" class="st3" d="M405.5,141.7c-0.8-1.5-1.5,3.9-6.2,11.6c12.4,42.6-0.8,116.2-38.7,154.1
		c-0.8,0.8-0.8,0.8-1.5,1.5c3.9,2.3,8.5,1.5,12.4-1.5C413.2,265.7,424.9,181.3,405.5,141.7z"/>
	<path id="XMLID_12_" class="st3" d="M273.8,350.1c-7.7,0-17,16.3-23.2,32.5c2.3,6.2,3.9,12.4,5.4,17.8c3.1-17,13.9-43.4,24-49.6
		C278.5,350.9,276.1,350.1,273.8,350.1z"/>
	<path id="XMLID_13_" class="st3" d="M217.3,350.1c-4.6,0-9.3,2.3-13.9,7c-0.8,0.8-0.8,0.8-1.5,1.5c3.9,2.3,8.5,1.5,12.4-1.5
		c2.3-2.3,4.6-3.9,7.7-5.4C219.6,350.9,218.8,350.1,217.3,350.1z"/>
	<circle id="XMLID_14_" class="st4" cx="240.5" cy="204.5" r="11.6"/>
	<circle id="XMLID_15_" class="st3" cx="240.5" cy="204.5" r="7.7"/>
	<circle id="XMLID_16_" class="st4" cx="271.5" cy="204.5" r="11.6"/>
	<circle id="XMLID_17_" class="st3" cx="271.5" cy="204.5" r="7.7"/>
	<path id="XMLID_18_" class="st5" d="M245.2,231.6l3.1,8.5l2.3-7.7C249,231.6,246.7,231.6,245.2,231.6z"/>
	<path id="XMLID_19_" class="st5" d="M261.4,231.6l2.3,7.7l3.1-8.5C265.3,231.6,263,231.6,261.4,231.6z"/>
</g>
</svg>
