<?xml version="1.0" encoding="utf-8"?>
<!-- Generator: Adobe Illustrator 24.1.1, SVG Export Plug-In . SVG Version: 6.00 Build 0)  -->
<svg version="1.1" id="Layer_1" xmlns="http://www.w3.org/2000/svg" xmlns:xlink="http://www.w3.org/1999/xlink" x="0px" y="0px"
	 viewBox="0 0 512 512" style="enable-background:new 0 0 512 512;" xml:space="preserve">
<style type="text/css">
	.st0{fill:#C2D5D8;}
	.st1{fill:#B7C9CC;}
	.st2{fill:#242424;}
	.st3{fill:#FFD464;}
	.st4{fill:#F2C95F;}
	.st5{fill:#263740;}
	.st6{fill:#1E2C33;}
	.st7{fill:#FFC066;}
	.st8{fill:#F2B661;}
	.st9{fill:#E6AD5C;}
	.st10{fill:#FFD599;}
</style>
<g id="XMLID_1_">
	<circle id="XMLID_3_" class="st0" cx="256" cy="254.4" r="254.4"/>
	<path id="XMLID_4_" class="st1" d="M455.6,411.8c0-0.8-0.8-1.6-0.8-1.6c0-0.8-0.8-1.6-0.8-2.3c0-0.8-0.8-1.6-0.8-2.3
		c0-0.8-0.8-1.6-0.8-2.3c0-0.8-0.8-1.6-0.8-2.3c0-0.8-0.8-1.6-0.8-2.3c0-0.8-0.8-1.6-0.8-2.3c0-0.8-0.8-1.6-0.8-2.3
		c0-0.8-0.8-1.6-0.8-2.3c0-0.8-0.8-1.6-0.8-2.3c0-0.8-0.8-1.6-0.8-2.3c0-0.8-0.8-1.6-0.8-2.3c0-0.8-0.8-1.6-0.8-2.3
		c0-0.8-0.8-1.6-0.8-2.3c0-0.8-0.8-1.6-0.8-2.3c0-0.8-0.8-1.6-0.8-2.3s-0.8-1.6-0.8-2.3s-0.8-1.6-0.8-2.3c0-0.8-0.8-1.6-0.8-2.3
		c0-0.8-0.8-1.6-0.8-2.3s-0.8-1.6-0.8-2.3s-0.8-1.6-0.8-2.3c0-0.8-0.8-1.6-0.8-2.3s-0.8-1.6-0.8-2.3s-0.8-1.6-0.8-2.3
		c0-0.8-0.8-1.6-0.8-2.3c0-0.8-0.8-1.6-0.8-2.3s-0.8-1.6-0.8-2.3s-0.8-1.6-0.8-2.3c0-0.8-0.8-1.6-0.8-2.3c0-0.8-0.8-1.6-0.8-2.3
		s-0.8-1.6-0.8-2.3c0-0.8-0.8-1.6-0.8-2.3c0-0.8-0.8-1.6-0.8-2.3s-0.8-1.6-0.8-2.3s-0.8-1.6-0.8-2.3c0-0.8-0.8-1.6-0.8-2.3
		c0-0.8-0.8-1.6-0.8-2.3s-0.8-1.6-0.8-2.3c0-0.8-0.8-1.6-0.8-2.3c0-0.8-0.8-1.6-0.8-2.3s-0.8-1.6-0.8-2.3s-0.8-1.6-0.8-2.3
		c0-0.8-0.8-1.6-0.8-2.3c0-0.8-0.8-1.6-0.8-2.3s-0.8-1.6-0.8-2.3c0-0.8-0.8-1.6-0.8-2.3c0-0.8-0.8-1.6-0.8-2.3s-0.8-1.6-0.8-2.3
		s-0.8-1.6-0.8-2.3c0-0.8-0.8-1.6-0.8-2.3c0-0.8-0.8-1.6-0.8-2.3s-0.8-1.6-0.8-2.3c0-0.8-0.8-1.6-0.8-2.3c0-0.8-0.8-1.6-0.8-2.3
		s-0.8-1.6-0.8-2.3s-0.8-1.6-0.8-2.3c0-0.8-0.8-1.6-0.8-2.3c0-0.8-0.8-1.6-0.8-2.3s-0.8-1.6-0.8-2.3s-0.8-1.6-0.8-2.3
		c0-0.8-0.8-1.6-0.8-2.3s-0.8-1.6-0.8-2.3s-0.8-1.6-0.8-2.3c0-0.8-0.8-1.6-0.8-2.3c0-0.8-0.8-1.6-0.8-2.3s-0.8-1.6-0.8-2.3
		c0-0.8-0.8-1.6-0.8-2.3c0-0.8-0.8-1.6-0.8-2.3c0-0.8-0.8-1.6-0.8-2.3c0-0.8-0.8-1.6-0.8-2.3c0-0.8-0.8-1.6-0.8-2.3
		c0-0.8-0.8-1.6-0.8-2.3c0-0.8-0.8-1.6-0.8-2.3c0-0.8-0.8-1.6-0.8-2.3c0-0.8-0.8-1.6-0.8-2.3c0-0.8-0.8-1.6-0.8-2.3
		c0-0.8-0.8-1.6-0.8-2.3c0-0.8-0.8-1.6-0.8-2.3c0-0.8-0.8-1.6-0.8-2.3c0-0.8-0.8-1.6-0.8-2.3c0-0.8-0.8-1.6-0.8-2.3
		c0-0.8-0.8-1.6-0.8-2.3c0-0.8-0.8-1.6-0.8-2.3c0-0.8-0.8-1.6-0.8-2.3c0-0.8-0.8-1.6-0.8-2.3c0-0.8-0.8-1.6-0.8-2.3
		c0-0.8-0.8-1.6-0.8-2.3c0-0.8-0.8-1.6-0.8-2.3s-0.8-1.6-0.8-2.3c0-0.8-0.8-1.6-0.8-2.3c0-0.8-0.8-1.6-0.8-2.3
		c0-0.8-0.8-1.6-0.8-2.3c0-0.8-0.8-1.6-0.8-2.3c0-0.8-0.8-1.6-0.8-2.3c0-0.8-0.8-1.6-0.8-2.3s-0.8-1.6-0.8-2.3
		c0-0.8-0.8-1.6-0.8-2.3c0-0.8-0.8-1.6-0.8-2.3c0-0.8-0.8-1.6-0.8-2.3c0-0.8-0.8-1.6-0.8-2.3c0-0.8-0.8-1.6-0.8-2.3
		c0-0.8-0.8-1.6-0.8-2.3s-0.8-1.6-0.8-2.3c0-0.8-0.8-1.6-0.8-2.3c0-0.8-0.8-1.6-0.8-2.3c0-0.8-0.8-1.6-0.8-2.3
		c0-0.8-0.8-1.6-0.8-2.3c0-0.8-0.8-1.6-0.8-2.3c0-0.8-0.8-1.6-0.8-2.3s-0.8-1.6-0.8-2.3c0-0.8-0.8-1.6-0.8-2.3
		c0-0.8-0.8-1.6-0.8-2.3c0-0.8-0.8-1.6-0.8-2.3c0-0.8-0.8-1.6-0.8-2.3c0-0.8-0.8-1.6-0.8-2.3c0-0.8-0.8-1.6-0.8-2.3
		c0-0.8-0.8-1.6-0.8-2.3c0-0.8-0.8-1.6-0.8-2.3c0-0.8-0.8-1.6-0.8-2.3c0-0.8-0.8-1.6-0.8-2.3c0-0.8-0.8-1.6-0.8-2.3
		c0-0.8-0.8-1.6-0.8-2.3c0-0.8-0.8-1.6-0.8-2.3c0-0.8-0.8-1.6-0.8-2.3c0-0.8-0.8-1.6-0.8-2.3c0-0.8-0.8-1.6-0.8-2.3
		c-0.8-3.9-4.7-7-9.4-7c-18.8,0-31.3,13.3-35.2,35.2c-7.8-4.7-17.2-7.8-29.7-7.8c-11.7,0-21.1,2.3-29,7l0,0c0-0.8-0.8-1.6-0.8-2.3
		s-0.8-1.6-0.8-2.3c0-0.8-0.8-1.6-0.8-2.3c0-0.8-0.8-1.6-0.8-2.3c-6.3-15.7-17.2-25.1-32.1-25.1c-5.5,0-9.4,3.9-9.4,9.4
		c0,1.6,0.8,3.1,1.6,4.7c0,0.8,0.8,1.6,0.8,2.3c0,0.8,0.8,1.6,0.8,2.3c0,0.8,0.8,1.6,0.8,2.3s0.8,1.6,0.8,2.3c0,0.8,0.8,1.6,0.8,2.3
		c0,0.8,0.8,1.6,0.8,2.3c0,0.8,0.8,1.6,0.8,2.3c0,0.8,0.8,1.6,0.8,2.3c0,0.8,0.8,1.6,0.8,2.3c0,0.8,0.8,1.6,0.8,2.3
		c0,0.8,0.8,1.6,0.8,2.3c0,0.8,0.8,1.6,0.8,2.3c0,0.8,0.8,1.6,0.8,2.3c0,0.8,0.8,1.6,0.8,2.3c0,0.8,0.8,1.6,0.8,2.3
		c0,0.8,0.8,1.6,0.8,2.3c0,0.8,0.8,1.6,0.8,2.3c0,0.8,0.8,1.6,0.8,2.3c0,0.8,0.8,1.6,0.8,2.3c0,0.8,0.8,1.6,0.8,2.3
		c0,0.8,0.8,1.6,0.8,2.3c0,0.8,0.8,1.6,0.8,1.6c-3.9,14.1-3.9,27.4-3.9,35.2c-32.1,30.5-56.4,80.6-56.4,112c0,8.6,1.6,15.7,3.9,21.1
		c0,0.8,0.8,1.6,0.8,2.3c0,0.8,0.8,1.6,0.8,2.3s0.8,1.6,0.8,2.3s0.8,1.6,0.8,2.3c0,0.8,0.8,1.6,0.8,2.3s0.8,1.6,0.8,2.3
		s0.8,1.6,0.8,2.3c0,0.8,0.8,1.6,0.8,2.3c0,0.8,0.8,1.6,0.8,2.3s0.8,1.6,0.8,2.3s0.8,1.6,0.8,2.3c0,0.8,0.8,1.6,0.8,2.3
		s0.8,1.6,0.8,2.3s0.8,1.6,0.8,2.3c0,0.8,0.8,1.6,0.8,2.3c0,0.8,0.8,1.6,0.8,2.3s0.8,1.6,0.8,2.3s0.8,1.6,0.8,2.3
		c0,0.8,0.8,1.6,0.8,2.3c0,0.8,0.8,1.6,0.8,2.3c0,0.8,0.8,1.6,0.8,2.3c0,0.8,0.8,1.6,0.8,2.3c0,0.8,0.8,1.6,0.8,2.3
		c0,0.8,0.8,1.6,0.8,2.3c0,0.8,0.8,1.6,0.8,2.3c0,0.8,0.8,1.6,0.8,2.3c0,0.8,0.8,1.6,0.8,2.3c0,0.8,0.8,1.6,0.8,2.3
		c0,0.8,0.8,1.6,0.8,2.3c0,0.8,0.8,1.6,0.8,2.3c0,0.8,0.8,1.6,0.8,2.3c0,0.8,0.8,1.6,0.8,2.3c0,0.8,0.8,1.6,0.8,2.3
		c0,0.8,0.8,1.6,0.8,2.3c0,0.8,0.8,1.6,0.8,2.3c0,0.8,0.8,1.6,0.8,2.3c0,0.8,0.8,1.6,0.8,2.3c0,0.8,0.8,1.6,0.8,2.3
		c0,0.8,0.8,1.6,0.8,2.3c0,0.8,0.8,1.6,0.8,2.3c0,0.8,0.8,1.6,0.8,2.3c0,0.8,0.8,1.6,0.8,2.3c0,0.8,0.8,1.6,0.8,2.3
		c0,0.8,0.8,1.6,0.8,2.3c0,0.8,0.8,1.6,0.8,2.3c0,0.8,0.8,1.6,0.8,2.3c0,0.8,0.8,1.6,0.8,2.3c0,0.8,0.8,1.6,0.8,2.3
		c0,0.8,0.8,1.6,0.8,2.3c0,0.8,0.8,1.6,0.8,2.3c0,0.8,0.8,1.6,0.8,2.3c0,0.8,0.8,1.6,0.8,2.3c0,0.8,0.8,1.6,0.8,2.3
		c0,0.8,0.8,1.6,0.8,2.3c0,0.8,0.8,1.6,0.8,2.3c0,0.8,0.8,1.6,0.8,2.3c0,0.8,0.8,1.6,0.8,2.3c0,0.8,0.8,1.6,0.8,2.3
		c0,0.8,0.8,1.6,0.8,2.3c0,0.8,0.8,1.6,0.8,2.3c0,0.8,0.8,1.6,0.8,2.3c0,0.8,0.8,1.6,0.8,2.3c0,0.8,0.8,1.6,0.8,2.3
		c0,0.8,0.8,1.6,0.8,2.3c0,0.8,0.8,1.6,0.8,2.3c0,0.8,0.8,1.6,0.8,2.3c0,0.8,0.8,1.6,0.8,2.3c0,0.8,0.8,1.6,0.8,2.3
		c0,0.8,0.8,1.6,0.8,2.3c0,0.8,0.8,1.6,0.8,2.3c0,0.8,0.8,1.6,0.8,2.3c0,0.8,0,0.8,0.8,1.6c12.5,1.6,25.1,3.1,37.6,3.1
		C336.6,508.9,408.7,471.3,455.6,411.8z"/>
	<path id="XMLID_5_" class="st2" d="M293.6,161.3c-5.5,0-9.4-3.9-9.4-9.4c0-35.2,14.1-56.4,37.6-56.4c5.5,0,9.4,3.9,9.4,9.4
		c0,5.5-3.9,9.4-9.4,9.4c-17.2,0-18.8,25.8-18.8,37.6C303,156.6,298.3,161.3,293.6,161.3z"/>
	<path id="XMLID_6_" class="st2" d="M218.4,161.3c-5.5,0-9.4-3.9-9.4-9.4c0-11-1.6-37.6-18.8-37.6c-5.5,0-9.4-3.9-9.4-9.4
		c0-5.5,3.9-9.4,9.4-9.4c23.5,0,37.6,21.1,37.6,56.4C227.8,156.6,223.9,161.3,218.4,161.3z"/>
	<path id="XMLID_7_" class="st3" d="M256,413.4c-32.9,0-65.8-32.1-65.8-65.8L256,207.5l65.8,140.1
		C321.8,381.3,288.9,413.4,256,413.4z"/>
	<path id="XMLID_8_" class="st4" d="M256,207.5l-8.6,18.8l56.4,121.3c0,29.7-26.6,59.5-56.4,65c3.1,0.8,6.3,0.8,8.6,0.8
		c32.9,0,65.8-32.1,65.8-65.8L256,207.5z"/>
	<polygon id="XMLID_9_" class="st2" points="212.2,301.4 299.8,301.4 291.2,282.6 220.8,282.6 	"/>
	<polygon id="XMLID_10_" class="st2" points="199.6,329.6 312.4,329.6 303.8,310.8 208.2,310.8 	"/>
	<path id="XMLID_11_" class="st2" d="M190.2,347.6c0,3.1,0,6.3,0.8,9.4h129.2c0.8-3.1,0.8-6.3,0.8-9.4l-4.7-9.4H194.9L190.2,347.6z"
		/>
	<path id="XMLID_12_" class="st2" d="M204.3,385.2h103.3c4.7-5.5,7.8-11.7,10.2-18.8H194.2C196.5,373.4,199.6,379.7,204.3,385.2z"/>
	<path id="XMLID_13_" class="st5" d="M303,207.5c-5.5,0-88.5,0-93.2,0c-5.5,0-9.4-3.9-9.4-9.4c0-18.8,0-75.2,56.4-75.2
		s56.4,56.4,56.4,75.2C312.4,203.5,307.7,207.5,303,207.5z"/>
	<path id="XMLID_14_" class="st6" d="M256,123.7c-2.3,0-4.7,0-7,0c47,6.3,47,57.1,47,74.4c0,5.5-3.9,9.4-9.4,9.4c-3.9,0-54,0-79.1,0
		c0.8,0,1.6,0,2.3,0c5.5,0,88.5,0,93.2,0c5.5,0,9.4-3.9,9.4-9.4C312.4,180.1,312.4,123.7,256,123.7z"/>
	<path id="XMLID_15_" class="st7" d="M256,169.9c-54.8,0-112,91.6-112,140.1c0,34.4,25.8,47.8,48.5,47.8c36,0,53.2-44.6,63.4-91.6
		c10.2,46.2,27.4,91.6,63.4,91.6c22.7,0,48.5-13.3,48.5-47.8C368,261.5,310.8,169.9,256,169.9z"/>
	<path id="XMLID_16_" class="st8" d="M256,169.9v96.3c10.2,46.2,27.4,91.6,63.4,91.6c22.7,0,48.5-13.3,48.5-47.8
		C368,261.5,310.8,169.9,256,169.9z"/>
	<path id="XMLID_17_" class="st9" d="M368,310c0-49.3-57.9-140.1-112-140.1c-3.1,0-5.5,0-8.6,0.8c51.7,8.6,104.1,93.2,104.1,139.4
		c0,27.4-21.1,42.3-39.9,46.2c2.3,0.8,5.5,0.8,7.8,0.8C342.1,357.8,368,344.5,368,310z"/>
	<path id="XMLID_18_" class="st2" d="M212.9,394.6c11.7,11,27.4,18.8,43.1,18.8s31.3-7,43.1-18.8H212.9z"/>
	<path id="XMLID_19_" class="st9" d="M180.8,357c3.9,0.8,7.8,1.6,11.7,1.6c36,0,53.2-44.6,63.4-91.6
		C244.3,292.8,211.4,346.8,180.8,357z"/>
	<path id="XMLID_20_" class="st10" d="M159.7,313.9c-2.3,0-3.9-1.6-3.9-3.9c0-30.5,24.3-77.5,54-105.7c1.6-1.6,3.9-1.6,5.5,0
		s1.6,3.9,0,5.5c-28.2,26.6-51.7,72-51.7,100.2C163.6,312.4,162.1,313.9,159.7,313.9z"/>
</g>
</svg>
