<?xml version="1.0" encoding="utf-8"?>
<!-- Generator: Adobe Illustrator 24.1.1, SVG Export Plug-In . SVG Version: 6.00 Build 0)  -->
<svg version="1.1" id="Layer_1" xmlns="http://www.w3.org/2000/svg" xmlns:xlink="http://www.w3.org/1999/xlink" x="0px" y="0px"
	 viewBox="0 0 512 512" style="enable-background:new 0 0 512 512;" xml:space="preserve">
<style type="text/css">
	.st0{fill:#B2E3FF;}
	.st1{fill:#A9D8F2;}
	.st2{fill:#E2854C;}
	.st3{fill:#356178;}
	.st4{fill:#2D5266;}
	.st5{fill:#4681A0;}
	.st6{fill:#3D718C;}
	.st7{fill:#90B3C6;}
	.st8{fill:#86A6B8;}
	.st9{fill:#F5F5F5;}
	.st10{fill:#242424;}
	.st11{fill:#E78244;}
	.st12{fill:#D97A40;}
</style>
<g id="XMLID_1_">
	<circle id="XMLID_3_" class="st0" cx="256" cy="255.2" r="255.2"/>
	<path id="XMLID_4_" class="st1" d="M494.7,346.3l-0.8-0.8C493.9,345.5,494.7,345.5,494.7,346.3l0.8-1.6c-0.8-0.8-1.6-0.8-2.4-1.6
		c0.8,0,1.6,0,2.4,0c-0.8-0.8-1.6-1.6-3.1-2.4c0.8,0,1.6,0,2.4,0c-0.8-0.8-1.6-1.6-3.1-2.4c0.8,0,1.6,0,2.4,0
		c-0.8-0.8-1.6-1.6-3.1-2.4c0.8,0,1.6,0,2.4,0c-0.8-0.8-1.6-1.6-3.1-2.4c0.8,0,1.6,0,2.4,0c-0.8-0.8-1.6-1.6-3.1-2.4
		c0.8,0,1.6,0,2.4,0c-0.8-0.8-1.6-1.6-3.1-2.4c0.8,0,1.6,0,2.4,0c-0.8-0.8-1.6-1.6-3.1-2.4c0.8,0,1.6,0,2.4,0
		c-0.8-0.8-1.6-1.6-3.1-2.4c0.8,0,1.6,0,2.4,0c-0.8-0.8-1.6-1.6-3.1-2.4c0.8,0,1.6,0,2.4,0c-0.8-0.8-1.6-1.6-3.1-2.4
		c0.8,0,1.6,0,2.4,0c-0.8-0.8-1.6-1.6-3.1-2.4c0.8,0,1.6,0,2.4,0c-0.8-0.8-1.6-1.6-3.1-2.4c0.8,0,1.6,0,2.4,0
		c-0.8-0.8-1.6-1.6-3.1-2.4c0.8,0,1.6,0,2.4,0c-0.8-0.8-1.6-1.6-3.1-2.4c0.8,0,1.6,0,2.4,0c-0.8-0.8-1.6-1.6-3.1-2.4
		c0.8,0,1.6,0,2.4,0c-0.8-0.8-1.6-1.6-3.1-2.4c0.8,0,1.6,0,2.4,0c-0.8-0.8-1.6-1.6-3.1-2.4c0.8,0,1.6,0,2.4,0
		c-0.8-0.8-1.6-1.6-3.1-2.4c0.8,0,1.6,0,2.4,0c-0.8-0.8-1.6-1.6-3.1-2.4c0.8,0,1.6,0,2.4,0c-0.8-0.8-1.6-1.6-3.1-2.4
		c0.8,0,1.6,0,2.4,0c-0.8-0.8-1.6-1.6-3.1-2.4c0.8,0,1.6,0,2.4,0c-0.8-0.8-1.6-1.6-3.1-2.4c0.8,0,1.6,0,2.4,0
		c-0.8-0.8-1.6-1.6-3.1-2.4c0.8,0,1.6,0,2.4,0c-0.8-0.8-1.6-1.6-3.1-2.4c0.8,0,1.6,0,2.4,0c-0.8-0.8-1.6-1.6-3.1-2.4
		c0.8,0,1.6,0,2.4,0c-0.8-0.8-1.6-1.6-3.1-2.4c0.8,0,1.6,0,2.4,0c-0.8-0.8-1.6-1.6-3.1-2.4c0.8,0,1.6,0,2.4,0
		c-0.8-0.8-1.6-1.6-3.1-2.4c0.8,0,1.6,0,2.4,0c-0.8-0.8-1.6-1.6-3.1-2.4c0.8,0,1.6,0,2.4,0c-0.8-0.8-1.6-1.6-3.1-2.4
		c0.8,0,1.6,0,2.4,0c-0.8-0.8-1.6-1.6-3.1-2.4c0.8,0,1.6,0,2.4,0c-0.8-0.8-1.6-1.6-3.1-2.4c0.8,0,1.6,0,2.4,0
		c-0.8-0.8-1.6-1.6-3.1-2.4c0.8,0,1.6,0,2.4,0c-0.8-0.8-1.6-1.6-3.1-2.4c0.8,0,1.6,0,2.4,0c-0.8-0.8-1.6-1.6-3.1-2.4
		c0.8,0,1.6,0,2.4,0c-0.8-0.8-1.6-1.6-3.1-2.4c0.8,0,1.6,0,2.4,0c-0.8-0.8-1.6-1.6-3.1-2.4c0.8,0,1.6,0,2.4,0
		c-0.8-0.8-1.6-1.6-3.1-2.4c0.8,0,1.6,0,2.4,0c-0.8-0.8-1.6-1.6-3.1-2.4c0.8,0,1.6,0,2.4,0c-0.8-0.8-1.6-1.6-3.1-2.4
		c0.8,0,1.6,0,2.4,0c-0.8-0.8-1.6-1.6-3.1-2.4c0.8,0,1.6,0,2.4,0c-0.8-0.8-1.6-1.6-3.1-2.4c0.8,0,1.6,0,2.4,0
		c-0.8-0.8-1.6-1.6-3.1-2.4c0.8,0,1.6,0,2.4,0c-0.8-0.8-1.6-1.6-3.1-2.4c0.8,0,1.6,0,2.4,0c-0.8-0.8-1.6-1.6-3.1-2.4
		c0.8,0,1.6,0,2.4,0c-0.8-0.8-1.6-1.6-3.1-2.4c0.8,0,1.6,0,2.4,0c-0.8-0.8-1.6-1.6-3.1-2.4c0.8,0,1.6,0,2.4,0
		c-0.8-0.8-1.6-1.6-3.1-2.4c0.8,0,1.6,0,2.4,0c-0.8-0.8-1.6-1.6-3.1-2.4c0.8,0,1.6,0,2.4,0c-0.8-0.8-1.6-1.6-3.1-2.4
		c0.8,0,1.6,0,2.4,0c-0.8-0.8-1.6-1.6-3.1-2.4c0.8,0,1.6,0,2.4,0c-0.8-0.8-1.6-1.6-3.1-2.4c0.8,0,1.6,0,2.4,0
		c-0.8-0.8-1.6-1.6-3.1-2.4c0.8,0,1.6,0,2.4,0c-0.8-0.8-1.6-1.6-3.1-2.4c0.8,0,1.6,0,2.4,0c-0.8-0.8-1.6-1.6-3.1-2.4
		c0.8,0,1.6,0,2.4,0c-0.8-0.8-1.6-1.6-3.1-2.4c0.8,0,1.6,0,2.4,0c-0.8-0.8-1.6-1.6-3.1-2.4c0.8,0,1.6,0,2.4,0
		c-0.8-0.8-1.6-1.6-3.1-2.4c0.8,0,1.6,0,2.4,0c-0.8-0.8-1.6-1.6-3.1-2.4c0.8,0,1.6,0,2.4,0c-0.8-0.8-1.6-1.6-3.1-2.4
		c0.8,0,1.6,0,2.4,0c-0.8-0.8-1.6-1.6-3.1-2.4c0.8,0,1.6,0,2.4,0c-0.8-0.8-1.6-1.6-3.1-2.4c0.8,0,1.6,0,2.4,0
		c-0.8-0.8-1.6-1.6-3.1-2.4c0.8,0,1.6,0,2.4,0c-0.8-0.8-1.6-1.6-3.1-2.4c0.8,0,1.6,0,2.4,0c-0.8-0.8-1.6-1.6-3.1-2.4
		c0.8,0,1.6,0,2.4,0c-0.8-0.8-1.6-1.6-3.1-2.4c0.8,0,1.6,0,2.4,0c-0.8-0.8-1.6-1.6-3.1-2.4c0.8,0,1.6,0,2.4,0
		c-0.8-0.8-1.6-1.6-3.1-2.4c0.8,0,1.6,0,2.4,0c-0.8-0.8-1.6-1.6-3.1-2.4c0.8,0,1.6,0,2.4,0c-0.8-0.8-1.6-1.6-3.1-2.4
		c0.8,0,1.6,0,2.4,0c-0.8-0.8-1.6-1.6-3.1-2.4c0.8,0,1.6,0,2.4,0c-0.8-0.8-1.6-1.6-3.1-2.4c0.8,0,1.6,0,2.4,0
		c-0.8-0.8-1.6-1.6-3.1-2.4c0.8,0,1.6,0,2.4,0c-0.8-0.8-1.6-1.6-3.1-2.4c0.8,0,1.6,0,2.4,0c-0.8-0.8-1.6-1.6-3.1-2.4
		c0.8,0,1.6,0,2.4,0c-0.8-0.8-1.6-1.6-3.1-2.4c0.8,0,1.6,0,2.4,0c-0.8-0.8-1.6-1.6-3.1-2.4c0.8,0,1.6,0,2.4,0
		c-0.8-0.8-1.6-1.6-3.1-2.4c0.8,0,1.6,0,2.4,0c-0.8-0.8-1.6-1.6-3.1-2.4c0.8,0,1.6,0,2.4,0c-0.8-0.8-1.6-1.6-3.1-2.4
		c0.8,0,1.6,0,2.4,0c-0.8-0.8-1.6-1.6-3.1-2.4c0.8,0,1.6,0,2.4,0c-0.8-0.8-1.6-1.6-3.1-2.4c0.8,0,1.6,0,2.4,0
		c-0.8-0.8-1.6-1.6-3.1-2.4c0.8,0,1.6,0,2.4,0c-0.8-0.8-1.6-1.6-3.1-2.4c0.8,0,1.6,0,2.4,0c-0.8-0.8-1.6-1.6-3.1-2.4
		c0.8,0,1.6,0,2.4,0c-0.8-0.8-1.6-1.6-3.1-2.4c0.8,0,1.6,0,2.4,0c-0.8-0.8-1.6-1.6-3.1-2.4c0.8,0,1.6,0,2.4,0
		c-0.8-0.8-1.6-1.6-3.1-2.4c0.8,0,1.6,0,1.6,0c-1.6-0.8-2.4-1.6-3.9-3.1c-0.8-0.8-1.6-0.8-2.4-1.6c-0.8-0.8-0.8-0.8-1.6-1.6
		c-0.8-0.8-2.4-1.6-3.1-2.4l-0.8-0.8c-1.6-0.8-2.4-1.6-3.9-2.4l0,0c-1.6-0.8-3.1-1.6-4.7-2.4l0,0c-4.7-2.4-9.4-4.7-14.1-7.1l0,0
		c-14.1-6.3-29.8-11-44.8-11c-54.2,0-78.5,53.4-100.5,105.2c-24.3,57.3-50.3,116.2-115.4,116.2c-4.7,0-8.6,3.1-9.4,7.9
		c-0.8,2.4,0,4.7,0.8,7.1c0,0.8,0.8,1.6,0.8,2.4c0,0.8,0.8,1.6,0.8,2.4c0,0.8,0.8,1.6,0.8,2.4c0,0.8,0.8,1.6,0.8,2.4
		c0,0.8,0.8,1.6,0.8,2.4s0.8,1.6,0.8,2.4c0,0.8,0.8,1.6,0.8,2.4c0,0.8,0.8,1.6,0.8,2.4c0,0.8,0.8,1.6,0.8,2.4c0,0.8,0.8,1.6,0.8,2.4
		c0,0.8,0.8,1.6,0.8,2.4c0,0.8,0.8,1.6,0.8,2.4c0,0.8,0.8,1.6,0.8,2.4c0,0.8,0.8,1.6,0.8,2.4c0,0.8,0.8,1.6,0.8,2.4
		c0,0.8,0.8,1.6,0.8,2.4c0,0.8,0.8,1.6,0.8,2.4c0,0.8,0.8,1.6,0.8,2.4c0,0.8,0.8,1.6,0.8,2.4c0,0.8,0.8,1.6,0.8,2.4
		c0,0.8,0.8,1.6,0.8,2.4c0,0.8,0.8,1.6,0.8,2.4c0,0.8,0.8,1.6,0.8,2.4c0,0.8,0.8,1.6,0.8,2.4c0,0.8,0.8,1.6,0.8,2.4
		c0,0.8,0.8,1.6,0.8,2.4c0,0.8,0.8,1.6,0.8,2.4c0,0.8,0.8,1.6,0.8,2.4c0,0.8,0.8,1.6,0.8,2.4c0,0.8,0.8,1.6,0.8,2.4
		c0,0.8,0.8,1.6,0.8,2.4c0,0.8,0.8,1.6,0.8,2.4c0,0.8,0.8,1.6,0.8,2.4c0,0.8,0.8,1.6,0.8,2.4c0,0.8,0.8,1.6,0.8,2.4
		c0,0.8,0.8,1.6,0.8,2.4c0,0.8,0.8,1.6,0.8,2.4c0,0.8,0.8,1.6,0.8,2.4c0,0.8,0.8,1.6,0.8,2.4c0,0.8,0.8,1.6,0.8,2.4
		c0,0.8,0.8,1.6,0.8,2.4c0,0.8,0.8,1.6,0.8,2.4c0,0.8,0.8,1.6,0.8,2.4c0,0.8,0.8,1.6,0.8,2.4c0,0.8,0.8,1.6,0.8,2.4
		c0,0.8,0.8,1.6,0.8,2.4c0,0.8,0.8,1.6,0.8,2.4c0,0.8,0.8,1.6,0.8,2.4c0,0.8,0.8,1.6,0.8,2.4c0,0.8,0.8,1.6,0.8,2.4
		c0,0.8,0.8,1.6,0.8,2.4c0,0.8,0.8,1.6,0.8,2.4c0,0.8,0.8,1.6,0.8,2.4c0,0.8,0.8,1.6,0.8,2.4c0,0.8,0.8,1.6,0.8,2.4
		c0,0.8,0.8,1.6,0.8,2.4c0,0.8,0.8,1.6,0.8,2.4c0,0.8,0.8,1.6,0.8,2.4c0,0.8,0.8,1.6,0.8,2.4c0,0.8,0.8,1.6,0.8,2.4
		c0,0.8,0.8,1.6,0.8,2.4c0,0.8,0.8,1.6,0.8,2.4c0,0.8,0.8,1.6,0.8,2.4c0,0.8,0.8,1.6,0.8,2.4c0,0.8,0.8,1.6,0.8,2.4
		c0,0.8,0.8,1.6,0.8,2.4c0,0.8,0.8,1.6,0.8,1.6c26.7,10.2,56.5,14.9,86.4,14.9C365.2,510.4,457.8,442.1,494.7,346.3z"/>
	<path id="XMLID_5_" class="st2" d="M216,402.8v-36.9c0-5.5-2.4-9.4-7.9-9.4s-7.9,4.7-7.9,9.4v36.9H216z"/>
	<path id="XMLID_6_" class="st2" d="M248.1,402.8v-36.9c0-5.5-2.4-9.4-7.9-9.4s-7.9,4.7-7.9,9.4v36.9H248.1z"/>
	<path id="XMLID_7_" class="st3" d="M245.8,372.2L245.8,372.2c-39.3,0-87.2-12.6-138.2-36.1c-3.9-1.6-6.3-6.3-5.5-11
		c0.8-4.7,4.7-7.9,9.4-7.9c66,0,91.1-58.9,115.4-116.2c22-51.8,46.3-105.2,100.5-105.2c28.3,0,59.7,15.7,80.1,32.2
		c-3.9,0-16.5,3.1-20.4,4.7c-18.8,4.7-20.4,37.7-22.8,76.2c-2.4,41.6-5.5,88-29.8,124.9C317.3,358.1,286.6,372.2,245.8,372.2z"/>
	<path id="XMLID_8_" class="st4" d="M387.1,131.9h0.8c-77.7-1.6-31.4,291.3-285.1,199.5c0.8,2.4,2.4,3.9,4.7,4.7
		c51,23.6,98.9,36.1,138.2,36.1c40.8,0,70.7-13.3,88-39.3c24.3-36.1,27.5-83.2,29.8-124.9C365.9,169.6,368.3,136.6,387.1,131.9z"/>
	<path id="XMLID_9_" class="st5" d="M362,203.4c-0.8-0.8-2.4-1.6-3.9-2.4c-7.9-2.4-16.5-3.9-25.1-3.9c-40,0-77,29.1-89.5,71.5
		c-9.4,33-3.9,66.7,15.7,93.4c0.8,0.8,0.8,1.6,1.6,1.6l7.9,6.3c29.1-3.9,51.8-17.3,65.2-37.7c24.3-36.1,27.5-83.2,29.8-124.9
		c0-0.8,0-1.6,0-2.4L362,203.4z"/>
	<path id="XMLID_10_" class="st6" d="M362,203.4c-0.8-0.8-2.4-1.6-3.9-2.4c-6.3-2.4-13.3-3.1-20.4-3.9
		C319.6,246.6,300,311,245.8,336.9c3.1,8.6,7.9,17.3,13.3,25.1c0.8,0.8,0.8,1.6,1.6,1.6l7.9,6.3c22-3.1,40-11,53.4-23.6l0,0
		c2.4-1.6,3.9-3.9,5.5-6.3l0.8-0.8c1.6-2.4,3.1-4.7,4.7-6.3c24.3-36.1,27.5-83.2,29.8-124.9c0-0.8,0-1.6,0-2.4L362,203.4z"/>
	<path id="XMLID_11_" class="st7" d="M254.4,281.9c12.6-41.6,49.5-71.5,89.5-71.5c6.3,0,13.3,0.8,19.6,2.4c0-1.6,0-3.1,0-4.7
		c0-0.8,0-1.6,0-2.4l-1.6-1.6c-0.8-0.8-2.4-1.6-3.9-2.4c-7.9-2.4-16.5-3.9-25.1-3.9c-40,0-77,29.1-89.5,71.5
		c-9.4,33-3.9,66.7,15.7,93.4c0.8,0.8,0.8,1.6,1.6,1.6l3.1,3.1C249.7,341.6,245.8,311,254.4,281.9z"/>
	<path id="XMLID_12_" class="st8" d="M259.9,362c0.8,0.8,0.8,1.6,1.6,1.6l3.1,3.1c-6.3-10.2-10.2-21.2-12.6-32.2
		c-1.6,0.8-3.9,2.4-6.3,3.1C249.7,346.3,253.6,354.2,259.9,362z"/>
	<path id="XMLID_13_" class="st8" d="M362,203.4c-0.8-0.8-2.4-1.6-3.9-2.4c-6.3-2.4-13.3-3.1-20.4-3.9c-1.6,4.7-3.1,9.4-4.7,14.1
		c3.9-0.8,7.1-0.8,11-0.8c6.3,0,13.3,0.8,19.6,2.4c0-1.6,0-3.1,0-4.7c0-0.8,0-1.6,0-2.4L362,203.4z"/>
	<circle id="XMLID_14_" class="st9" cx="325.9" cy="142.1" r="19.6"/>
	<circle id="XMLID_15_" class="st10" cx="325.9" cy="142.1" r="9.4"/>
	<path id="XMLID_16_" class="st11" d="M367.5,128c0,7.1,1.6,14.1,4.7,20.4c3.1-8.6,7.9-14.1,14.9-15.7c3.9-0.8,16.5-4.7,20.4-4.7
		c-9.4-7.9-22-14.9-34.6-21.2C369.1,113.1,367.5,120.1,367.5,128z"/>
	<path id="XMLID_17_" class="st12" d="M369.1,138.2c0.8,3.1,1.6,6.3,3.1,9.4l0,0c0.8-0.8,0.8-2.4,1.6-3.1c0-0.8,0.8-0.8,0.8-1.6
		c0-0.8,0.8-1.6,0.8-1.6c0-0.8,0.8-0.8,0.8-1.6c0.8-0.8,0.8-1.6,1.6-1.6l0.8-0.8c0.8-0.8,1.6-1.6,2.4-2.4l0.8-0.8
		c0.8-0.8,1.6-0.8,1.6-1.6l0.8-0.8c0.8-0.8,1.6-0.8,3.1-0.8h0.8C380.1,131.9,374.6,134.3,369.1,138.2z"/>
</g>
</svg>
