<?xml version="1.0" encoding="utf-8"?>
<!-- Generator: Adobe Illustrator 24.1.1, SVG Export Plug-In . SVG Version: 6.00 Build 0)  -->
<svg version="1.1" id="Layer_1" xmlns="http://www.w3.org/2000/svg" xmlns:xlink="http://www.w3.org/1999/xlink" x="0px" y="0px"
	 viewBox="0 0 512 512" style="enable-background:new 0 0 512 512;" xml:space="preserve">
<style type="text/css">
	.st0{fill:#4AB8A1;}
	.st1{fill:#43A691;}
	.st2{fill:#F2C179;}
	.st3{fill:#E6B773;}
	.st4{fill:#F2CB91;}
	.st5{fill:#F5F5F5;}
	.st6{fill:#242424;}
	.st7{fill:#CC803D;}
	.st8{fill:#E6C18A;}
</style>
<g id="XMLID_1_">
	<circle id="XMLID_3_" class="st0" cx="256" cy="256" r="256"/>
	<path id="XMLID_4_" class="st1" d="M506.5,308.8L506.5,308.8c0-0.8-0.8-1.6-0.8-2.4s-0.8-1.6-0.8-2.4c0-0.8-0.8-1.6-0.8-2.4
		c0-0.8-0.8-1.6-0.8-2.4c0-0.8-0.8-1.6-0.8-2.4c0-0.8-0.8-1.6-0.8-2.4c0-0.8-0.8-1.6-0.8-2.4c0-0.8-0.8-1.6-0.8-2.4
		s-0.8-1.6-0.8-2.4s-0.8-1.6-0.8-2.4s-0.8-1.6-0.8-2.4s-0.8-1.6-0.8-2.4c0-0.8-0.8-1.6-0.8-2.4c0-0.8-0.8-1.6-0.8-2.4
		c0-0.8-0.8-1.6-0.8-2.4c0-0.8-0.8-1.6-0.8-2.4c0-0.8-0.8-1.6-0.8-2.4s-0.8-1.6-0.8-2.4s-0.8-1.6-0.8-2.4s-0.8-1.6-0.8-2.4
		s-0.8-1.6-0.8-2.4c0-0.8-0.8-1.6-0.8-2.4c0-0.8-0.8-1.6-0.8-2.4s-0.8-1.6-0.8-2.4c0-0.8-0.8-1.6-0.8-2.4c0-0.8-0.8-1.6-0.8-2.4
		c0-0.8-0.8-1.6-0.8-2.4c0-0.8-0.8-1.6-0.8-2.4s-0.8-1.6-0.8-2.4c0-0.8-0.8-1.6-0.8-2.4c0-0.8-0.8-1.6-0.8-2.4
		c0-0.8-0.8-1.6-0.8-2.4c0-0.8-0.8-1.6-0.8-2.4c0-0.8-0.8-1.6-0.8-2.4c0-0.8-0.8-1.6-0.8-2.4c0-0.8-0.8-1.6-0.8-2.4
		c0-0.8-0.8-1.6-0.8-2.4s-0.8-1.6-0.8-2.4c0-0.8-0.8-1.6-0.8-2.4c0-0.8-0.8-1.6-0.8-2.4c0-0.8-0.8-1.6-0.8-2.4
		c0-0.8-0.8-1.6-0.8-2.4s-0.8-1.6-0.8-2.4c0-0.8-0.8-1.6-0.8-2.4c0-0.8-0.8-1.6-0.8-2.4c0-0.8-0.8-1.6-0.8-2.4
		c0-0.8-0.8-1.6-0.8-2.4c0-0.8-0.8-1.6-0.8-2.4c0-0.8-0.8-1.6-0.8-2.4c0-0.8-0.8-1.6-0.8-2.4c0-0.8-0.8-1.6-0.8-2.4
		s-0.8-1.6-0.8-2.4c0-0.8-0.8-1.6-0.8-2.4c0-0.8-0.8-1.6-0.8-2.4c0-0.8-0.8-1.6-0.8-2.4c0-0.8-0.8-1.6-0.8-2.4s-0.8-1.6-0.8-2.4
		c0-0.8-0.8-1.6-0.8-2.4c0-0.8-0.8-1.6-0.8-2.4c0-0.8-0.8-1.6-0.8-2.4s-0.8-1.6-0.8-2.4c0-0.8-0.8-1.6-0.8-2.4
		c0-0.8-0.8-1.6-0.8-2.4c0-0.8-0.8-1.6-0.8-2.4c0-0.8-0.8-1.6-0.8-2.4s-0.8-1.6-0.8-2.4c0-0.8-0.8-1.6-0.8-2.4
		c0-0.8-0.8-1.6-0.8-2.4c0-0.8-0.8-1.6-0.8-2.4c0-0.8-0.8-1.6-0.8-2.4s-0.8-1.6-0.8-2.4c0-0.8-0.8-1.6-0.8-2.4
		c0-0.8-0.8-1.6-0.8-2.4c0-0.8-0.8-1.6-0.8-2.4s-0.8-1.6-0.8-2.4c0-0.8-0.8-1.6-0.8-2.4c0-0.8-0.8-1.6-0.8-2.4
		c0-0.8-0.8-1.6-0.8-2.4c0-0.8-0.8-1.6-0.8-2.4c0-0.8-0.8-1.6-0.8-2.4c0-0.8-0.8-1.6-0.8-2.4c0-0.8-0.8-1.6-0.8-2.4
		c0-0.8-0.8-1.6-0.8-2.4c0-0.8-0.8-1.6-0.8-2.4c-0.8-2.4-1.6-3.9-3.2-5.5c-9.5-6.3-22.1,7.1-34.7,18.1c-9.5,7.9-22.1,15-29.1,22.8
		c-19.7-4.7-47.3-33.1-100-32.3c-54.4-0.8-81.9,29.1-101.6,32.3c-7.1-7.1-18.9-13.4-27.6-21.3c-13.4-11-25.2-23.6-34.7-18.1
		c-9.5,5.5-5.5,57.5,2.4,74c0,0.8,0.8,1.6,0.8,2.4s0.8,1.6,0.8,2.4c0,0.8,0.8,1.6,0.8,2.4c0,0.8,0.8,1.6,0.8,2.4
		c0,0.8,0.8,1.6,0.8,2.4c0,0.8,0.8,1.6,0.8,2.4c0,0.8,0.8,1.6,0.8,2.4c0,0.8,0.8,1.6,0.8,2.4c0,0.8,0.8,1.6,0.8,2.4
		c0,0.8,0.8,1.6,0.8,2.4s0.8,1.6,0.8,2.4c0,0.8,0.8,1.6,0.8,2.4c0,0.8,0.8,1.6,0.8,2.4c0,0.8,0.8,1.6,0.8,2.4c0,0.8,0.8,1.6,0.8,2.4
		s0.8,1.6,0.8,2.4c0,0.8,0.8,1.6,0.8,2.4c0,0.8,0.8,1.6,0.8,2.4c0,0.8,0.8,1.6,0.8,2.4c0,0.8,0.8,1.6,0.8,2.4c0,0.8,0.8,1.6,0.8,2.4
		c0,0.8,0.8,1.6,0.8,2.4c0,0.8,0.8,1.6,0.8,2.4c0,0.8,0.8,1.6,0.8,2.4s0.8,1.6,0.8,2.4c0,0.8,0.8,1.6,0.8,2.4c0,0.8,0.8,1.6,0.8,2.4
		c0,0.8,0.8,1.6,0.8,2.4c0,0.8,0.8,1.6,0.8,2.4s0.8,1.6,0.8,2.4c0,0.8,0.8,1.6,0.8,2.4c0,0.8,0.8,1.6,0.8,2.4s0.8,1.6,0.8,2.4
		s0.8,1.6,0.8,2.4s0.8,1.6,0.8,2.4s0.8,1.6,0.8,2.4c0,0.8,0.8,1.6,0.8,2.4c0,0.8,0.8,1.6,0.8,2.4c0,0.8,0.8,1.6,0.8,2.4
		c0,0.8,0.8,1.6,0.8,2.4c0,0.8,0.8,1.6,0.8,2.4s0.8,1.6,0.8,2.4s0.8,1.6,0.8,2.4s0.8,1.6,0.8,2.4s0.8,1.6,0.8,2.4
		c0,0.8,0.8,1.6,0.8,2.4c0,0.8,0.8,1.6,0.8,2.4c0,0.8,0.8,1.6,0.8,2.4c0,0.8,0.8,1.6,0.8,2.4c0,0.8,0.8,1.6,0.8,2.4
		c0,0.8,0.8,1.6,0.8,2.4s0.8,1.6,0.8,2.4c2.4,14.2,5.5,29.1,10.2,41c0,0.8,0.8,1.6,0.8,2.4c0,0.8,0.8,1.6,0.8,2.4
		c0,0.8,0.8,1.6,0.8,2.4s0.8,1.6,0.8,2.4s0.8,1.6,0.8,2.4s0.8,1.6,0.8,2.4s0.8,1.6,0.8,2.4c0,0.8,0.8,1.6,0.8,2.4
		c0,0.8,0.8,1.6,0.8,2.4c0,0.8,0.8,1.6,0.8,2.4c0,0.8,0.8,1.6,0.8,2.4c0,0.8,0.8,1.6,0.8,2.4c0,0.8,0.8,1.6,0.8,2.4s0.8,1.6,0.8,2.4
		s0.8,1.6,0.8,2.4s0.8,1.6,0.8,2.4c0,0.8,0.8,1.6,0.8,2.4c0,0.8,0.8,1.6,0.8,2.4c0,0.8,0.8,1.6,0.8,2.4c0,0.8,0.8,1.6,0.8,2.4
		c0,0.8,0.8,1.6,0.8,2.4c0,0.8,0.8,1.6,0.8,2.4c0,0.8,0.8,1.6,0.8,2.4c0,0.8,0.8,1.6,0.8,2.4c0,0.8,0.8,1.6,0.8,2.4
		c0,0.8,0.8,1.6,0.8,2.4c0,0.8,0.8,1.6,0.8,2.4c0,0.8,0.8,1.6,0.8,2.4c0,0.8,0.8,1.6,0.8,2.4c0,0.8,0.8,1.6,0.8,2.4
		c0,0.8,0.8,1.6,0.8,2.4c0,0.8,0.8,1.6,0.8,2.4c0,0.8,0.8,1.6,0.8,2.4c0,0.8,0.8,1.6,0.8,2.4c0,0.8,0.8,1.6,0.8,2.4
		c0,0.8,0.8,1.6,0.8,2.4c0,0.8,0.8,1.6,0.8,2.4c0,0.8,0.8,1.6,0.8,2.4c0,0.8,0.8,1.6,0.8,2.4c0,0.8,0.8,1.6,0.8,2.4
		c0,0.8,0.8,1.6,0.8,2.4c0,0.8,0.8,1.6,0.8,2.4c0,0.8,0.8,1.6,0.8,2.4c0,0.8,0.8,1.6,0.8,2.4c0,0.8,0.8,1.6,0.8,2.4
		c0,0.8,0.8,1.6,0.8,2.4c0,0.8,0.8,1.6,0.8,2.4c0,0.8,0.8,1.6,0.8,2.4c0,0.8,0.8,1.6,0.8,2.4c0,0.8,0.8,1.6,0.8,2.4
		c0,0.8,0.8,1.6,0.8,2.4c0,0.8,0.8,1.6,0.8,2.4c0,0.8,0.8,1.6,0.8,2.4c0,0.8,0.8,1.6,0.8,2.4c0,0.8,0.8,1.6,0.8,2.4
		c0,0.8,0.8,1.6,0.8,2.4c0,0.8,0.8,1.6,0.8,2.4c0,0.8,0.8,1.6,0.8,2.4c0,0.8,0.8,1.6,0.8,2.4c0,0.8,0.8,1.6,0.8,2.4
		c0,0.8,0.8,1.6,0.8,2.4c0,0.8,0.8,1.6,0.8,2.4c0,0.8,0.8,1.6,0.8,2.4c0,0.8,0.8,1.6,0.8,2.4c0,0.8,0.8,1.6,0.8,2.4
		c0,0.8,0.8,1.6,0.8,2.4c0,0.8,0.8,1.6,0.8,2.4c0,0.8,0.8,1.6,0.8,2.4c0,0.8,0,0.8,0.8,1.6c10.2,1.6,21.3,2.4,32.3,2.4
		C379.7,512,482.1,424.6,506.5,308.8z"/>
	<ellipse id="XMLID_5_" class="st2" cx="256" cy="364.7" rx="46.5" ry="49.6"/>
	<path id="XMLID_6_" class="st3" d="M256,314.3c-25.2,0-46.5,22.1-46.5,49.6c0,10.2,2.4,18.9,7.1,26.8c14.2,3.9,27.6,3.2,38.6-5.5
		c11.8,8.7,24.4,9.5,38.6,5.5c4.7-7.9,7.1-17.3,7.1-26.8C302.5,337.1,281.2,314.3,256,314.3z"/>
	<path id="XMLID_7_" class="st2" d="M161.5,147.3c-3.2-10.2-21.3-19.7-34.7-30.7s-25.2-23.6-34.7-18.1c-9.5,5.5-4.7,60.7,3.2,75.6
		s33.9,30.7,53.6,19.7C168.6,182.7,161.5,147.3,161.5,147.3z"/>
	<path id="XMLID_8_" class="st3" d="M133.9,182c-9.5,0-21.3-7.9-25.2-15c-3.9-7.9-7.1-34.7-6.3-49.6c3.2,2.4,6.3,5.5,8.7,7.1
		c1.6,1.6,3.2,3.2,5.5,4.7c4.7,3.9,9.5,7.9,14.2,11c5.5,3.9,12.6,8.7,15,11.8c1.6,10.2,0.8,25.2-4.7,28.4
		C138.6,181.2,137.1,182,133.9,182z"/>
	<path id="XMLID_9_" class="st2" d="M350.5,145.7c3.2-10.2,21.3-19.7,34.7-30.7c13.4-11,25.2-23.6,34.7-18.1
		c9.5,5.5,4.7,60.7-3.2,75.6c-7.9,15-33.9,30.7-53.6,19.7C343.4,181.2,350.5,145.7,350.5,145.7z"/>
	<path id="XMLID_10_" class="st3" d="M378.1,180.4c-2.4,0-4.7-0.8-7.1-1.6c-5.5-3.2-6.3-18.1-4.7-28.4c1.6-2.4,9.5-7.9,15-11.8
		c4.7-3.2,9.5-7.1,14.2-11c1.6-1.6,3.2-3.2,5.5-4.7c2.4-2.4,5.5-4.7,8.7-7.1c0.8,15-2.4,41.7-6.3,49.6
		C399.4,171.7,387.5,180.4,378.1,180.4z"/>
	<path id="XMLID_11_" class="st4" d="M357.6,137.8c-19.7-3.2-47.3-33.9-101.6-32.3c-54.4-0.8-82.7,29.1-101.6,32.3
		c-18.9,3.2-45.7,25.2-41.7,51.2s32.3,40.2,30.7,52c-1.6,11.8-1.6,106.3,30.7,122.9s59.9,29.9,82.7,13.4
		c22.8,16.5,50.4,3.2,82.7-13.4S371,252.1,370.2,241c-0.8-11,27.6-25.2,30.7-52S377.3,141,357.6,137.8z"/>
	<path id="XMLID_12_" class="st5" d="M121.3,215.8c0-8.7,4.7-16.5,11.8-21.3c18.1,4.7,29.1,15,37,15c-9.5,0-2.4,23.6-17.3,29.9
		c-2.4,0.8-4.7,0.8-7.1,0.8C132.3,240.2,121.3,229.2,121.3,215.8z"/>
	<circle id="XMLID_13_" class="st6" cx="145.7" cy="215.8" r="7.9"/>
	<path id="XMLID_14_" class="st7" d="M121.3,211.1c15-29.1,37.8-1.6,49.6-1.6c10.2,4.7,37,6.3,44.1,0.8c6.3-4.7,11.8-2.4,11-4.7
		c-44.1,8.7-81.1-18.9-92.2-18.1c-11.8,1.6-15.8,16.5-21.3,23.6C108.7,214.3,121.3,211.1,121.3,211.1z"/>
	<path id="XMLID_15_" class="st8" d="M250.5,374.2c-5.5,3.9-17.3,10.2-23.6,11c8.7,0.8,19.7,0,29.9-7.1
		C254.4,376.5,252.1,375.7,250.5,374.2z"/>
	<path id="XMLID_16_" class="st8" d="M357.6,137.8c-19.7-3.2-47.3-33.9-101.6-32.3c-2.4,0-3.9,0-6.3,0c50.4,1.6,77.2,29.1,96.1,32.3
		c19.7,3.2,45.7,25.2,41.7,51.2c-3.9,26-32.3,40.2-30.7,52c1.6,11.8,1.6,106.3-29.9,123.7c-18.9,10.2-37,18.9-52.8,20.5
		c18.9,2.4,41-7.9,64.6-20.5c32.3-17.3,31.5-111.9,30.7-122.9c-0.8-11,27.6-25.2,30.7-52C403.3,163.1,377.3,141,357.6,137.8z"/>
	<path id="XMLID_17_" class="st5" d="M390.7,215.8c0-8.7-4.7-16.5-11.8-21.3c-18.1,4.7-29.1,15-37,15c9.5,0,2.4,23.6,17.3,29.9
		c2.4,0.8,4.7,0.8,7.1,0.8C379.7,240.2,390.7,229.2,390.7,215.8z"/>
	<circle id="XMLID_18_" class="st6" cx="366.3" cy="215.8" r="7.9"/>
	<path id="XMLID_19_" class="st7" d="M390.7,211.1c-15-29.1-37.8-1.6-49.6-1.6c-10.2,4.7-37,6.3-44.1,0.8c-6.3-4.7-11.8-2.4-11-4.7
		c44.1,8.7,81.1-18.9,92.2-18.1c11.8,1.6,15.8,16.5,21.3,23.6C403.3,214.3,390.7,211.1,390.7,211.1z"/>
	<path id="XMLID_20_" class="st2" d="M297.7,210.3c0-58.3-33.1-89-41.7-89c-8.7,0-41.7,30.7-41.7,89c-10.2,10.2-20.5,18.9-16.5,30.7
		s7.9,17.3,5.5,29.9c-2.4,12.6-20.5,118.9,52.8,104.8c73.3,13.4,55.1-92.9,52.8-105.6c-2.4-12.6,1.6-18.1,5.5-29.9
		C318.2,228.4,308.8,220.6,297.7,210.3z"/>
	<path id="XMLID_21_" class="st3" d="M297.7,210.3c0-58.3-33.1-89-41.7-89c-1.6,0-3.9,0.8-6.3,2.4c12.6,8.7,36.2,37.8,36.2,86.6
		c10.2,10.2,20.5,18.9,16.5,30.7c-3.9,11.8-7.9,17.3-5.5,29.9c1.6,11,17.3,100-34.7,106.3c66.2,7.1,48.8-94.5,47.3-106.3
		c-2.4-12.6,1.6-18.1,5.5-29.9C319,229.2,308.8,220.6,297.7,210.3z"/>
	<path id="XMLID_22_" class="st6" d="M308,233.2c-1.6-3.9-5.5-6.3-10.2-5.5L256,241l-41.7-12.6c-3.9-1.6-8.7,0.8-10.2,5.5
		c-1.6,3.9,0.8,8.7,5.5,10.2l38.6,11.8v85.1c0,4.7,3.9,7.9,7.9,7.9c3.9,0,7.9-3.9,7.9-7.9v-85.9l38.6-11.8
		C307.2,241.8,309.6,237.1,308,233.2z"/>
</g>
</svg>
