<?xml version="1.0" encoding="utf-8"?>
<!-- Generator: Adobe Illustrator 24.1.1, SVG Export Plug-In . SVG Version: 6.00 Build 0)  -->
<svg version="1.1" id="Layer_1" xmlns="http://www.w3.org/2000/svg" xmlns:xlink="http://www.w3.org/1999/xlink" x="0px" y="0px"
	 viewBox="0 0 512 512" style="enable-background:new 0 0 512 512;" xml:space="preserve">
<style type="text/css">
	.st0{fill:#F2CF61;}
	.st1{fill:#E6C45C;}
	.st2{fill:#A67C52;}
	.st3{fill:#99724C;}
	.st4{fill:#F5F5F5;}
	.st5{fill:#EDEDED;}
	.st6{fill:#242424;}
</style>
<g id="XMLID_1_">
	<circle id="XMLID_3_" class="st0" cx="256" cy="256" r="256"/>
	<path id="XMLID_4_" class="st1" d="M477.3,384.4c0-0.8-0.8-0.8-0.8-1.6V382c0-0.8-0.8-1.6-0.8-1.6v-0.8c0-0.8-0.8-1.6-0.8-1.6v-0.8
		c0-0.8-0.8-1.6-0.8-1.6v-0.8c0-0.8-0.8-1.6-0.8-1.6v-0.8c0-0.8-0.8-1.6-0.8-1.6v-0.8c0-0.8-0.8-1.6-0.8-1.6v-0.8
		c0-0.8-0.8-1.6-0.8-1.6v-0.8c0-0.8-0.8-1.6-0.8-1.6v-0.8c0-0.8-0.8-1.6-0.8-1.6v-0.8c0-0.8-0.8-1.6-0.8-1.6v-0.8
		c0-0.8-0.8-1.6-0.8-1.6V356c0-0.8-0.8-1.6-0.8-1.6v-0.8c0-0.8-0.8-1.6-0.8-1.6v-0.8c0-0.8-0.8-1.6-0.8-1.6v-0.8
		c0-0.8-0.8-1.6-0.8-1.6v-0.8c0-0.8-0.8-1.6-0.8-1.6v-0.8c0-0.8-0.8-1.6-0.8-1.6v-0.8c0-0.8-0.8-1.6-0.8-1.6v-0.8
		c0-0.8-0.8-1.6-0.8-1.6v-0.8c0-0.8-0.8-1.6-0.8-1.6v-0.8c0-0.8-0.8-1.6-0.8-1.6v-0.8c0-0.8-0.8-1.6-0.8-1.6V330
		c0-0.8-0.8-1.6-0.8-1.6v-0.8c0-0.8-0.8-1.6-0.8-1.6v-0.8c0-0.8-0.8-1.6-0.8-1.6V323c0-0.8-0.8-1.6-0.8-1.6v-0.8
		c0-0.8-0.8-1.6-0.8-1.6v-0.8c0-0.8-0.8-1.6-0.8-1.6v-0.8c0-0.8-0.8-1.6-0.8-1.6v-0.8c0-0.8-0.8-1.6-0.8-1.6v-0.8
		c0-0.8-0.8-1.6-0.8-1.6v-0.8c0-0.8-0.8-1.6-0.8-1.6v-0.8c0-0.8-0.8-1.6-0.8-1.6V304c0-0.8-0.8-1.6-0.8-1.6v-0.8
		c0-0.8-0.8-1.6-0.8-1.6v-0.8c0-0.8-0.8-1.6-0.8-1.6V297c0-0.8-0.8-1.6-0.8-1.6v-0.8c0-0.8-0.8-1.6-0.8-1.6v-0.8
		c0-0.8-0.8-1.6-0.8-1.6v-0.8c0-0.8-0.8-1.6-0.8-1.6v-0.8c0-0.8-0.8-1.6-0.8-1.6v-0.8c0-0.8-0.8-1.6-0.8-1.6v-0.8
		c0-0.8-0.8-1.6-0.8-1.6v-0.8c0-0.8-0.8-1.6-0.8-1.6v-0.8c0-0.8-0.8-1.6-0.8-1.6v-0.8c0-0.8-0.8-1.6-0.8-1.6v-0.8
		c0-0.8-0.8-1.6-0.8-1.6V271c0-0.8-0.8-1.6-0.8-1.6v-0.8c0-0.8-0.8-1.6-0.8-1.6v-0.8c0-0.8-0.8-1.6-0.8-1.6v-0.8
		c0-0.8-0.8-1.6-0.8-1.6v-0.8c0-0.8-0.8-1.6-0.8-1.6v-0.8c0-0.8-0.8-1.6-0.8-1.6v-0.8c0-0.8-0.8-1.6-0.8-1.6v-0.8
		c0-0.8-0.8-1.6-0.8-1.6v-0.8c0-0.8-0.8-1.6-0.8-1.6v-0.8c0-0.8-0.8-1.6-0.8-1.6v-0.8c0-0.8-0.8-1.6-0.8-1.6V245
		c0-0.8-0.8-1.6-0.8-1.6v-0.8c0-0.8-0.8-1.6-0.8-1.6v-0.8c0-0.8-0.8-1.6-0.8-1.6v-0.8c0-0.8-0.8-1.6-0.8-1.6v-0.8
		c0-0.8-0.8-1.6-0.8-1.6v-0.8c0-0.8-0.8-1.6-0.8-1.6v-0.8c0-0.8-0.8-1.6-0.8-1.6v-0.8c0-0.8-0.8-1.6-0.8-1.6v-0.8
		c0-0.8-0.8-1.6-0.8-1.6v-0.8c0-0.8-0.8-1.6-0.8-1.6v-0.8c0-0.8-0.8-1.6-0.8-1.6V219c0-0.8-0.8-1.6-0.8-1.6v-0.8
		c0-0.8-0.8-1.6-0.8-1.6v-0.8c0-0.8-0.8-1.6-0.8-1.6v-0.8c0-0.8-0.8-1.6-0.8-1.6v-0.8c0-0.8-0.8-1.6-0.8-1.6v-0.8
		c0-0.8-0.8-1.6-0.8-1.6v-0.8c0-0.8-0.8-1.6-0.8-1.6v-0.8c0-0.8-0.8-1.6-0.8-1.6v-0.8c0-0.8-0.8-1.6-0.8-1.6v-0.8
		c0-0.8-0.8-1.6-0.8-1.6v-0.8c-0.8-2.4-1.6-3.9-2.4-5.5c0-0.8-0.8-0.8-0.8-1.6c-0.8-1.6-1.6-2.4-2.4-3.9c0-0.8-0.8-0.8-0.8-1.6
		c-0.8-0.8-1.6-2.4-2.4-3.2c-0.8-0.8-0.8-0.8-1.6-1.6c-0.8-0.8-1.6-1.6-2.4-2.4c-0.8-0.8-0.8-0.8-1.6-1.6c-0.8-0.8-1.6-1.6-3.2-2.4
		c-0.8,0-0.8-0.8-1.6-0.8c-0.8-0.8-2.4-1.6-3.2-1.6c-0.8,0-1.6-0.8-1.6-0.8c-0.8-0.8-2.4-0.8-3.2-1.6c-0.8,0-1.6-0.8-2.4-0.8
		c-0.8-0.8-1.6-0.8-3.2-1.6c-0.8,0-1.6-0.8-2.4-0.8c-0.8,0-1.6-0.8-2.4-0.8c-0.8,0-1.6-0.8-2.4-0.8c-0.8,0-1.6-0.8-2.4-0.8
		c-0.8,0-1.6,0-3.2-0.8c-0.8,0-0.8,0-1.6,0c-0.8,0-2.4,0-3.2-0.8c-0.8,0-0.8,0-1.6,0c-0.8,0-2.4,0-3.2,0h-0.8c-0.8,0-1.6,0-1.6,0
		c-0.8,0-0.8,0-1.6,0l0,0l0,0c-0.8,0-0.8,0-1.6,0c-0.8,0-0.8,0-1.6,0l0,0h-0.8c-0.8,0-1.6,0-2.4,0.8l0,0
		c-17.3-18.9-41.7-32.3-70.1-33.9c-0.8,0-0.8,0-1.6,0c-2.4,0-4.7,0-7.1,0c-2.4,0-4.7,0-7.1,0c-0.8,0-0.8,0-1.6,0
		c-27.6,2.4-52.8,15-69.3,33.9l0,0c-0.8,0-1.6,0-2.4-0.8h-0.8c-0.8,0-0.8,0-1.6,0c-0.8,0-0.8,0-1.6,0c-0.8,0-0.8,0-1.6,0
		c-0.8,0-1.6,0-2.4,0l0,0c-16.5,0-45.7,8.7-55.1,35.4c-11.8,33.1-4.7,81.1-11.8,100.8c-2.4,7.1-2.4,12.6,0,16.5
		c0,0.8,0.8,1.6,0.8,2.4c0,0.8,0.8,1.6,0.8,2.4c0,0.8,0.8,1.6,0.8,2.4c0,0.8,0.8,1.6,0.8,2.4c0,0.8,0.8,1.6,0.8,2.4
		c0,0.8,0.8,1.6,0.8,2.4c0,0.8,0.8,1.6,0.8,2.4s0.8,1.6,0.8,2.4s0.8,1.6,0.8,2.4c0,0.8,0.8,1.6,0.8,2.4c0,0.8,0.8,1.6,0.8,2.4
		c0,0.8,0.8,1.6,0.8,2.4c0,0.8,0.8,1.6,0.8,2.4c0,0.8,0.8,1.6,0.8,2.4c0,0.8,0.8,1.6,0.8,2.4s0.8,1.6,0.8,2.4s0.8,1.6,0.8,2.4
		c0,0.8,0.8,1.6,0.8,2.4c0,0.8,0.8,1.6,0.8,2.4c0,0.8,0.8,1.6,0.8,2.4c0,0.8,0.8,1.6,0.8,2.4c0,0.8,0.8,1.6,0.8,2.4s0.8,1.6,0.8,2.4
		s0.8,1.6,0.8,2.4c0,0.8,0.8,1.6,0.8,2.4c0,0.8,0.8,1.6,0.8,2.4c0,0.8,0.8,1.6,0.8,2.4c0,0.8,0.8,1.6,0.8,2.4c0,0.8,0.8,1.6,0.8,2.4
		c0,0.8,0.8,1.6,0.8,2.4s0.8,1.6,0.8,2.4c0,0.8,0.8,1.6,0.8,2.4c0,0.8,0.8,1.6,0.8,2.4c0,0.8,0.8,1.6,0.8,2.4c0,0.8,0.8,1.6,0.8,2.4
		c0,0.8,0.8,1.6,0.8,2.4c0,0.8,0.8,1.6,0.8,2.4c0,0.8,0.8,1.6,0.8,2.4c0,0.8,0.8,1.6,0.8,2.4c0,0.8,0.8,1.6,0.8,2.4
		c0,0.8,0.8,1.6,0.8,2.4c0,0.8,0.8,1.6,0.8,2.4c0,0.8,0.8,1.6,0.8,2.4c0,0.8,0.8,1.6,0.8,2.4c0,0.8,0.8,1.6,0.8,2.4
		c0,0.8,0.8,1.6,0.8,2.4c0,0.8,0.8,1.6,0.8,2.4c0,0.8,0.8,1.6,0.8,2.4c0,0.8,0.8,1.6,0.8,2.4c0,0.8,0.8,1.6,0.8,2.4
		c0,0.8,0.8,1.6,0.8,2.4c0,0.8,0.8,1.6,0.8,2.4c0,0.8,0.8,1.6,0.8,2.4c0,0.8,0.8,1.6,0.8,2.4c0,0.8,0.8,1.6,0.8,2.4
		c0,0.8,0.8,1.6,0.8,2.4c0,0.8,0.8,1.6,0.8,2.4c0,0.8,0.8,1.6,0.8,2.4c0,0.8,0.8,1.6,0.8,2.4c0,0.8,0.8,1.6,0.8,2.4
		c0,0.8,0.8,1.6,0.8,2.4c0,0.8,0.8,1.6,0.8,2.4c0,0.8,0.8,1.6,0.8,2.4c0,0.8,0.8,1.6,0.8,2.4c0,0.8,0.8,1.6,0.8,2.4
		c0,0.8,0.8,1.6,0.8,2.4c0,0.8,0.8,1.6,0.8,2.4c0,0.8,0.8,1.6,0.8,2.4c0,0.8,0.8,1.6,0.8,2.4c0,0.8,0.8,1.6,0.8,2.4
		c0,0.8,0.8,1.6,0.8,2.4c0,0.8,0.8,1.6,0.8,2.4c0,0.8,0.8,1.6,0.8,2.4c0,0.8,0.8,1.6,0.8,2.4c0,0.8,0.8,1.6,0.8,2.4
		c0,0.8,0.8,1.6,0.8,2.4c0,0.8,0.8,1.6,0.8,2.4c0,0.8,0.8,1.6,0.8,2.4c0,0.8,0.8,1.6,0.8,2.4v0.8c23.6,7.9,48.8,11.8,75.6,11.8
		C350.5,512,433.2,460.8,477.3,384.4z"/>
	<path id="XMLID_5_" class="st2" d="M256,119.7c-55.9,0-101.6,43.3-101.6,96.1c0,14.2,0,49.6,0,66.2c0,0.8,0,1.6,0,2.4
		c0.8,38.6,25.2,107.1,101.6,107.1c80.3,0,100-68.5,101.6-107.1c0-0.8,0-1.6,0-2.4c0-15.8,0-52,0-66.2
		C357.6,163.1,311.9,119.7,256,119.7z"/>
	<path id="XMLID_6_" class="st2" d="M334,154.4c11-3.9,52.8,1.6,64.6,34.7c11.8,33.1,4.7,81.1,11.8,100.8c7.1,19.7-9.5,26-15,25.2
		c-5.5-0.8-41.7,2.4-44.9-56.7C347.4,197.7,334,154.4,334,154.4z"/>
	<path id="XMLID_7_" class="st3" d="M410.4,289.1c-7.1-19.7,0-67.7-11.8-100.8c-11.8-32.3-52.8-37.8-63.8-34.7
		c16.5,2.4,38.6,11.8,46.5,34.7c11.8,33.1,4.7,81.1,11.8,100.8c5.5,15-2.4,22.1-9.5,24.4c5.5,1.6,9.5,0.8,11.8,0.8
		C400.9,315.1,417.5,309.6,410.4,289.1z"/>
	<path id="XMLID_8_" class="st3" d="M256,119.7c-1.6,0-3.2,0-5.5,0c53.6,2.4,96.1,44.1,96.1,96.1c0,14.2,0,49.6,0,66.2
		c0,0.8,0,1.6,0,2.4c-0.8,37.8-20.5,104-96.1,107.1c1.6,0,3.2,0,4.7,0c80.3,0,100-68.5,101.6-107.1c0-0.8,0-1.6,0-2.4
		c0-15.8,0-52,0-66.2C357.6,163.1,311.9,119.7,256,119.7z"/>
	<path id="XMLID_9_" class="st3" d="M342.6,152.8c-3.9,0-7.1,0-9.5,0.8l0,0c15,16.5,23.6,37.8,23.6,61.4c0,14.2,0,49.6,0,66.2
		c0,0.8,0,1.6,0,2.4c0,2.4,0,3.9,0,6.3c2.4,5.5,5.5,9.5,8.7,13.4c1.6-7.1,1.6-13.4,2.4-19.7c0-0.8,0-1.6,0-2.4c0-15.8,0-52,0-66.2
		C367.9,192.2,358.4,170.1,342.6,152.8z"/>
	<path id="XMLID_10_" class="st4" d="M256,119.7c-4.7,0-9.5,0-14.2,0.8c3.2,15,6.3,34.7,6.3,47.3c0,116.6-56.7,151.2-57.5,199.3
		c15.8,14.2,37,24.4,66.2,24.4s50.4-9.5,66.2-22.8c0-49.6-57.5-83.5-57.5-200.9c0-12.6,3.2-31.5,6.3-47.3
		C265.5,120.5,260.7,119.7,256,119.7z"/>
	<path id="XMLID_11_" class="st5" d="M228.4,257.6c0,10.2-7.9,18.1-18.1,18.1s-18.1-8.7-18.1-18.1c0-10.2,7.9-18.1,18.1-18.1
		C219.8,238.7,228.4,247.3,228.4,257.6z"/>
	<circle id="XMLID_12_" class="st6" cx="209.5" cy="257.6" r="9.5"/>
	<path id="XMLID_13_" class="st5" d="M320.6,257.6c0,10.2-7.9,18.1-18.1,18.1s-18.1-8.7-18.1-18.1c0-10.2,7.9-18.1,18.1-18.1
		C311.9,238.7,320.6,247.3,320.6,257.6z"/>
	<circle id="XMLID_14_" class="st6" cx="302.5" cy="257.6" r="9.5"/>
	<path id="XMLID_15_" class="st2" d="M178,154.4c-11-3.9-52.8,1.6-64.6,34.7s-4.7,81.1-11.8,100.8c-7.1,19.7,9.5,26,15,25.2
		c5.5-0.8,41.7,2.4,44.9-56.7C164.6,197.7,178,154.4,178,154.4z"/>
	<path id="XMLID_16_" class="st6" d="M262.3,352.1l27.6-27.6c2.4-2.4,3.2-6.3,2.4-9.5c-0.8-3.2-3.9-5.5-7.1-6.3
		c-27.6-6.3-31.5-6.3-59.1,0c-3.2,0.8-6.3,3.2-7.1,6.3c-0.8,3.2,0,7.1,2.4,9.5l27.6,27.6c0.8,0.8,1.6,1.6,2.4,1.6v3.2
		c-9.5,1.6-15.8,10.2-15.8,19.7c0,2.4,1.6,3.9,3.9,3.9s3.9-1.6,3.9-3.9c0-6.3,5.5-11.8,11.8-11.8c6.3,0,11.8,5.5,11.8,11.8
		c0,2.4,1.6,3.9,3.9,3.9s3.9-1.6,3.9-3.9c0-9.5-7.1-18.1-15.8-19.7v-3.2C260.7,352.9,261.5,352.9,262.3,352.1z"/>
	<path id="XMLID_17_" class="st3" d="M154.4,284.4c0-0.8,0-1.6,0-2.4c0-15.8,0-52,0-66.2c0-23.6,8.7-44.9,23.6-62.2l0,0
		c-2.4-0.8-5.5-0.8-9.5-0.8c-15.8,16.5-25.2,38.6-25.2,63c0,14.2,0,49.6,0,66.2c0,0.8,0,1.6,0,2.4c0,5.5,0.8,12.6,2.4,18.9
		c3.2-3.2,6.3-7.1,8.7-12.6C154.4,289.1,154.4,286.7,154.4,284.4z"/>
</g>
</svg>
