<?xml version="1.0" encoding="utf-8"?>
<!-- Generator: Adobe Illustrator 24.1.1, SVG Export Plug-In . SVG Version: 6.00 Build 0)  -->
<svg version="1.1" id="Layer_1" xmlns="http://www.w3.org/2000/svg" xmlns:xlink="http://www.w3.org/1999/xlink" x="0px" y="0px"
	 viewBox="0 0 512 512" style="enable-background:new 0 0 512 512;" xml:space="preserve">
<style type="text/css">
	.st0{fill:#F2CF61;}
	.st1{fill:#E6C45C;}
	.st2{fill:#263740;}
	.st3{fill:#1E2C33;}
	.st4{fill:#CC584C;}
	.st5{fill:#E67368;}
	.st6{fill:#BF5347;}
	.st7{fill:#EDEDED;}
	.st8{fill:#242424;}
</style>
<g id="XMLID_1_">
	<circle id="XMLID_3_" class="st0" cx="256" cy="256" r="256"/>
	<path id="XMLID_4_" class="st1" d="M471.8,393.1c0-0.8-0.8-1.6-0.8-2.4c0-0.8-0.8-1.6-0.8-2.4c0-0.8-0.8-1.6-0.8-2.4
		c0-0.8-0.8-1.6-0.8-2.4c0-0.8-0.8-1.6-0.8-2.4c0-0.8-0.8-1.6-0.8-2.4c0-0.8-0.8-1.6-0.8-2.4c0-0.8-0.8-1.6-0.8-2.4
		c0-0.8-0.8-1.6-0.8-2.4s-0.8-1.6-0.8-2.4s-0.8-1.6-0.8-2.4s-0.8-1.6-0.8-2.4s-0.8-1.6-0.8-2.4c0-0.8-0.8-1.6-0.8-2.4
		c0-0.8-0.8-1.6-0.8-2.4c0-0.8-0.8-1.6-0.8-2.4c0-0.8-0.8-1.6-0.8-2.4c0-0.8-0.8-1.6-0.8-2.4s-0.8-1.6-0.8-2.4s-0.8-1.6-0.8-2.4
		s-0.8-1.6-0.8-2.4s-0.8-1.6-0.8-2.4c0-0.8-0.8-1.6-0.8-2.4c0-0.8-0.8-1.6-0.8-2.4c0-0.8-0.8-1.6-0.8-2.4c0-0.8-0.8-1.6-0.8-2.4
		c0-0.8-0.8-1.6-0.8-2.4c0-0.8-0.8-1.6-0.8-2.4s-0.8-1.6-0.8-2.4s-0.8-1.6-0.8-2.4s-0.8-1.6-0.8-2.4c0-0.8-0.8-1.6-0.8-2.4
		c0-0.8-0.8-1.6-0.8-2.4c0-0.8-0.8-1.6-0.8-2.4c0-0.8-0.8-1.6-0.8-2.4c0-0.8-0.8-1.6-0.8-2.4c0-0.8-0.8-1.6-0.8-2.4
		s-0.8-1.6-0.8-2.4s-0.8-1.6-0.8-2.4s-0.8-1.6-0.8-2.4s-0.8-1.6-0.8-2.4c0-0.8-0.8-1.6-0.8-2.4c0-0.8-0.8-1.6-0.8-2.4
		c0-0.8-0.8-1.6-0.8-2.4c0-0.8-0.8-1.6-0.8-2.4c0-0.8-0.8-1.6-0.8-2.4s-0.8-1.6-0.8-2.4s-0.8-1.6-0.8-2.4s-0.8-1.6-0.8-2.4
		s-0.8-1.6-0.8-2.4c0-0.8-0.8-1.6-0.8-2.4c0-0.8-0.8-1.6-0.8-2.4c0-0.8-0.8-1.6-0.8-2.4c0-0.8-0.8-1.6-0.8-2.4
		c0-0.8-0.8-1.6-0.8-2.4s-0.8-1.6-0.8-2.4s-0.8-1.6-0.8-2.4s-0.8-2.4-1.6-3.2c-2.4-3.2-3.9-6.3-6.3-9.5c-0.8-0.8-1.6-1.6-2.4-2.4
		c-1.6-2.4-3.2-3.9-4.7-6.3c-0.8-0.8-1.6-1.6-2.4-3.2c-1.6-1.6-3.2-3.9-4.7-5.5c-0.8-0.8-1.6-1.6-2.4-2.4c-2.4-2.4-4.7-4.7-7.9-7.1
		l0,0c-2.4-2.4-5.5-4.7-7.9-7.1c-0.8-0.8-1.6-0.8-2.4-1.6c-2.4-1.6-3.9-3.2-6.3-4.7c-0.8-0.8-1.6-0.8-2.4-1.6
		c-2.4-1.6-3.9-2.4-6.3-3.9c-0.8-0.8-1.6-0.8-2.4-1.6c-3.2-1.6-5.5-3.2-8.7-3.9l0,0c-15.8-7.1-32.3-10.2-50.4-9.5h-0.8
		c-0.8-0.8-1.6-1.6-2.4-2.4l0,0c-0.8-0.8-1.6-1.6-1.6-2.4l-0.8-0.8c-0.8-0.8-1.6-1.6-1.6-1.6l-0.8-0.8c-0.8-0.8-1.6-1.6-1.6-1.6
		l-11-4.7c-0.8-0.8-1.6-0.8-2.4-1.6l0,0c-0.8-0.8-1.6-0.8-2.4-1.6H282c-0.8-0.8-1.6-0.8-2.4-1.6h-0.8c-0.8-0.8-1.6-0.8-2.4-1.6h-0.8
		c-0.8,0-1.6-0.8-2.4-0.8h-0.8c-0.8,0-1.6-0.8-2.4-0.8l1.6-1.6c-0.8,0-1.6,0-2.4-0.8h-0.8c-0.8,0-1.6,0-2.4,0h-0.8
		c-0.8,0-1.6,0-3.2,0l0,0c-0.8,0-2.4,0-3.2,0.8l0,0c-0.8,0-2.4,0.8-3.2,0.8c-19.7,6.3-56.7,28.4-57.5,34.7c0,4.7,0,8.7-0.8,14.2
		c-11.8,7.1-23.6,16.5-32.3,22.1c-5.5-9.5-26.8-46.5-58.3-41.7l0,0l0,0h-0.8c-17.3,3.2-18.1,11-14.2,19.7c0,0.8,0.8,1.6,0.8,2.4
		c0,0.8,0.8,1.6,0.8,2.4c0,0.8,0.8,1.6,0.8,2.4c0,0.8,0.8,1.6,0.8,2.4c0,0.8,0.8,1.6,0.8,2.4c0,0.8,0.8,1.6,0.8,2.4
		c0,0.8,0.8,1.6,0.8,2.4c0,0.8,0.8,1.6,0.8,2.4c0,0.8,0.8,1.6,0.8,2.4s0.8,1.6,0.8,2.4c0,0.8,0.8,1.6,0.8,2.4c0,0.8,0.8,1.6,0.8,2.4
		c0,0.8,0.8,1.6,0.8,2.4c0,0.8,0.8,1.6,0.8,2.4s0.8,1.6,0.8,2.4c0,0.8,0.8,1.6,0.8,2.4c0,0.8,0.8,1.6,0.8,2.4c0,0.8,0.8,1.6,0.8,2.4
		c0,0.8,0.8,1.6,0.8,2.4c0,0.8,0.8,0.8,0.8,1.6c1.6,19.7-2.4,40.2-6.3,51.2c-2.4,7.1-2.4,10.2-0.8,11c0,1.6,0.8,2.4,0.8,2.4
		c0,1.6,0.8,2.4,0.8,2.4c0,1.6,0.8,2.4,0.8,2.4c0,1.6,0.8,2.4,0.8,2.4c0,1.6,0.8,2.4,0.8,2.4c0,1.6,0.8,2.4,0.8,2.4
		c0,1.6,0.8,2.4,0.8,2.4c0,1.6,0.8,2.4,0.8,2.4c0,1.6,0.8,2.4,0.8,2.4c0,1.6,0.8,2.4,0.8,2.4c0,1.6,0.8,2.4,0.8,2.4
		c0,1.6,0.8,2.4,0.8,2.4c0,1.6,0.8,2.4,0.8,2.4c0,1.6,0.8,2.4,0.8,2.4c0,1.6,0.8,2.4,0.8,2.4c0,1.6,0.8,2.4,0.8,2.4
		c0,1.6,0.8,2.4,0.8,2.4c0,1.6,0.8,2.4,0.8,2.4c0,1.6,0.8,2.4,0.8,2.4c0,1.6,0.8,2.4,0.8,2.4c0,1.6,0.8,2.4,0.8,2.4
		c0,1.6,0.8,2.4,0.8,2.4c0,1.6,0.8,2.4,0.8,2.4c0,1.6,0.8,2.4,0.8,2.4c0,1.6,0.8,2.4,0.8,2.4c0,1.6,0.8,2.4,0.8,2.4
		c0,1.6,0.8,2.4,0.8,2.4c0,1.6,0.8,2.4,0.8,2.4c0,1.6,0.8,2.4,0.8,2.4c0,1.6,0.8,2.4,0.8,2.4c0,1.6,0.8,2.4,0.8,2.4
		c0,1.6,0.8,2.4,0.8,2.4c0,1.6,0.8,2.4,0.8,2.4c0,1.6,0.8,2.4,0.8,2.4c0,1.6,0.8,2.4,0.8,2.4c0,1.6,0.8,2.4,0.8,2.4
		c0,1.6,0.8,2.4,0.8,2.4c0,1.6,0.8,2.4,0.8,2.4c0,1.6,0.8,2.4,0.8,2.4c0,1.6,0.8,2.4,0.8,2.4c0,1.6,0.8,2.4,0.8,2.4
		c0,1.6,0.8,2.4,0.8,2.4c0,1.6,0.8,2.4,0.8,2.4c0,1.6,0.8,2.4,0.8,2.4c0,1.6,0.8,2.4,0.8,2.4c0,1.6,0.8,2.4,0.8,2.4
		c0,1.6,0.8,2.4,0.8,2.4c0,1.6,0.8,2.4,0.8,2.4c0,1.6,0.8,2.4,0.8,2.4c0,1.6,0.8,2.4,0.8,2.4c0,1.6,0.8,2.4,0.8,2.4
		c0,1.6,0.8,2.4,0.8,2.4c0,1.6,0.8,2.4,0.8,2.4c0,1.6,0.8,2.4,0.8,2.4c0,1.6,0.8,2.4,0.8,2.4c0,1.6,0.8,2.4,0.8,2.4
		c0,1.6,0.8,2.4,0.8,2.4c0,1.6,0.8,2.4,0.8,2.4c0,1.6,0.8,2.4,0.8,2.4c0,1.6,0.8,2.4,0.8,2.4c0,1.6,0.8,2.4,0.8,2.4
		c0,1.6,0.8,2.4,0.8,2.4c0,1.6,0.8,2.4,0.8,2.4c0,1.6,0.8,2.4,0.8,2.4c0,1.6,0.8,2.4,0.8,2.4c0,1.6,0.8,2.4,0.8,2.4
		c0,1.6,0.8,2.4,0.8,2.4c0,1.6,0.8,2.4,0.8,2.4c0,1.6,0.8,2.4,0.8,2.4c0,1.6,0.8,2.4,0.8,2.4c0,1.6,0.8,2.4,0.8,2.4
		c0,1.6,0.8,2.4,0.8,2.4v0.8c25.2,8.7,52,12.6,79.6,12.6C346.6,512,426.9,464.7,471.8,393.1z"/>
	<path id="XMLID_5_" class="st2" d="M301.7,185.9c-13.4-14.2-26-29.9-45.7-23.6s-56.7,28.4-57.5,34.7c0,7.9,0,13.4-2.4,24.4
		C222.9,207.2,301.7,185.9,301.7,185.9z"/>
	<path id="XMLID_6_" class="st3" d="M259.2,161.5c11.8,3.2,21.3,14.2,30.7,24.4c0,0-59.9,16.5-92.9,29.9c0,1.6-0.8,3.9-0.8,5.5
		c26-14.2,105.6-35.4,105.6-35.4C289.1,171.7,277.3,157.5,259.2,161.5z"/>
	<path id="XMLID_7_" class="st2" d="M251.3,301.7c-4.7,10.2-16.5,21.3-12.6,26c11.8,7.1,42.5,7.9,52.8,7.1
		c6.3-0.8,4.7-29.1,10.2-34.7C290.7,302.5,251.3,301.7,251.3,301.7z"/>
	<path id="XMLID_8_" class="st3" d="M289.1,301.7c-4.7,7.9-3.9,33.1-9.5,33.1c-0.8,0-1.6,0-1.6,0c5.5,0,11,0,14.2,0
		c6.3-0.8,4.7-29.1,10.2-34.7C299.3,300.9,294.6,300.9,289.1,301.7z"/>
	<path id="XMLID_9_" class="st4" d="M165.4,232.4c9.5-6.3,23.6-17.3,37.8-25.2c22.1-12.6,60.7-25.2,94.5-26.8
		c47.3-1.6,87.4,25.2,116.6,70.1c1.6,2.4,1.6,4.7,1.6,7.9c-0.8,2.4-2.4,4.7-4.7,6.3l-2.4,0.8l2.4,0.8c3.2,1.6,4.7,3.9,5.5,7.1
		c0,3.2-0.8,6.3-3.2,7.9c-1.6,0.8-30.7,28.4-89.8,29.9c-17.3,0.8-50.4,0.8-68.5-0.8c-26.8-2.4-55.1-11-85.1-23.6L165.4,232.4z"/>
	<path id="XMLID_10_" class="st5" d="M190.6,238.7c-1.6,0-2.4-0.8-3.2-1.6c-1.6-1.6-0.8-3.9,0.8-5.5c32.3-22.1,76.4-37.8,110.3-38.6
		c2.4,0,3.9,1.6,3.9,3.9s-1.6,3.9-3.9,3.9c-31.5,0.8-74,15.8-105.6,37C192.2,237.9,191.4,238.7,190.6,238.7z"/>
	<path id="XMLID_11_" class="st6" d="M411.2,266.2l-2.4-0.8l2.4-0.8c2.4-1.6,3.9-3.2,4.7-6.3c0.8-2.4,0-5.5-1.6-7.9
		c-29.9-44.9-70.1-71.7-116.6-70.1c-0.8,0-0.8,0-1.6,0c42.5,2.4,78.8,28.4,106.3,70.1c1.6,2.4,1.6,4.7,1.6,7.9
		c-0.8,2.4-2.4,4.7-4.7,6.3l-2.4,0.8l2.4,0.8c3.2,1.6,4.7,3.9,5.5,7.1c0,3.2-0.8,6.3-3.2,7.9c-1.6,0.8-30.7,27.6-89.8,29.9
		c-6.3,0-15,0.8-24.4,0.8c13.4,0,27.6,0,36.2-0.8c59.9-2.4,89-29.1,89.8-29.9c2.4-2.4,3.9-4.7,3.2-7.9
		C415.9,271,413.5,267.8,411.2,266.2z"/>
	<path id="XMLID_12_" class="st2" d="M415.9,274.1c0-3.2-2.4-6.3-5.5-7.1l-2.4-0.8l2.4-0.8c2.4-1.6,3.9-3.2,4.7-6.3
		c0.8-2.4,0-5.5-1.6-7.9c-18.1-27.6-41-48.8-67-60.7c-15,9.5-29.1,32.3-29.9,55.9c-1.6,24.4,1.6,46.5,23.6,63.8
		c47.3-6.3,70.1-27.6,71.7-28.4C415.1,279.6,415.9,277.3,415.9,274.1z"/>
	<path id="XMLID_13_" class="st3" d="M411.2,266.2l-2.4-0.8l2.4-0.8c2.4-1.6,3.9-3.2,4.7-6.3c0.8-2.4,0-5.5-1.6-7.9
		c-18.1-27.6-41-48.8-67-60.7c-1.6,0.8-3.2,2.4-4.7,3.9c22.8,11.8,42.5,31.5,59.1,56.7c1.6,2.4,1.6,4.7,1.6,7.9
		c-0.8,2.4-2.4,4.7-4.7,6.3l-2.4,0.8l2.4,0.8c3.2,1.6,4.7,3.9,5.5,7.1c0,3.2-0.8,6.3-3.2,7.9c-0.8,0.8-21.3,18.9-61.4,26.8
		c0.8,0.8,1.6,0.8,1.6,1.6c47.3-6.3,70.1-27.6,71.7-28.4c2.4-2.4,3.9-4.7,3.2-7.9C415.9,271,413.5,267.8,411.2,266.2z"/>
	<circle id="XMLID_14_" class="st7" cx="359.2" cy="237.1" r="15.8"/>
	<circle id="XMLID_15_" class="st8" cx="359.2" cy="237.1" r="7.9"/>
	<path id="XMLID_16_" class="st2" d="M165.4,232.4c-5.5-9.5-27.6-47.3-59.1-41.7c-31.5,6.3-7.9,26.8-2.4,39.4
		c12.6,26,7.1,62.2,0.8,80.3c-6.3,17.3,3.2,11,12.6,7.1c9.5-3.9,46.5-6.3,50.4-29.9C173.3,264.7,165.4,232.4,165.4,232.4z"/>
	<path id="XMLID_17_" class="st3" d="M165.4,232.4c-5.5-9.5-26.8-46.5-58.3-41.7c25.2,3.9,42.5,33.1,46.5,41.7
		c4.7,12.6,7.9,31.5,3.2,55.1c-4.7,23.6-41.7,26-50.4,29.9c-0.8,0-1.6,0.8-2.4,0.8c0,6.3,7.1,1.6,15-0.8c9.5-3.9,46.5-6.3,50.4-29.9
		S165.4,232.4,165.4,232.4z"/>
</g>
</svg>
