<?xml version="1.0" encoding="utf-8"?>
<!-- Generator: Adobe Illustrator 24.1.1, SVG Export Plug-In . SVG Version: 6.00 Build 0)  -->
<svg version="1.1" id="Layer_1" xmlns="http://www.w3.org/2000/svg" xmlns:xlink="http://www.w3.org/1999/xlink" x="0px" y="0px"
	 viewBox="0 0 512 512" style="enable-background:new 0 0 512 512;" xml:space="preserve">
<style type="text/css">
	.st0{fill:#2D4452;}
	.st1{fill:#233540;}
	.st2{fill:#B37035;}
	.st3{fill:#A66831;}
	.st4{fill:#99602D;}
	.st5{fill:#E6A973;}
	.st6{fill:#D99F6C;}
	.st7{fill:#665744;}
	.st8{fill:#805D35;}
	.st9{fill:#946C3D;}
	.st10{fill:#F5F5F5;}
	.st11{fill:#242424;}
</style>
<g id="XMLID_1_">
	<circle id="XMLID_3_" class="st0" cx="256" cy="256" r="256"/>
	<path id="XMLID_4_" class="st1" d="M499.4,335.6c0-0.8,0-0.8-0.8-1.6c0-0.8-0.8-1.6-0.8-2.4c0-0.8-0.8-1.6-0.8-2.4
		c0-0.8-0.8-1.6-0.8-2.4s-0.8-1.6-0.8-2.4s-0.8-1.6-0.8-2.4s-0.8-1.6-0.8-2.4s-0.8-1.6-0.8-2.4c0-0.8-0.8-1.6-0.8-2.4
		c0-0.8-0.8-1.6-0.8-2.4c0-0.8-0.8-1.6-0.8-2.4c0-0.8-0.8-1.6-0.8-2.4c0-0.8-0.8-1.6-0.8-2.4s-0.8-1.6-0.8-2.4s-0.8-1.6-0.8-2.4
		s-0.8-1.6-0.8-2.4s-0.8-1.6-0.8-2.4c0-0.8-0.8-1.6-0.8-2.4c0-0.8-0.8-1.6-0.8-2.4c0-0.8-0.8-1.6-0.8-2.4c0-0.8-0.8-1.6-0.8-2.4
		c0-0.8-0.8-1.6-0.8-2.4s-0.8-1.6-0.8-2.4s-0.8-1.6-0.8-2.4s-0.8-1.6-0.8-2.4s-0.8-1.6-0.8-2.4c0-0.8-0.8-1.6-0.8-2.4
		c0-0.8-0.8-1.6-0.8-2.4c0-0.8-0.8-1.6-0.8-2.4c0-0.8-0.8-1.6-0.8-2.4c0-0.8-0.8-1.6-0.8-2.4c0-0.8-0.8-1.6-0.8-2.4
		s-0.8-1.6-0.8-2.4s-0.8-1.6-0.8-2.4s-0.8-1.6-0.8-2.4c0-0.8-0.8-1.6-0.8-2.4c0-0.8-0.8-1.6-0.8-2.4c0-0.8-0.8-1.6-0.8-2.4
		s-0.8-1.6-0.8-2.4c0-0.8-0.8-1.6-0.8-2.4c0-0.8-0.8-1.6-0.8-2.4c0-0.8-0.8-1.6-0.8-2.4c0-0.8-0.8-1.6-0.8-2.4
		c0-0.8-0.8-1.6-0.8-2.4c0-0.8-0.8-1.6-0.8-2.4c0-0.8-0.8-1.6-0.8-2.4c0-0.8-0.8-1.6-0.8-2.4s-0.8-1.6-0.8-2.4
		c0-0.8-0.8-1.6-0.8-2.4c0-0.8-0.8-1.6-0.8-2.4c0-0.8-0.8-1.6-0.8-2.4c0-0.8-0.8-1.6-0.8-2.4s-0.8-1.6-0.8-2.4
		c0-0.8-0.8-1.6-0.8-2.4c0-0.8-0.8-1.6-0.8-2.4c0-0.8-0.8-1.6-0.8-2.4s-0.8-1.6-0.8-2.4c0-0.8-0.8-1.6-0.8-2.4
		c0-0.8-0.8-1.6-0.8-2.4c0-0.8-0.8-1.6-0.8-2.4c0-0.8-0.8-1.6-0.8-2.4s-0.8-1.6-0.8-2.4c0-0.8-0.8-1.6-0.8-2.4
		c0-0.8-0.8-1.6-0.8-2.4c0-0.8-0.8-1.6-0.8-2.4c0-0.8-0.8-1.6-0.8-2.4s-0.8-1.6-0.8-2.4c0-0.8-0.8-1.6-0.8-2.4
		c0-0.8-0.8-1.6-0.8-2.4c0-0.8-0.8-1.6-0.8-2.4s-0.8-1.6-0.8-2.4c0-0.8-0.8-1.6-0.8-2.4c0-0.8-0.8-1.6-0.8-2.4
		c0-0.8-0.8-1.6-0.8-2.4c0-0.8-0.8-1.6-0.8-2.4s-0.8-1.6-0.8-2.4c0-0.8-0.8-1.6-0.8-2.4c0-0.8-0.8-1.6-0.8-2.4
		c0-0.8-0.8-1.6-0.8-2.4c0-0.8-0.8-1.6-0.8-2.4c0-0.8-0.8-1.6-0.8-2.4c0-0.8-0.8-1.6-0.8-2.4c0-0.8-0.8-1.6-0.8-2.4
		c0-0.8-0.8-1.6-0.8-2.4s-0.8-1.6-0.8-2.4c0-0.8-0.8-1.6-0.8-2.4c0-0.8-0.8-1.6-0.8-2.4c0-0.8-0.8-1.6-0.8-2.4s-0.8-1.6-0.8-2.4
		c0-0.8-0.8-1.6-0.8-2.4c0-0.8-0.8-1.6-0.8-2.4c0-0.8-0.8-1.6-0.8-2.4c0-0.8-0.8-1.6-0.8-2.4c0-0.8-0.8-1.6-0.8-2.4
		c0-0.8-0.8-1.6-0.8-2.4c-0.8-4.7-4.7-7.9-9.5-7.9c0,0-3.9,0-10.2,0l0,0c-17.3,0.8-52.8,3.2-65.4,11.8c-1.6,1.6-3.2,3.2-3.9,5.5
		v-0.8c0-0.8-0.8-1.6-0.8-2.4c0-0.8-0.8-1.6-0.8-2.4c0-0.8-0.8-1.6-0.8-2.4c0-0.8-0.8-1.6-0.8-2.4c0-0.8-0.8-1.6-0.8-2.4
		c0-0.8-0.8-1.6-0.8-2.4c0-0.8-0.8-1.6-0.8-2.4c0-0.8-0.8-1.6-0.8-2.4c0-0.8-0.8-1.6-0.8-2.4c0-0.8-0.8-1.6-0.8-2.4
		c0-0.8-0.8-1.6-0.8-2.4c0-0.8-0.8-1.6-0.8-2.4c-0.8-1.6-1.6-3.2-2.4-4.7c-5.5-6.3-15-7.9-21.3-2.4c-5.5,3.9-7.1,11-4.7,17.3
		c0.8,3.2,0.8,5.5,0.8,7.9c0,2.4-0.8,4.7-0.8,7.9c-0.8,3.2-1.6,6.3-2.4,9.5c-5.5-0.8-11-1.6-16.5-1.6c-1.6,0-3.9,0-5.5,0
		c0-0.8,0-0.8-0.8-1.6c0-0.8-0.8-1.6-0.8-2.4c0-0.8-0.8-1.6-0.8-2.4c0-0.8-0.8-1.6-0.8-2.4c0-0.8-0.8-1.6-0.8-2.4
		c0-0.8-0.8-1.6-0.8-2.4c0-0.8-0.8-1.6-0.8-2.4c0-0.8-0.8-1.6-0.8-2.4c0-0.8-0.8-1.6-0.8-2.4c0-0.8-0.8-1.6-0.8-2.4
		c0-0.8-0.8-1.6-0.8-2.4c0-0.8-0.8-1.6-0.8-2.4c0-0.8-0.8-1.6-0.8-2.4c0-0.8-0.8-1.6-0.8-2.4c-0.8-3.2-2.4-5.5-4.7-7.9
		c-6.3-5.5-16.5-3.9-21.3,2.4c-3.9,4.7-3.9,11-1.6,16.5c0,0.8,0.8,1.6,0.8,2.4c0,0.8,0.8,1.6,0.8,2.4c0,0.8,0.8,1.6,0.8,2.4
		c0,0.8,0.8,1.6,0.8,2.4c0,0.8,0.8,1.6,0.8,2.4c0,0.8,0.8,1.6,0.8,2.4c0,0.8,0.8,1.6,0.8,2.4c0,0.8,0.8,1.6,0.8,2.4
		c0,0.8,0.8,1.6,0.8,2.4c0,0.8,0.8,1.6,0.8,2.4c0,0.8,0.8,1.6,0.8,2.4c0,0.8,0.8,1.6,0.8,2.4c-6.3,2.4-11.8,5.5-16.5,9.5l0,0
		c0-0.8-0.8-1.6-0.8-2.4s-0.8-1.6-0.8-2.4c0-0.8-0.8-1.6-0.8-2.4c0-0.8-0.8-1.6-0.8-2.4c0-0.8-0.8-1.6-0.8-2.4
		c0-0.8-0.8-1.6-0.8-2.4c0-0.8-0.8-1.6-0.8-2.4c0-0.8-0.8-1.6-0.8-2.4c-0.8-2.4-1.6-3.9-3.9-5.5c-16.5-11.8-74.8-11.8-75.6-11.8
		c-0.8,0-1.6,0-2.4,0l0,0c-4.7,0.8-7.9,4.7-7.9,9.5v2.4c0,9.5-0.8,24.4,5.5,39.4c0,0.8,0.8,1.6,0.8,2.4c0,0.8,0.8,1.6,0.8,2.4
		c0,0.8,0.8,1.6,0.8,2.4c0,0.8,0.8,1.6,0.8,2.4c0,0.8,0.8,1.6,0.8,2.4s0.8,1.6,0.8,2.4c0,0.8,0.8,1.6,0.8,2.4c0,0.8,0.8,1.6,0.8,2.4
		c0,0.8,0.8,1.6,0.8,2.4c0,0.8,0.8,1.6,0.8,2.4s0.8,1.6,0.8,2.4c0,0.8,0.8,1.6,0.8,2.4c0,0.8,0.8,1.6,0.8,2.4c0,0.8,0.8,1.6,0.8,2.4
		s0.8,1.6,0.8,2.4c0,0.8,0.8,1.6,0.8,2.4c0,0.8,0.8,1.6,0.8,2.4c0,0.8,0.8,1.6,0.8,2.4c0,0.8,0.8,1.6,0.8,2.4s0.8,1.6,0.8,2.4
		c0,0.8,0.8,1.6,0.8,2.4c0,0.8,0.8,1.6,0.8,2.4c0,0.8,0.8,1.6,0.8,2.4c0,0.8,0.8,1.6,0.8,2.4s0.8,1.6,0.8,2.4c0,0.8,0.8,1.6,0.8,2.4
		c0,0.8,0.8,1.6,0.8,2.4c0,0.8,0.8,1.6,0.8,2.4s0.8,1.6,0.8,2.4c0,0.8,0.8,1.6,0.8,2.4c0,0.8,0.8,1.6,0.8,2.4c0,0.8,0.8,1.6,0.8,2.4
		c0,0.8,0.8,1.6,0.8,2.4s0.8,1.6,0.8,2.4c0,0.8,0.8,1.6,0.8,2.4c0,0.8,0.8,1.6,0.8,2.4c0,0.8,0.8,1.6,0.8,2.4c0,0.8,0.8,1.6,0.8,2.4
		c0,0.8,0.8,1.6,0.8,2.4c0,0.8,0.8,1.6,0.8,2.4c0,0.8,0.8,1.6,0.8,2.4c0,0.8,0.8,1.6,0.8,2.4c0,0.8,0.8,1.6,0.8,2.4
		c0,0.8,0.8,1.6,0.8,2.4c0,0.8,0.8,1.6,0.8,2.4s0.8,1.6,0.8,2.4s0.8,1.6,0.8,2.4s0.8,1.6,0.8,2.4s0.8,1.6,0.8,2.4
		c0,0.8,0.8,1.6,0.8,2.4c0,0.8,0.8,1.6,0.8,2.4c0,0.8,0.8,1.6,0.8,2.4c0,0.8,0.8,1.6,0.8,2.4c0,0.8,0.8,1.6,0.8,2.4
		c0,0.8,0.8,1.6,0.8,2.4s0.8,1.6,0.8,2.4s0.8,1.6,0.8,2.4s0.8,1.6,0.8,2.4s0.8,1.6,0.8,2.4c0,0.8,0.8,1.6,0.8,2.4
		c0,0.8,0.8,1.6,0.8,2.4c0,0.8,0.8,1.6,0.8,2.4c0,0.8,0.8,1.6,0.8,2.4c0,0.8,0.8,1.6,0.8,2.4s0.8,1.6,0.8,2.4s0.8,1.6,0.8,2.4
		s0.8,1.6,0.8,2.4s0.8,1.6,0.8,2.4c0,0.8,0.8,1.6,0.8,2.4c0,0.8,0.8,1.6,0.8,2.4c0,0.8,0.8,1.6,0.8,2.4c0,0.8,0.8,1.6,0.8,2.4
		c0,0.8,0.8,1.6,0.8,2.4s0.8,1.6,0.8,2.4s0.8,1.6,0.8,2.4s0.8,1.6,0.8,2.4s0.8,1.6,0.8,2.4c0,0.8,0.8,1.6,0.8,2.4
		c0,0.8,0.8,1.6,0.8,2.4c0,0.8,0.8,1.6,0.8,2.4c0,0.8,0.8,1.6,0.8,2.4c0,0.8,0.8,1.6,0.8,2.4c0,0.8,0.8,1.6,0.8,2.4s0.8,1.6,0.8,2.4
		s0.8,1.6,0.8,2.4s0.8,1.6,0.8,2.4l0,0c0.8,5.5,2.4,10.2,3.9,14.2c0,0.8,0.8,1.6,0.8,2.4s0.8,1.6,0.8,2.4s0.8,1.6,0.8,2.4
		c0,0.8,0.8,1.6,0.8,2.4c0,0.8,0.8,1.6,0.8,2.4c0,0.8,0.8,1.6,0.8,2.4c0,0.8,0.8,1.6,0.8,2.4c0,0.8,0.8,1.6,0.8,2.4
		c0,0.8,0.8,1.6,0.8,2.4c0,0.8,0.8,1.6,0.8,2.4c0,0.8,0.8,1.6,0.8,2.4c0,0.8,0.8,1.6,0.8,2.4c0,0.8,0.8,1.6,0.8,2.4
		c0,0.8,0.8,1.6,0.8,2.4c0,0.8,0.8,1.6,0.8,2.4c0,0.8,0.8,1.6,0.8,2.4c0,0.8,0.8,1.6,0.8,2.4c0,0.8,0.8,1.6,0.8,2.4
		c0,0.8,0.8,1.6,0.8,2.4c0,0.8,0.8,1.6,0.8,2.4c0,0.8,0.8,1.6,0.8,2.4c0,0.8,0.8,1.6,0.8,2.4c0,0.8,0.8,1.6,0.8,2.4
		c0,0.8,0.8,1.6,0.8,2.4c0,0.8,0.8,1.6,0.8,2.4c0,0.8,0.8,1.6,0.8,2.4c0,0.8,0.8,1.6,0.8,2.4c0,0.8,0.8,1.6,0.8,2.4
		c0,0.8,0.8,1.6,0.8,2.4c0,0.8,0.8,1.6,0.8,2.4c0,0.8,0.8,1.6,0.8,2.4c0,0.8,0.8,1.6,0.8,2.4c0,0.8,0.8,1.6,0.8,2.4
		c0,0.8,0.8,1.6,0.8,2.4c0,0.8,0.8,1.6,0.8,2.4c0,0.8,0.8,1.6,0.8,2.4c0,0.8,0.8,1.6,0.8,2.4c0,0.8,0.8,1.6,0.8,2.4
		c0,0.8,0.8,1.6,0.8,2.4c0,0.8,0.8,1.6,0.8,2.4c0,0.8,0.8,1.6,0.8,2.4c0,0.8,0.8,1.6,0.8,2.4c0,0.8,0.8,1.6,0.8,2.4
		c0,0.8,0.8,1.6,0.8,2.4c0,0.8,0.8,1.6,0.8,2.4c0,0.8,0.8,1.6,0.8,2.4c0,0.8,0.8,1.6,0.8,2.4c0,0.8,0.8,1.6,0.8,2.4
		c0,0.8,0.8,1.6,0.8,2.4c0,0.8,0.8,1.6,0.8,2.4c0,0.8,0.8,1.6,0.8,2.4c0,0.8,0.8,1.6,0.8,2.4c0,0.8,0.8,1.6,0.8,2.4
		c0,0.8,0.8,1.6,0.8,2.4c0,0.8,0.8,1.6,0.8,2.4c0,0.8,0.8,1.6,0.8,2.4c0,0.8,0,0.8,0.8,1.6C370.2,511.2,466.3,438,499.4,335.6z"/>
	<path id="XMLID_5_" class="st2" d="M175.7,185.9h-0.8c-70.9-8.7-69.3-56.7-68.5-78v-2.4c0-5.5,4.7-9.5,10.2-9.5
		c0.8,0,59.1,0,75.6,11.8c2.4,1.6,3.9,3.9,3.9,7.1c0,1.6,0,3.9,0.8,6.3c0.8,6.3,0.8,14.2,4.7,16.5c4.7,3.2,6.3,8.7,3.2,13.4
		c-3.2,4.7-18.1,20.5-18.9,26C185.1,182,181.2,185.9,175.7,185.9z"/>
	<path id="XMLID_6_" class="st3" d="M200.9,137.1c-3.9-2.4-3.9-10.2-4.7-16.5c0-2.4,0-3.9-0.8-6.3c0-3.2-1.6-5.5-3.9-7.1
		c-16.5-11.8-74.8-11.8-75.6-11.8c-0.8,0-1.6,0-2.4,0c17.3,0.8,52.8,3.2,65.4,11.8c2.4,1.6,3.9,3.9,3.9,7.1c0,1.6,0,3.9,0.8,6.3
		c0.8,6.3,0.8,14.2,4.7,16.5c4.7,3.2,6.3,8.7,3.2,13.4c-3.2,4.7-18.1,20.5-18.9,26c-0.8,3.9-2.4,6.3-5.5,7.9c2.4,0,3.9,0.8,6.3,0.8
		c0.8,0,0.8,0,0.8,0c4.7,0,9.5-3.9,10.2-8.7c0.8-5.5,15.8-21.3,18.9-26C207.2,145.7,205.6,140.2,200.9,137.1z"/>
	<path id="XMLID_7_" class="st4" d="M175.7,173.3c-45.7-7.1-50.4-31.5-49.6-57.5c22.8,0.8,48.8,3.2,58.3,7.9c0,0.8,0,1.6,0,2.4
		c0.8,7.1,1.6,17.3,7.1,25.2c-0.8,0.8-1.6,1.6-1.6,2.4C182.7,160.7,178,167,175.7,173.3z"/>
	<path id="XMLID_8_" class="st2" d="M335.6,185.9c-4.7,0-9.5-3.9-10.2-8.7c-0.8-5.5-15.8-21.3-18.9-26c-3.2-4.7-1.6-11,3.2-13.4
		c3.9-2.4,3.9-10.2,4.7-16.5c0-2.4,0-3.9,0.8-6.3c0-3.2,1.6-5.5,3.9-7.1c16.5-11.8,74.8-11.8,75.6-11.8c5.5,0,10.2,3.9,10.2,9.5v2.4
		c0.8,20.5,2.4,69.3-68.5,78C336.3,185.9,336.3,185.9,335.6,185.9z"/>
	<path id="XMLID_9_" class="st3" d="M405.7,107.9v-2.4c0-5.5-4.7-9.5-10.2-9.5c0,0-3.9,0-10.2,0c4.7,0.8,7.9,4.7,7.9,9.5v2.4
		c0.8,19.7,2.4,66.2-62.2,76.4c1.6,0.8,2.4,0.8,3.9,0.8c0.8,0,0.8,0,1.6,0C408,177.2,406.4,128.4,405.7,107.9z"/>
	<path id="XMLID_10_" class="st4" d="M336.3,173.3c-2.4-5.5-7.1-11.8-14.2-20.5c-0.8-0.8-0.8-1.6-1.6-2.4c6.3-7.1,7.1-17.3,7.1-24.4
		c0-0.8,0-1.6,0-2.4c9.5-3.9,35.4-7.1,58.3-7.9C386.8,141,381.2,166.2,336.3,173.3z"/>
	<path id="XMLID_11_" class="st5" d="M211.9,380.5c0,29.9,18.9,50.4,44.1,50.4s44.1-20.5,44.1-50.4
		C300.1,380.5,211.9,380.5,211.9,380.5z"/>
	<path id="XMLID_12_" class="st6" d="M288.3,380.5c0,27.6-15.8,47.3-38.6,50.4c1.6,0,3.9,0.8,6.3,0.8c25.2,0,44.1-20.5,44.1-50.4
		L288.3,380.5z"/>
	<path id="XMLID_13_" class="st6" d="M215,400.9c10.2,9.5,25.2,15,41,15c16.5,0,30.7-5.5,41-15c2.4-6.3,3.2-12.6,3.2-20.5h-88.2
		C211.9,387.5,212.7,394.6,215,400.9z"/>
	<path id="XMLID_14_" class="st7" d="M236.3,92.2c-0.8,3.2-0.8,5.5-0.8,7.9c0,2.4,0.8,4.7,0.8,7.9c0.8,4.7,1.6,10.2,3.2,15
		c1.6,3.9-0.8,8.7-5.5,10.2c-3.9,1.6-8.7-0.8-10.2-5.5l0,0c-1.6-4.7-3.2-9.5-4.7-14.2c-0.8-2.4-1.6-4.7-3.2-7.1
		c-0.8-2.4-2.4-4.7-4.7-6.3c-6.3-5.5-7.9-15-2.4-21.3c5.5-6.3,15-7.9,21.3-2.4C237.1,79.6,238.7,85.9,236.3,92.2z"/>
	<path id="XMLID_15_" class="st7" d="M274.9,92.2c0.8,3.2,0.8,5.5,0.8,7.9c0,2.4-0.8,4.7-0.8,7.9c-0.8,4.7-1.6,10.2-3.2,15
		c-1.6,3.9,0.8,8.7,5.5,10.2c3.9,1.6,8.7-0.8,10.2-5.5l0,0c1.6-4.7,3.2-9.5,4.7-14.2c0.8-2.4,1.6-4.7,3.2-7.1
		c0.8-2.4,2.4-4.7,4.7-6.3c6.3-5.5,7.9-15,2.4-21.3c-5.5-6.3-15-7.9-21.3-2.4C274.9,79.6,273.3,85.9,274.9,92.2z"/>
	<path id="XMLID_16_" class="st5" d="M256,115.8c-48.8,0-89.8,41-89.8,89.8v40.2c0,3.2,1.6,6.3,4.7,8.7c0,0,22.8,10.2,25.2,17.3
		c15,35.4,0,55.1,0,76.4c0,36.2,26,59.9,59.9,59.9s59.9-23.6,59.9-59.9c0-21.3-15-41,0-76.4c3.2-7.1,25.2-17.3,25.2-17.3
		c3.2-1.6,4.7-4.7,4.7-8.7v-40.2C345.8,156.8,304.8,115.8,256,115.8z"/>
	<path id="XMLID_17_" class="st6" d="M256,115.8c-2.4,0-3.9,0-6.3,0c46.5,3.2,84.3,43.3,84.3,89.8v40.2c0,3.2-1.6,6.3-4.7,8.7
		c0,0-22.8,10.2-25.2,17.3c-15,35.4,0,55.1,0,76.4c0,33.9-22.8,56.7-54.4,59.9c1.6,0,3.9,0,6.3,0c33.9,0,59.9-23.6,59.9-59.9
		c0-21.3-15-41,0-76.4c3.2-7.1,25.2-17.3,25.2-17.3c3.2-1.6,4.7-4.7,4.7-8.7v-40.2C345.8,156.8,304.8,115.8,256,115.8z"/>
	<path id="XMLID_18_" class="st8" d="M235.5,370.2c-5.5,0-10.2-4.7-10.2-10.2v-19.7c0-5.5,4.7-10.2,10.2-10.2
		c5.5,0,10.2,4.7,10.2,10.2V360C245.8,365.5,241,370.2,235.5,370.2z"/>
	<path id="XMLID_19_" class="st8" d="M275.7,370.2c-5.5,0-10.2-4.7-10.2-10.2v-19.7c0-5.5,4.7-10.2,10.2-10.2
		c5.5,0,10.2,4.7,10.2,10.2V360C285.9,365.5,281.2,370.2,275.7,370.2z"/>
	<path id="XMLID_20_" class="st9" d="M226.9,222.1c-3.2,0-6.3-1.6-8.7-4.7c-6.3-9.5-20.5-13.4-31.5-7.1c-4.7,2.4-11,0.8-13.4-3.9
		c-2.4-4.7-0.8-11,3.9-13.4c19.7-10.2,45.7-3.9,57.5,14.2c3.2,4.7,1.6,11-3.2,14.2C230.8,221.3,228.4,222.1,226.9,222.1z"/>
	<path id="XMLID_21_" class="st8" d="M285.1,222.1c-1.6,0-3.9-0.8-5.5-1.6c-4.7-3.2-6.3-9.5-3.2-14.2c11.8-18.1,37.8-24.4,57.5-14.2
		c4.7,2.4,7.1,8.7,3.9,13.4c-2.4,4.7-8.7,7.1-13.4,3.9c-11-5.5-25.2-2.4-31.5,7.1C291.4,220.6,288.3,222.1,285.1,222.1z"/>
	<circle id="XMLID_22_" class="st10" cx="200.1" cy="230.8" r="11.8"/>
	<circle id="XMLID_23_" class="st11" cx="200.1" cy="230.8" r="3.9"/>
	<circle id="XMLID_24_" class="st10" cx="311.9" cy="230.8" r="11.8"/>
	<circle id="XMLID_25_" class="st11" cx="311.9" cy="230.8" r="3.9"/>
</g>
</svg>
