<?xml version="1.0" encoding="utf-8"?>
<!-- Generator: Adobe Illustrator 24.1.1, SVG Export Plug-In . SVG Version: 6.00 Build 0)  -->
<svg version="1.1" id="Layer_1" xmlns="http://www.w3.org/2000/svg" xmlns:xlink="http://www.w3.org/1999/xlink" x="0px" y="0px"
	 viewBox="0 0 512 512" style="enable-background:new 0 0 512 512;" xml:space="preserve">
<style type="text/css">
	.st0{fill:#E16B5A;}
	.st1{fill:#D16354;}
	.st2{fill:#242424;}
	.st3{fill:#B3B3B3;}
	.st4{fill:#1A1A1A;}
	.st5{fill:#F5F5F5;}
</style>
<g id="XMLID_1_">
	<circle id="XMLID_3_" class="st0" cx="256" cy="255.6" r="255.6"/>
	<path id="XMLID_4_" class="st1" d="M476.2,384.6c0-0.8-0.8-1.6-0.8-1.6c0-0.8-0.8-1.6-0.8-2.4s-0.8-1.6-0.8-2.4s-0.8-1.6-0.8-2.4
		s-0.8-1.6-0.8-2.4s-0.8-1.6-0.8-2.4s-0.8-1.6-0.8-2.4s-0.8-1.6-0.8-2.4s-0.8-1.6-0.8-2.4s-0.8-1.6-0.8-2.4s-0.8-1.6-0.8-2.4
		s-0.8-1.6-0.8-2.4s-0.8-1.6-0.8-2.4s-0.8-1.6-0.8-2.4c0-0.8-0.8-1.6-0.8-2.4s-0.8-1.6-0.8-2.4s-0.8-1.6-0.8-2.4s-0.8-1.6-0.8-2.4
		s-0.8-1.6-0.8-2.4s-0.8-1.6-0.8-2.4s-0.8-1.6-0.8-2.4s-0.8-1.6-0.8-2.4s-0.8-1.6-0.8-2.4s-0.8-1.6-0.8-2.4s-0.8-1.6-0.8-2.4
		s-0.8-1.6-0.8-2.4s-0.8-1.6-0.8-2.4s-0.8-1.6-0.8-2.4s-0.8-1.6-0.8-2.4s-0.8-1.6-0.8-2.4s-0.8-1.6-0.8-2.4s-0.8-1.6-0.8-2.4
		s-0.8-1.6-0.8-2.4s-0.8-1.6-0.8-2.4s-0.8-1.6-0.8-2.4s-0.8-1.6-0.8-2.4s-0.8-1.6-0.8-2.4s-0.8-1.6-0.8-2.4s-0.8-1.6-0.8-2.4
		c0-0.8-0.8-1.6-0.8-2.4s-0.8-1.6-0.8-2.4s-0.8-1.6-0.8-2.4s-0.8-1.6-0.8-2.4s-0.8-1.6-0.8-2.4s-0.8-1.6-0.8-2.4s-0.8-1.6-0.8-2.4
		s-0.8-1.6-0.8-2.4s-0.8-1.6-0.8-2.4s-0.8-1.6-0.8-2.4s-0.8-1.6-0.8-2.4s-0.8-1.6-0.8-2.4s-0.8-1.6-0.8-2.4s-0.8-1.6-0.8-2.4
		s-0.8-1.6-0.8-2.4s-0.8-1.6-0.8-2.4s-0.8-1.6-0.8-2.4s-0.8-1.6-0.8-2.4s-0.8-1.6-0.8-2.4s-0.8-1.6-0.8-2.4s-0.8-1.6-0.8-2.4
		s-0.8-1.6-0.8-2.4c0-0.8-0.8-1.6-0.8-2.4s-0.8-1.6-0.8-2.4s-0.8-1.6-0.8-2.4s-0.8-1.6-0.8-2.4s-0.8-1.6-0.8-2.4s-0.8-1.6-0.8-2.4
		s-0.8-1.6-0.8-2.4s-0.8-1.6-0.8-2.4s-0.8-1.6-0.8-2.4s-0.8-1.6-0.8-2.4s-0.8-1.6-0.8-2.4s-0.8-1.6-0.8-2.4s-0.8-1.6-0.8-2.4
		s-0.8-1.6-0.8-2.4s-0.8-1.6-0.8-2.4s-0.8-1.6-0.8-2.4s-0.8-1.6-0.8-2.4s-0.8-1.6-0.8-2.4s-0.8-1.6-0.8-2.4c0-0.8-0.8-1.6-0.8-2.4
		s-0.8-1.6-0.8-2.4s-0.8-1.6-0.8-2.4s-0.8-1.6-0.8-2.4s-0.8-1.6-0.8-2.4c-5.5-14.2-15.7-21.2-26.7-21.2c-1.6,0-2.4,0-3.1,0
		c-1.6,0-3.1,0.8-4.7,0.8l-0.8-0.8C341.7,107.7,289,103,273.3,103c-0.8,0-1.6,0-2.4,0l0,0c-0.8,0-2.4,0-3.1,0l0,0l0,0
		c-21.2,1.6-66.9,10.2-96,60.6c-2.4-0.8-5.5-0.8-8.7-0.8c-14.9,0-29.9,13.4-29.9,40.1c0,14.2,0,29.9,4.7,39.3c0,0.8,0.8,1.6,0.8,2.4
		s0.8,1.6,0.8,2.4s0.8,1.6,0.8,2.4s0.8,0.8,0.8,1.6c-4.7,29.9-1.6,59.8,9.4,86.5c0,0.8,0.8,1.6,0.8,2.4s0.8,1.6,0.8,2.4
		s0.8,1.6,0.8,2.4s0.8,1.6,0.8,2.4s0.8,1.6,0.8,2.4s0.8,1.6,0.8,2.4s0.8,1.6,0.8,2.4s0.8,1.6,0.8,2.4s0.8,1.6,0.8,2.4
		s0.8,1.6,0.8,2.4s0.8,1.6,0.8,2.4s0.8,1.6,0.8,2.4s0.8,1.6,0.8,2.4s0.8,1.6,0.8,2.4s0.8,1.6,0.8,2.4s0.8,1.6,0.8,2.4
		c0,0.8,0.8,1.6,0.8,2.4s0.8,1.6,0.8,2.4s0.8,1.6,0.8,2.4s0.8,1.6,0.8,2.4c0,0.8,0.8,1.6,0.8,2.4c0,0.8,0.8,1.6,0.8,2.4
		c0,0.8,0.8,1.6,0.8,2.4c0,0.8,0.8,1.6,0.8,2.4c0,0.8,0.8,1.6,0.8,2.4c0,0.8,0.8,1.6,0.8,2.4c0,0.8,0.8,1.6,0.8,2.4
		c0,0.8,0.8,1.6,0.8,2.4c0,0.8,0.8,1.6,0.8,2.4c0,0.8,0.8,1.6,0.8,2.4c0,0.8,0.8,1.6,0.8,2.4c0,0.8,0.8,1.6,0.8,2.4
		c0,0.8,0.8,1.6,0.8,2.4c0,0.8,0.8,1.6,0.8,2.4c0,0.8,0.8,1.6,0.8,2.4c0,0.8,0.8,1.6,0.8,2.4c0,0.8,0.8,1.6,0.8,2.4
		c0,0.8,0.8,1.6,0.8,2.4c0,0.8,0.8,1.6,0.8,2.4c0,0.8,0.8,1.6,0.8,2.4c0,0.8,0.8,1.6,0.8,2.4c0,0.8,0.8,1.6,0.8,2.4
		c0,0.8,0.8,1.6,0.8,2.4c0,0.8,0.8,1.6,0.8,2.4c0,0.8,0.8,1.6,0.8,2.4c0,0.8,0.8,1.6,0.8,2.4c0,0.8,0.8,1.6,0.8,2.4
		c0,0.8,0.8,1.6,0.8,2.4c0,0.8,0.8,1.6,0.8,2.4c0,0.8,0.8,1.6,0.8,2.4c0,0.8,0.8,1.6,0.8,2.4c0,0.8,0.8,1.6,0.8,2.4
		c0,0.8,0.8,1.6,0.8,2.4c0,0.8,0.8,1.6,0.8,2.4c0,0.8,0.8,1.6,0.8,2.4c0,0.8,0.8,1.6,0.8,2.4c0,0.8,0.8,1.6,0.8,2.4
		c0,0.8,0.8,1.6,0.8,2.4c0,0.8,0.8,1.6,0.8,2.4c0,0.8,0.8,1.6,0.8,2.4c0,0.8,0.8,1.6,0.8,2.4c0,0.8,0.8,1.6,0.8,2.4
		c0,0.8,0.8,1.6,0.8,2.4c0,0.8,0.8,1.6,0.8,2.4c0,0.8,0.8,1.6,0.8,2.4c0,0.8,0.8,1.6,0.8,2.4c0,0.8,0.8,1.6,0.8,2.4
		c0,0.8,0.8,1.6,0.8,2.4c0,0.8,0.8,1.6,0.8,2.4c0,0.8,0.8,1.6,0.8,2.4c0,0.8,0.8,1.6,0.8,2.4c0,0.8,0.8,0.8,0.8,1.6
		c16.5,3.9,33.8,5.5,51.1,5.5C350.4,511.2,432.2,460.1,476.2,384.6z"/>
	<path id="XMLID_5_" class="st2" d="M256,415.3c-39.3,0-76.3-18.9-102.2-51.1c-26.7-33.8-37-77.9-29.1-122.7
		c-8.7-8.7-8.7-28.3-8.7-45.6c0-26,14.9-40.1,29.9-40.1c3.1,0,5.5,0,8.7,0.8c32.2-56.6,84.9-61.3,101.5-61.3
		c16.5,0,69.2,4.7,101.5,61.3c2.4-0.8,5.5-0.8,8.7-0.8c14.9,0,29.9,13.4,29.9,40.1c0,17.3,0,37-8.7,45.6
		c7.9,44.8-2.4,88.9-29.1,122.7C332.3,396.4,295.3,415.3,256,415.3z"/>
	<path id="XMLID_6_" class="st3" d="M256,381.4c-51.1,0-85.7-44-85.7-85.7c0-14.2,3.1-24.4,10.2-33l2.4-3.1l-3.9-2.4
		c-7.1-4.7-19.7-16.5-19.7-40.9c0-23.6,22.8-36.2,45.6-36.2h99.9c22.8,0,45.6,12.6,45.6,36.2c0,24.4-11.8,36.2-19.7,40.9l-3.9,2.4
		l2.4,3.1c7.1,8.7,10.2,19.7,10.2,33C341.7,337.4,307.1,381.4,256,381.4z"/>
	<path id="XMLID_7_" class="st4" d="M345.7,156.5c2.4-0.8,5.5-0.8,8.7-0.8c0.8,0,2.4,0,3.1,0C325.2,99.9,272.5,96,256.8,96
		c-1.6,0-3.9,0-6.3,0C270.9,97.5,316.6,106.2,345.7,156.5z"/>
	<path id="XMLID_8_" class="st4" d="M396,195.8c0-26-14.9-40.1-29.9-40.1c-2.4,0-4.7,0-6.3,0.8c12.6,3.1,24.4,16.5,24.4,39.3
		c0,17.3,0,37-8.7,45.6c7.9,44.8-2.4,88.9-29.1,122.7c-24.4,30.7-59,49.5-96,51.1c2.4,0,3.9,0,6.3,0c39.3,0,76.3-18.9,102.2-51.1
		c26.7-33.8,37-77.9,29.1-122.7C396,232.8,396,213.1,396,195.8z"/>
	<path id="XMLID_9_" class="st4" d="M140.4,156.5c0.8,0,1.6,0,2.4,0.8l0.8-0.8C142,155.7,141.2,156.5,140.4,156.5z"/>
	<path id="XMLID_10_" class="st2" d="M275.7,285.5c-5.5,0-10.2-4.7-10.2-10.2c0-4.7-5.5-10.2-10.2-10.2s-10.2,5.5-10.2,10.2
		c0,5.5-4.7,10.2-10.2,10.2c-5.5,0-10.2-4.7-10.2-10.2c0-15.7,14.9-29.9,29.9-29.9c14.9,0,29.9,14.9,29.9,29.9
		C285.9,280.8,281.2,285.5,275.7,285.5z"/>
	<path id="XMLID_11_" class="st5" d="M305.5,235.9c-11,0-19.7-8.7-19.7-19.7s8.7-19.7,19.7-19.7c11,0,19.7,8.7,19.7,19.7
		S316.6,235.9,305.5,235.9z"/>
	<circle id="XMLID_12_" class="st2" cx="305.5" cy="215.5" r="10.2"/>
	<circle id="XMLID_13_" class="st5" cx="206.5" cy="215.5" r="19.7"/>
	<circle id="XMLID_14_" class="st2" cx="206.5" cy="215.5" r="10.2"/>
	<path id="XMLID_15_" class="st2" d="M296.1,325.6h-80.2c-5.5,0-10.2-4.7-10.2-10.2s4.7-10.2,10.2-10.2h80.2
		c5.5,0,10.2,4.7,10.2,10.2S301.6,325.6,296.1,325.6z"/>
</g>
</svg>
