<?xml version="1.0" encoding="utf-8"?>
<!-- Generator: Adobe Illustrator 24.1.1, SVG Export Plug-In . SVG Version: 6.00 Build 0)  -->
<svg version="1.1" id="Layer_1" xmlns="http://www.w3.org/2000/svg" xmlns:xlink="http://www.w3.org/1999/xlink" x="0px" y="0px"
	 viewBox="0 0 512 512" style="enable-background:new 0 0 512 512;" xml:space="preserve">
<style type="text/css">
	.st0{fill:#4AB8A1;}
	.st1{fill:#43A691;}
	.st2{clip-path:url(#SVGID_2_);fill:#242424;}
	.st3{clip-path:url(#SVGID_4_);fill:#F2B255;}
	.st4{clip-path:url(#SVGID_6_);fill:#E6A951;}
	.st5{clip-path:url(#SVGID_8_);fill:#E6A951;}
	.st6{clip-path:url(#SVGID_10_);fill:#A67C43;}
	.st7{clip-path:url(#SVGID_12_);fill:#99723E;}
	.st8{clip-path:url(#SVGID_14_);fill:#242424;}
	.st9{fill:#F5F5F5;}
	.st10{fill:#242424;}
</style>
<g id="XMLID_1_">
	<circle id="XMLID_3_" class="st0" cx="256" cy="256" r="256"/>
	<path id="XMLID_4_" class="st1" d="M256,512c96.9,0,180.4-53.6,224.5-132.3c-0.8,0-0.8,0-1.6,0c0.8-0.8,0.8-1.6,1.6-2.4
		c-0.8,0-1.6,0-2.4,0c0.8-0.8,0.8-1.6,1.6-2.4c-0.8,0-1.6,0-2.4,0c0.8-0.8,0.8-1.6,1.6-2.4c-0.8,0-1.6,0-2.4,0
		c0.8-0.8,0.8-1.6,1.6-2.4c-0.8,0-1.6,0-2.4,0c0.8-0.8,0.8-1.6,1.6-2.4c-0.8,0-1.6,0-2.4,0c0.8-0.8,0.8-1.6,1.6-2.4
		c-0.8,0-1.6,0-2.4,0c0.8-0.8,0.8-1.6,1.6-2.4c-0.8,0-1.6,0-2.4,0c0.8-0.8,0.8-1.6,1.6-2.4c-0.8,0-1.6,0-2.4,0
		c0-0.8,0.8-1.6,1.6-2.4c-0.8,0-1.6,0-2.4,0c0.8-0.8,0.8-1.6,1.6-2.4c-0.8,0-1.6,0-2.4,0c0-0.8,0.8-1.6,1.6-2.4c-0.8,0-1.6,0-2.4,0
		c0-0.8,0.8-1.6,1.6-2.4c-0.8,0-1.6,0-2.4,0c0.8-0.8,0.8-1.6,1.6-2.4c-0.8,0-1.6,0-2.4,0c0-0.8,0.8-1.6,1.6-2.4c-0.8,0-1.6,0-2.4,0
		c0.8-0.8,0.8-1.6,1.6-2.4c-0.8,0-1.6,0-2.4,0c0.8-0.8,0.8-1.6,1.6-2.4c-0.8,0-1.6,0-2.4,0c0.8-0.8,0.8-1.6,1.6-2.4
		c-0.8,0-1.6,0-2.4,0c0.8-0.8,0.8-1.6,1.6-2.4c-0.8,0-1.6,0-2.4,0c0.8-0.8,0.8-1.6,1.6-2.4c-0.8,0-1.6,0-2.4,0
		c0.8-0.8,0.8-1.6,1.6-2.4c-0.8,0-1.6,0-2.4,0c0.8-0.8,0.8-1.6,1.6-2.4c-0.8,0-1.6,0-2.4,0c0.8-0.8,0.8-1.6,1.6-2.4
		c-0.8,0-1.6,0-2.4,0c0.8-0.8,0.8-1.6,1.6-2.4c-0.8,0-1.6,0-2.4,0c0.8-0.8,0.8-1.6,1.6-2.4c-0.8,0-1.6,0-2.4,0
		c0.8-0.8,0.8-1.6,1.6-2.4c-0.8,0-1.6,0-2.4,0c0.8-0.8,0.8-1.6,1.6-2.4c-0.8,0-1.6,0-2.4,0c0-0.8,0.8-1.6,1.6-2.4
		c-0.8,0-1.6,0-2.4,0c0.8-0.8,0.8-1.6,1.6-2.4c-0.8,0-1.6,0-2.4,0c0-0.8,0.8-1.6,1.6-2.4c-0.8,0-1.6,0-2.4,0c0-0.8,0.8-1.6,1.6-2.4
		c-0.8,0-1.6,0-2.4,0c0.8-0.8,0.8-1.6,1.6-2.4c-0.8,0-1.6,0-2.4,0c0.8-0.8,0.8-1.6,1.6-2.4c-0.8,0-1.6,0-2.4,0
		c0.8-0.8,0.8-1.6,1.6-2.4c-0.8,0-1.6,0-2.4,0c0.8-0.8,0.8-1.6,1.6-2.4c-0.8,0-1.6,0-2.4,0c0.8-0.8,0.8-1.6,1.6-2.4
		c-0.8,0-1.6,0-2.4,0c0.8-0.8,0.8-1.6,1.6-2.4c-0.8,0-1.6,0-2.4,0c0.8-0.8,0.8-1.6,1.6-2.4c-0.8,0-1.6,0-2.4,0
		c0.8-0.8,0.8-1.6,1.6-2.4c-0.8,0-1.6,0-2.4,0c0.8-0.8,0.8-1.6,1.6-2.4c-0.8,0-1.6,0-2.4,0c0.8-0.8,0.8-1.6,1.6-2.4
		c-0.8,0-1.6,0-2.4,0c0.8-0.8,0.8-1.6,1.6-2.4c-0.8,0-1.6,0-2.4,0c0.8-0.8,0.8-1.6,1.6-2.4c-0.8,0-1.6,0-2.4,0
		c0-0.8,0.8-1.6,1.6-2.4c-0.8,0-1.6,0-2.4,0c0-0.8,0.8-1.6,1.6-2.4c-0.8,0-1.6,0-2.4,0c0-0.8,0.8-1.6,1.6-2.4c-0.8,0-1.6,0-2.4,0
		c0.8-0.8,0.8-1.6,1.6-2.4c-0.8,0-1.6,0-2.4,0c0-0.8,0.8-1.6,1.6-2.4c-0.8,0-1.6,0-2.4,0c0.8-0.8,0.8-1.6,1.6-2.4
		c-0.8,0-1.6,0-2.4,0c0-0.8,0.8-1.6,1.6-2.4c-0.8,0-1.6,0-2.4,0c0-0.8,0.8-1.6,1.6-2.4c-0.8,0-1.6,0-2.4,0c0.8-0.8,0.8-1.6,1.6-2.4
		c-0.8,0-1.6,0-2.4,0c0-0.8,0.8-1.6,1.6-2.4c-0.8,0-1.6,0-2.4,0c0.8-0.8,0.8-1.6,1.6-2.4c-0.8,0-1.6,0-2.4,0
		c0.8-0.8,0.8-1.6,1.6-2.4c-0.8,0-1.6,0-2.4,0c0.8-0.8,0.8-1.6,1.6-2.4c-0.8,0-1.6,0-2.4,0c0.8-0.8,0.8-1.6,1.6-2.4
		c-0.8,0-1.6,0-2.4,0c0.8-0.8,0.8-1.6,1.6-2.4c-0.8,0-1.6,0-2.4,0c0-0.8,0.8-1.6,1.6-2.4c-0.8,0-1.6,0-2.4,0c0-0.8,0.8-1.6,1.6-2.4
		c-0.8,0-1.6,0-2.4,0c0.8-0.8,0.8-1.6,1.6-2.4c-0.8,0-1.6,0-2.4,0c0.8-0.8,0.8-1.6,1.6-2.4c-0.8,0-1.6,0-2.4,0
		c0.8-0.8,0.8-1.6,1.6-2.4c-0.8,0-1.6,0-2.4,0c0.8-0.8,0.8-1.6,1.6-2.4c-0.8,0-1.6,0-2.4,0c0.8-0.8,0.8-1.6,1.6-2.4
		c-0.8,0-1.6,0-2.4,0c0.8-0.8,0.8-1.6,1.6-2.4c-0.8,0-1.6,0-2.4,0c0.8-0.8,0.8-1.6,1.6-2.4c-0.8,0-1.6,0-2.4,0
		c0.8-0.8,0.8-1.6,1.6-2.4c-0.8,0-1.6,0-2.4,0c0.8-0.8,0.8-1.6,1.6-2.4c-0.8,0-1.6,0-2.4,0c0.8-0.8,0.8-1.6,1.6-2.4
		c-0.8,0-1.6,0-2.4,0c0-0.8,0.8-1.6,1.6-2.4c-0.8,0-1.6,0-2.4,0c0.8-0.8,0.8-1.6,1.6-2.4c-0.8,0-1.6,0-2.4,0c0-0.8,0.8-1.6,1.6-2.4
		c-0.8,0-1.6,0-2.4,0c0.8-0.8,0.8-1.6,1.6-2.4c-0.8,0-1.6,0-2.4,0c0-0.8,0.8-1.6,1.6-2.4c-0.8,0-1.6,0-2.4,0
		c0.8-0.8,0.8-1.6,1.6-2.4c-0.8,0-1.6,0-2.4,0c0.8-0.8,0.8-1.6,1.6-2.4c-0.8,0-1.6,0-2.4,0c0.8-0.8,0.8-1.6,1.6-2.4
		c-0.8,0-1.6,0-2.4,0c0.8-0.8,0.8-1.6,1.6-2.4c-0.8,0-1.6,0-2.4,0c0.8-0.8,0.8-1.6,1.6-2.4c-0.8,0-1.6,0-2.4,0
		c0.8-0.8,0.8-1.6,1.6-2.4c-0.8,0-1.6,0-2.4,0c0.8-0.8,0.8-1.6,1.6-2.4c-0.8,0-1.6,0-2.4,0c0.8-0.8,0.8-1.6,1.6-2.4
		c-0.8,0-1.6,0-2.4,0c0.8-0.8,0.8-1.6,1.6-2.4c-0.8,0-1.6,0-2.4,0c0.8-0.8,0.8-1.6,1.6-2.4c-0.8,0-1.6,0-2.4,0
		c0.8-0.8,0.8-1.6,1.6-2.4c-0.8,0-1.6,0-2.4,0c0-0.8,0.8-1.6,1.6-2.4c-0.8,0-1.6,0-2.4,0c0.8-0.8,0.8-1.6,1.6-2.4
		c-0.8,0-1.6,0-2.4,0c0-0.8,0.8-1.6,1.6-2.4c-0.8,0-1.6,0-2.4,0c0.8-0.8,0.8-1.6,1.6-2.4c-0.8,0-1.6,0-2.4,0c0-0.8,0.8-1.6,1.6-2.4
		c-0.8,0-1.6,0-2.4,0c0.8-0.8,0.8-1.6,1.6-2.4c-0.8,0-1.6,0-2.4,0c0.8-0.8,0.8-1.6,1.6-2.4c-0.8,0-1.6,0-2.4,0
		c0.8-0.8,0.8-1.6,1.6-2.4c-0.8,0-1.6,0-2.4,0c0.8-0.8,0.8-1.6,1.6-2.4c-0.8,0-1.6,0-2.4,0c0.8-0.8,0.8-1.6,1.6-2.4
		c-0.8,0-1.6,0-2.4,0c0.8-0.8,0.8-1.6,1.6-2.4c-0.8,0-1.6,0-2.4,0c0.8-0.8,0.8-1.6,1.6-2.4c-0.8,0-1.6,0-2.4,0
		c0.8-0.8,0.8-1.6,1.6-2.4c-0.8,0-1.6,0-2.4,0c0.8-0.8,0.8-1.6,1.6-2.4c-0.8,0-1.6,0-2.4,0c0.8-0.8,0.8-1.6,1.6-2.4
		c-0.8,0-1.6,0-2.4,0c0.8-0.8,0.8-1.6,1.6-2.4c-0.8,0-1.6,0-2.4,0c0.8-0.8,0.8-1.6,1.6-2.4c-0.8,0-1.6,0-2.4,0
		c0.8-0.8,0.8-1.6,1.6-2.4c-0.8,0-1.6,0-2.4,0c0-0.8,0.8-1.6,1.6-2.4c-0.8,0-1.6,0-2.4,0c0-0.8,0.8-1.6,1.6-2.4c-0.8,0-1.6,0-2.4,0
		c0-0.8,0.8-1.6,1.6-2.4c-0.8,0-1.6,0-2.4,0c0-0.8,0.8-1.6,1.6-2.4c-0.8,0-1.6,0-2.4,0c0-0.8,0.8-1.6,1.6-2.4c-0.8,0-1.6,0-2.4,0
		c0.8-0.8,0.8-1.6,1.6-2.4c-0.8,0-1.6,0-2.4,0c0-0.8,0.8-1.6,1.6-2.4c-0.8,0-1.6,0-2.4,0c0.8-0.8,0.8-1.6,1.6-2.4
		c-0.8,0-1.6,0-2.4,0c0-0.8,0.8-1.6,1.6-2.4c-0.8,0-1.6,0-2.4,0c0.8-0.8,0.8-1.6,1.6-2.4c-0.8,0-1.6,0-2.4,0c0-0.8,0.8-1.6,1.6-2.4
		c-0.8,0-1.6,0-2.4,0c0.8-0.8,0.8-1.6,1.6-2.4c-0.8,0-1.6,0-2.4,0c0.8-0.8,0.8-1.6,1.6-2.4c-0.8,0-1.6,0-2.4,0
		c0.8-0.8,0.8-1.6,1.6-2.4c-0.8,0-1.6,0-2.4,0c0.8-0.8,0.8-1.6,1.6-2.4c-0.8,0-1.6,0-2.4,0c0-0.8,0.8-1.6,1.6-2.4
		c-0.8,0-1.6,0-2.4,0c0.8-0.8,0.8-1.6,1.6-2.4c-0.8,0-1.6,0-2.4,0c0.8-0.8,0.8-1.6,1.6-2.4c-0.8,0-1.6,0-2.4,0
		c0.8-0.8,0.8-1.6,1.6-2.4c-0.8,0-1.6,0-2.4,0c0.8-0.8,0.8-1.6,1.6-2.4c-0.8,0-1.6,0-2.4,0c0.8-0.8,0.8-1.6,1.6-2.4
		c-0.8,0-1.6,0-2.4,0c0.8-0.8,0.8-1.6,1.6-2.4c-0.8,0-1.6,0-2.4,0c0.8-0.8,0.8-1.6,1.6-2.4c-0.8,0-1.6,0-2.4,0
		c0.8-0.8,0.8-1.6,1.6-2.4c-0.8,0-1.6,0-2.4,0c0.8-0.8,0.8-1.6,1.6-2.4c-0.8,0-1.6,0-2.4,0c0.8-0.8,0.8-1.6,1.6-2.4
		c-0.8,0-1.6,0-2.4,0c0-0.8,0.8-1.6,1.6-2.4c-0.8,0-1.6,0-2.4,0c0.8-0.8,0.8-1.6,1.6-2.4c-0.8,0-1.6,0-2.4,0c0-0.8,0.8-1.6,1.6-2.4
		c-0.8,0-1.6,0-2.4,0c0.8-0.8,0.8-1.6,1.6-2.4c-0.8,0-1.6,0-2.4,0c0-0.8,0.8-1.6,1.6-2.4c-0.8,0-1.6,0-2.4,0
		c0.8-0.8,0.8-1.6,1.6-2.4c-0.8,0-1.6,0-2.4,0c0.8-0.8,0.8-1.6,1.6-2.4c-1.6,0-3.2,0.8-4.7,0.8c-0.8,0-0.8,0-1.6,0s-1.6,0.8-2.4,0.8
		c-14.2,3.9-26.8,13.4-36.2,22.1c-89.8,24.4-256,157.5-267,165.4c-7.1,5.5-7.9,11-5.5,16.5c0,0.8,0.8,1.6,0.8,2.4s0.8,1.6,0.8,2.4
		c0,0.8,0,0.8,0.8,1.6c-20.5,14.2-38.6,27.6-53.6,39.4C29.9,424.6,132.3,512,256,512z"/>
	<g id="XMLID_7_">
		<g>
			<defs>
				<circle id="SVGID_1_" cx="256" cy="256" r="256"/>
			</defs>
			<clipPath id="SVGID_2_">
				<use xlink:href="#SVGID_1_"  style="overflow:visible;"/>
			</clipPath>
			<path id="XMLID_8_" class="st2" d="M64.6,274.1c-10.2-10.2-14.2-18.9-3.2-26.8c11-8.7,189.8-151.2,269.4-119.7
				c-12.6,33.9-49.6,54.4-49.6,54.4L64.6,274.1z"/>
		</g>
		<g>
			<defs>
				<circle id="SVGID_3_" cx="256" cy="256" r="256"/>
			</defs>
			<clipPath id="SVGID_4_">
				<use xlink:href="#SVGID_3_"  style="overflow:visible;"/>
			</clipPath>
			<path id="XMLID_9_" class="st3" d="M278.1,282c-12.6,16.5-45.7,65.4-54.4,93.7c7.1,35.4,11.8,86.6-24.4,136.3
				c-25.2,15-91.4,12.6-133.9-15.8C3.9,454.5-29.1,352.1-28.4,336.3c36.2-33.9,276.5-208,337.9-196.9c7.1-8.7,32.3-35.4,59.1-38.6
				c-10.2,19.7-10.2,37.8-23.6,48c22.1,22.8,92.2,152.8,103.2,178.8c-0.8,26.8-3.2,43.3-25.2,44.1c-10.2,7.9-41.7,0.8-40.2-18.9
				c-18.1-7.9-51.2-31.5-55.1-35.4C308,319,285.1,300.1,278.1,282z"/>
		</g>
		<g>
			<defs>
				<circle id="SVGID_5_" cx="256" cy="256" r="256"/>
			</defs>
			<clipPath id="SVGID_6_">
				<use xlink:href="#SVGID_5_"  style="overflow:visible;"/>
			</clipPath>
			<path id="XMLID_10_" class="st4" d="M278.1,282c-0.8-3.9-3.2-15-2.4-20.5c-12.6,16.5-55.1,85.9-63.8,114.2
				c7.1,35.4,11.8,86.6-24.4,136.3c-8.7,5.5-22.1,8.7-38.6,9.5c21.3,0.8,39.4-2.4,50.4-9.5c36.2-48.8,31.5-100.8,24.4-136.3
				C231.6,352.1,263.1,303.3,278.1,282z"/>
		</g>
		<g>
			<defs>
				<circle id="SVGID_7_" cx="256" cy="256" r="256"/>
			</defs>
			<clipPath id="SVGID_8_">
				<use xlink:href="#SVGID_7_"  style="overflow:visible;"/>
			</clipPath>
			<path id="XMLID_11_" class="st5" d="M344.2,148.9c13.4-10.2,13.4-28.4,23.6-48c-4.7,0.8-9.5,1.6-14.2,3.9
				c-8.7,18.1-9.5,34.7-22.1,44.1c22.1,22.8,92.2,152.8,103.2,178.8c-0.8,26.8-3.2,43.3-25.2,44.1c-1.6,1.6-3.9,2.4-6.3,2.4
				c7.1,1.6,14.2,0.8,18.1-2.4c22.8-1.6,24.4-17.3,25.2-44.1C436.4,301.7,367.1,171.7,344.2,148.9z"/>
		</g>
		<g>
			<defs>
				<circle id="SVGID_9_" cx="256" cy="256" r="256"/>
			</defs>
			<clipPath id="SVGID_10_">
				<use xlink:href="#SVGID_9_"  style="overflow:visible;"/>
			</clipPath>
			<path id="XMLID_12_" class="st6" d="M441.1,313.5c-26,0.8-48,17.3-58.3,40.2l0,0c-1.6,19.7,29.9,26.8,40.2,18.9
				c22.8-1.6,24.4-17.3,25.2-44.1C446.6,324.5,444.3,319,441.1,313.5z"/>
		</g>
		<g>
			<defs>
				<circle id="SVGID_11_" cx="256" cy="256" r="256"/>
			</defs>
			<clipPath id="SVGID_12_">
				<use xlink:href="#SVGID_11_"  style="overflow:visible;"/>
			</clipPath>
			<path id="XMLID_13_" class="st7" d="M441.1,314.3c0,0,0-0.8-0.8-0.8l0,0c-3.9,0-7.9,0.8-11,1.6c2.4,5.5,4.7,9.5,6.3,12.6
				c-0.8,26.8-3.2,43.3-25.2,44.1c-1.6,1.6-3.9,2.4-6.3,2.4c0.8,0,1.6,0,2.4,0h0.8c0.8,0,1.6,0,1.6,0c0.8,0,0.8,0,0.8,0
				c0.8,0,0.8,0,1.6,0c0.8,0,1.6,0,2.4,0h0.8c0.8,0,0.8,0,1.6,0h0.8c0.8,0,0.8,0,1.6-0.8h0.8c0.8,0,1.6-0.8,1.6-1.6
				c22.8-1.6,24.4-17.3,25.2-44.1C446.6,324.5,444.3,319.8,441.1,314.3z"/>
		</g>
		<g>
			<defs>
				<circle id="SVGID_13_" cx="256" cy="256" r="256"/>
			</defs>
			<clipPath id="SVGID_14_">
				<use xlink:href="#SVGID_13_"  style="overflow:visible;"/>
			</clipPath>
			<ellipse id="XMLID_14_" class="st8" cx="432.4" cy="341.9" rx="7.1" ry="16.5"/>
		</g>
		
			<ellipse id="XMLID_15_" transform="matrix(0.5223 -0.8527 0.8527 0.5223 -21.5003 396.8032)" class="st9" cx="343.4" cy="217.6" rx="7.9" ry="24.4"/>
		<ellipse id="XMLID_16_" class="st10" cx="342.9" cy="218" rx="5.5" ry="5.5"/>
	</g>
</g>
</svg>
