<?xml version="1.0" encoding="utf-8"?>
<!-- Generator: Adobe Illustrator 24.1.1, SVG Export Plug-In . SVG Version: 6.00 Build 0)  -->
<svg version="1.1" id="Layer_1" xmlns="http://www.w3.org/2000/svg" xmlns:xlink="http://www.w3.org/1999/xlink" x="0px" y="0px"
	 viewBox="0 0 512 512" style="enable-background:new 0 0 512 512;" xml:space="preserve">
<style type="text/css">
	.st0{fill:#2D4452;}
	.st1{fill:#233540;}
	.st2{fill:#F2B255;}
	.st3{fill:#E6A951;}
	.st4{fill:#F2CB91;}
	.st5{fill:#E6C18A;}
	.st6{fill:#FFD464;}
	.st7{fill:#242424;}
</style>
<g id="XMLID_1_">
	<circle id="XMLID_3_" class="st0" cx="256" cy="254.8" r="254.8"/>
	<path id="XMLID_4_" class="st1" d="M489.7,356l-0.8-0.8c0-0.8-0.8-1.6-0.8-2.4s-0.8-1.6-0.8-2.4c0-0.8-0.8-1.6-0.8-2.4
		s-0.8-1.6-0.8-2.4s-0.8-1.6-0.8-2.4s-0.8-1.6-0.8-2.4s-0.8-1.6-0.8-2.4s-0.8-1.6-0.8-2.4s-0.8-1.6-0.8-2.4s-0.8-1.6-0.8-2.4
		s-0.8-1.6-0.8-2.4s-0.8-1.6-0.8-2.4s-0.8-1.6-0.8-2.4s-0.8-1.6-0.8-2.4s-0.8-1.6-0.8-2.4s-0.8-1.6-0.8-2.4s-0.8-1.6-0.8-2.4
		s-0.8-1.6-0.8-2.4s-0.8-1.6-0.8-2.4s-0.8-1.6-0.8-2.4s-0.8-1.6-0.8-2.4s-0.8-1.6-0.8-2.4s-0.8-1.6-0.8-2.4s-0.8-1.6-0.8-2.4
		s-0.8-1.6-0.8-2.4s-0.8-1.6-0.8-2.4s-0.8-1.6-0.8-2.4s-0.8-1.6-0.8-2.4s-0.8-1.6-0.8-2.4s-0.8-1.6-0.8-2.4s-0.8-1.6-0.8-2.4
		c0-0.8-0.8-1.6-0.8-2.4s-0.8-1.6-0.8-2.4s-0.8-1.6-0.8-2.4s-0.8-1.6-0.8-2.4s-0.8-1.6-0.8-2.4s-0.8-1.6-0.8-2.4s-0.8-1.6-0.8-2.4
		s-0.8-1.6-0.8-2.4s-0.8-1.6-0.8-2.4s-0.8-1.6-0.8-2.4c0-0.8-0.8-1.6-0.8-2.4c0-0.8-0.8-1.6-0.8-2.4s-0.8-1.6-0.8-2.4
		c0-0.8-0.8-1.6-0.8-2.4s-0.8-1.6-0.8-2.4s-0.8-1.6-0.8-2.4s-0.8-1.6-0.8-2.4s-0.8-1.6-0.8-2.4c0-0.8-0.8-1.6-0.8-2.4
		s-0.8-1.6-0.8-2.4s-0.8-1.6-0.8-2.4s-0.8-1.6-0.8-2.4s-0.8-1.6-0.8-2.4s-0.8-1.6-0.8-2.4s-0.8-1.6-0.8-2.4s-0.8-1.6-0.8-2.4
		s-0.8-1.6-0.8-2.4s-0.8-1.6-0.8-2.4s-0.8-1.6-0.8-2.4s-0.8-1.6-0.8-2.4s-0.8-1.6-0.8-2.4s-0.8-1.6-0.8-2.4s-0.8-1.6-0.8-2.4
		s-0.8-1.6-0.8-2.4s-0.8-1.6-0.8-2.4s-0.8-1.6-0.8-2.4s-0.8-1.6-0.8-2.4c0-0.8-0.8-1.6-0.8-2.4s-0.8-1.6-0.8-2.4s-0.8-1.6-0.8-2.4
		s-0.8-1.6-0.8-2.4s-0.8-1.6-0.8-2.4c0-0.8-0.8-1.6-0.8-2.4s-0.8-1.6-0.8-2.4s-0.8-1.6-0.8-2.4s-0.8-1.6-0.8-2.4s-0.8-1.6-0.8-2.4
		c0-0.8-0.8-1.6-0.8-2.4s-0.8-1.6-0.8-2.4s-0.8-1.6-0.8-2.4s-0.8-1.6-0.8-2.4s-0.8-1.6-0.8-2.4c0-0.8-0.8-1.6-0.8-2.4
		s-0.8-1.6-0.8-2.4s-0.8-1.6-0.8-2.4s-0.8-1.6-0.8-2.4s-0.8-1.6-0.8-2.4c0-0.8-0.8-1.6-0.8-2.4s-0.8-1.6-0.8-2.4s-0.8-1.6-0.8-2.4
		c-8.6-22-25.1-36.9-43.9-36.9c-0.8,0-2.4,0-3.1,0c-22,1.6-40,20.4-44.7,45.5c-17.2-5.5-34.5-5.5-51-5.5s-32.9,0-50.2,5.5
		c0-0.8-0.8-0.8-0.8-1.6c0-0.8-0.8-1.6-0.8-2.4s-0.8-1.6-0.8-2.4s-0.8-1.6-0.8-2.4s-0.8-1.6-0.8-2.4c-7.8-19.6-22.7-32.1-40.8-33.7
		l0,0c-1.6,0-3.1,0-4.7,0c-1.6,0-3.1,0-3.9,0c-25.9,3.1-45.5,32.1-45.5,69.8c0,11,2.4,22,6.3,32.1c0,0.8,0.8,1.6,0.8,2.4
		s0.8,1.6,0.8,2.4s0.8,1.6,0.8,2.4s0.8,1.6,0.8,2.4s0.8,1.6,0.8,2.4s0.8,1.6,0.8,2.4s0.8,1.6,0.8,2.4s0.8,1.6,0.8,2.4
		s0.8,1.6,0.8,2.4s0.8,1.6,0.8,2.4s0.8,1.6,0.8,2.4s0.8,1.6,0.8,2.4s0.8,1.6,0.8,2.4l0,0c-1.6,19.6-1.6,56.5,0.8,67.4
		c3.1,18.8,8.6,35.3,15.7,50.2c0,0.8,0.8,0.8,0.8,1.6c0,0.8,0.8,1.6,0.8,2.4c0,0.8,0.8,1.6,0.8,2.4s0.8,1.6,0.8,2.4s0.8,1.6,0.8,2.4
		s0.8,1.6,0.8,2.4s0.8,1.6,0.8,2.4s0.8,1.6,0.8,2.4s0.8,1.6,0.8,2.4s0.8,1.6,0.8,2.4s0.8,1.6,0.8,2.4c0,0.8,0.8,1.6,0.8,2.4
		c0,0.8,0.8,1.6,0.8,2.4c0,0.8,0.8,1.6,0.8,2.4c0,0.8,0.8,1.6,0.8,2.4c0,0.8,0.8,1.6,0.8,2.4c0,0.8,0.8,1.6,0.8,2.4
		c0,0.8,0.8,1.6,0.8,2.4c0,0.8,0.8,1.6,0.8,2.4c0,0.8,0.8,1.6,0.8,2.4c0,0.8,0.8,1.6,0.8,2.4c0,0.8,0.8,1.6,0.8,2.4
		c0,0.8,0.8,1.6,0.8,2.4c0,0.8,0.8,1.6,0.8,2.4c0,0.8,0.8,1.6,0.8,2.4c0,0.8,0.8,1.6,0.8,2.4c0,0.8,0.8,1.6,0.8,2.4
		c0,0.8,0.8,1.6,0.8,2.4c0,0.8,0.8,1.6,0.8,2.4c0,0.8,0.8,1.6,0.8,2.4c0,0.8,0.8,1.6,0.8,2.4c0,0.8,0.8,1.6,0.8,2.4
		c0,0.8,0.8,1.6,0.8,2.4c0,0.8,0.8,1.6,0.8,2.4c0,0.8,0.8,1.6,0.8,2.4c0,0.8,0.8,1.6,0.8,2.4c0,0.8,0.8,1.6,0.8,2.4
		c0,0.8,0.8,1.6,0.8,2.4c0,0.8,0.8,1.6,0.8,2.4c0,0.8,0.8,1.6,0.8,2.4c0,0.8,0.8,1.6,0.8,2.4c0,0.8,0.8,1.6,0.8,2.4
		c0,0.8,0.8,1.6,0.8,2.4c0,0.8,0.8,1.6,0.8,2.4c0,0.8,0.8,1.6,0.8,2.4c0,0.8,0.8,1.6,0.8,2.4c0,0.8,0.8,1.6,0.8,2.4
		c0,0.8,0.8,1.6,0.8,2.4c0,0.8,0.8,1.6,0.8,2.4c0,0.8,0.8,1.6,0.8,2.4c0,0.8,0.8,1.6,0.8,2.4c0,0.8,0.8,1.6,0.8,2.4
		c0,0.8,0.8,1.6,0.8,2.4c0,0.8,0.8,1.6,0.8,2.4c0,0.8,0.8,1.6,0.8,2.4c0,0.8,0.8,1.6,0.8,2.4c0,0.8,0.8,1.6,0.8,2.4
		c0,0.8,0.8,1.6,0.8,2.4c0,0.8,0.8,1.6,0.8,2.4c0,0.8,0.8,1.6,0.8,2.4c0,0.8,0.8,1.6,0.8,2.4c0,0.8,0.8,1.6,0.8,2.4
		c0,0.8,0.8,1.6,0.8,2.4c0,0.8,0.8,1.6,0.8,2.4c0,0.8,0.8,1.6,0.8,2.4l0,0c15.7,3.1,32.1,4.7,49.4,4.7
		C361.1,509.6,450.4,446.1,489.7,356z"/>
	<path id="XMLID_5_" class="st2" d="M405,165.4c0-39.2-22-69.8-49.4-69.8c-23.5,0-43.1,18.8-48.6,45.5c-17.2-5.5-34.5-5.5-51-5.5
		s-33.7,0-51,5.5c-5.5-26.7-24.3-45.5-48.6-45.5c-28.2,0-49.4,30.6-49.4,69.8c0,21.2,7.1,40.8,19.6,54.1c-2.4,11.8-2.4,63.5,0,76.8
		C140.7,373.2,185.4,414,256,414s115.3-40.8,129.4-117.6c3.1-13.3,2.4-65.9,0-76.8C397.9,206.2,405,185.8,405,165.4z"/>
	<path id="XMLID_6_" class="st3" d="M405,165.4c0-39.2-22-69.8-49.4-69.8c-2.4,0-3.9,0-6.3,0.8c25.1,3.9,47.8,32.9,47.8,69
		c0,21.2-11,40.8-23.5,54.1c2.4,11.8,2.4,63.5,0,76.8c-13.3,74.5-56.5,115.3-123.1,117.6c2.4,0,3.9,0,6.3,0
		c70.6,0,115.3-40.8,129.4-117.6c3.1-13.3,2.4-65.9,0-76.8C397.9,206.2,405,185.8,405,165.4z"/>
	<path id="XMLID_7_" class="st3" d="M194.8,146.6c3.1-3.1,6.3-4.7,9.4-5.5c-5.5-28.2-25.9-45.5-48.6-45.5c-2.4,0-3.9,0-5.5,0.8
		C171.3,98.8,190.1,122.3,194.8,146.6z"/>
	<path id="XMLID_8_" class="st4" d="M138.4,208.6c-9.4-10.2-15.7-26.7-15.7-43.1c0-29.8,14.9-54.1,33.7-54.1
		c15.7,0,29,13.3,32.9,32.9C176,155.2,151.7,181.9,138.4,208.6z"/>
	<path id="XMLID_9_" class="st5" d="M130.5,165.4c0-27.4,13.3-50.2,29.8-53.3c-1.6,0-3.1,0-3.9,0c-18.8,0-33.7,24.3-33.7,54.1
		c0,16.5,5.5,32.9,15.7,43.1c0.8-2.4,2.4-3.9,3.1-6.3C134.5,192.1,130.5,178.8,130.5,165.4z"/>
	<path id="XMLID_10_" class="st4" d="M376,208.6c9.4-10.2,15.7-26.7,15.7-43.1c0-29.8-14.9-54.1-33.7-54.1
		c-15.7,0-29,13.3-32.9,32.9C337.5,155.2,362.6,181.9,376,208.6z"/>
	<path id="XMLID_11_" class="st5" d="M332.8,144.3c3.1-17.2,14.9-29.8,29-32.1c-1.6,0-2.4,0-3.9,0c-15.7,0-29,13.3-32.9,32.9
		c12.5,11,37.6,37.6,51,64.3c1.6-1.6,3.1-3.9,4.7-6.3C366.6,178,344.6,154.5,332.8,144.3z"/>
	<path id="XMLID_12_" class="st6" d="M195.6,246.2c-11,0-21.2-7.8-23.5-18.8c-2.4-13.3,5.5-25.9,18-28.2c2.4-0.8,5.5,0,7.8,1.6
		c2.4,1.6,3.9,3.9,4.7,6.3l5.5,27.4c0.8,5.5-2.4,10.2-7.8,11.8C198.8,245.4,197.2,246.2,195.6,246.2z"/>
	<circle id="XMLID_13_" class="st7" cx="196.4" cy="225" r="10.2"/>
	<path id="XMLID_14_" class="st6" d="M316.4,246.2L316.4,246.2c-1.6,0-3.1,0-4.7-0.8c-5.5-0.8-8.6-6.3-7.8-11.8l5.5-27.4
		c0.8-2.4,2.4-4.7,4.7-6.3c2.4-1.6,4.7-1.6,7.8-1.6c12.5,3.1,21.2,15.7,18,28.2C337.5,237.6,327.4,246.2,316.4,246.2z"/>
	<circle id="XMLID_15_" class="st7" cx="315.6" cy="225" r="10.2"/>
	<path id="XMLID_16_" class="st4" d="M330.5,197.6c4.7-2.4,5.5-9.4,5.5-19.6c0-3.9-7.8-23.5-29-36.9c-17.2-5.5-34.5-5.5-51-5.5
		s-33.7,0-51,5.5c-21.2,14.1-29,33.7-29,36.9c0,10.2,0.8,17.2,5.5,19.6c26.7,13.3,16.5,51.7,2.4,92.5c-0.8,3.1-2.4,6.3-3.1,9.4
		c-7.1,21.2-4.7,42.3,5.5,58c7.1,11,18,17.2,29.8,17.2c20.4,0,32.9-5.5,40-13.3c7.1,7.8,19.6,13.3,40,13.3c11,0,22-6.3,29.8-17.2
		c10.2-14.9,12.5-36.9,5.5-58c-0.8-3.1-2.4-6.3-3.1-9.4C314,249.3,303.8,211.7,330.5,197.6z"/>
	<path id="XMLID_17_" class="st5" d="M249.7,356c-6.3,7.1-22,16.5-38.4,18c1.6,0,3.1,0,3.9,0c15.7,0,29.8-2.4,40-13.3
		C253.6,359.1,252.1,357.5,249.7,356z"/>
	<path id="XMLID_18_" class="st5" d="M328.1,290.1c-14.1-40.8-24.3-79.2,2.4-92.5c4.7-2.4,5.5-9.4,5.5-19.6c0-3.9-7.8-23.5-29-36.9
		c-17.2-5.5-34.5-5.5-51-5.5c-2.4,0-3.9,0-6.3,0c14.9,0,29.8,0.8,44.7,5.5c21.2,14.1,29,33.7,29,36.9c0,10.2-0.8,17.2-5.5,19.6
		c-26.7,13.3-16.5,51.7-2.4,92.5c0.8,3.1,2.4,6.3,3.1,9.4c7.1,21.2,4.7,42.3-5.5,58c-6.3,9.4-15.7,14.9-25.1,16.5c2.4,0,4.7,0,7.8,0
		c11,0,22-6.3,29.8-17.2c10.2-14.9,12.5-36.9,5.5-58C330.5,296.4,328.9,293.2,328.1,290.1z"/>
	<path id="XMLID_19_" class="st7" d="M256,354.4c-3.1,0-6.3-1.6-7.8-3.9l-29.8-40c-2.4-3.1-2.4-7.1-0.8-10.2s5.5-5.5,8.6-5.5h59.6
		c3.9,0,7.1,2.4,8.6,5.5c1.6,3.1,1.6,7.1-0.8,10.2l-29.8,40C262.3,352.8,259.1,354.4,256,354.4z"/>
	<ellipse id="XMLID_20_" class="st7" cx="143.1" cy="256.4" rx="5.5" ry="9.4"/>
	<ellipse id="XMLID_21_" class="st7" cx="155.6" cy="302.7" rx="5.5" ry="9.4"/>
	<ellipse id="XMLID_22_" class="st7" cx="143.1" cy="281.5" rx="3.9" ry="6.3"/>
	<ellipse id="XMLID_23_" class="st7" cx="164.3" cy="273.6" rx="6.3" ry="11"/>
	<ellipse id="XMLID_24_" class="st7" cx="368.9" cy="256.4" rx="5.5" ry="9.4"/>
	<ellipse id="XMLID_25_" class="st7" cx="356.4" cy="302.7" rx="5.5" ry="9.4"/>
	<ellipse id="XMLID_26_" class="st7" cx="368.9" cy="281.5" rx="3.9" ry="6.3"/>
	<ellipse id="XMLID_27_" class="st7" cx="347.7" cy="273.6" rx="6.3" ry="11"/>
	<ellipse id="XMLID_28_" class="st7" cx="216.8" cy="356" rx="3.9" ry="6.3"/>
	<ellipse id="XMLID_29_" class="st7" cx="201.1" cy="345.8" rx="3.9" ry="6.3"/>
	<ellipse id="XMLID_30_" class="st7" cx="194.1" cy="324.6" rx="3.9" ry="6.3"/>
	<ellipse id="XMLID_31_" class="st7" cx="212.9" cy="329.3" rx="3.9" ry="6.3"/>
	<ellipse id="XMLID_32_" class="st7" cx="295.2" cy="356" rx="3.9" ry="6.3"/>
	<ellipse id="XMLID_33_" class="st7" cx="310.9" cy="345.8" rx="3.9" ry="6.3"/>
	<ellipse id="XMLID_34_" class="st7" cx="317.9" cy="324.6" rx="3.9" ry="6.3"/>
	<ellipse id="XMLID_35_" class="st7" cx="299.1" cy="329.3" rx="3.9" ry="6.3"/>
	
		<ellipse id="XMLID_36_" transform="matrix(0.9567 -0.2911 0.2911 0.9567 -32.9688 71.9349)" class="st7" cx="225.3" cy="146.8" rx="8.6" ry="4.7"/>
	
		<ellipse id="XMLID_37_" transform="matrix(0.9566 -0.2913 0.2913 0.9566 -37.8418 67.7288)" class="st7" cx="208.5" cy="161" rx="5.5" ry="3.1"/>
	
		<ellipse id="XMLID_38_" transform="matrix(0.9567 -0.2911 0.2911 0.9567 -35.4208 77.1532)" class="st7" cx="241.6" cy="157.6" rx="6.3" ry="3.1"/>
	
		<ellipse id="XMLID_39_" transform="matrix(0.2912 -0.9567 0.9567 0.2912 62.7995 378.3184)" class="st7" cx="286.7" cy="146.8" rx="4.7" ry="8.6"/>
	
		<ellipse id="XMLID_40_" transform="matrix(0.2915 -0.9566 0.9566 0.2915 61.0555 404.3452)" class="st7" cx="303.5" cy="161" rx="3.1" ry="5.5"/>
	
		<ellipse id="XMLID_41_" transform="matrix(0.2912 -0.9567 0.9567 0.2912 40.8601 370.4285)" class="st7" cx="270.4" cy="157.6" rx="3.1" ry="6.3"/>
</g>
</svg>
