<?xml version="1.0" encoding="utf-8"?>
<!-- Generator: Adobe Illustrator 24.1.1, SVG Export Plug-In . SVG Version: 6.00 Build 0)  -->
<svg version="1.1" id="Layer_1" xmlns="http://www.w3.org/2000/svg" xmlns:xlink="http://www.w3.org/1999/xlink" x="0px" y="0px"
	 viewBox="0 0 512 512" style="enable-background:new 0 0 512 512;" xml:space="preserve">
<style type="text/css">
	.st0{fill:#88C5CC;}
	.st1{fill:#81BEC1;}
	.st2{fill:#FDFCF6;}
	.st3{fill:#EBE6C7;}
	.st4{fill:#FFE1D9;}
	.st5{fill:#F2D6CE;}
	.st6{fill:#70CCBD;}
	.st7{fill:#E6AFA0;}
</style>
<g id="XMLID_1_">
	<circle id="XMLID_3_" class="st0" cx="256" cy="256" r="256"/>
	<path id="XMLID_4_" class="st1" d="M472.6,392.3c0-0.8-0.8-1.6-0.8-1.6c0-0.8-0.8-1.6-0.8-2.4c0-0.8-0.8-1.6-0.8-2.4
		c0-0.8-0.8-1.6-0.8-2.4c0-0.8-0.8-1.6-0.8-2.4c0-0.8-0.8-1.6-0.8-2.4s-0.8-1.6-0.8-2.4s-0.8-1.6-0.8-2.4s-0.8-1.6-0.8-2.4
		c0-0.8-0.8-1.6-0.8-2.4c0-0.8-0.8-1.6-0.8-2.4c0-0.8-0.8-1.6-0.8-2.4c0-0.8-0.8-1.6-0.8-2.4c0-0.8-0.8-1.6-0.8-2.4
		c0-0.8-0.8-1.6-0.8-2.4c0-0.8-0.8-1.6-0.8-2.4s-0.8-1.6-0.8-2.4s-0.8-1.6-0.8-2.4c0-0.8-0.8-1.6-0.8-2.4c0-0.8-0.8-1.6-0.8-2.4
		c0-0.8-0.8-1.6-0.8-2.4c0-0.8-0.8-1.6-0.8-2.4c0-0.8-0.8-1.6-0.8-2.4c0-0.8-0.8-1.6-0.8-2.4c0-0.8-0.8-1.6-0.8-2.4
		c0-0.8-0.8-1.6-0.8-2.4s-0.8-1.6-0.8-2.4s-0.8-1.6-0.8-2.4c0-0.8-0.8-1.6-0.8-2.4c0-0.8-0.8-1.6-0.8-2.4c0-0.8-0.8-1.6-0.8-2.4
		c0-0.8-0.8-1.6-0.8-2.4c0-0.8-0.8-1.6-0.8-2.4c0-0.8-0.8-1.6-0.8-2.4c0-0.8-0.8-1.6-0.8-2.4s-0.8-1.6-0.8-2.4s-0.8-1.6-0.8-2.4
		s-0.8-1.6-0.8-2.4c0-0.8-0.8-1.6-0.8-2.4c0-0.8-0.8-1.6-0.8-2.4c0-0.8-0.8-1.6-0.8-2.4c0-0.8-0.8-1.6-0.8-2.4
		c0-0.8-0.8-1.6-0.8-2.4c0-0.8-0.8-1.6-0.8-2.4c0-0.8-0.8-1.6-0.8-2.4s-0.8-1.6-0.8-2.4s-0.8-1.6-0.8-2.4s-0.8-1.6-0.8-2.4
		c0-0.8-0.8-1.6-0.8-2.4c0-0.8-0.8-1.6-0.8-2.4c0-0.8-0.8-1.6-0.8-2.4c0-0.8-0.8-1.6-0.8-2.4c0-0.8-0.8-1.6-0.8-2.4
		c0-0.8-0.8-1.6-0.8-2.4c0-0.8-0.8-1.6-0.8-2.4s-0.8-1.6-0.8-2.4s-0.8-1.6-0.8-2.4s-0.8-1.6-0.8-2.4c0-0.8-0.8-1.6-0.8-2.4
		c0-0.8-0.8-1.6-0.8-2.4s-0.8-1.6-0.8-2.4s-0.8-1.6-0.8-2.4s-0.8-1.6-0.8-2.4c0-0.8-0.8-1.6-0.8-2.4c0-0.8-0.8-1.6-0.8-2.4
		s-0.8-1.6-0.8-2.4s-0.8-1.6-0.8-2.4c0-0.8-0.8-1.6-0.8-2.4c-7.1-18.1-18.1-36.2-32.3-56.7c-0.8-1.6-3.9-4.7-7.9-9.5
		c0-0.8-0.8-1.6-0.8-2.4c0-0.8-0.8-1.6-0.8-2.4c0-0.8-0.8-1.6-0.8-2.4s-0.8-1.6-0.8-2.4c-3.9-10.2-12.6-18.9-24.4-20.5
		c0-0.8-0.8-0.8-0.8-1.6c0-0.8-0.8-1.6-0.8-2.4s-0.8-1.6-0.8-2.4c0-0.8-0.8-1.6-0.8-2.4c0-0.8-0.8-1.6-0.8-2.4
		c-4.7-12.6-16.5-21.3-29.9-21.3c-0.8,0-2.4,0-3.2,0l0,0c-6.3,0.8-12.6,3.2-17.3,7.1c-19.7-4.7-41.7-2.4-45.7-1.6l0,0
		c-2.4,0-4.7,0.8-7.1,1.6c-0.8-0.8-1.6-0.8-2.4-1.6c-0.8,0-0.8-0.8-1.6-0.8h-0.8c-0.8-0.8-1.6-0.8-2.4-0.8l0,0
		c-0.8,0-1.6-0.8-2.4-0.8l0,0c-0.8,0-1.6-0.8-2.4-0.8l0,0c-0.8,0-1.6,0-2.4-0.8h-0.8c-0.8,0-1.6,0-2.4,0h-0.8c-0.8,0-1.6,0-2.4,0
		s-2.4,0-3.2,0c-16.5,1.6-29.1,15-29.1,31.5l0,0c-15,1.6-26.8,13.4-28.4,28.4c-1.6,1.6-2.4,2.4-3.2,3.9l0,0
		c-0.8,1.6-1.6,2.4-3.2,3.2l0,0c-1.6,2.4-3.2,3.9-3.9,4.7c-26.8,39.4-42.5,70.1-42.5,111.9c0,1.6,0.8,3.2,1.6,4.7
		c0,0.8,0.8,1.6,0.8,2.4c0,0.8,0.8,1.6,0.8,2.4c0,0.8,0.8,1.6,0.8,2.4c0,0.8,0.8,1.6,0.8,2.4s0.8,1.6,0.8,2.4s0.8,1.6,0.8,2.4
		s0.8,1.6,0.8,2.4c0,0.8,0.8,1.6,0.8,2.4c0,0.8,0.8,1.6,0.8,2.4c0,0.8,0.8,1.6,0.8,2.4c0,0.8,0.8,1.6,0.8,2.4c0,0.8,0.8,1.6,0.8,2.4
		c0,0.8,0.8,1.6,0.8,2.4c0,0.8,0.8,1.6,0.8,2.4s0.8,1.6,0.8,2.4s0.8,1.6,0.8,2.4s0.8,1.6,0.8,2.4c0,0.8,0.8,1.6,0.8,2.4
		c0,0.8,0.8,1.6,0.8,2.4c0,0.8,0.8,1.6,0.8,2.4c0,0.8,0.8,1.6,0.8,2.4c0,0.8,0.8,1.6,0.8,2.4c0,0.8,0.8,1.6,0.8,2.4
		c0,0.8,0.8,1.6,0.8,2.4s0.8,1.6,0.8,2.4s0.8,1.6,0.8,2.4s0.8,1.6,0.8,2.4c0,0.8,0.8,1.6,0.8,2.4c0,0.8,0.8,1.6,0.8,2.4
		c0,0.8,0.8,1.6,0.8,2.4c0,0.8,0.8,1.6,0.8,2.4c0,0.8,0.8,1.6,0.8,2.4c0,0.8,0.8,1.6,0.8,2.4c0,0.8,0.8,1.6,0.8,2.4s0.8,1.6,0.8,2.4
		s0.8,1.6,0.8,2.4c0,0.8,0.8,1.6,0.8,2.4c0,0.8,0.8,1.6,0.8,2.4c0,0.8,0.8,1.6,0.8,2.4c0,0.8,0.8,1.6,0.8,2.4c0,0.8,0.8,1.6,0.8,2.4
		c0,0.8,0.8,1.6,0.8,2.4c0,0.8,0.8,1.6,0.8,2.4c0,0.8,0.8,1.6,0.8,2.4c0,0.8,0.8,1.6,0.8,2.4c0,0.8,0.8,1.6,0.8,2.4
		c0,0.8,0.8,1.6,0.8,2.4c0,0.8,0.8,1.6,0.8,2.4c0,0.8,0.8,1.6,0.8,2.4c0,0.8,0.8,1.6,0.8,2.4c0,0.8,0.8,1.6,0.8,2.4
		c0,0.8,0.8,1.6,0.8,2.4c0,0.8,0.8,1.6,0.8,2.4c0,0.8,0.8,1.6,0.8,2.4c0,0.8,0.8,1.6,0.8,2.4c0,0.8,0.8,1.6,0.8,2.4
		c0,0.8,0.8,1.6,0.8,2.4c0,0.8,0.8,1.6,0.8,2.4c0,0.8,0.8,1.6,0.8,2.4c0,0.8,0.8,1.6,0.8,2.4c0,0.8,0.8,1.6,0.8,2.4
		c0,0.8,0.8,1.6,0.8,2.4c0,0.8,0.8,1.6,0.8,2.4c0,0.8,0.8,1.6,0.8,2.4c0,0.8,0.8,1.6,0.8,2.4c0,0.8,0.8,1.6,0.8,2.4
		c0,0.8,0.8,1.6,0.8,2.4c0,0.8,0.8,1.6,0.8,2.4c0,0.8,0.8,1.6,0.8,2.4c0,0.8,0.8,1.6,0.8,2.4c0,0.8,0.8,1.6,0.8,2.4
		c0,0.8,0.8,1.6,0.8,2.4c0,0.8,0.8,1.6,0.8,2.4c0,0.8,0.8,1.6,0.8,2.4c0,0.8,0.8,1.6,0.8,2.4c0,0.8,0.8,1.6,0.8,2.4
		c0,0.8,0.8,1.6,0.8,2.4c0,0.8,0.8,1.6,0.8,2.4c0,0.8,0.8,1.6,0.8,2.4c0,0.8,0.8,1.6,0.8,2.4c0,0.8,0.8,1.6,0.8,2.4
		c0,0.8,0.8,1.6,0.8,2.4c0,0.8,0.8,1.6,0.8,2.4c0,0.8,0.8,1.6,0.8,2.4c0,0.8,0.8,1.6,0.8,2.4c0,0.8,0.8,1.6,0.8,2.4
		c0,0.8,0.8,1.6,0.8,2.4c0,0.8,0.8,1.6,0.8,2.4c22.8,6.3,46.5,10.2,71.7,10.2C347.4,512,426.9,463.9,472.6,392.3z"/>
	<path id="XMLID_5_" class="st2" d="M345.8,259.9c-11.8-45.7,4.7-89.8,17.3-102.4l0,0l0,0c-1.6-15-13.4-26.8-28.4-28.4l0,0
		c0-17.3-14.2-32.3-32.3-32.3c-7.9,0-15,2.4-19.7,7.1c-11-2.4-21.3-3.2-26.8-3.2c-5.5,0-15.8,0-26.8,3.2c-5.5-4.7-12.6-7.1-19.7-7.1
		c-17.3,0-32.3,14.2-32.3,32.3l0,0c-15,1.6-26.8,13.4-28.4,28.4c12.6,12.6,29.1,56.7,17.3,102.4c0.8,73.3,10.2,151.2,89.8,151.2
		C335.6,411.2,345,333.2,345.8,259.9L345.8,259.9z"/>
	<path id="XMLID_6_" class="st3" d="M279.6,107.9c0.8-0.8,2.4-3.2,3.2-3.9c-19.7-4.7-41.7-2.4-45.7-1.6
		C242.6,102.4,272.5,104.8,279.6,107.9z"/>
	<path id="XMLID_7_" class="st3" d="M363.1,156.8L363.1,156.8c-1.6-15-13.4-26.8-28.4-28.4l0,0c0-17.3-14.2-32.3-32.3-32.3
		c-2.4,0-3.9,0-6.3,0.8c15,3.2,26,15.8,26,31.5l0,0c15,1.6,26.8,13.4,28.4,28.4l0,0l0,0c-12.6,12.6-29.1,56.7-17.3,102.4l0,0
		c-0.8,71.7-10.2,147.3-83.5,151.2c1.6,0,3.9,0,6.3,0c79.6,0,89-78,89.8-151.2l0,0C334,214.3,350.5,170.1,363.1,156.8L363.1,156.8z"
		/>
	<path id="XMLID_8_" class="st3" d="M220.6,107.1c3.2-0.8,6.3-2.4,9.5-3.2c-6.3-5.5-13.4-7.1-19.7-7.1c-2.4,0-3.9,0-6.3,0.8
		C208.7,98.5,216.6,104,220.6,107.1z"/>
	<path id="XMLID_9_" class="st4" d="M412.8,288.3c2.4-1.6,3.2-4.7,3.2-7.1c0-41-15.8-72.5-42.5-111.9c-0.8-1.6-4.7-6.3-10.2-11.8
		l0,0c-12.6,12.6-29.1,56.7-17.3,102.4l0,0l0,0c17.3,16.5,39.4,29.1,59.1,31.5C408,291.4,410.4,290.7,412.8,288.3z"/>
	<path id="XMLID_10_" class="st5" d="M373.4,169.4c-0.8-1.6-4.7-6.3-10.2-11.8l0,0c-1.6,1.6-3.9,4.7-5.5,7.9
		c1.6,2.4,3.2,3.9,3.2,4.7c27.6,40.2,42.5,70.9,42.5,111.9c0,3.2-1.6,5.5-3.2,7.1c-0.8,0.8-1.6,0.8-2.4,1.6c2.4,0.8,4.7,0.8,6.3,0.8
		c3.2,0,5.5-0.8,7.9-2.4s3.2-4.7,3.2-7.1C415.9,239.5,400.1,208.7,373.4,169.4z"/>
	<path id="XMLID_11_" class="st4" d="M148.9,156.8c-5.5,6.3-9.5,11-10.2,12.6c-26.8,39.4-42.5,70.1-42.5,111.9
		c0,3.2,1.6,5.5,3.2,7.1c2.4,1.6,4.7,3.2,7.9,2.4c19.7-2.4,41.7-14.2,59.1-31.5C178,214.3,161.5,170.1,148.9,156.8z"/>
	<path id="XMLID_12_" class="st5" d="M148.9,156.8c-2.4,3.2-4.7,5.5-6.3,7.9c11,18.1,22.1,55.9,11.8,95.3
		c-15,15-34.7,26.8-52.8,29.9c1.6,0.8,3.9,1.6,5.5,0.8c19.7-2.4,41.7-14.2,59.1-31.5C178,214.3,161.5,170.1,148.9,156.8z"/>
	<path id="XMLID_13_" class="st4" d="M256,274.9c-38.6,0-71.7,25.2-83.5,59.1c9.5,43.3,31.5,77.2,83.5,77.2s74-33.1,83.5-77.2
		C327.7,299.3,294.6,274.9,256,274.9z"/>
	<path id="XMLID_14_" class="st5" d="M267,410.4c1.6,0,3.9-0.8,5.5-0.8c0.8,0,1.6,0,2.4-0.8c2.4-0.8,3.9-0.8,6.3-1.6h0.8
		c2.4-0.8,4.7-1.6,7.1-2.4c0.8,0,0.8-0.8,1.6-0.8c1.6-0.8,3.2-1.6,4.7-2.4c0.8,0,1.6-0.8,1.6-0.8c1.6-0.8,3.2-1.6,4.7-2.4l0.8-0.8
		c1.6-1.6,3.9-2.4,5.5-3.9l0.8-0.8c1.6-0.8,2.4-2.4,3.9-3.9c0.8-0.8,0.8-0.8,1.6-1.6c0.8-1.6,2.4-2.4,3.2-3.9l0.8-0.8
		c1.6-1.6,2.4-3.9,3.9-5.5v-0.8c0.8-1.6,2.4-3.2,3.2-5.5c0-0.8,0.8-0.8,0.8-1.6c0.8-1.6,1.6-3.2,2.4-4.7c0-0.8,0.8-0.8,0.8-1.6
		c1.6-3.9,3.9-8.7,4.7-13.4c0-0.8,0-0.8,0.8-1.6c0.8-1.6,0.8-3.9,1.6-5.5c0-0.8,0-0.8,0.8-1.6c0.8-2.4,1.6-4.7,1.6-7.1
		c-2.4-6.3-5.5-12.6-8.7-18.1c-7.1,50.4-26,92.2-79.6,95.3c1.6,0,3.9,0,5.5,0c3.2,0,5.5,0,8.7,0C265.5,410.4,266.2,410.4,267,410.4z
		"/>
	<path id="XMLID_15_" class="st6" d="M226.1,251.3c-5.5,0-10.2-4.7-10.2-10.2v-29.9c0-5.5,4.7-10.2,10.2-10.2s10.2,4.7,10.2,10.2
		V241C236.3,246.5,231.6,251.3,226.1,251.3z"/>
	<path id="XMLID_16_" class="st6" d="M285.9,251.3c-5.5,0-10.2-4.7-10.2-10.2v-29.9c0-5.5,4.7-10.2,10.2-10.2s10.2,4.7,10.2,10.2
		V241C296.2,246.5,291.4,251.3,285.9,251.3z"/>
	<path id="XMLID_17_" class="st7" d="M256,371c-2.4,0-4.7-0.8-7.1-3.2L219,337.9c-3.9-3.9-3.9-10.2,0-14.2c3.9-3.9,10.2-3.9,14.2,0
		l22.8,22.8l22.8-22.8c3.9-3.9,10.2-3.9,14.2,0s3.9,10.2,0,14.2l-29.9,29.9C260.7,370.2,258.4,371,256,371z"/>
</g>
</svg>
