<?xml version="1.0" encoding="utf-8"?>
<!-- Generator: Adobe Illustrator 24.1.1, SVG Export Plug-In . SVG Version: 6.00 Build 0)  -->
<svg version="1.1" id="Layer_1" xmlns="http://www.w3.org/2000/svg" xmlns:xlink="http://www.w3.org/1999/xlink" x="0px" y="0px"
	 viewBox="0 0 512 512" style="enable-background:new 0 0 512 512;" xml:space="preserve">
<style type="text/css">
	.st0{fill:#F2CF61;}
	.st1{fill:#E6C45C;}
	.st2{fill:#242424;}
	.st3{fill:#992B1F;}
	.st4{fill:#8C271C;}
	.st5{fill:#E78244;}
	.st6{fill:#D97A40;}
	.st7{fill:#E6E6E6;}
</style>
<g id="XMLID_1_">
	<circle id="XMLID_3_" class="st0" cx="256" cy="256" r="256"/>
	<path id="XMLID_4_" class="st1" d="M473.4,391.5l-0.8-1.6c0-0.8-0.8-1.6-0.8-2.4c0-0.8-0.8-1.6-0.8-2.4c0-0.8-0.8-1.6-0.8-2.4
		c0-0.8-0.8-1.6-0.8-2.4s-0.8-1.6-0.8-2.4c0-0.8-0.8-1.6-0.8-2.4c0-0.8-0.8-1.6-0.8-2.4c0-0.8-0.8-1.6-0.8-2.4
		c0-0.8-0.8-1.6-0.8-2.4c0-0.8-0.8-1.6-0.8-2.4c0-0.8-0.8-1.6-0.8-2.4s-0.8-1.6-0.8-2.4s-0.8-1.6-0.8-2.4s-0.8-1.6-0.8-2.4
		s-0.8-1.6-0.8-2.4c0-0.8-0.8-1.6-0.8-2.4c0-0.8-0.8-1.6-0.8-2.4c0-0.8-0.8-1.6-0.8-2.4c0-0.8-0.8-1.6-0.8-2.4
		c0-0.8-0.8-1.6-0.8-2.4s-0.8-1.6-0.8-2.4s-0.8-1.6-0.8-2.4s-0.8-1.6-0.8-2.4s-0.8-1.6-0.8-2.4c0-0.8-0.8-1.6-0.8-2.4
		c0-0.8-0.8-1.6-0.8-2.4c0-0.8-0.8-1.6-0.8-2.4c0-0.8-0.8-1.6-0.8-2.4c0-0.8-0.8-1.6-0.8-2.4s-0.8-1.6-0.8-2.4s-0.8-1.6-0.8-2.4
		s-0.8-1.6-0.8-2.4s-0.8-1.6-0.8-2.4c0-0.8-0.8-1.6-0.8-2.4c0-0.8-0.8-1.6-0.8-2.4c0-0.8-0.8-1.6-0.8-2.4c0-0.8-0.8-1.6-0.8-2.4
		c0-0.8-0.8-1.6-0.8-2.4c0-0.8-0.8-1.6-0.8-2.4s-0.8-1.6-0.8-2.4s-0.8-1.6-0.8-2.4s-0.8-1.6-0.8-2.4c0-0.8-0.8-1.6-0.8-2.4
		c0-0.8-0.8-1.6-0.8-2.4c0-0.8-0.8-1.6-0.8-2.4c0-0.8-0.8-1.6-0.8-2.4c0-0.8-0.8-1.6-0.8-2.4c0-0.8-0.8-1.6-0.8-2.4
		s-0.8-1.6-0.8-2.4s-0.8-1.6-0.8-2.4s-0.8-1.6-0.8-2.4s-0.8-1.6-0.8-2.4c0-0.8-0.8-1.6-0.8-2.4c0-0.8-0.8-1.6-0.8-2.4
		c0-0.8-0.8-1.6-0.8-2.4c0-0.8-0.8-1.6-0.8-2.4c0-0.8-0.8-1.6-0.8-2.4c0-0.8-0.8-1.6-0.8-2.4c0-0.8-0.8-1.6-0.8-2.4
		c0-0.8-0.8-1.6-0.8-2.4c0-0.8-0.8-1.6-0.8-2.4c0-0.8-0.8-1.6-0.8-2.4c0-0.8-0.8-1.6-0.8-2.4s-0.8-1.6-0.8-2.4
		c0-0.8-0.8-1.6-0.8-2.4c0-0.8-0.8-1.6-0.8-2.4c0-0.8-0.8-1.6-0.8-2.4c0-0.8-0.8-1.6-0.8-2.4s-0.8-1.6-0.8-2.4
		c0-0.8-0.8-1.6-0.8-2.4c0-0.8-0.8-1.6-0.8-2.4c0-0.8-0.8-1.6-0.8-2.4c0-0.8-0.8-1.6-0.8-2.4c0-0.8-0.8-1.6-0.8-2.4
		c0-0.8-0.8-1.6-0.8-2.4c0-0.8-0.8-1.6-0.8-2.4c0-0.8-0.8-1.6-0.8-2.4s-0.8-1.6-0.8-2.4c0-0.8-0.8-1.6-0.8-2.4
		c0-0.8-0.8-1.6-0.8-2.4c0-0.8-0.8-1.6-0.8-2.4c0-0.8-0.8-1.6-0.8-2.4s-0.8-1.6-0.8-2.4c0-0.8-0.8-1.6-0.8-2.4
		c0-0.8-0.8-1.6-0.8-2.4c0-0.8-0.8-1.6-0.8-2.4c0-0.8-0.8-1.6-0.8-2.4c0-0.8-0.8-1.6-0.8-2.4c0-0.8-0.8-1.6-0.8-2.4
		c0-0.8-0.8-1.6-0.8-2.4c0-0.8-0.8-1.6-0.8-2.4s-0.8-1.6-0.8-2.4c0-0.8-0.8-1.6-0.8-2.4c0-0.8-0.8-1.6-0.8-2.4
		c0-0.8-0.8-1.6-0.8-2.4c0-0.8-0.8-1.6-0.8-2.4s-0.8-1.6-0.8-2.4c0-0.8-0.8-1.6-0.8-2.4c0-0.8-0.8-1.6-0.8-2.4
		c0-0.8-0.8-1.6-0.8-2.4s-0.8-1.6-0.8-2.4c0-0.8-0.8-1.6-0.8-2.4c0-0.8-0.8-1.6-0.8-2.4c0-0.8-0.8-1.6-0.8-2.4
		c0-0.8-0.8-1.6-0.8-2.4s-0.8-1.6-0.8-2.4c0-0.8-0.8-1.6-0.8-2.4c0-0.8-0.8-1.6-0.8-2.4c0-0.8-0.8-1.6-0.8-2.4
		c0-0.8-0.8-1.6-0.8-2.4c0-0.8-0.8-1.6-0.8-2.4c-0.8-1.6-2.4-2.4-3.9-2.4h-0.8c-1.6,0-3.9,0.8-4.7,2.4v-0.8c0-0.8-0.8-1.6-0.8-2.4
		c0-0.8-0.8-1.6-0.8-2.4c0-0.8-0.8-1.6-0.8-2.4c0-0.8-0.8-1.6-0.8-2.4c0-0.8-0.8-1.6-0.8-2.4c0-0.8-0.8-1.6-0.8-2.4
		c0-0.8-0.8-1.6-0.8-2.4c0-0.8-0.8-1.6-0.8-2.4c0-0.8-0.8-1.6-0.8-2.4c0-0.8-0.8-1.6-0.8-2.4c0-0.8-0.8-1.6-0.8-2.4
		c0-0.8-0.8-1.6-0.8-2.4c0-0.8-0.8-1.6-0.8-2.4c0-0.8-0.8-1.6-0.8-2.4c0-0.8-0.8-1.6-0.8-2.4c0-0.8-0.8-1.6-0.8-2.4
		c0-0.8-0.8-1.6-0.8-2.4c0-0.8-0.8-1.6-0.8-2.4c0-0.8-0.8-1.6-0.8-2.4c0-0.8-0.8-1.6-0.8-2.4c0-0.8-0.8-1.6-0.8-2.4
		c0-0.8-0.8-1.6-0.8-2.4c0-0.8-0.8-1.6-0.8-2.4c-0.8-2.4-2.4-4.7-5.5-4.7h-0.8c-3.2,0-5.5,2.4-6.3,5.5l-10.2,98.5L323,192.2v-0.8
		c0-0.8-0.8-1.6-0.8-2.4s-0.8-1.6-0.8-2.4c0-0.8-0.8-1.6-0.8-2.4c0-0.8-0.8-1.6-0.8-2.4c0-0.8-0.8-1.6-0.8-2.4
		c0-0.8-0.8-1.6-0.8-2.4s-0.8-1.6-0.8-2.4c0-0.8-0.8-1.6-0.8-2.4c0-0.8-0.8-1.6-0.8-2.4c0-0.8-0.8-1.6-0.8-2.4s-0.8-1.6-0.8-2.4
		c0-0.8-0.8-1.6-0.8-2.4c0-0.8-0.8-1.6-0.8-2.4c0-0.8-0.8-1.6-0.8-2.4c0-0.8-0.8-1.6-0.8-2.4c-1.6-4.7-6.3-7.9-11-7.1
		c-3.9,0.8-7.1,3.9-7.9,7.9c-1.6,1.6-5.5,5.5-9.5,9.5c-6.3-3.9-12.6-7.1-20.5-7.1c-0.8,0-2.4,0-3.2,0c-0.8,0-1.6,0-2.4,0.8l0,0
		c-5.5,0.8-10.2,3.2-14.2,6.3c-4.7-3.9-7.9-7.1-9.5-8.7v-0.8c-0.8-3.9-3.9-6.3-7.9-7.1c-4.7-0.8-8.7,1.6-10.2,5.5l-0.8-0.8
		c0-0.8-0.8-1.6-0.8-2.4s-0.8-1.6-0.8-2.4c0-0.8-0.8-1.6-0.8-2.4c0-0.8-0.8-1.6-0.8-2.4c0-0.8-0.8-1.6-0.8-2.4
		c0-0.8-0.8-1.6-0.8-2.4c0-0.8-0.8-1.6-0.8-2.4c0-0.8-0.8-1.6-0.8-2.4c0-0.8-0.8-1.6-0.8-2.4c0-0.8-0.8-1.6-0.8-2.4
		s-0.8-1.6-0.8-2.4c0-0.8-0.8-1.6-0.8-2.4c0-0.8-0.8-1.6-0.8-2.4c0-0.8-0.8-1.6-0.8-2.4c0-0.8-0.8-1.6-0.8-2.4
		c0-0.8-0.8-1.6-0.8-2.4c0-0.8-0.8-1.6-0.8-2.4c0-0.8-0.8-1.6-0.8-2.4c0-0.8-0.8-1.6-0.8-2.4c0-0.8-0.8-1.6-0.8-2.4
		c0-0.8-0.8-1.6-0.8-2.4c0-0.8-0.8-1.6-0.8-2.4c0-0.8-0.8-1.6-0.8-2.4c0-0.8-0.8-1.6-0.8-2.4c0-0.8-0.8-1.6-0.8-2.4
		c0-0.8-0.8-1.6-0.8-2.4c0-0.8-0.8-1.6-0.8-2.4c0-0.8-0.8-1.6-0.8-2.4c0-0.8-0.8-1.6-0.8-2.4c0-0.8-0.8-1.6-0.8-2.4
		c0-0.8-0.8-1.6-0.8-2.4c0-0.8-0.8-1.6-0.8-2.4c0-0.8-0.8-1.6-0.8-2.4c0-0.8-0.8-1.6-0.8-2.4c0-0.8-0.8-1.6-0.8-2.4
		c0-0.8-0.8-1.6-0.8-2.4c0-0.8-0.8-1.6-0.8-2.4c0-0.8-0.8-1.6-0.8-2.4c0-0.8-0.8-1.6-0.8-2.4c0-0.8-0.8-1.6-0.8-2.4
		c0-0.8-0.8-1.6-0.8-2.4c0-0.8-0.8-1.6-0.8-2.4c-0.8-3.2-3.2-4.7-5.5-4.7h-0.8c-3.2,0-5.5,3.2-5.5,6.3l10.2,100c0,0.8,0,1.6,0.8,2.4
		l0,0c0,0.8,0,0.8,0.8,1.6l0,0c0,0.8,0,0.8,0.8,1.6l0,0c0,0.8,0,0.8,0.8,1.6l0,0c0,0.8,0,0.8,0.8,1.6l0,0c0,0.8,0,0.8,0.8,1.6l0,0
		c0,0.8,0,0.8,0.8,1.6l0,0c0,0.8,0,0.8,0.8,1.6l0,0c0,0.8,0,0.8,0.8,1.6l0,0c0,0.8,0,0.8,0.8,1.6l0,0c0,0.8,0,0.8,0.8,1.6l0,0
		c0,0.8,0,0.8,0.8,1.6l0,0c0,0.8,0,0.8,0.8,1.6l0,0c0,0.8,0,0.8,0.8,1.6l0,0c0,0.8,0,0.8,0.8,1.6l0,0c0,0.8,0,0.8,0.8,1.6l0,0
		c0,0.8,0,0.8,0.8,1.6l0,0c0,0.8,0,0.8,0.8,1.6l0,0c0,0.8,0,0.8,0.8,1.6l0,0c0,0.8,0,0.8,0.8,1.6l0,0c0,0.8,0,0.8,0.8,1.6l0,0
		c0,0.8,0,0.8,0.8,1.6l0,0c0,0.8,0,0.8,0,0.8l-9.5-5.5c0-0.8,0-0.8-0.8-1.6c0-0.8-0.8-1.6-0.8-2.4c0-0.8-0.8-1.6-0.8-2.4
		c0-0.8-0.8-1.6-0.8-2.4c0-0.8-0.8-1.6-0.8-2.4c0-0.8-0.8-1.6-0.8-2.4c0-0.8-0.8-1.6-0.8-2.4c0-0.8-0.8-1.6-0.8-2.4
		c0-0.8-0.8-1.6-0.8-2.4c0-0.8-0.8-1.6-0.8-2.4s-0.8-1.6-0.8-2.4c0-0.8-0.8-1.6-0.8-2.4c0-0.8-0.8-1.6-0.8-2.4
		c0-0.8-0.8-1.6-0.8-2.4c0-0.8-0.8-1.6-0.8-2.4s-0.8-1.6-0.8-2.4c0-0.8-0.8-1.6-0.8-2.4c0-0.8-0.8-1.6-0.8-2.4
		c0-0.8-0.8-1.6-0.8-2.4c0-0.8-0.8-1.6-0.8-2.4c0-0.8-0.8-1.6-0.8-2.4c0-0.8-0.8-1.6-0.8-2.4c0-0.8-0.8-1.6-0.8-2.4
		c0-0.8-0.8-1.6-0.8-2.4s-0.8-1.6-0.8-2.4c0-0.8-0.8-1.6-0.8-2.4c0-0.8-0.8-1.6-0.8-2.4c0-0.8-0.8-1.6-0.8-2.4
		c0-0.8-0.8-1.6-0.8-2.4c0-0.8-0.8-1.6-0.8-2.4c0-0.8-0.8-1.6-0.8-2.4c0-0.8-0.8-1.6-0.8-2.4c0-0.8-0.8-1.6-0.8-2.4
		c0-0.8-0.8-1.6-0.8-2.4c0-0.8-0.8-1.6-0.8-2.4c0-0.8-0.8-1.6-0.8-2.4c0-0.8-0.8-1.6-0.8-2.4c0-0.8-0.8-1.6-0.8-2.4
		c0-0.8-0.8-1.6-0.8-2.4c0-0.8-0.8-1.6-0.8-2.4c0-0.8-0.8-1.6-0.8-2.4c0-0.8-0.8-1.6-0.8-2.4c0-0.8-0.8-1.6-0.8-2.4
		c0-0.8-0.8-1.6-0.8-2.4c0-0.8-0.8-1.6-0.8-2.4c0-0.8-0.8-1.6-0.8-2.4c-0.8-3.2-3.2-4.7-5.5-4.7h-0.8c-1.6,0-3.2,0.8-3.9,2.4
		c-0.8,1.6-1.6,3.2-1.6,4.7l10.2,80.3c0,0.8,0.8,1.6,0.8,2.4c0,0.8,0.8,1.6,0.8,2.4s0.8,1.6,0.8,2.4c0,0.8,0.8,1.6,0.8,2.4
		c0,0.8,0.8,1.6,0.8,2.4c0,0.8,0.8,1.6,0.8,2.4c0,0.8,0.8,1.6,0.8,2.4c0,0.8,0.8,1.6,0.8,2.4c0,0.8,0.8,1.6,0.8,2.4
		c0,0.8,0.8,1.6,0.8,2.4c0,0.8,0.8,1.6,0.8,2.4s0.8,1.6,0.8,2.4c0,0.8,0.8,1.6,0.8,2.4c0,0.8,0.8,1.6,0.8,2.4c0,0.8,0.8,1.6,0.8,2.4
		c0,0.8,0.8,1.6,0.8,2.4h-16.5c-1.6,0-3.2,0.8-3.9,1.6l-40.2,40.2c-2.4,2.4-2.4,4.7-0.8,7.1c0,0.8,0.8,1.6,0.8,2.4
		c0,0.8,0.8,1.6,0.8,2.4c0,0.8,0.8,1.6,0.8,2.4c0,0.8,0.8,1.6,0.8,2.4c0,0.8,0.8,1.6,0.8,2.4c0,0.8,0.8,1.6,0.8,2.4
		c0,0.8,0.8,1.6,0.8,2.4c0,0.8,0.8,1.6,0.8,2.4s0.8,1.6,0.8,2.4s0.8,1.6,0.8,2.4s0.8,1.6,0.8,2.4s0.8,1.6,0.8,2.4
		c0,0.8,0.8,1.6,0.8,2.4c0,0.8,0.8,1.6,0.8,2.4c0,0.8,0.8,1.6,0.8,2.4c0,0.8,0.8,1.6,0.8,2.4c0,0.8,0.8,1.6,0.8,2.4s0.8,1.6,0.8,2.4
		s0.8,1.6,0.8,2.4s0.8,1.6,0.8,2.4s0.8,1.6,0.8,2.4c0,0.8,0.8,1.6,0.8,2.4c0,0.8,0.8,1.6,0.8,2.4c0,0.8,0.8,1.6,0.8,2.4
		c0,0.8,0.8,1.6,0.8,2.4c0,0.8,0.8,1.6,0.8,2.4s0.8,1.6,0.8,2.4s0,0.8,0.8,1.6l-3.2,7.9c-0.8,1.6-0.8,3.9,0.8,5.5
		c0,0.8,0.8,1.6,0.8,2.4c0,0.8,0.8,1.6,0.8,2.4c0,0.8,0.8,1.6,0.8,2.4c0,0.8,0.8,1.6,0.8,2.4c0,0.8,0.8,1.6,0.8,2.4
		c0,0.8,0.8,1.6,0.8,2.4s0.8,1.6,0.8,2.4s0.8,1.6,0.8,2.4s0.8,1.6,0.8,2.4c0,0.8,0.8,1.6,0.8,2.4c0,0.8,0.8,1.6,0.8,2.4
		c0,0.8,0.8,1.6,0.8,2.4c0,0.8,0.8,1.6,0.8,2.4c0,0.8,0.8,1.6,0.8,2.4c0,0.8,0.8,1.6,0.8,2.4s0.8,1.6,0.8,2.4s0.8,1.6,0.8,2.4
		s0.8,1.6,0.8,2.4s0.8,1.6,0.8,2.4c0,0.8,0.8,1.6,0.8,2.4c0,0.8,0.8,1.6,0.8,2.4c0,0.8,0.8,1.6,0.8,2.4c0,0.8,0.8,1.6,0.8,2.4
		c0,0.8,0.8,1.6,0.8,2.4c0,0.8,0.8,1.6,0.8,2.4c0,0.8,0.8,1.6,0.8,2.4c0,0.8,0.8,1.6,0.8,2.4c0,0.8,0.8,1.6,0.8,2.4
		c0,0.8,0.8,1.6,0.8,2.4c0,0.8,0.8,1.6,0.8,2.4c0,0.8,0.8,1.6,0.8,2.4c0,0.8,0.8,1.6,0.8,2.4c0,0.8,0.8,1.6,0.8,2.4
		c0,0.8,0.8,1.6,0.8,2.4c0,0.8,0.8,1.6,0.8,2.4c0,0.8,0.8,1.6,0.8,2.4c0,0.8,0.8,1.6,0.8,2.4c0,0.8,0.8,1.6,0.8,2.4
		c0,0.8,0.8,1.6,0.8,2.4c0,0.8,0.8,1.6,0.8,2.4c0,0.8,0.8,1.6,0.8,2.4c0,0.8,0.8,1.6,0.8,2.4c0,0.8,0.8,1.6,0.8,2.4
		c0,0.8,0.8,1.6,0.8,2.4c0,0.8,0.8,1.6,0.8,2.4c0,0.8,0,0.8,0.8,1.6c29.9,12.6,63,18.9,96.9,18.9C347.4,512,428.5,464,473.4,391.5z"
		/>
	<path id="XMLID_5_" class="st2" d="M236.3,236.3c-2.4,0-3.9-0.8-6.3-2.4c-25.2-18.9-24.4-25.2-23.6-29.1c0.8-5.5,5.5-9.5,11-8.7
		c3.9,0.8,7.1,3.9,8.7,7.9c2.4,3.2,9.5,9.5,16.5,14.2c4.7,3.2,5.5,9.5,2.4,14.2C241.8,234.7,238.7,236.3,236.3,236.3z"/>
	<path id="XMLID_6_" class="st2" d="M126,401.7c-0.8,0-1.6,0-2.4-0.8c-3.2-1.6-4.7-4.7-3.2-7.9l29.9-70.1c0.8-0.8,1.6-2.4,2.4-2.4
		l43.3-29.1h-48L109.5,330c-0.8,0.8-2.4,1.6-3.9,1.6s-3.2-0.8-3.9-1.6c-2.4-2.4-2.4-6.3,0-8.7l40.2-40.2c0.8-0.8,2.4-1.6,3.9-1.6
		H193l-50.4-29.1c-1.6-0.8-2.4-2.4-3.2-4.7L130,167c0-1.6,0-3.2,1.6-4.7c0.8-1.6,2.4-2.4,3.9-2.4h0.8c3.2,0,5.5,2.4,6.3,5.5
		l9.5,77.2l48,27.6L170.9,219c-0.8-0.8-0.8-1.6-0.8-2.4l-10.2-100c0-3.2,2.4-6.3,5.5-6.3h0.8c3.2,0,5.5,2.4,6.3,5.5l10.2,98.5
		l39.4,68.5l0.8,0.8v1.6v0.8v0.8v0.8v0.8v0.8l-0.8,0.8l0,0l0,0l0,0l-0.8,0.8l-58.3,38.6l-29.1,68.5
		C130.8,400.9,128.4,401.7,126,401.7z"/>
	<path id="XMLID_7_" class="st2" d="M386,401.7c-2.4,0-4.7-1.6-5.5-3.9l-29.1-68.5L293,290.7l-0.8-0.8l0,0l-0.8-0.8l-0.8-0.8v-0.8
		v-1.6v-0.8v-0.8v-0.8l0,0L330,215l10.2-98.5c0-3.2,3.2-5.5,6.3-5.5h0.8c3.2,0,5.5,3.2,5.5,6.3l-11,99.2c0,0.8,0,1.6-0.8,2.4
		l-29.1,51.2l48-27.6l9.5-77.2c0-3.2,3.2-5.5,6.3-5.5h0.8c1.6,0,3.2,0.8,3.9,2.4s1.6,3.2,1.6,4.7l-10.2,80.3c0,1.6-1.6,3.2-3.2,4.7
		l-50.4,27.6h47.3c1.6,0,3.2,0.8,3.9,1.6l40.2,40.2c2.4,2.4,2.4,6.3,0,8.7c-0.8,0.8-2.4,1.6-3.9,1.6c-1.6,0-3.2-0.8-3.9-1.6
		l-38.6-38.6h-48l43.3,29.1c0.8,0.8,1.6,1.6,2.4,2.4l29.9,70.1c1.6,3.2,0,6.3-3.2,7.9C387.5,401.7,386.8,401.7,386,401.7z"/>
	<path id="XMLID_8_" class="st2" d="M275.7,236.3c-3.2,0-6.3-1.6-7.9-3.9c-3.2-4.7-2.4-11,2.4-14.2c7.1-5.5,14.2-11.8,16.5-14.2
		c0.8-3.9,3.9-7.1,7.9-7.9c5.5-0.8,10.2,3.2,11,8.7c0.8,3.9,1.6,10.2-23.6,29.1C280.4,235.5,278.1,236.3,275.7,236.3z"/>
	<path id="XMLID_9_" class="st3" d="M256,396.2L256,396.2c-17.3-0.8-32.3-9.5-42.5-23.6c-12.6-18.1-16.5-43.3-11-63
		c5.5-24.4,8.7-37.8,13.4-46.5V256c0-28.4,16.5-49.6,40.2-49.6c23.6,0.8,40.2,22.1,40.2,50.4v7.1c6.3,11,9.5,25.2,11.8,38.6
		c0.8,3.2,1.6,6.3,1.6,8.7c6.3,18.9,1.6,44.1-11,62.2C288.3,386.8,273.3,396.2,256,396.2L256,396.2z"/>
	<path id="XMLID_10_" class="st4" d="M309.6,310.4c-0.8-3.2-1.6-5.5-1.6-8.7c-2.4-12.6-5.5-26.8-11.8-38.6V256
		c0-28.4-16.5-49.6-40.2-50.4c-2.4,0-3.9,0-6.3,0.8c20.5,3.9,34.7,23.6,33.9,49.6v7.1c6.3,11,9.5,25.2,11.8,38.6
		c0.8,3.2,1.6,6.3,1.6,8.7c5.5,18.9,1.6,44.1-11,62.2c-8.7,12.6-21.3,21.3-35.4,23.6c1.6,0,3.2,0.8,4.7,0.8h0.8h0.8
		c16.5,0,31.5-9.5,42.5-23.6C311.1,354.5,315.9,329.3,309.6,310.4z"/>
	<path id="XMLID_11_" class="st5" d="M256,275.7c15,0,29.1-4.7,40.2-12.6V256c0-28.4-16.5-49.6-40.2-50.4
		c-22.8,0.8-40.2,22.1-40.2,49.6v7.1l0,0C226.9,271,241,275.7,256,275.7z"/>
	<path id="XMLID_12_" class="st6" d="M249.7,206.4L249.7,206.4c19.7,3.9,34.7,23.6,33.9,49.6v7.1c0.8,1.6,1.6,3.9,2.4,5.5
		c3.2-1.6,6.3-3.2,9.5-5.5V256c0-28.4-16.5-49.6-40.2-50.4c-0.8,0-2.4,0-3.2,0C251.3,206.4,250.5,206.4,249.7,206.4z"/>
	<circle id="XMLID_13_" class="st2" cx="231.6" cy="236.3" r="3.9"/>
	<circle id="XMLID_14_" class="st2" cx="280.4" cy="236.3" r="3.9"/>
	<circle id="XMLID_15_" class="st2" cx="245" cy="225.3" r="7.9"/>
	<circle id="XMLID_16_" class="st2" cx="267" cy="225.3" r="7.9"/>
	<path id="XMLID_17_" class="st7" d="M267.8,328.5h-7.9V323c0-2.4-1.6-3.9-3.9-3.9s-3.9,1.6-3.9,3.9v5.5h-7.9
		c-2.4,0-3.9,1.6-3.9,3.9s1.6,3.9,3.9,3.9h7.9v22.1c0,2.4,1.6,3.9,3.9,3.9s3.9-1.6,3.9-3.9v-22.1h7.9c2.4,0,3.9-1.6,3.9-3.9
		S270.2,328.5,267.8,328.5z"/>
</g>
</svg>
