<?xml version="1.0" encoding="utf-8"?>
<!-- Generator: Adobe Illustrator 24.1.1, SVG Export Plug-In . SVG Version: 6.00 Build 0)  -->
<svg version="1.1" id="Layer_1" xmlns="http://www.w3.org/2000/svg" xmlns:xlink="http://www.w3.org/1999/xlink" x="0px" y="0px"
	 viewBox="0 0 512 512" style="enable-background:new 0 0 512 512;" xml:space="preserve">
<style type="text/css">
	.st0{fill:#4AB8A1;}
	.st1{fill:#43A691;}
	.st2{fill:#CC803D;}
	.st3{fill:#BF7839;}
	.st4{fill:#B37035;}
	.st5{fill:#F5F5F5;}
	.st6{fill:#CCCCCC;}
	.st7{fill:#242424;}
	.st8{fill:#EDEDED;}
</style>
<g id="XMLID_1_">
	<circle id="XMLID_3_" class="st0" cx="256" cy="254.4" r="254.4"/>
	<path id="XMLID_4_" class="st1" d="M489.3,361.7L489.3,361.7c0-0.8,0-1.6,0-2.3h-0.8c0-0.8,0-1.6,0-2.3h-0.8c0-0.8,0-1.6,0-2.3
		h-0.8c0-0.8,0-1.6,0-2.3h-0.8c0-0.8,0-1.6,0-2.3h-0.8c0-0.8,0-1.6,0-2.3h-0.8c0-0.8,0-1.6,0-2.3h-0.8c0-0.8,0-1.6,0-2.3H483
		c0-0.8,0-1.6,0-2.3h-0.8c0-0.8,0-1.6,0-2.3h-0.8c0-0.8,0-1.6,0-2.3h-0.8c0-0.8,0-1.6,0-2.3h-0.8c0-0.8,0-1.6,0-2.3h-0.8
		c0-0.8,0-1.6,0-2.3h-0.8c0-0.8,0-1.6,0-2.3h-0.8c0-0.8,0-1.6,0-2.3h-0.8c0-0.8,0-1.6,0-2.3H476c0-0.8,0-1.6,0-2.3h-0.8
		c0-0.8,0-1.6,0-2.3h-0.8c0-0.8,0-1.6,0-2.3h-0.8c0-0.8,0-1.6,0-2.3h-0.8c0-0.8,0-1.6,0-2.3h-0.8c0-0.8,0-1.6,0-2.3h-0.8
		c0-0.8,0-1.6,0-2.3h-0.8c0-0.8,0-1.6,0-2.3h-0.8c0-0.8,0-1.6,0-2.3h-0.8c0-0.8,0-1.6,0-2.3h-0.8c0-0.8,0-1.6,0-2.3h-0.8
		c0-0.8,0-1.6,0-2.3h-0.8c0-0.8,0-1.6,0-2.3h-0.8c0-0.8,0-1.6,0-2.3H465c0-0.8,0-1.6,0-2.3h-0.8c0-0.8,0-1.6,0-2.3h-0.8
		c0-0.8,0-1.6,0-2.3h-0.8c0-0.8,0-1.6,0-2.3h-0.8c0-0.8,0-1.6,0-2.3h-0.8c0-0.8,0-1.6,0-2.3h-0.8c0-0.8,0-1.6,0-2.3h-0.8
		c0-0.8,0-1.6,0-2.3h-0.8c0-0.8,0-1.6,0-2.3H458c0-0.8,0-1.6,0-2.3h-0.8c0-0.8,0-1.6,0-2.3h-0.8c0-0.8,0-1.6,0-2.3h-0.8
		c0-0.8,0-1.6,0-2.3h-0.8c0-0.8,0-1.6,0-2.3h-0.8c0-0.8,0-1.6,0-2.3h-0.8c0-0.8,0-1.6,0-2.3h-0.8c0-0.8,0-1.6,0-2.3h-0.8
		c0-0.8,0-1.6,0-2.3h-0.8c0-0.8,0-1.6,0-2.3h-0.8c0-0.8,0-1.6,0-2.3h-0.8c0-0.8,0-1.6,0-2.3h-0.8c0-0.8,0-1.6,0-2.3h-0.8
		c0-0.8,0-1.6,0-2.3H447c0-0.8,0-1.6,0-2.3h-0.8c0-0.8,0-1.6,0-2.3h-0.8c0-0.8,0-1.6,0-2.3h-0.8c0-0.8,0-1.6,0-2.3h-0.8
		c0-0.8,0-1.6,0-2.3h-0.8c0-0.8,0-1.6,0-2.3h-0.8c0-0.8,0-1.6,0-2.3h-0.8c0-0.8,0-1.6,0-2.3h-0.8c0-0.8,0-1.6,0-2.3H440
		c0-0.8,0-1.6,0-2.3h-0.8c0-0.8,0-1.6,0-2.3h-0.8c0-0.8,0-1.6,0-2.3h-0.8c0-0.8,0-1.6,0-2.3h-0.8c0-0.8,0-1.6,0-2.3h-0.8
		c0-0.8,0-1.6,0-2.3h-0.8c0-0.8,0-1.6,0-2.3h-0.8c0-0.8,0-1.6,0-2.3h-0.8c0-0.8,0-1.6,0-2.3h-0.8c0-0.8,0-1.6,0-2.3h-0.8
		c0-0.8,0-1.6,0-2.3h-0.8c0-0.8,0-1.6,0-2.3h-0.8c0-0.8,0-1.6,0-2.3h-0.8c0-0.8,0-1.6,0-2.3H429c0-0.8,0-1.6,0-2.3h-0.8
		c0-0.8,0-1.6,0-2.3h-0.8c0-0.8,0-1.6,0-2.3h-0.8c0-0.8,0-1.6,0-2.3h-0.8c0-0.8,0-1.6,0-2.3h-0.8c0-0.8,0-1.6,0-2.3h-0.8
		c0-0.8,0-1.6,0-2.3h-0.8c0-0.8,0-1.6,0-2.3h-0.8c0-0.8,0-1.6,0-2.3H422c0-0.8,0-1.6,0-2.3h-0.8c0-0.8,0-1.6,0-2.3h-0.8
		c0-0.8,0-1.6,0-2.3h-0.8c0-0.8,0-1.6,0-2.3h-0.8c0-0.8,0-1.6,0-2.3h-0.8c0-0.8,0-1.6,0-2.3h-0.8c0-0.8,0-1.6,0-2.3h-0.8
		c0-0.8,0-1.6,0-2.3h-0.8c0-0.8,0-1.6,0-2.3h-0.8c0-0.8,0-1.6,0-2.3h-0.8c0-0.8,0-1.6,0-2.3h-0.8c0-0.8,0-1.6,0-2.3h-0.8
		c0-0.8,0-1.6,0-2.3h-0.8c0-0.8,0-1.6,0-2.3H411c0-0.8,0-1.6,0-2.3h-0.8c0-0.8,0-1.6,0-2.3h-0.8c0-0.8,0-1.6,0-2.3h-0.8
		c0-0.8,0-1.6,0-2.3h-0.8c0-0.8,0-1.6,0-2.3h-0.8c0-0.8,0-1.6,0-2.3h-0.8c0-0.8,0-1.6,0-2.3h-0.8c0-0.8,0-1.6,0-2.3h-0.8
		c0-0.8,0-1.6,0-2.3H404c0-0.8,0-1.6,0-2.3h-0.8c0-0.8,0-1.6,0-2.3h-0.8c0-0.8,0-1.6,0-2.3h-0.8c0-0.8,0-1.6,0-2.3h-0.8
		c0-0.8,0-1.6,0-2.3H400c0-0.8,0-1.6,0-2.3c-1.6,0-3.9,0.8-5.5,0.8c-0.8,0-0.8,0-1.6,0c-1.6,0.8-3.9,0.8-5.5,1.6l0,0
		c-27.4,9.4-51.7,41.5-61.8,56.4c-13.3-11-27.4-17.2-43.1-17.2s-30.5,6.3-43.1,17.2c-11.7-18-41.5-56.4-73.6-59.5
		c-2.3,70.5,8.6,131.5,13.3,153.4c-15.7,38.4-24.3,72-25.1,75.2c-5.5,21.9-3.9,42.3,3.1,59.5c0,0.8,0.8,1.6,0.8,2.3
		c0,0.8,0.8,1.6,0.8,2.3c0,0.8,0.8,1.6,0.8,2.3c0,0.8,0.8,1.6,0.8,2.3c0,0.8,0.8,1.6,0.8,2.3c0,0.8,0.8,1.6,0.8,2.3
		c0,0.8,0.8,1.6,0.8,2.3c0,0.8,0.8,1.6,0.8,2.3c0,0.8,0.8,1.6,0.8,2.3c0,0.8,0.8,1.6,0.8,2.3c0,0.8,0.8,1.6,0.8,2.3
		c0,0.8,0.8,1.6,0.8,2.3c0,0.8,0.8,1.6,0.8,2.3c0,0.8,0.8,1.6,0.8,2.3c0,0.8,0.8,1.6,0.8,2.3c0,0.8,0.8,1.6,0.8,2.3
		c0,0.8,0.8,1.6,0.8,2.3c0,0.8,0.8,1.6,0.8,2.3c0,0.8,0.8,1.6,0.8,2.3c0,0.8,0.8,1.6,0.8,2.3c0,0.8,0.8,1.6,0.8,2.3
		c0,0.8,0.8,1.6,0.8,2.3c0,0.8,0.8,1.6,0.8,2.3c0,0.8,0.8,1.6,0.8,2.3c0,0.8,0.8,1.6,0.8,2.3c0,0.8,0.8,1.6,0.8,2.3
		c0,0.8,0.8,1.6,0.8,2.3c0,0.8,0.8,1.6,0.8,2.3c0,0.8,0.8,1.6,0.8,2.3c0,0.8,0.8,1.6,0.8,2.3c0,0.8,0.8,1.6,0.8,2.3
		c0,0.8,0.8,1.6,0.8,2.3c0,0.8,0.8,1.6,0.8,2.3c0,0.8,0.8,1.6,0.8,2.3c0,0.8,0.8,1.6,0.8,2.3c0,0.8,0.8,1.6,0.8,2.3
		c0,0.8,0.8,1.6,0.8,2.3c0,0.8,0.8,1.6,0.8,2.3c0,0.8,0.8,1.6,0.8,2.3c0,0.8,0.8,1.6,0.8,2.3c0,0.8,0.8,1.6,0.8,2.3
		c0,0.8,0.8,1.6,0.8,2.3c0,0.8,0.8,1.6,0.8,2.3c0,0.8,0.8,1.6,0.8,2.3c0,0.8,0.8,1.6,0.8,2.3c0,0.8,0.8,1.6,0.8,2.3
		c0,0.8,0.8,1.6,0.8,2.3c0,0.8,0.8,1.6,0.8,2.3c0,0.8,0.8,1.6,0.8,2.3c0,0.8,0.8,1.6,0.8,2.3c0,0.8,0.8,1.6,0.8,2.3
		c0,0.8,0.8,1.6,0.8,2.3l0,0c23.5,7,48.5,11,74.4,11C360.9,506.5,447.8,447.8,489.3,361.7z"/>
	<path id="XMLID_5_" class="st2" d="M218.4,151.1c0,0-36.8-64.2-79.1-68.1c-3.9,87.7,14.9,162.1,14.9,162.1L218.4,151.1z"/>
	<path id="XMLID_6_" class="st3" d="M139.4,83c0,0.8,0,1.6,0,2.3c36.8,12.5,67.3,65,67.3,65l-55.6,80.6c1.6,8.6,3.1,13.3,3.1,13.3
		l64.2-93.9C218.4,151.1,180.8,86.9,139.4,83z"/>
	<path id="XMLID_7_" class="st4" d="M166.8,212.2c-3.9-25.1-7.8-60.3-7.8-99.4c18,10.2,35.2,32.1,44.6,46.2L166.8,212.2z"/>
	<path id="XMLID_8_" class="st2" d="M293.6,151.1c0,0,36.8-64.2,79.1-68.1c3.9,87.7-14.9,162.1-14.9,162.1L293.6,151.1z"/>
	<path id="XMLID_9_" class="st3" d="M372.6,83c-3.9,0-7.8,1.6-11.7,2.3c2.3,64.2-7,121.3-11.7,145.6l9.4,13.3
		C357.8,245,376.6,170.7,372.6,83z"/>
	<path id="XMLID_10_" class="st4" d="M345.2,212.2c3.9-25.1,7.8-60.3,7.8-99.4c-18,10.2-35.2,32.1-44.6,46.2L345.2,212.2z"/>
	<path id="XMLID_11_" class="st2" d="M315.5,413.4c-23.5,0-47-3.1-59.5-18c-12.5,14.9-36,18-59.5,18c-22.7,0-43.1-10.2-56.4-26.6
		c-14.9-19.6-19.6-46.2-12.5-75.2c1.6-7.8,46.2-186.3,129.2-186.3S383.6,303.8,386,311.6c7,29,2.3,55.6-12.5,75.2
		C358.6,404,338.2,413.4,315.5,413.4z"/>
	<path id="XMLID_12_" class="st3" d="M256,313.1h26.6c0-21.9-18-120.6,16.4-170.7c-13.3-11-27.4-17.2-43.1-17.2s-30.5,6.3-43.1,17.2
		c34.4,50.1,16.4,148.7,16.4,170.7H256z"/>
	<path id="XMLID_13_" class="st3" d="M385.2,311.6c-1.6-7.8-46.2-186.3-129.2-186.3c-2.3,0-3.9,0-6.3,0
		c79.1,8.6,121.3,178.5,122.9,186.3c7,29,2.3,55.6-12.5,75.2c-12.5,15.7-31.3,25.8-52.5,26.6c2.3,0,4.7,0,7.8,0
		c22.7,0,43.1-10.2,56.4-26.6C387.5,367.2,392.2,340.5,385.2,311.6z"/>
	<path id="XMLID_14_" class="st5" d="M256,308.5c-50.1,0-90.8,46.2-90.8,93.2c0,1.6,0,3.1,0,5.5c9.4,3.9,19.6,6.3,30.5,6.3
		c23.5,0,47-3.1,59.5-18c12.5,14.9,36,18,59.5,18c11,0,21.1-2.3,30.5-6.3c0-1.6,0-3.1,0-5.5C346.8,354.6,306.1,308.5,256,308.5z"/>
	<path id="XMLID_15_" class="st6" d="M323.3,413.4c2.3,0,5.5-0.8,7.8-1.6l0,0c2.3-0.8,4.7-1.6,7.8-2.3l0,0c2.3-0.8,4.7-1.6,7-3.1
		l0,0c0-1.6,0-3.1,0-5.5c0-0.8,0-1.6,0-2.3c-11,7.8-24.3,12.5-38.4,13.3c2.3,0,4.7,0,7.8,0C318.6,413.4,321,413.4,323.3,413.4
		L323.3,413.4z"/>
	<path id="XMLID_16_" class="st7" d="M261.5,334.3c7.8-7.8,11.7-11.7,19.6-18c3.1-2.3,2.3-5.5-2.3-6.3c-18-3.9-27.4-3.9-46.2,0
		c-4.7,0.8-5.5,3.9-2.3,6.3c7.8,6.3,11.7,10.2,19.6,18c0.8,0.8,0.8,0.8,1.6,1.6c0,4.7,0,7,0,11.7c-10.2,2.3-18,11.7-18,22.7
		c0,2.3,1.6,3.9,3.9,3.9c2.3,0,3.9-1.6,3.9-3.9c0-7.8,6.3-14.9,14.1-14.9s14.1,7,14.1,14.9c0,2.3,1.6,3.9,3.9,3.9s3.9-1.6,3.9-3.9
		c0-11-7.8-20.4-18-22.7c0-4.7,0-7,0-11.7C260.7,335.1,261.5,334.3,261.5,334.3z"/>
	<circle id="XMLID_17_" class="st8" cx="295.9" cy="245.8" r="19.6"/>
	<circle id="XMLID_18_" class="st7" cx="295.9" cy="245.8" r="7.8"/>
	<circle id="XMLID_19_" class="st8" cx="216.1" cy="245.8" r="19.6"/>
	<circle id="XMLID_20_" class="st7" cx="216.1" cy="245.8" r="7.8"/>
</g>
</svg>
