<?xml version="1.0" encoding="utf-8"?>
<!-- Generator: Adobe Illustrator 24.1.1, SVG Export Plug-In . SVG Version: 6.00 Build 0)  -->
<svg version="1.1" id="Layer_1" xmlns="http://www.w3.org/2000/svg" xmlns:xlink="http://www.w3.org/1999/xlink" x="0px" y="0px"
	 viewBox="0 0 512 512" style="enable-background:new 0 0 512 512;" xml:space="preserve">
<style type="text/css">
	.st0{fill:#2D4452;}
	.st1{fill:#233540;}
	.st2{fill:#FFD464;}
	.st3{fill:#E6BF5A;}
	.st4{fill:#E78244;}
</style>
<g id="XMLID_1_">
	<circle id="XMLID_3_" class="st0" cx="256" cy="255.6" r="255.6"/>
	<path id="XMLID_4_" class="st1" d="M475.4,386.9L475.4,386.9L475.4,386.9c-0.8-1.6-0.8-2.4-0.8-2.4l0,0c0-0.8-0.8-1.6-0.8-2.4l0,0
		c0-0.8-0.8-1.6-0.8-2.4l0,0c0-0.8-0.8-1.6-0.8-2.4l0,0c0-0.8-0.8-1.6-0.8-2.4l0,0c0-0.8-0.8-1.6-0.8-2.4l0,0c0-0.8-0.8-1.6-0.8-2.4
		l0,0c0-0.8-0.8-1.6-0.8-2.4l0,0c0-0.8-0.8-1.6-0.8-2.4l0,0c0-0.8-0.8-1.6-0.8-2.4l0,0c0-0.8-0.8-1.6-0.8-2.4l0,0
		c0-0.8-0.8-1.6-0.8-2.4l0,0c0-0.8-0.8-1.6-0.8-2.4l0,0c0-0.8-0.8-1.6-0.8-2.4l0,0c0-0.8-0.8-1.6-0.8-2.4l0,0c0-0.8-0.8-1.6-0.8-2.4
		l0,0c0-0.8-0.8-1.6-0.8-2.4l0,0c0-0.8-0.8-1.6-0.8-2.4l0,0c0-0.8-0.8-1.6-0.8-2.4l0,0c0-0.8-0.8-1.6-0.8-2.4l0,0
		c0-0.8-0.8-1.6-0.8-2.4l0,0c0-0.8-0.8-1.6-0.8-2.4l0,0c0-0.8-0.8-1.6-0.8-2.4l0,0c0-0.8-0.8-1.6-0.8-2.4l0,0c0-0.8-0.8-1.6-0.8-2.4
		l0,0c0-0.8-0.8-1.6-0.8-2.4l0,0c0-0.8-0.8-1.6-0.8-2.4l0,0c0-0.8-0.8-1.6-0.8-2.4l0,0c0-0.8-0.8-1.6-0.8-2.4l0,0
		c0-0.8-0.8-1.6-0.8-2.4l0,0c0-0.8-0.8-1.6-0.8-2.4l0,0c0-0.8-0.8-1.6-0.8-2.4l0,0c0-0.8-0.8-1.6-0.8-2.4l0,0c0-0.8-0.8-1.6-0.8-2.4
		l0,0c0-0.8-0.8-1.6-0.8-2.4l0,0c0-0.8-0.8-1.6-0.8-2.4l0,0c0-0.8-0.8-1.6-0.8-2.4l0,0c0-0.8-0.8-1.6-0.8-2.4l0,0
		c0-0.8-0.8-1.6-0.8-2.4l0,0c0-0.8-0.8-1.6-0.8-2.4l0,0c0-0.8-0.8-1.6-0.8-2.4l0,0c0-0.8-0.8-1.6-0.8-2.4l0,0c0-0.8-0.8-1.6-0.8-2.4
		l0,0c0-0.8-0.8-1.6-0.8-2.4l0,0c0-0.8-0.8-1.6-0.8-2.4l0,0c0-0.8-0.8-1.6-0.8-2.4l0,0c0-0.8-0.8-1.6-0.8-2.4l0,0
		c0-0.8-0.8-1.6-0.8-2.4l0,0c0-0.8-0.8-1.6-0.8-2.4l0,0c0-0.8-0.8-1.6-0.8-2.4l0,0c0-0.8-0.8-1.6-0.8-2.4l0,0c0-0.8-0.8-1.6-0.8-2.4
		l0,0c0-0.8-0.8-1.6-0.8-2.4l0,0c0-0.8-0.8-1.6-0.8-2.4l0,0c0-0.8-0.8-1.6-0.8-2.4l0,0c0-0.8-0.8-1.6-0.8-2.4l0,0
		c0-0.8-0.8-1.6-0.8-2.4l0,0c0-0.8-0.8-1.6-0.8-2.4l0,0c0-0.8-0.8-1.6-0.8-2.4l0,0c0-0.8-0.8-1.6-0.8-2.4l0,0c0-0.8-0.8-1.6-0.8-2.4
		l0,0c0-0.8-0.8-1.6-0.8-2.4l0,0c0-0.8-0.8-1.6-0.8-2.4l0,0c0-0.8-0.8-1.6-0.8-2.4l0,0c-3.9-11.8-18.9-11.8-26-11.8h-15.7h-39.3
		c-4.7,0-11-2.4-15.7-5.5l0,0c0-0.8-0.8-1.6-0.8-2.4s-0.8-1.6-0.8-2.4s-0.8-1.6-0.8-2.4s-0.8-1.6-0.8-2.4s-0.8-1.6-0.8-2.4
		s-0.8-1.6-0.8-2.4s-0.8-1.6-0.8-2.4s-0.8-1.6-0.8-2.4s-0.8-1.6-0.8-2.4s-0.8-1.6-0.8-2.4s-0.8-1.6-0.8-2.4s-0.8-1.6-0.8-2.4
		s-0.8-1.6-0.8-2.4s-0.8-1.6-0.8-2.4s-0.8-1.6-0.8-2.4s-0.8-1.6-0.8-2.4s-0.8-1.6-0.8-2.4s-0.8-1.6-0.8-2.4s-0.8-1.6-0.8-2.4
		s-0.8-1.6-0.8-2.4s-0.8-1.6-0.8-2.4s-0.8-1.6-0.8-2.4s-0.8-1.6-0.8-2.4s-0.8-1.6-0.8-2.4s-0.8-1.6-0.8-2.4s-0.8-1.6-0.8-2.4
		s-0.8-1.6-0.8-2.4s-0.8-1.6-0.8-2.4s-0.8-1.6-0.8-2.4s-0.8-1.6-0.8-2.4s-0.8-1.6-0.8-2.4s-0.8-1.6-0.8-2.4s-0.8-1.6-0.8-2.4
		s-0.8-1.6-0.8-2.4s-0.8-1.6-0.8-2.4s-0.8-1.6-0.8-2.4s-0.8-1.6-0.8-2.4s-0.8-1.6-0.8-2.4c0-0.8-0.8-1.6-0.8-2.4
		c0-0.8-0.8-1.6-0.8-2.4c-4.7-11.8-11-18.1-18.9-18.1c-0.8,0-1.6,0-3.1,0c-0.8,0-0.8,0-1.6,0h-0.8c-0.8,0-2.4,0.8-3.1,1.6l0,0
		c-5.5,3.1-9.4,10.2-12.6,21.2l-17.3,63.7c-5.5,18.1-22.8,35.4-37,35.4h-55.1c-6.3,0-22,0-26,11.8c-1.6,3.9-0.8,7.1,0.8,10.2
		c0,0.8,0.8,1.6,0.8,2.4s0.8,1.6,0.8,2.4s0.8,1.6,0.8,2.4s0.8,1.6,0.8,2.4s0.8,1.6,0.8,2.4s0.8,1.6,0.8,2.4s0.8,1.6,0.8,2.4
		s0.8,1.6,0.8,2.4s0.8,1.6,0.8,2.4s0.8,1.6,0.8,2.4s0.8,1.6,0.8,2.4s0.8,1.6,0.8,2.4s0.8,1.6,0.8,2.4s0.8,1.6,0.8,2.4
		s0.8,1.6,0.8,2.4s0.8,1.6,0.8,2.4s0.8,1.6,0.8,2.4s0.8,1.6,0.8,2.4s0.8,1.6,0.8,2.4s0.8,1.6,0.8,2.4s0.8,1.6,0.8,2.4
		s0.8,1.6,0.8,2.4s0.8,1.6,0.8,2.4s0.8,1.6,0.8,2.4s0.8,1.6,0.8,2.4s0.8,1.6,0.8,2.4s0.8,1.6,0.8,2.4s0.8,1.6,0.8,2.4
		s0.8,1.6,0.8,2.4s0.8,1.6,0.8,2.4s0.8,1.6,0.8,2.4s0.8,1.6,0.8,2.4s0.8,1.6,0.8,2.4s0.8,1.6,0.8,2.4s0.8,1.6,0.8,2.4
		s0.8,1.6,0.8,2.4s0.8,1.6,0.8,2.4s0.8,1.6,0.8,2.4s0.8,1.6,0.8,2.4s0.8,1.6,0.8,2.4s0.8,1.6,0.8,2.4s0.8,1.6,0.8,2.4
		s0.8,1.6,0.8,2.4s0.8,1.6,0.8,2.4s0.8,1.6,0.8,2.4s0.8,1.6,0.8,2.4s0.8,1.6,0.8,2.4s0.8,1.6,0.8,2.4s0.8,1.6,0.8,2.4
		s0.8,1.6,0.8,2.4s0.8,1.6,0.8,2.4s0.8,1.6,0.8,2.4s0.8,1.6,0.8,2.4s0.8,1.6,0.8,2.4s0.8,1.6,0.8,2.4v0.8c-3.1,11-3.9,19.7-0.8,25.2
		c0,0.8,0.8,1.6,0.8,2.4c0,0.8,0.8,1.6,0.8,2.4c0,0.8,0.8,1.6,0.8,2.4c0,0.8,0.8,1.6,0.8,2.4c0,0.8,0.8,1.6,0.8,2.4
		c0,0.8,0.8,1.6,0.8,2.4c0,0.8,0.8,1.6,0.8,2.4c0,0.8,0.8,1.6,0.8,2.4c0,0.8,0.8,1.6,0.8,2.4c0,0.8,0.8,1.6,0.8,2.4
		c0,0.8,0.8,1.6,0.8,2.4c0,0.8,0.8,1.6,0.8,2.4c0,0.8,0.8,1.6,0.8,2.4c0,0.8,0.8,1.6,0.8,2.4c0,0.8,0.8,1.6,0.8,2.4
		c0,0.8,0.8,1.6,0.8,2.4c0,0.8,0.8,1.6,0.8,2.4c0,0.8,0.8,1.6,0.8,2.4c0,0.8,0.8,1.6,0.8,2.4c0,0.8,0.8,1.6,0.8,2.4
		c0,0.8,0.8,1.6,0.8,2.4c0,0.8,0.8,1.6,0.8,2.4c0,0.8,0.8,1.6,0.8,2.4c0,0.8,0.8,1.6,0.8,2.4c0,0.8,0.8,1.6,0.8,2.4
		c0,0.8,0.8,1.6,0.8,2.4c0,0.8,0.8,1.6,0.8,2.4c0,0.8,0.8,1.6,0.8,2.4c0,0.8,0.8,1.6,0.8,2.4c0,0.8,0.8,1.6,0.8,2.4
		c0,0.8,0.8,1.6,0.8,2.4c0,0.8,0.8,1.6,0.8,2.4c0,0.8,0.8,1.6,0.8,2.4c0,0.8,0.8,1.6,0.8,2.4c0,0.8,0.8,1.6,0.8,2.4
		c0,0.8,0.8,1.6,0.8,2.4c0,0.8,0.8,1.6,0.8,2.4c0,0.8,0.8,1.6,0.8,2.4c0,0.8,0.8,1.6,0.8,2.4c0,0.8,0.8,1.6,0.8,2.4
		c0,0.8,0.8,1.6,0.8,2.4c0,0.8,0.8,1.6,0.8,2.4l0,0c18.9,4.7,38.5,7.1,59,7.1C348.8,511.2,430.6,461.7,475.4,386.9z"/>
	<path id="XMLID_5_" class="st2" d="M343.3,415.3c-6.3,0-12.6-3.1-19.7-9.4L278,365.7c-11.8-10.2-33-10.2-44-0.8l-44,36.2
		c-13.4,11-26,11-32.2,3.1c-4.7-6.3-4.7-15.7-0.8-28.3l14.9-47.2c5.5-17.3-1.6-39.3-14.2-48.8l-40.9-25.2
		c-6.3-3.9-18.9-13.4-15.7-25.2c3.9-11.8,19.7-11.8,26-11.8h55.1c14.2,0,31.5-16.5,37-35.4l17.3-63.7c4.7-15.7,11-23.6,20.4-23.6
		c9.4,0,16.5,7.9,20.4,23.6l17.3,64.5c5.5,18.1,22.8,34.6,37,34.6h55.1c6.3,0,22,0,26,11.8s-9.4,20.4-14.9,24.4l-41.7,26.7
		c-13.4,9.4-19.7,30.7-14.9,48l15.7,52.7c3.9,12.6,3.9,22-0.8,28.3C352.7,412.9,348,415.3,343.3,415.3z"/>
	<path id="XMLID_9_" class="st3" d="M248.1,98.3c2.4-1.6,4.7-2.4,7.9-2.4c9.4,0,16.5,7.9,20.4,23.6l17.3,64.5
		c5.5,18.1,22.8,34.6,37,34.6H315c-14.2,0-31.5-16.5-37-34.6l-17.3-64.5C257.6,108.5,253.6,101.5,248.1,98.3z M411.7,229.7
		c-3.9-11.8-18.9-11.8-26-11.8H370c6.3,0,22,0,26,11.8s-9.4,20.4-14.9,24.4l-41.7,26.7c-13.4,9.4-19.7,30.7-14.9,48l15.7,52.7
		c3.9,12.6,3.9,22-0.8,28.3c-1.6,1.6-3.1,3.1-4.7,3.9c3.1,1.6,5.5,2.4,8.7,2.4c4.7,0,9.4-2.4,11.8-6.3c4.7-6.3,4.7-14.9,0.8-28.3
		l-15.7-52.7c-4.7-17.3,1.6-38.5,14.9-48l41.7-26.7C402.3,250.1,414.9,241.4,411.7,229.7z M217.5,364.9l-44,36.2
		c-3.9,3.1-7.9,5.5-11,7.1c7.1,3.9,16.5,1.6,27.5-7.1l44-36.2c3.9-3.1,8.7-4.7,13.4-6.3C236.3,356.3,224.5,358.6,217.5,364.9z"/>
	<path id="XMLID_10_" class="st4" d="M274.1,238.3c-2.4,0-5.5-0.8-7.1-3.1c-1.6-1.6-3.1-4.7-3.1-7.1c0-2.4,0.8-5.5,3.1-7.1
		c3.9-3.9,10.2-3.9,14.2,0c1.6,1.6,3.1,4.7,3.1,7.1c0,2.4-0.8,5.5-3.1,7.1C278.8,237.5,276.4,238.3,274.1,238.3z"/>
	<path id="XMLID_11_" class="st4" d="M234,238.3c-2.4,0-5.5-0.8-7.1-3.1c-1.6-1.6-3.1-4.7-3.1-7.1c0-2.4,0.8-5.5,3.1-7.1
		c3.9-3.9,10.2-3.9,14.2,0c1.6,1.6,3.1,4.7,3.1,7.1c0,2.4-0.8,5.5-3.1,7.1C239.5,237.5,236.3,238.3,234,238.3z"/>
	<path id="XMLID_12_" class="st4" d="M214.3,278.4c-2.4,0-5.5-0.8-7.1-3.1c-1.6-1.6-3.1-4.7-3.1-7.1c0-2.4,0.8-5.5,3.1-7.1
		c3.9-3.9,10.2-3.9,14.2,0c1.6,1.6,3.1,4.7,3.1,7.1c0,2.4-0.8,5.5-3.1,7.1C219,276.8,216.7,278.4,214.3,278.4z"/>
	<path id="XMLID_13_" class="st4" d="M234,318.5c-2.4,0-5.5-0.8-7.1-3.1c-1.6-1.6-3.1-4.7-3.1-7.1c0-2.4,0.8-5.5,3.1-7.1
		c3.9-3.9,10.2-3.9,14.2,0c1.6,1.6,3.1,4.7,3.1,7.1c0,2.4-0.8,5.5-3.1,7.1C239.5,317,236.3,318.5,234,318.5z"/>
	<path id="XMLID_14_" class="st4" d="M283.5,318.5c-2.4,0-5.5-0.8-7.1-3.1c-1.6-1.6-3.1-4.7-3.1-7.1c0-2.4,0.8-5.5,3.1-7.1
		c3.9-3.9,10.2-3.9,14.2,0c1.6,1.6,3.1,4.7,3.1,7.1c0,2.4-0.8,5.5-3.1,7.1C289,317,286.7,318.5,283.5,318.5z"/>
	<path id="XMLID_15_" class="st4" d="M293.8,278.4c-2.4,0-5.5-0.8-7.1-3.1c-1.6-1.6-3.1-4.7-3.1-7.1c0-2.4,0.8-5.5,3.1-7.1
		c3.9-3.9,10.2-3.9,14.2,0c1.6,1.6,3.1,4.7,3.1,7.1c0,2.4-0.8,5.5-3.1,7.1C299.3,276.8,296.9,278.4,293.8,278.4z"/>
	<path id="XMLID_16_" class="st4" d="M253.6,287.9c-11,0-19.7-8.7-19.7-19.7s8.7-19.7,19.7-19.7s19.7,8.7,19.7,19.7
		C274.1,279.2,264.7,287.9,253.6,287.9z"/>
</g>
</svg>
