<?xml version="1.0" encoding="utf-8"?>
<!-- Generator: Adobe Illustrator 24.1.1, SVG Export Plug-In . SVG Version: 6.00 Build 0)  -->
<svg version="1.1" id="Layer_1" xmlns="http://www.w3.org/2000/svg" xmlns:xlink="http://www.w3.org/1999/xlink" x="0px" y="0px"
	 viewBox="0 0 512 512" style="enable-background:new 0 0 512 512;" xml:space="preserve">
<style type="text/css">
	.st0{fill:#E16B5A;}
	.st1{fill:#CC6152;}
	.st2{fill:#FFC066;}
	.st3{fill:#F2B661;}
	.st4{fill:#99733D;}
	.st5{fill:#F5F5F5;}
	.st6{fill:#E6E6E6;}
	.st7{fill:#242424;}
</style>
<g id="XMLID_1_">
	<circle id="XMLID_3_" class="st0" cx="256" cy="254.4" r="254.4"/>
	<path id="XMLID_4_" class="st1" d="M481.5,372.6c0-0.8-0.8-1.6-0.8-1.6c0-0.8-0.8-1.6-0.8-2.3s-0.8-1.6-0.8-2.3
		c0-0.8-0.8-1.6-0.8-2.3s-0.8-1.6-0.8-2.3c0-0.8-0.8-1.6-0.8-2.3s-0.8-1.6-0.8-2.3s-0.8-1.6-0.8-2.3s-0.8-1.6-0.8-2.3
		s-0.8-1.6-0.8-2.3c0-0.8-0.8-1.6-0.8-2.3s-0.8-1.6-0.8-2.3c0-0.8-0.8-1.6-0.8-2.3s-0.8-1.6-0.8-2.3s-0.8-1.6-0.8-2.3
		s-0.8-1.6-0.8-2.3s-0.8-1.6-0.8-2.3c0-0.8-0.8-1.6-0.8-2.3s-0.8-1.6-0.8-2.3c0-0.8-0.8-1.6-0.8-2.3s-0.8-1.6-0.8-2.3
		s-0.8-1.6-0.8-2.3s-0.8-1.6-0.8-2.3s-0.8-1.6-0.8-2.3c0-0.8-0.8-1.6-0.8-2.3s-0.8-1.6-0.8-2.3c0-0.8-0.8-1.6-0.8-2.3
		s-0.8-1.6-0.8-2.3s-0.8-1.6-0.8-2.3s-0.8-1.6-0.8-2.3s-0.8-1.6-0.8-2.3c0-0.8-0.8-1.6-0.8-2.3s-0.8-1.6-0.8-2.3
		c0-0.8-0.8-1.6-0.8-2.3s-0.8-1.6-0.8-2.3s-0.8-1.6-0.8-2.3s-0.8-1.6-0.8-2.3s-0.8-1.6-0.8-2.3c0-0.8-0.8-1.6-0.8-2.3
		s-0.8-1.6-0.8-2.3c0-0.8-0.8-1.6-0.8-2.3s-0.8-1.6-0.8-2.3s-0.8-1.6-0.8-2.3s-0.8-1.6-0.8-2.3s-0.8-1.6-0.8-2.3
		c0-0.8-0.8-1.6-0.8-2.3s-0.8-1.6-0.8-2.3c0-0.8-0.8-1.6-0.8-2.3s-0.8-1.6-0.8-2.3s-0.8-1.6-0.8-2.3s-0.8-1.6-0.8-2.3
		s-0.8-1.6-0.8-2.3s-0.8-1.6-0.8-2.3s-0.8-1.6-0.8-2.3c0-0.8-0.8-1.6-0.8-2.3c0-0.8-0.8-1.6-0.8-2.3c0-0.8-0.8-1.6-0.8-2.3
		c0-0.8-0.8-1.6-0.8-2.3s-0.8-1.6-0.8-2.3s-0.8-1.6-0.8-2.3s-0.8-1.6-0.8-2.3c0-0.8-0.8-1.6-0.8-2.3c0-0.8-0.8-1.6-0.8-2.3
		c0-0.8-0.8-1.6-0.8-2.3c0-0.8-0.8-1.6-0.8-2.3s-0.8-1.6-0.8-2.3s-0.8-1.6-0.8-2.3s-0.8-1.6-0.8-2.3c0-0.8-0.8-1.6-0.8-2.3
		c0-0.8-0.8-1.6-0.8-2.3c0-0.8-0.8-1.6-0.8-2.3c0-0.8-0.8-1.6-0.8-2.3s-0.8-1.6-0.8-2.3s-0.8-1.6-0.8-2.3s-0.8-1.6-0.8-2.3
		c0-0.8-0.8-1.6-0.8-2.3c0-0.8-0.8-1.6-0.8-2.3c0-0.8-0.8-1.6-0.8-2.3c0-0.8-0.8-1.6-0.8-2.3s-0.8-1.6-0.8-2.3s-0.8-1.6-0.8-2.3
		s-0.8-1.6-0.8-2.3c0-0.8-0.8-1.6-0.8-2.3c0-0.8-0.8-1.6-0.8-2.3c0-0.8-0.8-1.6-0.8-2.3c0-0.8-0.8-1.6-0.8-2.3s-0.8-1.6-0.8-2.3
		s-0.8-1.6-0.8-2.3s-0.8-1.6-0.8-2.3c0-0.8-0.8-1.6-0.8-2.3c0-0.8-0.8-1.6-0.8-2.3c0-0.8-0.8-1.6-0.8-2.3c0-0.8-0.8-1.6-0.8-2.3
		s-0.8-1.6-0.8-2.3s-0.8-1.6-0.8-2.3s-0.8-1.6-0.8-2.3c0-0.8-0.8-1.6-0.8-2.3c0-0.8-0.8-1.6-0.8-2.3c0-0.8-0.8-1.6-0.8-2.3
		c0-0.8-0.8-1.6-0.8-2.3s-0.8-1.6-0.8-2.3s-0.8-1.6-0.8-2.3s-0.8-1.6-0.8-2.3c0-0.8-0.8-1.6-0.8-2.3c0-0.8-0.8-1.6-0.8-2.3
		c0-0.8-0.8-1.6-0.8-2.3c0-0.8-0.8-1.6-0.8-2.3c0-0.8-0.8-1.6-0.8-2.3c0-0.8-0.8-1.6-0.8-2.3c0-0.8-0.8-1.6-0.8-2.3
		c0-0.8-0.8-1.6-0.8-2.3c0-0.8-0.8-1.6-0.8-2.3c0-0.8-0.8-1.6-0.8-2.3c0-0.8-0.8-1.6-0.8-2.3c0-0.8-0.8-1.6-0.8-2.3
		c0-0.8-0.8-1.6-0.8-2.3c0-0.8-0.8-1.6-0.8-2.3c0-0.8-0.8-1.6-0.8-2.3c0-0.8-0.8-1.6-0.8-2.3c0-0.8-0.8-1.6-0.8-2.3
		c0-0.8-0.8-1.6-0.8-2.3c0-0.8-0.8-1.6-0.8-2.3c-6.3-17.2-23.5-29.7-43.1-29.7c-1.6,0-3.1,0-4.7,0c-12.5,1.6-24.3,7.8-31.3,17.2
		l-6.3-4.7h-11.7H256h-39.9l-6.3,5.5c-8.6-11-21.1-18-36-18c-1.6,0-3.1,0-4.7,0c-23.5,2.3-41.5,21.9-41.5,45.4
		c0,6.3,1.6,12.5,3.9,18c0,0.8,0.8,1.6,0.8,2.3c0,0.8,0.8,1.6,0.8,2.3c0,0.8,0.8,1.6,0.8,2.3c0,0.8,0.8,1.6,0.8,2.3s0.8,1.6,0.8,2.3
		c0,0.8,0.8,1.6,0.8,2.3c0,0.8,0.8,1.6,0.8,2.3c0,0.8,0,0.8,0.8,1.6l-5.5,4.7v61.8v10.2v13.3v10.2v12.5l0.8,0.8l0,0v1.6l0.8,0.8l0,0
		v1.6l0.8,0.8l0,0v1.6l0.8,0.8l0,0v1.6l0.8,0.8l0,0v1.6l0.8,0.8l0,0v1.6l0.8,0.8l0,0v1.6l0.8,0.8l0,0v1.6l0.8,0.8l0,0v1.6l0.8,0.8
		l0,0v1.6l0.8,0.8l0,0v1.6l0.8,0.8l0,0v1.6l0.8,0.8l0,0v1.6l0.8,0.8l0,0v1.6l0.8,0.8l0,0v32.1l0.8,0.8l0,0v1.6l0.8,0.8l0,0v1.6
		l0.8,0.8l0,0v1.6l0.8,0.8l0,0v0l0.8,0.8l0,0v1.6l0.8,0.8l0,0v1.6l0.8,0.8l0,0v1.6l0.8,0.8l0,0v0l0.8,0.8l0,0v1.6l0.8,0.8l0,0v1.6
		l0.8,0.8l0,0v1.6l0.8,0.8l0,0v1.6l0.8,0.8l0,0v1.6l0.8,0.8l0,0v1.6l0.8,0.8l0,0v1.6l0.8,0.8l0,0v1.6l0.8,0.8l0,0v1.6l0.8,0.8l0,0
		v1.6l0.8,0.8l0,0v1.6l0.8,0.8l0,0v1.6l0.8,0.8l0,0v1.6l0.8,0.8l0,0v1.6l0.8,0.8l0,0v1.6l0.8,0.8l0,0v1.6l0.8,0.8l0,0v1.6l0.8,0.8
		l0,0v1.6l0.8,0.8l0,0v-3.9l0.8,0.8l0,0v1.6l0.8,0.8l0,0v1.6l0.8,0.8l0,0v1.6l0.8,0.8l0,0v0l0.8,0.8l0,0v1.6l0.8,0.8l0,0v1.6
		l0.8,0.8l0,0v1.6l0.8,0.8l0,0v1.6l0.8,0.8l0,0v1.6l0.8,0.8l0,0v1.6l0.8,0.8l0,0v1.6l0.8,0.8l0,0v1.6l0.8,0.8l0,0v1.6l0.8,0.8l0,0
		v1.6l0.8,0.8l0,0v1.6l0.8,0.8l0,0v1.6l0.8,0.8l0,0v1.6l0.8,0.8l0,0v1.6l0.8,0.8l0,0v1.6l0.8,0.8l0,0v1.6l0.8,0.8l0,0v1.6l0.8,0.8
		l0,0v1.6l0.8,0.8l0,0v-3.9l0.8,0.8l0,0v1.6l0.8,0.8l0,0v1.6l0.8,0.8l0,0v1.6l0.8,0.8l0,0v0l0.8,0.8l0,0v1.6l0.8,0.8l0,0v1.6
		l0.8,0.8l0,0v1.6l0.8,0.8l0,0v1.6l0.8,0.8l0,0v1.6l0.8,0.8l0,0v1.6l0.8,0.8l0,0v1.6l0.8,0.8l0,0v1.6l0.8,0.8l0,0v1.6l0.8,0.8l0,0
		v1.6l0.8,0.8l0,0v1.6l0.8,0.8l0,0v1.6l0.8,0.8l0,0v1.6l0.8,0.8l0,0v1.6l0.8,0.8l0,0v1.6l0.8,0.8l0,0v1.6l0.8,0.8l0,0v1.6l0.8,0.8
		l0,0v1.6l0.8,0.8l0,0v-3.9l0.8,0.8l0,0v1.6l0.8,0.8l0,0v1.6l0.8,0.8l0,0v1.6l0.8,0.8l0,0v0l0.8,0.8l0,0v1.6l0.8,0.8l0,0v1.6
		l0.8,0.8l0,0v1.6l0.8,0.8l0,0v0l0.8,0.8l0,0v1.6l0.8,0.8l0,0v1.6l0.8,0.8l0,0v1.6l0.8,0.8l0,0v1.6l0.8,0.8l0,0v1.6l0.8,0.8l0,0v1.6
		l0.8,0.8l0,0v1.6l0.8,0.8l0,0v1.6l0.8,0.8l0,0v1.6l0.8,0.8l0,0v1.6l0.8,0.8l0,0v1.6l0.8,0.8l0,0v1.6l0,0c11,1.6,22.7,2.3,33.7,2.3
		C353.9,508.9,438.4,453.3,481.5,372.6z"/>
	<circle id="XMLID_5_" class="st2" cx="338.2" cy="140.9" r="46.2"/>
	<circle id="XMLID_6_" class="st2" cx="173.8" cy="140.9" r="46.2"/>
	<path id="XMLID_7_" class="st3" d="M338.2,94.7c-1.6,0-3.1,0-4.7,0c23.5,2.3,41.5,21.9,41.5,45.4s-18,43.1-41.5,45.4
		c1.6,0,3.1,0,4.7,0c25.1,0,46.2-20.4,46.2-46.2C384.4,115.1,363.3,94.7,338.2,94.7z"/>
	<path id="XMLID_8_" class="st3" d="M173.8,94.7c-1.6,0-3.1,0-4.7,0c23.5,2.3,41.5,21.9,41.5,45.4s-18,43.1-41.5,45.4
		c1.6,0,3.1,0,4.7,0c25.1,0,46.2-20.4,46.2-46.2C220,115.1,199.6,94.7,173.8,94.7z"/>
	<path id="XMLID_9_" class="st4" d="M338.2,170.7c-16.4,0-29.7-13.3-29.7-29.7s13.3-29.7,29.7-29.7s29.7,13.3,29.7,29.7
		S354.6,170.7,338.2,170.7z"/>
	<path id="XMLID_10_" class="st4" d="M173.8,170.7c-16.4,0-29.7-13.3-29.7-29.7s13.3-29.7,29.7-29.7s29.7,13.3,29.7,29.7
		S190.2,170.7,173.8,170.7z"/>
	<polygon id="XMLID_11_" class="st2" points="295.9,107.3 256,107.3 216.1,107.3 133.1,178.5 133.1,286.5 192.6,346 192.6,389.9 
		212.2,409.4 256,409.4 299.8,409.4 319.4,389.9 319.4,346 378.9,286.5 378.9,178.5 	"/>
	<polygon id="XMLID_12_" class="st3" points="295.9,107.3 284.2,107.3 367.2,178.5 367.2,286.5 307.7,346 307.7,389.9 288.1,409.4 
		299.8,409.4 319.4,389.9 319.4,346 378.9,286.5 378.9,178.5 	"/>
	<polygon id="XMLID_13_" class="st5" points="319.4,346 346,319.4 303.8,302.2 256,302.2 208.2,302.2 166,319.4 192.6,346 
		192.6,389.9 212.2,409.4 256,409.4 299.8,409.4 319.4,389.9 	"/>
	<polygon id="XMLID_14_" class="st6" points="307.7,346 307.7,389.9 288.1,409.4 299.8,409.4 319.4,389.9 319.4,346 346,319.4 
		337.4,316.3 	"/>
	<path id="XMLID_15_" class="st3" d="M256,207.5c-22.7,0-43.8,4.7-51.7,11v12.5v10.2v64.2h103.3v-64.2v-10.2v-12.5
		C299.8,212.2,278.7,207.5,256,207.5z"/>
	<path id="XMLID_16_" class="st7" d="M264.6,352.3l41.5-41.5c4.7-4.7,3.1-8.6-3.9-8.6h-92.4c-7,0-8.6,3.9-3.9,8.6l41.5,41.5l0.8,0.8
		v8.6c0,4.7-3.9,7.8-7.8,7.8c-4.7,0-7.8-3.9-7.8-7.8c0-4.7-3.9-7.8-7.8-7.8c-4.7,0-7.8,3.9-7.8,7.8c0,13.3,11,24.3,24.3,24.3
		c6.3,0,11.7-2.3,16.4-6.3c4.7,3.9,10.2,6.3,16.4,6.3c13.3,0,24.3-11,24.3-24.3c0-4.7-3.9-7.8-7.8-7.8c-3.9,0-7.8,3.9-7.8,7.8
		c0,4.7-3.9,7.8-8.6,7.8s-7.8-3.9-7.8-7.8L264.6,352.3L264.6,352.3z"/>
	<circle id="XMLID_17_" class="st5" cx="207.5" cy="239.6" r="20.4"/>
	<circle id="XMLID_18_" class="st7" cx="207.5" cy="239.6" r="7.8"/>
	<circle id="XMLID_19_" class="st5" cx="304.5" cy="239.6" r="20.4"/>
	<circle id="XMLID_20_" class="st7" cx="304.5" cy="239.6" r="7.8"/>
	<path id="XMLID_21_" class="st7" d="M256,134.7c-5.5,0-10.2-1.6-14.9-2.3c-6.3-1.6-11.7-3.1-16.4-1.6c-2.3,0.8-4.7,0-5.5-2.3
		c-0.8-2.3,0-4.7,3.1-5.5c7.8-2.3,14.9-0.8,21.9,0.8c4.7,0.8,8.6,2.3,12.5,2.3c3.9,0,7.8-0.8,12.5-2.3c7-1.6,14.1-3.9,21.9-0.8
		c2.3,0.8,3.9,3.1,2.3,5.5c-0.8,2.3-3.1,3.9-5.5,2.3c-4.7-1.6-10.2,0-16.4,1.6C266.2,133.1,261.5,134.7,256,134.7z"/>
	<path id="XMLID_22_" class="st7" d="M256,152.7c-6.3,0-11.7-1.6-18-2.3c-7.8-1.6-14.9-3.1-21.9-0.8c-2.3,0.8-4.7-0.8-5.5-3.1
		c-0.8-2.3,0.8-4.7,3.1-5.5c8.6-2.3,18-0.8,25.8,0.8c5.5,0.8,11,2.3,16.4,2.3c5.5,0,11-0.8,16.4-2.3c8.6-1.6,17.2-3.1,25.8-0.8
		c2.3,0.8,3.9,3.1,3.1,5.5s-3.1,3.9-5.5,3.1c-7-1.6-14.1-0.8-21.9,0.8C267.7,151.1,262.3,152.7,256,152.7z"/>
	<path id="XMLID_23_" class="st7" d="M349.9,216.9c-1.6-1.6-3.9-0.8-5.5,0.8c-1.6,1.6-0.8,3.9,0.8,5.5l34.4,27.4v-10.2L349.9,216.9z
		"/>
	<path id="XMLID_24_" class="st7" d="M349.9,240.3c-1.6-1.6-3.9-0.8-5.5,0.8c-1.6,1.6-0.8,3.9,0.8,5.5l34.4,27.4v-10.2L349.9,240.3z
		"/>
	<path id="XMLID_25_" class="st7" d="M349.9,263.8c-1.6-1.6-3.9-0.8-5.5,0.8c-1.6,1.6-0.8,3.9,0.8,5.5l28.2,21.9l5.5-5.5
		L349.9,263.8z"/>
	<path id="XMLID_26_" class="st7" d="M166.8,270.1c1.6-1.6,2.3-3.9,0.8-5.5c-1.6-1.6-3.9-2.3-5.5-0.8l-29,22.7l5.5,5.5L166.8,270.1z
		"/>
	<path id="XMLID_27_" class="st7" d="M166.8,246.6c1.6-1.6,2.3-3.9,0.8-5.5c-1.6-1.6-3.9-2.3-5.5-0.8l-29,23.5V274L166.8,246.6z"/>
	<path id="XMLID_28_" class="st7" d="M167.5,217.6c-1.6-1.6-3.9-2.3-5.5-0.8l-29,23.5v10.2l34.4-27.4
		C169.1,221.6,169.1,219.2,167.5,217.6z"/>
</g>
</svg>
