<?xml version="1.0" encoding="utf-8"?>
<!-- Generator: Adobe Illustrator 24.1.1, SVG Export Plug-In . SVG Version: 6.00 Build 0)  -->
<svg version="1.1" id="Layer_1" xmlns="http://www.w3.org/2000/svg" xmlns:xlink="http://www.w3.org/1999/xlink" x="0px" y="0px"
	 viewBox="0 0 512 512" style="enable-background:new 0 0 512 512;" xml:space="preserve">
<style type="text/css">
	.st0{fill:#C2D5D8;}
	.st1{fill:#B7C9CC;}
	.st2{fill:#45998B;}
	.st3{fill:#3A8074;}
	.st4{fill:#99602E;}
	.st5{fill:#BF7839;}
	.st6{fill:#805026;}
	.st7{fill:#EDEDED;}
	.st8{fill:#242424;}
</style>
<g id="XMLID_1_">
	<circle id="XMLID_3_" class="st0" cx="256" cy="256" r="256"/>
	<path id="XMLID_4_" class="st1" d="M486,367.9L486,367.9c0-0.8-0.8-1.6-0.8-2.4s-0.8-1.6-0.8-2.4s-0.8-1.6-0.8-2.4
		s-0.8-1.6-0.8-2.4s-0.8-1.6-0.8-2.4s-0.8-1.6-0.8-2.4s-0.8-1.6-0.8-2.4s-0.8-1.6-0.8-2.4s-0.8-1.6-0.8-2.4s-0.8-1.6-0.8-2.4
		s-0.8-1.6-0.8-2.4s-0.8-1.6-0.8-2.4s-0.8-1.6-0.8-2.4s-0.8-1.6-0.8-2.4s-0.8-1.6-0.8-2.4s-0.8-1.6-0.8-2.4s-0.8-1.6-0.8-2.4
		s-0.8-1.6-0.8-2.4s-0.8-1.6-0.8-2.4s-0.8-1.6-0.8-2.4s-0.8-1.6-0.8-2.4s-0.8-1.6-0.8-2.4s-0.8-1.6-0.8-2.4s-0.8-1.6-0.8-2.4
		s-0.8-1.6-0.8-2.4s-0.8-1.6-0.8-2.4s-0.8-1.6-0.8-2.4s-0.8-1.6-0.8-2.4s-0.8-1.6-0.8-2.4s-0.8-1.6-0.8-2.4s-0.8-1.6-0.8-2.4
		s-0.8-1.6-0.8-2.4s-0.8-1.6-0.8-2.4s-0.8-1.6-0.8-2.4s-0.8-1.6-0.8-2.4s-0.8-1.6-0.8-2.4s-0.8-1.6-0.8-2.4s-0.8-1.6-0.8-2.4
		s-0.8-1.6-0.8-2.4s-0.8-1.6-0.8-2.4s-0.8-1.6-0.8-2.4s-0.8-1.6-0.8-2.4s-0.8-1.6-0.8-2.4s-0.8-1.6-0.8-2.4s-0.8-1.6-0.8-2.4
		s-0.8-1.6-0.8-2.4s-0.8-1.6-0.8-2.4c0-0.8-0.8-1.6-0.8-2.4s-0.8-1.6-0.8-2.4s-0.8-1.6-0.8-2.4c0-0.8-0.8-1.6-0.8-2.4
		c0-0.8-0.8-1.6-0.8-2.4s-0.8-1.6-0.8-2.4s-0.8-1.6-0.8-2.4c0-0.8-0.8-1.6-0.8-2.4c0-0.8-0.8-1.6-0.8-2.4c0-0.8-0.8-1.6-0.8-2.4
		s-0.8-1.6-0.8-2.4s-0.8-1.6-0.8-2.4c0-0.8-0.8-1.6-0.8-2.4c0-0.8-0.8-1.6-0.8-2.4s-0.8-1.6-0.8-2.4s-0.8-1.6-0.8-2.4
		c0-0.8-0.8-1.6-0.8-2.4c0-0.8-0.8-1.6-0.8-2.4c0-0.8-0.8-1.6-0.8-2.4s-0.8-1.6-0.8-2.4s-0.8-1.6-0.8-2.4c0-0.8-0.8-1.6-0.8-2.4
		c0-0.8-0.8-1.6-0.8-2.4s-0.8-1.6-0.8-2.4s-0.8-1.6-0.8-2.4s-0.8-1.6-0.8-2.4c0-0.8-0.8-1.6-0.8-2.4c0-0.8-0.8-1.6-0.8-2.4
		c-1.6-4.7-3.9-8.7-7.1-12.6c-11.8-15-28.4-23.6-43.3-23.6c-9.5,0-22.1,3.2-32.3,18.1c-4.7,7.9-7.9,15-10.2,22.1
		c-0.8,3.2-2.4,6.3-3.2,9.5c0,0,0,0.8-0.8,0.8c-15.8-22.8-50.4-43.3-90.6-43.3c-2.4,0-5.5,0-7.9,0l0,0c-15.8,0.8-30.7,5.5-46.5,12.6
		c-52.8,25.2-74,72.5-56.7,124.5c-7.9,4.7-13.4,11-17.3,18.9c-1.6,3.2-0.8,6.3,0.8,8.7c0,0.8,0.8,1.6,0.8,2.4s0.8,1.6,0.8,2.4
		s0.8,1.6,0.8,2.4s0.8,1.6,0.8,2.4s0.8,1.6,0.8,2.4s0.8,1.6,0.8,2.4s0.8,1.6,0.8,2.4s0.8,1.6,0.8,2.4s0.8,1.6,0.8,2.4
		s0.8,1.6,0.8,2.4s0.8,1.6,0.8,2.4s0.8,1.6,0.8,2.4s0.8,1.6,0.8,2.4s0.8,1.6,0.8,2.4s0.8,1.6,0.8,2.4s0.8,1.6,0.8,2.4
		s0.8,1.6,0.8,2.4s0.8,1.6,0.8,2.4s0.8,1.6,0.8,2.4s0.8,1.6,0.8,2.4s0.8,1.6,0.8,2.4s0.8,1.6,0.8,2.4s0.8,1.6,0.8,2.4
		s0.8,1.6,0.8,2.4s0.8,1.6,0.8,2.4s0.8,1.6,0.8,2.4s0.8,1.6,0.8,2.4s0.8,1.6,0.8,2.4s0.8,1.6,0.8,2.4s0.8,1.6,0.8,2.4
		s0.8,1.6,0.8,2.4s0.8,1.6,0.8,2.4s0.8,1.6,0.8,2.4s0.8,1.6,0.8,2.4s0.8,1.6,0.8,2.4s0.8,1.6,0.8,2.4s0.8,1.6,0.8,2.4
		s0.8,1.6,0.8,2.4s0.8,1.6,0.8,2.4s0.8,1.6,0.8,2.4s0.8,1.6,0.8,2.4s0.8,1.6,0.8,2.4s0.8,1.6,0.8,2.4s0.8,1.6,0.8,2.4
		s0.8,1.6,0.8,2.4s0.8,1.6,0.8,2.4s0.8,1.6,0.8,2.4s0.8,1.6,0.8,2.4s0.8,1.6,0.8,2.4s0.8,1.6,0.8,2.4s0.8,1.6,0.8,2.4
		s0.8,1.6,0.8,2.4s0.8,1.6,0.8,2.4s0.8,1.6,0.8,2.4s0.8,1.6,0.8,2.4s0.8,1.6,0.8,2.4s0.8,1.6,0.8,2.4s0.8,1.6,0.8,2.4
		s0.8,1.6,0.8,2.4s0.8,1.6,0.8,2.4s0.8,1.6,0.8,2.4s0.8,1.6,0.8,2.4s0.8,1.6,0.8,2.4s0.8,1.6,0.8,2.4s0.8,1.6,0.8,2.4
		s0.8,1.6,0.8,2.4s0.8,1.6,0.8,2.4s0.8,1.6,0.8,2.4s0.8,1.6,0.8,2.4s0.8,1.6,0.8,2.4s0.8,1.6,0.8,2.4s0.8,1.6,0.8,2.4v0.8
		c26.8,9.5,56.7,15,86.6,15C357.6,512,445,452.9,486,367.9z"/>
	<path id="XMLID_5_" class="st2" d="M323,363.9c-31.5,0-43.3-11-47.3-19.7c-24.4,0-54.4-3.2-83.5-8.7c-4.7,12.6-18.1,20.5-35.4,20.5
		c-5.5,0-10.2-0.8-15-2.4c-3.2-1.6-12.6-4.7-15-13.4c-1.6-7.9,3.2-13.4,8.7-18.1c-8.7,0-18.1,0.8-29.1,1.6c-3.2,0.8-7.1-0.8-9.5-3.9
		c-2.4-3.2-2.4-6.3-0.8-9.5c10.2-24.4,41-29.9,76.4-37c27.6-5.5,58.3-11,87.4-26c45.7-23.6,52-41.7,58.3-59.9
		c2.4-7.1,5.5-15,10.2-22.1c10.2-15,22.8-18.1,32.3-18.1c15,0,31.5,8.7,43.3,23.6c10.2,12.6,13.4,29.9,9.5,45.7
		c-3.2,12.6-10.2,22.1-18.9,26c-5.5,2.4-11.8,3.9-18.1,3.9c-7.9,0-15-2.4-20.5-5.5c-12.6,12.6-18.9,26.8-24.4,41
		c-2.4,5.5-4.7,10.2-7.1,15.8c-0.8,12.6,7.1,23.6,14.2,33.1c6.3,8.7,11.8,16.5,7.1,24.4C342.6,362.3,333.2,363.9,323,363.9z"/>
	<path id="XMLID_6_" class="st3" d="M329.3,228.4c1.6-2.4,1.6-5.5,0.8-7.9c-2.4-7.9-7.9-16.5-15-23.6c-6.3,15-17.3,30.7-55.1,50.4
		c-29.1,15-59.9,21.3-87.4,26c-20.5,3.9-40.2,7.9-54.4,15c1.6,5.5,3.2,11.8,5.5,18.1c1.6,3.9,5.5,6.3,9.5,6.3
		C170.9,312.7,297,283.6,329.3,228.4z"/>
	<path id="XMLID_7_" class="st3" d="M176.4,335.6c-3.9,10.2-14.2,17.3-27.6,19.7c2.4,0.8,5.5,0.8,7.9,0.8c15.8,0,28.4-7.1,33.9-18.1
		C186.7,337.1,181.2,336.3,176.4,335.6z"/>
	<path id="XMLID_8_" class="st3" d="M325.3,297c2.4-4.7,4.7-10.2,7.1-15.8c4.7-11.8,10.2-24.4,19.7-36.2c-3.9-0.8-7.9-2.4-11.8-4.7
		c-12.6,12.6-18.9,26.8-24.4,41c-2.4,5.5-4.7,10.2-7.1,15.8c-0.8,12.6,7.1,23.6,14.2,33.1c6.3,8.7,11.8,16.5,7.1,24.4
		c-3.2,5.5-9.5,7.9-16.5,8.7c2.4,0,5.5,0,8.7,0c10.2,0,19.7-0.8,23.6-8.7c3.9-8.7-1.6-16.5-7.1-24.4
		C333.2,320.6,324.5,309.6,325.3,297z"/>
	<path id="XMLID_9_" class="st3" d="M404.9,170.9c-11.8-15-28.4-23.6-43.3-23.6c-2.4,0-5.5,0-7.9,0.8c12.6,2.4,26,11,35.4,22.8
		c10.2,12.6,13.4,29.9,9.5,45.7c-3.2,12.6-10.2,22.1-18.9,26c-3.2,1.6-6.3,2.4-10.2,3.2c2.4,0.8,5.5,0.8,7.9,0.8
		c6.3,0,12.6-1.6,18.1-3.9c9.5-3.9,15.8-13.4,18.9-26C418.3,200.9,414.3,183.5,404.9,170.9z"/>
	<path id="XMLID_10_" class="st4" d="M125.2,304c-3.9,0-7.9-2.4-9.5-6.3c-22-54.3-0.7-104.7,54.4-131.5
		c17.3-8.7,35.4-12.6,54.4-12.6c48.8,0,88.2,29.9,97.7,58.3c0.8,2.4,0.8,5.5-0.8,7.9C288.3,275.7,163.1,304,125.2,304z"/>
	<path id="XMLID_11_" class="st5" d="M133.1,240.2c-5.5,3.2-9.5,0.8-8.7-5.5c0,0,2.4-22.1,19.7-38.6c8.7-8.7,18.9-14.2,29.1-17.3
		c15-4.7,27.6-2.4,27.6-2.4c6.3,0.8,7.9,5.5,3.2,10.2L133.1,240.2z"/>
	<path id="XMLID_12_" class="st6" d="M322.2,212.7c-9.5-28.4-49.6-58.3-97.7-58.3c-2.4,0-5.5,0-7.9,0c44.9,3.2,81.1,31.5,89.8,58.3
		c0.8,2.4,0.8,5.5-0.8,7.9c-29.9,49.6-136.3,78-183.5,83.5c0.8,0.8,2.4,0.8,3.9,0.8c37.8,0,163.1-29.1,196.1-83.5
		C323,218.2,323.7,215,322.2,212.7z"/>
	<circle id="XMLID_13_" class="st7" cx="366.3" cy="191.4" r="11.8"/>
	<circle id="XMLID_14_" class="st8" cx="366.3" cy="191.4" r="3.9"/>
</g>
</svg>
