<?xml version="1.0" encoding="utf-8"?>
<!-- Generator: Adobe Illustrator 24.1.1, SVG Export Plug-In . SVG Version: 6.00 Build 0)  -->
<svg version="1.1" id="Layer_1" xmlns="http://www.w3.org/2000/svg" xmlns:xlink="http://www.w3.org/1999/xlink" x="0px" y="0px"
	 viewBox="0 0 512 512" style="enable-background:new 0 0 512 512;" xml:space="preserve">
<style type="text/css">
	.st0{fill:#88C5CC;}
	.st1{fill:#80B9BF;}
	.st2{fill:#808080;}
	.st3{fill:#737373;}
	.st4{fill:#F5F5F5;}
	.st5{fill:#E6E6E6;}
	.st6{fill:#CCCCCC;}
	.st7{fill:#242424;}
	.st8{fill:#B3B3B3;}
</style>
<g id="XMLID_1_">
	<circle id="XMLID_3_" class="st0" cx="256" cy="256" r="256"/>
	<path id="XMLID_4_" class="st1" d="M490.7,357.6v-0.8c0-0.8-0.8-1.6-0.8-2.4c0-0.8-0.8-1.6-0.8-2.4c0-0.8-0.8-1.6-0.8-2.4
		c0-0.8-0.8-1.6-0.8-2.4c0-0.8-0.8-1.6-0.8-2.4c0-0.8-0.8-1.6-0.8-2.4s-0.8-1.6-0.8-2.4s-0.8-1.6-0.8-2.4s-0.8-1.6-0.8-2.4
		s-0.8-1.6-0.8-2.4c0-0.8-0.8-1.6-0.8-2.4c0-0.8-0.8-1.6-0.8-2.4c0-0.8-0.8-1.6-0.8-2.4c0-0.8-0.8-1.6-0.8-2.4
		c0-0.8-0.8-1.6-0.8-2.4s-0.8-1.6-0.8-2.4s-0.8-1.6-0.8-2.4s-0.8-1.6-0.8-2.4s-0.8-1.6-0.8-2.4c0-0.8-0.8-1.6-0.8-2.4
		c0-0.8-0.8-1.6-0.8-2.4c0-0.8-0.8-1.6-0.8-2.4c0-0.8-0.8-1.6-0.8-2.4c0-0.8-0.8-1.6-0.8-2.4s-0.8-1.6-0.8-2.4s-0.8-1.6-0.8-2.4
		s-0.8-1.6-0.8-2.4s-0.8-1.6-0.8-2.4c0-0.8-0.8-1.6-0.8-2.4c0-0.8-0.8-1.6-0.8-2.4c0-0.8-0.8-1.6-0.8-2.4c0-0.8-0.8-1.6-0.8-2.4
		c0-0.8-0.8-1.6-0.8-2.4c0-0.8-0.8-1.6-0.8-2.4s-0.8-1.6-0.8-2.4s-0.8-1.6-0.8-2.4s-0.8-1.6-0.8-2.4s-0.8-1.6-0.8-2.4
		c0-0.8-0.8-1.6-0.8-2.4c0-0.8-0.8-1.6-0.8-2.4c0-0.8-0.8-1.6-0.8-2.4c0-0.8-0.8-1.6-0.8-2.4c0-0.8-0.8-1.6-0.8-2.4
		c0-0.8-0.8-1.6-0.8-2.4c0-0.8-0.8-1.6-0.8-2.4c0-0.8-0.8-1.6-0.8-2.4c0-0.8-0.8-1.6-0.8-2.4c0-0.8-0.8-1.6-0.8-2.4
		c0-0.8-0.8-1.6-0.8-2.4s-0.8-1.6-0.8-2.4c0-0.8-0.8-1.6-0.8-2.4c0-0.8-0.8-1.6-0.8-2.4c0-0.8-0.8-1.6-0.8-2.4
		c0-0.8-0.8-1.6-0.8-2.4s-0.8-1.6-0.8-2.4c0-0.8-0.8-1.6-0.8-2.4c0-0.8-0.8-1.6-0.8-2.4c0-0.8-0.8-1.6-0.8-2.4s-0.8-1.6-0.8-2.4
		c0-0.8-0.8-1.6-0.8-2.4c0-0.8-0.8-1.6-0.8-2.4c0-0.8-0.8-1.6-0.8-2.4c0-0.8-0.8-1.6-0.8-2.4s-0.8-1.6-0.8-2.4
		c0-0.8-0.8-1.6-0.8-2.4c0-0.8-0.8-1.6-0.8-2.4c0-0.8-0.8-1.6-0.8-2.4c0-0.8-0.8-1.6-0.8-2.4s-0.8-1.6-0.8-2.4
		c0-0.8-0.8-1.6-0.8-2.4c0-0.8-0.8-1.6-0.8-2.4c0-0.8-0.8-1.6-0.8-2.4s-0.8-1.6-0.8-2.4c0-0.8-0.8-1.6-0.8-2.4
		c0-0.8-0.8-1.6-0.8-2.4c0-0.8-0.8-1.6-0.8-2.4c0-0.8-0.8-1.6-0.8-2.4s-0.8-1.6-0.8-2.4c0-0.8-0.8-1.6-0.8-2.4
		c0-0.8-0.8-1.6-0.8-2.4c0-0.8-0.8-1.6-0.8-2.4c0-0.8-0.8-1.6-0.8-2.4c0-0.8-0.8-1.6-0.8-2.4c0-0.8-0.8-1.6-0.8-2.4
		c0-0.8-0.8-1.6-0.8-2.4c0-0.8-0.8-1.6-0.8-2.4s-0.8-1.6-0.8-2.4c0-0.8-0.8-1.6-0.8-2.4c0-0.8-0.8-1.6-0.8-2.4
		c0-0.8-0.8-1.6-0.8-2.4c0-0.8-0.8-1.6-0.8-2.4s-0.8-1.6-0.8-2.4c0-0.8-0.8-1.6-0.8-2.4c0-0.8-0.8-1.6-0.8-2.4
		c0-0.8-0.8-1.6-0.8-2.4c0-0.8-0.8-1.6-0.8-2.4c0-0.8-0.8-1.6-0.8-2.4c0-0.8-0.8-1.6-0.8-2.4c0-0.8-0.8-1.6-0.8-2.4
		c0-0.8-0.8-1.6-0.8-2.4c0-0.8-0.8-1.6-0.8-2.4c0-0.8-0.8-1.6-0.8-2.4c0-0.8-0.8-1.6-0.8-2.4c0-0.8-0.8-1.6-0.8-2.4
		c0-0.8-0.8-1.6-0.8-2.4c0-0.8-0.8-1.6-0.8-2.4c0-0.8-0.8-1.6-0.8-2.4c0-0.8-0.8-1.6-0.8-2.4c0-0.8-0.8-1.6-0.8-2.4
		c0-0.8-0.8-1.6-0.8-2.4c0-0.8-0.8-1.6-0.8-2.4c0-0.8-0.8-1.6-0.8-2.4c0-0.8-0.8-1.6-0.8-2.4c0-0.8-0.8-1.6-0.8-2.4
		c0-0.8-0.8-1.6-0.8-2.4c0-0.8-0.8-1.6-0.8-2.4c0-0.8-0.8-1.6-0.8-2.4c0-0.8-0.8-1.6-0.8-2.4c0-0.8-0.8-1.6-0.8-2.4
		c0-0.8-0.8-1.6-0.8-2.4c-0.8-2.4-2.4-4.7-4.7-6.3c-3.2-1.6-6.3-1.6-9.5,0l-63.8,36.2c-1.6-0.8-3.9-1.6-5.5-1.6
		c-8.7-2.4-18.1-4.7-27.6-5.5h-0.8c-2.4,0-3.9-0.8-6.3-0.8c-0.8,0-1.6,0-1.6,0c-1.6,0-3.9,0-5.5,0c-0.8,0-1.6,0-2.4,0
		c-2.4,0-4.7,0-7.1,0c-21.3,0-41,3.2-57.5,8.7l-63.8-36.2c-3.2-1.6-6.3-1.6-9.5,0c-3.2,1.6-4.7,4.7-4.7,8.7v74.8
		c-9.5,18.9-7.9,53.6-7.9,76.4c-7.1,18.1-1.6,48.8,2.4,57.5c0,0.8,0.8,1.6,0.8,2.4c0,0.8,0.8,1.6,0.8,2.4c0,0.8,0.8,1.6,0.8,2.4
		s0.8,1.6,0.8,2.4s0.8,1.6,0.8,2.4s0.8,1.6,0.8,2.4c0,0.8,0.8,1.6,0.8,2.4c0,0.8,0.8,1.6,0.8,2.4c0,0.8,0.8,1.6,0.8,2.4
		c0,0.8,0.8,1.6,0.8,2.4c0,0.8,0.8,1.6,0.8,2.4c0,0.8,0.8,1.6,0.8,2.4s0.8,1.6,0.8,2.4s0.8,1.6,0.8,2.4s0.8,1.6,0.8,2.4
		s0.8,1.6,0.8,2.4c0,0.8,0.8,1.6,0.8,2.4c0,0.8,0.8,1.6,0.8,2.4c0,0.8,0.8,1.6,0.8,2.4c0,0.8,0.8,1.6,0.8,2.4c0,0.8,0.8,1.6,0.8,2.4
		s0.8,1.6,0.8,2.4s0.8,1.6,0.8,2.4s0.8,1.6,0.8,2.4s0.8,1.6,0.8,2.4c0,0.8,0.8,1.6,0.8,2.4c0,0.8,0.8,1.6,0.8,2.4
		c0,0.8,0.8,1.6,0.8,2.4c0,0.8,0.8,1.6,0.8,2.4c0,0.8,0.8,1.6,0.8,2.4s0.8,1.6,0.8,2.4s0.8,1.6,0.8,2.4s0.8,1.6,0.8,2.4
		s0.8,1.6,0.8,2.4c0,0.8,0.8,1.6,0.8,2.4c0,0.8,0.8,1.6,0.8,2.4c0,0.8,0.8,1.6,0.8,2.4c0,0.8,0.8,1.6,0.8,2.4c0,0.8,0.8,1.6,0.8,2.4
		c0,0.8,0.8,1.6,0.8,2.4s0.8,1.6,0.8,2.4c0,0.8,0.8,1.6,0.8,2.4c0,0.8,0.8,1.6,0.8,2.4c0,0.8,0.8,1.6,0.8,2.4c0,0.8,0.8,1.6,0.8,2.4
		c0,0.8,0.8,1.6,0.8,2.4c0,0.8,0.8,1.6,0.8,2.4c0,0.8,0.8,1.6,0.8,2.4c0,0.8,0.8,1.6,0.8,2.4c0,0.8,0.8,1.6,0.8,2.4
		c0,0.8,0.8,1.6,0.8,2.4c0,0.8,0.8,1.6,0.8,2.4c0,0.8,0.8,1.6,0.8,2.4c0,0.8,0.8,1.6,0.8,2.4c0,0.8,0.8,1.6,0.8,2.4
		c0,0.8,0.8,1.6,0.8,2.4c0,0.8,0.8,1.6,0.8,2.4c0,0.8,0.8,1.6,0.8,2.4c0,0.8,0.8,1.6,0.8,2.4c0,0.8,0.8,1.6,0.8,2.4
		c0,0.8,0.8,1.6,0.8,2.4c0,0.8,0.8,1.6,0.8,2.4c0,0.8,0.8,1.6,0.8,2.4c0,0.8,0.8,1.6,0.8,2.4c0,0.8,0.8,1.6,0.8,2.4
		c0,0.8,0.8,1.6,0.8,2.4c0,0.8,0.8,1.6,0.8,2.4c0,0.8,0.8,1.6,0.8,2.4c0,0.8,0.8,1.6,0.8,2.4c0,0.8,0.8,1.6,0.8,2.4
		c0,0.8,0.8,1.6,0.8,2.4c0,0.8,0.8,1.6,0.8,2.4c0,0.8,0.8,1.6,0.8,2.4c0,0.8,0.8,1.6,0.8,2.4c0,0.8,0.8,1.6,0.8,2.4
		c0,0.8,0.8,1.6,0.8,2.4c0,0.8,0.8,1.6,0.8,2.4c0,0.8,0.8,1.6,0.8,2.4c0,0.8,0.8,1.6,0.8,2.4c0,0.8,0.8,1.6,0.8,2.4
		c0,0.8,0.8,1.6,0.8,2.4c0,0.8,0.8,1.6,0.8,2.4c0,0.8,0.8,1.6,0.8,2.4c0,0.8,0.8,1.6,0.8,2.4c0,0.8,0.8,1.6,0.8,2.4
		c0,0.8,0.8,1.6,0.8,2.4c0,0.8,0.8,1.6,0.8,2.4c0,0.8,0.8,1.6,0.8,2.4l0,0c22.1,6.3,44.9,9.5,68.5,9.5
		C361.6,512,452.1,448.2,490.7,357.6z"/>
	<path id="XMLID_5_" class="st2" d="M111.9,264.7c0-22.1-1.6-57.5,7.9-76.4v-74.8c0-3.2,1.6-6.3,4.7-8.7c3.2-1.6,6.3-1.6,9.5,0
		l63.8,36.2c15.8-5.5,36.2-8.7,57.5-8.7s41,3.2,57.5,8.7l63.8-36.2c3.2-1.6,6.3-1.6,9.5,0c3.2,1.6,4.7,4.7,4.7,8.7v74.8
		c9.5,18.9,7.9,53.6,7.9,76.4H111.9z"/>
	<path id="XMLID_6_" class="st3" d="M308.8,143.4l3.9-2.4c-18.1-6.3-39.4-8.7-57.5-8.7c-2.4,0-3.9,0-6.3,0
		C268.6,133.1,294.6,138.6,308.8,143.4z"/>
	<path id="XMLID_7_" class="st3" d="M190.6,143.4c2.4-0.8,4.7-1.6,7.9-2.4l-63.8-36.2c-3.2-1.6-6.3-1.6-9.5,0l-0.8,0.8L190.6,143.4z
		"/>
	<path id="XMLID_8_" class="st3" d="M391.5,188.3v-74.8c0-3.2-1.6-6.3-4.7-8.7c-3.2-1.6-6.3-1.6-9.5,0l-1.6,0.8
		c2.4,1.6,3.9,4.7,3.9,7.9v74.8c9.5,18.9,7.9,53.6,7.9,76.4h11.8C400.1,241.8,401.7,207.2,391.5,188.3z"/>
	<path id="XMLID_9_" class="st4" d="M291.4,343.4c0,10.2-15.8,23.6-35.4,23.6s-35.4-12.6-35.4-23.6v-17.3h71.7v17.3H291.4z"/>
	<path id="XMLID_10_" class="st5" d="M400.1,264.7c-20.5-15.8-92.2-40.2-144.1-40.2s-123.7,24.4-144.1,40.2
		c-7.9,19.7,0,55.9,3.9,59.9c7.9-3.9,23.6-7.9,36.2-7.9c-7.9,7.9-11.8,36.2-11.8,48c15.8-7.9,32.3-3.9,40.2,3.9
		c11.8,36.2,63.8,40.2,75.6,40.2c11.8,0,63.8-3.9,75.6-40.2c7.9-7.9,19.7-11.8,40.2-3.9c0-11.8-3.9-40.2-11.8-48
		c11.8,0,28.4,3.9,36.2,7.9C400.1,320.6,408,284.4,400.1,264.7z"/>
	<path id="XMLID_11_" class="st6" d="M341.9,314.3c7.1,7.1,12.6,32.3,13.4,45.7c4.7,0,10.2,1.6,16.5,3.9c0-11-3.2-35.4-11.8-48
		C354.5,315.1,347.4,314.3,341.9,314.3z"/>
	<path id="XMLID_12_" class="st6" d="M315.1,368.6c-10.2,30.7-48.8,37.8-67.7,39.4c3.2,0,6.3,0.8,8.7,0.8c11.8,0,63.8-3.9,75.6-40.2
		c3.2-3.2,7.1-6.3,12.6-7.1C330.8,358.4,322.2,362.3,315.1,368.6z"/>
	<path id="XMLID_13_" class="st6" d="M400.1,264.7c-4.7-3.9-11.8-7.9-21.3-11.8c2.4,4.7,3.9,8.7,4.7,11.8l0,0
		c1.6,3.9,2.4,8.7,3.2,13.4l0,0l0,0c1.6,15-1.6,33.1-4.7,41.7c5.5,1.6,11,3.2,14.2,4.7C400.1,320.6,408,284.4,400.1,264.7z"/>
	<circle id="XMLID_14_" class="st4" cx="204" cy="235.5" r="19.7"/>
	<circle id="XMLID_15_" class="st7" cx="204" cy="235.5" r="7.9"/>
	<circle id="XMLID_16_" class="st4" cx="308" cy="235.5" r="19.7"/>
	<circle id="XMLID_17_" class="st7" cx="308" cy="235.5" r="7.9"/>
	<path id="XMLID_18_" class="st4" d="M256,380.5c-28.4,0-40.2-41.7-40.2-55.1c0-14.2,18.1-15,40.2-15s40.2,1.6,40.2,15
		S284.4,380.5,256,380.5z"/>
	<path id="XMLID_19_" class="st3" d="M296.2,326.1v-99.2c0-12.6-18.1-28.4-40.2-28.4s-40.2,15-40.2,28.4v100h80.3V326.1z"/>
	<polygon id="XMLID_20_" class="st8" points="139.4,190.6 139.4,132.3 197.7,161.5 	"/>
	<polygon id="XMLID_21_" class="st8" points="372.6,190.6 372.6,132.3 314.3,161.5 	"/>
	<path id="XMLID_22_" class="st7" d="M256,368.6c-22.1,0-40.2-29.1-40.2-41.7s18.1-14.2,40.2-14.2s40.2,1.6,40.2,14.2
		S278.1,368.6,256,368.6z"/>
	<path id="XMLID_23_" class="st3" d="M256,224.5h-78c11-9.5,49.6-26,78-26V224.5z"/>
	<path id="XMLID_24_" class="st3" d="M256,224.5h78c-11-9.5-49.6-26-78-26V224.5z"/>
</g>
</svg>
