<?xml version="1.0" encoding="utf-8"?>
<!-- Generator: Adobe Illustrator 19.0.0, SVG Export Plug-In . SVG Version: 6.00 Build 0)  -->
<svg version="1.1" id="Layer_1" xmlns="http://www.w3.org/2000/svg" xmlns:xlink="http://www.w3.org/1999/xlink" x="0px" y="0px"
	 viewBox="0 0 500 500" style="enable-background:new 0 0 500 500;" xml:space="preserve">
<style type="text/css">
	.st0{fill:#7289DA;}
</style>
<g id="XMLID_1_">
	<path id="XMLID_2_" class="st0" d="M372.3,67.5H127.7c-20.6,0-37.4,16.8-37.4,37.6v246.7c0,20.8,16.8,37.6,37.4,37.6h207l-9.7-33.8
		l23.4,21.7l22.1,20.4l39.2,34.7V105.1C409.7,84.3,392.9,67.5,372.3,67.5z M301.8,305.8c0,0-6.6-7.8-12-14.8
		c23.9-6.8,33-21.7,33-21.7c-7.5,4.9-14.6,8.4-21,10.8c-9.1,3.8-17.9,6.4-26.5,7.8c-17.5,3.3-33.6,2.4-47.3-0.2
		c-10.4-2-19.3-4.9-26.8-7.8c-4.2-1.6-8.8-3.6-13.3-6.2c-0.5-0.4-1.1-0.5-1.6-0.9c-0.4-0.2-0.5-0.4-0.7-0.5
		c-3.3-1.8-5.1-3.1-5.1-3.1s8.8,14.6,31.9,21.5c-5.5,6.9-12.2,15.1-12.2,15.1c-40.3-1.3-55.7-27.7-55.7-27.7
		c0-58.8,26.3-106.4,26.3-106.4c26.3-19.7,51.3-19.2,51.3-19.2l1.8,2.2c-32.9,9.5-48,23.9-48,23.9s4-2.2,10.8-5.3
		c19.5-8.6,35-11,41.4-11.5c1.1-0.2,2-0.4,3.1-0.4c11.1-1.5,23.7-1.8,36.9-0.4c17.3,2,36,7.1,54.9,17.5c0,0-14.4-13.7-45.4-23.2
		l2.6-2.9c0,0,25-0.5,51.3,19.2c0,0,26.3,47.6,26.3,106.4C357.7,278.1,342.2,304.6,301.8,305.8z M217,220.6
		c-10.4,0-18.6,9.1-18.6,20.3s8.4,20.3,18.6,20.3c10.4,0,18.6-9.1,18.6-20.3C235.8,229.7,227.4,220.6,217,220.6 M283.6,220.6
		c-10.4,0-18.6,9.1-18.6,20.3s8.4,20.3,18.6,20.3c10.4,0,18.6-9.1,18.6-20.3S294,220.6,283.6,220.6"/>
</g>
</svg>
