<?xml version="1.0" encoding="utf-8"?>
<!-- Generator: Adobe Illustrator 24.1.1, SVG Export Plug-In . SVG Version: 6.00 Build 0)  -->
<svg version="1.1" id="Layer_1" xmlns="http://www.w3.org/2000/svg" xmlns:xlink="http://www.w3.org/1999/xlink" x="0px" y="0px"
	 viewBox="0 0 500 500" style="enable-background:new 0 0 500 500;" xml:space="preserve">
<style type="text/css">
	.st0{fill:url(#SVGID_1_);}
	.st1{fill:#FFFFFF;}
</style>
<g>
	
		<radialGradient id="SVGID_1_" cx="46.9216" cy="-162.1996" r="0.681" gradientTransform="matrix(800 0 0 799.9985 -37441 130256.7344)" gradientUnits="userSpaceOnUse">
		<stop  offset="0" style="stop-color:#0099FF"/>
		<stop  offset="0.6098" style="stop-color:#A033FF"/>
		<stop  offset="0.9348" style="stop-color:#FF5280"/>
		<stop  offset="1" style="stop-color:#FF7061"/>
	</radialGradient>
	<path class="st0" d="M250,0C109.2,0,0,103.2,0,242.5c0,72.9,29.9,135.9,78.5,179.4c4.1,3.6,6.6,8.8,6.7,14.2l1.4,44.5
		c0.4,14.2,15.1,23.4,28.1,17.7l49.6-21.9c4.2-1.9,8.9-2.2,13.4-1c22.8,6.3,47.1,9.6,72.4,9.6c140.8,0,250-103.2,250-242.5
		S390.8,0,250,0z"/>
	<path class="st1" d="M99.9,313.4l73.4-116.5c11.7-18.6,36.7-23.1,54.2-10l58.4,43.8c5.4,4,12.7,4,18.1-0.1l78.9-59.9
		c10.5-8,24.3,4.6,17.2,15.8L326.7,303c-11.7,18.6-36.7,23.1-54.3,10L214,269.2c-5.4-4-12.8-4-18.1,0.1l-78.9,59.9
		C106.6,337.2,92.8,324.6,99.9,313.4z"/>
</g>
</svg>
