<?xml version="1.0" encoding="utf-8"?>
<!-- Generator: Adobe Illustrator 19.0.0, SVG Export Plug-In . SVG Version: 6.00 Build 0)  -->
<svg version="1.1" id="Layer_1" xmlns="http://www.w3.org/2000/svg" xmlns:xlink="http://www.w3.org/1999/xlink" x="0px" y="0px"
	 viewBox="0 0 500 500" style="enable-background:new 0 0 500 500;" xml:space="preserve">
<style type="text/css">
	.st0{fill:#3ACE01;}
	.st1{fill:#FFFFFF;}
</style>
<g id="XMLID_1_">
	<path id="XMLID_3_" class="st0" d="M142.2,67.5h215.6c41.1,0,74.7,33.6,74.7,74.7v215.6c0,41.1-33.6,74.7-74.7,74.7H142.2
		c-41.1,0-74.7-33.6-74.7-74.7V142.2C67.5,101.1,101.1,67.5,142.2,67.5z"/>
	<path id="XMLID_4_" class="st1" d="M249.6,128c74,0,133.9,48,133.9,107.2c0,20.7-7.3,40-20,56.4c-0.6,0.9-1.4,2-2.5,3.1l-0.1,0.1
		c-4.3,5.2-9.2,10-14.6,14.5c-37,34.2-98,75-106,68.7c-7-5.5,11.5-32.2-9.8-36.6c-1.5-0.2-3-0.4-4.4-0.6l0,0v0
		c-62.7-8.9-110.4-52.8-110.4-105.6C115.7,176,175.7,128,249.6,128z"/>
	<path id="XMLID_9_" class="st0" d="M172,269.4h0.4h0.1H199c3.8,0,7-3.1,7-7v-0.6c0-3.8-3.1-7-7-7h-19.4v-44.2c0-3.8-3.1-7-7-7H172
		c-3.8,0-7,3.1-7,7v51.8C165,266.3,168.1,269.4,172,269.4z M339.3,236.9v-0.6c0-3.8-3.1-7-7-7h-19.4v-11.1h19.4c3.8,0,7-3.1,7-7
		v-0.6c0-3.8-3.1-7-7-7h-26.4h-0.1h-0.4c-3.8,0-7,3.1-7,7v51.8c0,3.8,3.1,7,7,7h0.4h0.1h26.4c3.8,0,7-3.1,7-7V262c0-3.8-3.1-7-7-7
		h-19.4v-11.1h19.4C336.2,243.9,339.3,240.8,339.3,236.9z M287.4,267.3L287.4,267.3c1.2-1.3,2-3,2-4.9v-51.8c0-3.8-3.1-7-7-7h-0.6
		c-3.8,0-7,3.1-7,7V241l-25.2-33.9c-1.2-2.1-3.5-3.5-6.1-3.5h-0.6c-3.8,0-7,3.1-7,7v51.8c0,3.8,3.1,7,7,7h0.6c3.8,0,7-3.1,7-7v-31
		l25.4,34.7c0.2,0.2,0.3,0.5,0.5,0.7l0,0c0.7,1,1.7,1.6,2.7,2c0.8,0.3,1.7,0.5,2.6,0.5h0.6c1.2,0,2.3-0.3,3.3-0.8
		C286.4,268.2,287,267.8,287.4,267.3z M218.6,269.4h0.6c3.8,0,7-3.1,7-7v-51.8c0-3.8-3.1-7-7-7h-0.6c-3.8,0-7,3.1-7,7v51.8
		C211.6,266.3,214.7,269.4,218.6,269.4z"/>
</g>
</svg>
