<?xml version="1.0" encoding="utf-8"?>
<!-- Generator: Adobe Illustrator 24.1.1, SVG Export Plug-In . SVG Version: 6.00 Build 0)  -->
<svg version="1.1" id="Layer_1" xmlns="http://www.w3.org/2000/svg" xmlns:xlink="http://www.w3.org/1999/xlink" x="0px" y="0px"
	 viewBox="0 0 512 512" style="enable-background:new 0 0 512 512;" xml:space="preserve">
<style type="text/css">
	.st0{fill:#BCBBBB;}
	.st1{fill:#F48023;}
</style>
<g>
	<polygon class="st0" points="405.3,466.5 405.3,329.3 450.8,329.3 450.8,512 39.9,512 39.9,329.3 85.4,329.3 85.4,466.5 	"/>
	<path class="st1" d="M135.7,316.3L359.2,363l9.5-44.9l-223.5-46.7L135.7,316.3z M165.2,209.9l206.9,96.4l18.9-41.4l-206.9-97
		L165.2,209.9z M222.6,108.2l175.6,146l29-34.9l-175.6-146L222.6,108.2z M336.1,0l-36.7,27.2l136,183.3l36.7-27.2L336.1,0z
		 M131,420.4h228.2v-45.5H131V420.4z"/>
</g>
</svg>
