<?xml version="1.0" encoding="utf-8"?>
<!-- Generator: Adobe Illustrator 24.1.1, SVG Export Plug-In . SVG Version: 6.00 Build 0)  -->
<svg version="1.1" id="Layer_1" xmlns="http://www.w3.org/2000/svg" xmlns:xlink="http://www.w3.org/1999/xlink" x="0px" y="0px"
	 viewBox="0 0 500 500" style="enable-background:new 0 0 500 500;" xml:space="preserve">
<style type="text/css">
	.st0{fill:#EE1D52;}
	.st1{fill:#FFFFFF;}
	.st2{fill:#69C9D0;}
</style>
<g>
	<rect x="67.5" y="67.5" width="365" height="365"/>
	<path class="st0" d="M156.93,294.85l0.73,2.1C157.56,296.72,157.29,295.99,156.93,294.85z M186.54,246.99
		c1.32-11.36,5.79-17.7,14.19-24.23c12.04-8.81,27.06-3.83,27.06-3.83v-29.61c3.65-0.09,7.3,0.14,10.9,0.68v38.1
		c0,0-15.01-4.97-27.06,3.83c-8.4,6.52-12.87,12.87-14.19,24.23c-0.05,6.16,1.05,14.24,6.16,21.17c-1.28-0.68-2.56-1.46-3.88-2.33
		C188.54,267.15,186.49,255.34,186.54,246.99z M300.78,134.57c-8.26-9.44-11.41-19.03-12.55-25.73h10.4c0,0-2.05,17.61,13.05,34.9
		l0.23,0.23C307.81,141.32,304.07,138.13,300.78,134.57z M350.92,161.4v37.32c0,0-13.28-0.55-23.13-3.15
		c-13.73-3.65-22.54-9.26-22.54-9.26s-6.11-4.01-6.57-4.29v77.11c0,4.29-1.14,15.01-4.56,23.95c-4.47,11.68-11.41,19.39-12.68,20.94
		c0,0-8.44,10.4-23.27,17.38c-13.37,6.3-25.14,6.16-28.65,6.3c0,0-20.3,0.82-38.6-11.54c-3.97-2.74-7.66-5.84-11.04-9.26l0.09,0.09
		c18.3,12.41,38.6,11.54,38.6,11.54c3.51-0.14,15.28,0,28.65-6.3c14.83-6.98,23.27-17.38,23.27-17.38
		c1.28-1.55,8.21-9.26,12.68-20.94c3.42-8.94,4.56-19.66,4.56-23.95v-77.06c0.5,0.27,6.57,4.29,6.57,4.29s8.81,5.61,22.54,9.26
		c9.85,2.6,23.13,3.15,23.13,3.15v-29.25C344.54,161.4,348.41,161.67,350.92,161.4z"/>
	<path class="st1" d="M339.97,160.3v29.25c0,0-13.28-0.55-23.13-3.15c-13.73-3.65-22.54-9.26-22.54-9.26s-6.11-4.01-6.57-4.29v77.11
		c0,4.29-1.14,15.01-4.56,23.95c-4.47,11.68-11.41,19.39-12.68,20.94c0,0-8.44,10.4-23.27,17.38c-13.37,6.3-25.14,6.16-28.65,6.3
		c0,0-20.3,0.82-38.6-11.54l-0.09-0.09c-1.92-1.96-3.74-4.02-5.43-6.16c-5.84-7.44-9.4-16.2-10.31-18.71v-0.05
		c-1.46-4.33-4.47-14.83-4.06-24.91c0.73-17.84,6.75-28.83,8.35-31.57c4.2-7.48,9.72-14.19,16.2-19.8
		c5.75-4.84,12.27-8.71,19.25-11.41c7.57-3.19,15.69-4.88,23.91-5.02v29.61c0,0-15.01-4.97-27.06,3.83
		c-8.39,6.52-12.87,12.87-14.19,24.23c-0.05,8.35,2.01,20.17,13.23,28.06c1.32,0.87,2.6,1.64,3.88,2.33
		c1.96,2.65,4.33,4.97,7.07,6.89c11,7.25,20.17,7.76,31.94,3.06c7.85-3.15,13.73-10.22,16.47-18.11c1.73-4.93,1.69-9.86,1.69-14.97
		V108.84h27.38c1.14,6.71,4.24,16.29,12.55,25.73c3.33,3.56,7.07,6.75,11.13,9.4c1.19,1.32,7.35,7.71,15.28,11.68
		C331.21,157.7,335.55,159.25,339.97,160.3z"/>
	<path class="st2" d="M153.23,272.99l0.68,1.96C153.82,274.73,153.55,274.04,153.23,272.99z"/>
	<path class="st2" d="M203.87,194.34c-7.03,2.69-13.51,6.57-19.25,11.41c-6.52,5.61-12,12.36-16.2,19.85
		c-1.6,2.74-7.62,13.69-8.35,31.57c-0.41,10.13,2.65,20.58,4.06,24.91v0.05c0.91,2.46,4.47,11.27,10.31,18.71
		c1.69,2.14,3.51,4.2,5.43,6.16c-6.21-4.29-11.68-9.44-16.38-15.33c-5.79-7.35-9.35-16.06-10.27-18.62v-0.09
		c-1.46-4.33-4.52-14.83-4.06-24.96c0.73-17.84,6.75-28.83,8.35-31.57c4.2-7.48,9.67-14.24,16.2-19.85
		c5.75-4.84,12.27-8.71,19.25-11.41c4.38-1.82,8.94-3.15,13.6-4.01c7.03-1.23,14.19-1.32,21.26-0.32v8.49
		C219.57,189.46,211.45,191.14,203.87,194.34z"/>
	<path class="st2" d="M288.23,108.84h-27.38V254.2c0,5.11,0,10.04-1.69,14.97c-2.78,7.85-8.67,14.96-16.47,18.11
		c-11.77,4.74-20.99,4.2-31.94-3.06c-2.74-1.87-5.11-4.2-7.07-6.84c9.35,4.97,17.7,4.88,28.06,0.73
		c7.85-3.15,13.73-10.27,16.47-18.11c1.73-4.93,1.69-9.86,1.69-14.97V99.67h37.82C287.69,99.67,287.28,103.27,288.23,108.84z
		 M339.97,152.23v8.08c-4.43-1.05-8.76-2.6-12.82-4.65c-7.89-3.92-14.05-10.36-15.28-11.68c1.41,0.91,2.83,1.73,4.33,2.51
		C325.87,151.27,335.32,152.73,339.97,152.23z"/>
	<path class="st2" d="M289.15,384.5c0,1.05,0.14,2.05,0.46,3.06c0,0.09,0.05,0.14,0.05,0.23c1.51,4.84,5.98,8.12,11.04,8.12v11.68
		c-5.7,0-9.76,0.18-15.97-3.47c-7.03-4.2-11-11.82-11-19.76c0-8.17,4.43-16.38,12-20.35c5.48-2.87,9.63-2.87,15.01-2.87v11.68
		c-6.39,0-11.54,5.16-11.54,11.54L289.15,384.5z"/>
	<path class="st0" d="M312.32,384.5c0,1.05-0.14,2.05-0.46,3.06c0,0.09-0.05,0.14-0.05,0.23c-1.51,4.84-5.98,8.12-11.04,8.12v11.68
		c5.66,0,9.76,0.18,15.92-3.47c7.07-4.2,11.04-11.82,11.04-19.76c0-8.17-4.43-16.38-12-20.35c-5.48-2.87-9.63-2.87-15.01-2.87v11.68
		c6.39,0,11.54,5.16,11.54,11.54v0.14H312.32z"/>
	<path class="st1" d="M122.02,350.56h42.75l-3.97,11.77h-11.18v45.03h-13.73v-45.03h-13.87V350.56z M235.35,350.56v11.77h13.87
		v45.03H263v-45.03h11.18l3.97-11.77H235.35z M174.08,363.93c3.7,0,6.66-2.97,6.66-6.66s-2.97-6.66-6.66-6.66
		c-3.7,0-6.66,2.97-6.66,6.66S170.38,363.93,174.08,363.93z M167.42,407.32h13.51v-38.69h-13.51V407.32z M229.47,363.61h-15.79
		l-13.6,13.6v-26.65h-13.41l-0.05,56.71h13.55v-14.78l4.2-3.83l13.14,18.61h14.46l-19.03-27.19L229.47,363.61z M358.95,380.12
		l16.52-16.52h-15.79l-13.6,13.6v-26.65h-13.41l-0.09,56.76h13.55v-14.78l4.24-3.83l13.14,18.61h14.46L358.95,380.12z
		 M324.23,384.32c0,12.82-10.54,23.22-23.54,23.22c-13,0-23.54-10.4-23.54-23.22s10.54-23.22,23.54-23.22
		C313.69,361.1,324.23,371.5,324.23,384.32z M312.23,384.32c0-6.39-5.16-11.54-11.54-11.54c-6.39,0-11.54,5.16-11.54,11.54
		c0,6.39,5.16,11.54,11.54,11.54C307.08,395.86,312.23,390.71,312.23,384.32z"/>
</g>
</svg>
