<?xml version="1.0" encoding="utf-8"?>
<!-- Generator: Adobe Illustrator 24.1.1, SVG Export Plug-In . SVG Version: 6.00 Build 0)  -->
<svg version="1.1" id="Layer_1" xmlns="http://www.w3.org/2000/svg" xmlns:xlink="http://www.w3.org/1999/xlink" x="0px" y="0px"
	 viewBox="0 0 512 512" style="enable-background:new 0 0 512 512;" xml:space="preserve">
<g>
	<path d="M318.5,331.6c0,0-7.85,8.73-22.77,8.73c-14.95,0-21.65-8.73-21.65-21.65v-73.15h48.32v-44.38h-48.32V128H237.7
		c-5.7,32.82-28.1,60.18-58.5,73.57v43.95h35.5v84.25c0,11.7,11.4,54.23,69.63,54.23c34.17,0,48.32-21.23,48.32-21.23L318.5,331.6z"
		/>
	<path d="M256,460.8c113.13,0,204.8-91.67,204.8-204.8c0-113.1-91.67-204.8-204.8-204.8C142.9,51.2,51.2,142.9,51.2,256
		C51.2,369.13,142.9,460.8,256,460.8z M256,512C114.63,512,0,397.4,0,256C0,114.63,114.63,0,256,0c141.4,0,256,114.63,256,256
		C512,397.4,397.4,512,256,512z"/>
</g>
</svg>
