<?xml version="1.0" encoding="utf-8"?>
<!-- Generator: Adobe Illustrator 24.1.1, SVG Export Plug-In . SVG Version: 6.00 Build 0)  -->
<svg version="1.1" id="Layer_1" xmlns="http://www.w3.org/2000/svg" xmlns:xlink="http://www.w3.org/1999/xlink" x="0px" y="0px"
	 viewBox="0 0 512 512" style="enable-background:new 0 0 512 512;" xml:space="preserve">
<g id="XMLID_1_">
	<path id="XMLID_5_" d="M215.3,432.9C131,441.2,57.2,402.8,52,347.8c-5.3-55.7,58.7-107.7,143.1-115.9S353.1,262,358.4,317
		C363.7,372.7,299.7,424.6,215.3,432.9z M384,248.5c-7.5-2.3-12-3.8-8.3-12.8c8.3-20.3,9-38.4,0-51.2
		c-16.6-23.3-61.7-22.6-113.7-0.8c0,0-16.6,6.8-12-6c8.3-25.6,6.8-47.4-6-59.5C215.3,89.6,140.8,119,76,183.7
		C27.9,231.9,0,283.1,0,327.5C0,411.8,108.4,463,214.6,463c139.3,0,231.1-80.6,231.1-144.6C446.5,279.3,414.1,257.5,384,248.5
		L384,248.5z"/>
	<path id="XMLID_6_" d="M476.6,93.4C442.7,56.5,393.8,42.2,347.8,52c-10.5,2.3-17.3,12.8-15.1,23.3s12.8,17.3,23.3,15.1
		c32.4-6.8,67.8,3,91.9,29.4c24.1,26.4,30.1,62.5,20.3,94.1c-3,10.5,2.3,21.1,12.8,24.8c10.5,3,21.1-2.3,24.8-12.8l0,0
		C519.5,181.5,510.5,131,476.6,93.4L476.6,93.4z"/>
	<path id="XMLID_7_" d="M425.4,140c-16.6-18.1-40.7-24.8-62.5-20.3c-9,2.3-15.1,11.3-12.8,20.3c2.3,9,11.3,15.1,20.3,12.8
		c10.5-2.3,22.6,0.8,30.9,9.8c8.3,9,10.5,21.1,6.8,31.6c-3,9,2.3,18.1,10.5,21.1c9,3,18.1-2.3,21.1-10.5
		C445.7,183,441.2,158.1,425.4,140L425.4,140z"/>
	<path id="XMLID_11_" d="M219.9,332c-3,5.3-9.8,7.5-14.3,5.3c-5.3-2.3-6.8-7.5-3.8-12.8c3-4.5,9-7.5,14.3-5.3
		C220.6,321.5,222.9,326.8,219.9,332z M192.7,366.7c-8.3,12.8-25.6,18.8-39.2,12.8c-12.8-6-16.6-21.1-9-33.9
		c8.3-12.8,24.8-18.1,38.4-12.8C196.5,338.8,201,353.9,192.7,366.7L192.7,366.7z M223.6,274.1c-39.9-10.5-85.8,9.8-103.1,45.2
		c-18.1,36.1-0.8,76,39.9,89.6c42.2,13.6,91.9-7.5,109.2-45.9C286.9,324.5,265,285.4,223.6,274.1L223.6,274.1z"/>
</g>
</svg>
