<?xml version="1.0" encoding="utf-8"?>
<!-- Generator: Adobe Illustrator 24.1.1, SVG Export Plug-In . SVG Version: 6.00 Build 0)  -->
<svg version="1.1" id="Layer_1" xmlns="http://www.w3.org/2000/svg" xmlns:xlink="http://www.w3.org/1999/xlink" x="0px" y="0px"
	 viewBox="0 0 512 512" style="enable-background:new 0 0 512 512;" xml:space="preserve">
<style type="text/css">
	.st0{fill:#4AB8A1;}
	.st1{fill:#43A691;}
	.st2{fill:#FFD464;}
	.st3{fill:#F2C95F;}
	.st4{fill:#C23527;}
	.st5{fill:#B33124;}
	.st6{fill:#F5F5F5;}
	.st7{fill:#406A80;}
	.st8{fill:#395F73;}
	.st9{fill:#242424;}
	.st10{fill:#70CCBD;}
</style>
<g id="XMLID_1_">
	<circle id="XMLID_3_" class="st0" cx="256" cy="256" r="256"/>
	<path id="XMLID_4_" class="st1" d="M494.7,348.9l-0.8-0.8c0-0.8-0.8-1.6-0.8-2.4s-0.8-1.6-0.8-2.4s-0.8-1.6-0.8-2.4
		c0-0.8-0.8-1.6-0.8-2.4c0-0.8-0.8-1.6-0.8-2.4c0-0.8-0.8-1.6-0.8-2.4c0-0.8-0.8-1.6-0.8-2.4c0-0.8-0.8-1.6-0.8-2.4
		c0-0.8-0.8-1.6-0.8-2.4s-0.8-1.6-0.8-2.4s-0.8-1.6-0.8-2.4s-0.8-1.6-0.8-2.4c0-0.8-0.8-1.6-0.8-2.4c0-0.8-0.8-1.6-0.8-2.4
		c0-0.8-0.8-1.6-0.8-2.4c0-0.8-0.8-1.6-0.8-2.4c0-0.8-0.8-1.6-0.8-2.4c0-0.8-0.8-1.6-0.8-2.4s-0.8-1.6-0.8-2.4s-0.8-1.6-0.8-2.4
		s-0.8-1.6-0.8-2.4s-0.8-1.6-0.8-2.4c0-0.8-0.8-1.6-0.8-2.4c0-0.8-0.8-1.6-0.8-2.4c0-0.8-0.8-1.6-0.8-2.4c0-0.8-0.8-1.6-0.8-2.4
		c0-0.8-0.8-1.6-0.8-2.4s-0.8-1.6-0.8-2.4s-0.8-1.6-0.8-2.4s-0.8-1.6-0.8-2.4s-0.8-1.6-0.8-2.4c0-0.8-0.8-1.6-0.8-2.4
		c0-0.8-0.8-1.6-0.8-2.4c0-0.8-0.8-1.6-0.8-2.4c0-0.8-0.8-1.6-0.8-2.4c0-0.8-0.8-1.6-0.8-2.4s-0.8-1.6-0.8-2.4s-0.8-1.6-0.8-2.4
		s-0.8-1.6-0.8-2.4s-0.8-1.6-0.8-2.4c0-0.8-0.8-1.6-0.8-2.4c0-0.8-0.8-1.6-0.8-2.4c0-0.8-0.8-1.6-0.8-2.4c0-0.8-0.8-1.6-0.8-2.4
		c0-0.8-0.8-1.6-0.8-2.4c0-0.8-0.8-1.6-0.8-2.4c0-0.8-0.8-1.6-0.8-2.4s-0.8-1.6-0.8-2.4c0-0.8-0.8-1.6-0.8-2.4
		c0-0.8-0.8-1.6-0.8-2.4c0-0.8-0.8-1.6-0.8-2.4c0-0.8-0.8-1.6-0.8-2.4s-0.8-1.6-0.8-2.4c0-0.8-0.8-1.6-0.8-2.4
		c0-0.8-0.8-1.6-0.8-2.4c0-0.8-0.8-1.6-0.8-2.4c0-0.8-0.8-1.6-0.8-2.4c0-0.8-0.8-1.6-0.8-2.4c0-0.8-0.8-1.6-0.8-2.4
		c0-0.8-0.8-1.6-0.8-2.4c0-0.8-0.8-1.6-0.8-2.4s-0.8-1.6-0.8-2.4c0-0.8-0.8-1.6-0.8-2.4c0-0.8-0.8-1.6-0.8-2.4
		c0-0.8-0.8-1.6-0.8-2.4c0-0.8-0.8-1.6-0.8-2.4s-0.8-1.6-0.8-2.4c0-0.8-0.8-1.6-0.8-2.4c0-0.8-0.8-1.6-0.8-2.4
		c0-0.8-0.8-1.6-0.8-2.4s-0.8-1.6-0.8-2.4c0-0.8-0.8-1.6-0.8-2.4c0-0.8-0.8-1.6-0.8-2.4c-4.7-12.6-14.2-22.8-33.1-22.8
		c-7.1,0-15.8,1.6-26,4.7c-10.2,3.2-22.1,9.5-33.1,17.3l-0.8-0.8c0-0.8,0-0.8,0-1.6l-0.8-0.8c0-0.8,0-0.8,0-1.6l-15.8-7.9
		c0-0.8,0-0.8,0-1.6l-0.8-0.8c0-0.8,0-0.8,0-1.6l-0.8-0.8c0-0.8,0-0.8,0-1.6l-0.8-0.8c0-0.8,0-0.8,0-1.6l-0.8-0.8c0-0.8,0-0.8,0-1.6
		l-0.8-0.8c0-0.8,0-0.8,0-1.6l-0.8-0.8c0-0.8,0-0.8,0-1.6l-0.8-0.8c0-0.8,0-0.8,0-1.6l-2.4-1.6c0-0.8,0-0.8,0-1.6l-0.8-0.8
		c0-0.8,0-0.8,0-1.6l-0.8-0.8c0-0.8,0-0.8,0-1.6l-0.8-0.8c0-0.8,0-0.8,0-1.6l-0.8-0.8c0-0.8,0-0.8,0-1.6c-0.8-2.4-3.2-3.2-5.5-1.6
		c-18.1,8.7-32.3,28.4-36.2,47.3c-4.7-3.2-11-5.5-17.3-5.5c-1.6,0-2.4,0-3.9,0l0,0c-4.7,0.8-8.7,2.4-12.6,4.7c0-0.8-0.8-1.6-0.8-1.6
		c0-0.8-0.8-1.6-0.8-2.4c0-0.8-0.8-1.6-0.8-2.4s-0.8-1.6-0.8-2.4c-6.3-15.8-18.9-30.7-33.9-37.8c-2.4-0.8-4.7,0-5.5,1.6
		c-0.8,1.6-0.8,3.2,0.8,4.7c0,0.8,0,1.6,0.8,2.4c0,0.8,0,1.6,0.8,2.4c0,0.8,0,1.6,0.8,2.4c0,0.8,0,1.6,0.8,2.4c0,0.8,0,1.6,0.8,2.4
		c0,0.8,0,1.6,0.8,2.4c0,0.8,0,1.6,0.8,2.4c0,0.8,0,1.6,0.8,2.4c0,0.8,0,1.6,0.8,2.4c0,0.8,0,1.6,0.8,2.4c0,0.8,0,1.6,0.8,2.4
		c0,0.8,0,1.6,0.8,2.4c0,0.8,0,1.6,0.8,2.4c0,0.8,0,1.6,0.8,2.4c0,0.8,0,1.6,0.8,2.4c0,0.8,0,1.6,0.8,2.4c0,0.8,0,1.6,0.8,2.4
		c0,0.8,0,1.6,0.8,2.4c0,0.8,0,1.6,0.8,2.4c0,0.8,0,1.6,0.8,2.4c0,0.8,0,1.6,0.8,2.4c0,0.8,0,1.6,0.8,2.4c0,0.8,0,1.6,0.8,2.4
		c0,0.8,0,1.6,0.8,2.4c0,0.8,0,1.6,0.8,2.4c0,0.8,0,1.6,0.8,2.4c0,0.8,0,1.6,0.8,2.4c0,0.8,0,1.6,0.8,2.4c0,0.8,0,0.8,0,0.8v0.8
		c-2.4-3.2-4.7-5.5-7.9-8.7l0,0c-21.3-22.1-47.3-40.2-68.5-47.3c-10.2-3.2-18.1-4.7-26-4.7c-37.8,0-37.8,41-37.8,54.4
		c0,18.1,3.2,32.3,7.1,43.3c0,0.8,0.8,1.6,0.8,2.4c0,0.8,0.8,1.6,0.8,2.4s0.8,1.6,0.8,2.4c0,0.8,0.8,1.6,0.8,2.4
		c0,0.8,0.8,1.6,0.8,2.4c0,0.8,0.8,1.6,0.8,2.4c0,0.8,0.8,1.6,0.8,2.4c0,0.8,0.8,1.6,0.8,2.4c0,0.8,0.8,1.6,0.8,2.4
		c0,0.8,0.8,1.6,0.8,2.4s0.8,1.6,0.8,2.4s0.8,1.6,0.8,2.4s0.8,1.6,0.8,2.4s0.8,1.6,0.8,2.4c0,0.8,0.8,1.6,0.8,2.4
		c0,0.8,0.8,1.6,0.8,2.4c0,0.8,0.8,1.6,0.8,2.4c0,0.8,0.8,1.6,0.8,2.4c0,0.8,0.8,1.6,0.8,2.4s0.8,1.6,0.8,2.4s0.8,1.6,0.8,2.4
		s0.8,1.6,0.8,2.4s0.8,1.6,0.8,2.4c0,0.8,0.8,1.6,0.8,2.4c0,0.8,0.8,1.6,0.8,2.4c0,0.8,0.8,1.6,0.8,2.4c0,0.8,0.8,1.6,0.8,2.4
		c0,0.8,0.8,1.6,0.8,2.4l0,0c-1.6,9.5,0,18.9,3.9,28.4c0,0.8,0.8,1.6,0.8,2.4s0.8,1.6,0.8,2.4c0,0.8,0.8,1.6,0.8,2.4
		c0,0.8,0.8,1.6,0.8,2.4c0,0.8,0.8,1.6,0.8,2.4c0,0.8,0.8,1.6,0.8,2.4c0,0.8,0.8,1.6,0.8,2.4c0,0.8,0.8,1.6,0.8,2.4s0.8,1.6,0.8,2.4
		s0.8,1.6,0.8,2.4s0.8,1.6,0.8,2.4c0,0.8,0.8,1.6,0.8,2.4c0,0.8,0.8,1.6,0.8,2.4c0,0.8,0.8,1.6,0.8,2.4c0,0.8,0.8,1.6,0.8,2.4
		c0,0.8,0.8,1.6,0.8,2.4c0,0.8,0.8,1.6,0.8,2.4s0.8,1.6,0.8,2.4s0.8,1.6,0.8,2.4s0.8,1.6,0.8,2.4c0,0.8,0.8,1.6,0.8,2.4
		c0,0.8,0.8,1.6,0.8,2.4c0,0.8,0.8,1.6,0.8,2.4c0,0.8,0.8,1.6,0.8,2.4c0,0.8,0.8,1.6,0.8,2.4c0,0.8,0.8,1.6,0.8,2.4
		c0,0.8,0.8,1.6,0.8,2.4c0,0.8,0.8,1.6,0.8,2.4c0,0.8,0.8,1.6,0.8,2.4c0,0.8,0.8,1.6,0.8,2.4c0,0.8,0.8,1.6,0.8,2.4
		c0,0.8,0.8,1.6,0.8,2.4c0,0.8,0.8,1.6,0.8,2.4c0,0.8,0.8,1.6,0.8,2.4c0,0.8,0.8,1.6,0.8,2.4c0,0.8,0.8,1.6,0.8,2.4
		c0,0.8,0.8,1.6,0.8,2.4c0,0.8,0.8,1.6,0.8,2.4c0,0.8,0.8,1.6,0.8,2.4c0,0.8,0.8,1.6,0.8,2.4c0,0.8,0.8,1.6,0.8,2.4
		c0,0.8,0.8,1.6,0.8,2.4c0,0.8,0.8,1.6,0.8,2.4c0,0.8,0.8,1.6,0.8,2.4c0,0.8,0.8,1.6,0.8,2.4c0,0.8,0.8,1.6,0.8,2.4
		c0,0.8,0.8,1.6,0.8,2.4c0,0.8,0.8,1.6,0.8,2.4c0,0.8,0.8,1.6,0.8,2.4c0,0.8,0.8,1.6,0.8,2.4c0,0.8,0.8,1.6,0.8,2.4
		c0,0.8,0.8,1.6,0.8,2.4c0,0.8,0.8,1.6,0.8,2.4c0,0.8,0.8,1.6,0.8,2.4c0,0.8,0.8,1.6,0.8,2.4c0,0.8,0.8,1.6,0.8,2.4
		c0,0.8,0.8,1.6,0.8,2.4c0,0.8,0.8,1.6,0.8,2.4c0,0.8,0.8,1.6,0.8,2.4c0,0.8,0.8,1.6,0.8,2.4c0,0.8,0.8,1.6,0.8,2.4
		c0,0.8,0.8,1.6,0.8,2.4c0,0.8,0.8,1.6,0.8,2.4c0,0.8,0.8,1.6,0.8,2.4c0,0.8,0.8,1.6,0.8,2.4c0,0.8,0.8,1.6,0.8,2.4v0.8
		c20.5,5.5,42.5,8.7,64.6,8.7C364.7,512,456.9,444.3,494.7,348.9z"/>
	<path id="XMLID_5_" class="st2" d="M426.1,200.1c0-13.4,0-54.4-37.8-54.4c-7.1,0-15.8,1.6-26,4.7c-32.3,11-76.4,47.3-96.9,83.5
		v106.3c22.1,34.7,44.9,42.5,61.4,42.5c26.8,0,48-19.7,57.5-38.6c7.1-14.2,7.9-28.4,3.2-41.7c-3.2-8.7-8.7-15.8-16.5-22.8
		C399.4,274.9,426.1,256,426.1,200.1z"/>
	<path id="XMLID_6_" class="st2" d="M85.9,200.1c0-13.4,0-54.4,37.8-54.4c7.1,0,15.8,1.6,26,4.7c32.3,11,76.4,47.3,96.9,83.5v106.3
		c-22.1,34.7-44.9,42.5-61.4,42.5c-26.8,0-48-19.7-57.5-38.6c-7.1-14.2-7.9-28.4-3.2-41.7c3.2-8.7,8.7-15.8,16.5-22.8
		C112.6,274.9,85.9,256,85.9,200.1z"/>
	<path id="XMLID_7_" class="st3" d="M217.4,201.6c0,24.4,8.7,144.9,11,159.9v0.8c5.5-5.5,11.8-12.6,17.3-22.1V233.9
		c-7.1-12.6-16.5-25.2-28.4-36.2C217.4,199.3,217.4,200.1,217.4,201.6z"/>
	<path id="XMLID_8_" class="st3" d="M426.1,200.1c0-13.4,0-54.4-37.8-54.4c-2.4,0-3.9,0-6.3,0c31.5,3.9,31.5,41,31.5,54.4
		c0,55.9-26.8,74.8-54.4,80.3c7.9,7.1,13.4,15,16.5,22.8c4.7,13.4,3.9,26.8-3.2,41.7c-8.7,18.1-27.6,35.4-51.2,38.6
		c2.4,0,3.9,0,6.3,0c26.8,0,48-19.7,57.5-38.6c7.1-14.2,7.9-28.4,3.2-41.7c-3.2-8.7-8.7-15.8-16.5-22.8
		C399.4,274.9,426.1,256,426.1,200.1z"/>
	<path id="XMLID_9_" class="st4" d="M388.3,303.3c-3.2-8.7-8.7-15.8-16.5-22.8c0.8,0,0.8,0,1.6,0c-28.4-18.1-66.2-29.9-107.1-29.9
		v90.6c22.1,34.7,44.9,42.5,61.4,42.5c26.8,0,48-19.7,57.5-38.6C392.3,330,393.1,315.9,388.3,303.3z"/>
	<path id="XMLID_10_" class="st5" d="M371.8,280.4c0.8,0,0.8,0,1.6,0c-0.8-0.8-2.4-1.6-3.2-2.4c-3.2,0.8-6.3,1.6-9.5,2.4
		c7.9,7.1,13.4,15,16.5,22.8c4.7,13.4,3.9,26.8-3.2,41.7c-8.7,18.1-27.6,35.4-51.2,38.6c2.4,0,3.9,0,6.3,0c26.8,0,48-19.7,57.5-38.6
		c7.1-14.2,7.9-28.4,3.2-41.7C385.2,294.6,379.7,286.7,371.8,280.4z"/>
	<path id="XMLID_11_" class="st4" d="M123.7,303.3c3.2-8.7,8.7-15.8,16.5-22.8c-0.8,0-0.8,0-1.6,0c28.4-18.1,66.2-29.9,107.1-29.9
		v90.6c-22.1,34.7-44.9,42.5-61.4,42.5c-26.8,0-48-19.7-57.5-38.6C119.7,330,118.9,315.9,123.7,303.3z"/>
	<path id="XMLID_12_" class="st5" d="M229.2,361.6L229.2,361.6L229.2,361.6c1.6-0.8,3.2-2.4,3.9-3.9l0,0c1.6-1.6,2.4-3.2,3.9-4.7
		l0,0c1.6-1.6,2.4-3.2,3.9-4.7l0.8-0.8c1.6-2.4,3.2-3.9,3.9-6.3v-90.6c-8.7,0-17.3,0.8-26,1.6C222.9,295.4,226.9,352.1,229.2,361.6z
		"/>
	<circle id="XMLID_13_" class="st6" cx="326.1" cy="319.8" r="19.7"/>
	<circle id="XMLID_14_" class="st6" cx="175.7" cy="319.8" r="19.7"/>
	<circle id="XMLID_15_" class="st4" cx="136.3" cy="210.3" r="29.9"/>
	<circle id="XMLID_16_" class="st4" cx="375.7" cy="210.3" r="29.9"/>
	<path id="XMLID_17_" class="st7" d="M256,171.7c-16.5,0-30.7,13.4-30.7,30.7c0,24.4,8.7,144.9,11,159.9c0,10.2,8.7,18.9,18.9,18.9
		c10.2,0,18.9-8.7,18.9-18.9c2.4-15,11-135.5,11-159.9C286.7,185.1,272.5,171.7,256,171.7z"/>
	<path id="XMLID_18_" class="st8" d="M256,171.7c-1.6,0-2.4,0-3.9,0c15,1.6,26,15,26,29.9c0,24.4-8.7,144.9-11,159.9
		c0,9.5-6.3,16.5-15,18.9c1.6,0,2.4,0.8,3.9,0.8c10.2,0,18.9-8.7,18.9-18.9c2.4-15,11-135.5,11-159.9
		C286.7,185.1,272.5,171.7,256,171.7z"/>
	<path id="XMLID_19_" class="st9" d="M236.3,191.4c-2.4,0-3.9-1.6-3.9-3.9c0-19.7-15-41.7-33.1-50.4c-2.4-0.8-3.2-3.2-1.6-5.5
		c0.8-2.4,3.2-3.2,5.5-1.6c21.3,10.2,37.8,35.4,37.8,58.3C240.2,189,237.9,191.4,236.3,191.4z"/>
	<path id="XMLID_20_" class="st9" d="M275.7,191.4c2.4,0,3.9-1.6,3.9-3.9c0-19.7,15-41.7,33.1-50.4c2.4-0.8,3.2-3.2,1.6-5.5
		c-0.8-2.4-3.2-3.2-5.5-1.6c-21.3,10.2-37.8,35.4-37.8,58.3C271.8,189,274.1,191.4,275.7,191.4z"/>
	<path id="XMLID_21_" class="st10" d="M256,336.3c-8.7,0-15.8-0.8-22.1-2.4c0,1.6,0,3.2,0,3.9c6.3,1.6,13.4,2.4,21.3,2.4
		c7.9,0,15-0.8,21.3-2.4c0-1.6,0-3.2,0-3.9C271.8,334.8,264.7,336.3,256,336.3z"/>
	<path id="XMLID_22_" class="st10" d="M276.5,348.2c0-1.6,0-2.4,0-3.9c-5.5,1.6-12.6,2.4-21.3,2.4c-8.7,0-15-0.8-21.3-2.4
		c0,1.6,0,3.2,0,3.9c7.9,1.6,14.2,2.4,22.1,2.4S270.2,349.7,276.5,348.2z"/>
	<path id="XMLID_23_" class="st10" d="M256,259.9c-10.2,0-19.7-0.8-27.6-3.2c0,1.6,0,3.2,0,3.9c7.9,1.6,17.3,3.2,27.6,3.2
		s18.9-0.8,27.6-3.2c0-1.6,0-3.2,0-3.9C275.7,259.2,266.2,259.9,256,259.9z"/>
	<path id="XMLID_24_" class="st10" d="M256,325.3c-8.7,0-16.5-0.8-22.8-2.4c0,1.6,0,3.2,0,3.9c6.3,1.6,14.2,2.4,22.8,2.4
		c8.7,0,15.8-0.8,22.8-2.4c0-1.6,0-3.2,0-3.9C272.5,324.5,264.7,325.3,256,325.3z"/>
	<path id="XMLID_25_" class="st10" d="M256,249.7c-10.2,0-19.7-0.8-28.4-3.2c0,1.6,0,3.2,0,3.9c8.7,1.6,18.1,3.2,28.4,3.2
		s19.7-0.8,28.4-3.2c0-1.6,0-3.2,0-3.9C275.7,248.1,266.2,249.7,256,249.7z"/>
	<path id="XMLID_26_" class="st10" d="M229.2,267.8c0,1.6,0,3.2,0,3.9c7.9,1.6,16.5,3.2,26.8,3.2c9.5,0,18.9-0.8,26.8-3.2
		c0-1.6,0-3.2,0-3.9c-7.9,1.6-17.3,3.2-26.8,3.2C246.5,271,237.1,270.2,229.2,267.8z"/>
	<path id="XMLID_27_" class="st10" d="M256,303.3c-8.7,0-17.3-0.8-24.4-3.2c0,1.6,0,3.2,0,3.9c7.1,1.6,15.8,2.4,24.4,2.4
		c8.7,0,17.3-0.8,24.4-2.4c0-1.6,0-3.2,0-3.9C273.3,302.5,264.7,303.3,256,303.3z"/>
	<path id="XMLID_28_" class="st10" d="M256,314.3c-8.7,0-16.5-0.8-23.6-3.2c0,1.6,0,3.2,0,3.9c7.1,1.6,15,2.4,23.6,2.4
		c8.7,0,16.5-0.8,23.6-2.4c0-1.6,0-3.2,0-3.9C272.5,313.5,264.7,314.3,256,314.3z"/>
	<path id="XMLID_29_" class="st10" d="M275.7,359.2c0-0.8,0-2.4,0.8-3.9c-5.5,1.6-12.6,2.4-19.7,2.4c-7.1,0-14.2-0.8-19.7-2.4
		c0,1.6,0,3.2,0.8,3.9c5.5,1.6,12.6,2.4,19.7,2.4C264.7,361.6,269.4,360.8,275.7,359.2z"/>
	<path id="XMLID_30_" class="st10" d="M256,238.7c-10.2,0-20.5-0.8-29.1-3.2c0,1.6,0,3.2,0,3.9c8.7,1.6,18.1,3.2,28.4,3.2
		c10.2,0,20.5-0.8,28.4-3.2c0-1.6,0-3.2,0-3.9C276.5,237.1,266.2,238.7,256,238.7z"/>
	<path id="XMLID_31_" class="st10" d="M256,293c-9.5,0-18.1-0.8-25.2-3.2c0,1.6,0,3.2,0,3.9c7.1,1.6,15.8,2.4,25.2,2.4
		c9.5,0,17.3-0.8,25.2-2.4c0-1.6,0-3.2,0-3.9C274.1,291.4,265.5,293,256,293z"/>
	<path id="XMLID_32_" class="st10" d="M256,282c-9.5,0-18.1-0.8-26-3.2c0,1.6,0,3.2,0,3.9c7.9,1.6,16.5,3.2,26,3.2
		c9.5,0,18.1-0.8,26-3.2c0-1.6,0-3.2,0-3.9C274.1,280.4,265.5,282,256,282z"/>
</g>
</svg>
