<?xml version="1.0" encoding="utf-8"?>
<!-- Generator: Adobe Illustrator 24.1.1, SVG Export Plug-In . SVG Version: 6.00 Build 0)  -->
<svg version="1.1" id="Layer_1" xmlns="http://www.w3.org/2000/svg" xmlns:xlink="http://www.w3.org/1999/xlink" x="0px" y="0px"
	 viewBox="0 0 512 512" style="enable-background:new 0 0 512 512;" xml:space="preserve">
<style type="text/css">
	.st0{fill:#4AB8A1;}
	.st1{fill:#43A691;}
	.st2{fill:#B39547;}
	.st3{fill:#A68A42;}
	.st4{fill:#D9B456;}
	.st5{fill:#CCA951;}
	.st6{fill:#806A33;}
	.st7{fill:#F5F5F5;}
	.st8{fill:#242424;}
	.st9{fill:#7A6631;}
</style>
<g id="XMLID_1_">
	<circle id="XMLID_3_" class="st0" cx="256" cy="256" r="256"/>
	<path id="XMLID_4_" class="st1" d="M502.5,325.3L502.5,325.3L502.5,325.3c-0.8-1.6-0.8-1.6-0.8-2.4v-0.8c0-0.8-0.8-1.6-0.8-2.4V319
		c0-0.8-0.8-1.6-0.8-2.4v-0.8c0-0.8-0.8-1.6-0.8-2.4v-0.8c0-0.8-0.8-1.6-0.8-2.4v-0.8c0-0.8-0.8-1.6-0.8-2.4v-0.8
		c0-0.8-0.8-1.6-0.8-2.4v-0.8c0-0.8-0.8-1.6-0.8-2.4v-0.8c0-0.8-0.8-1.6-0.8-2.4V297c0-0.8-0.8-1.6-0.8-2.4v-0.8
		c0-0.8-0.8-1.6-0.8-2.4v-0.8c0-0.8-0.8-1.6-0.8-2.4v-0.8c0-0.8-0.8-1.6-0.8-2.4v-0.8c0-0.8-0.8-1.6-0.8-2.4v-0.8
		c0-0.8-0.8-1.6-0.8-2.4v-0.8c0-0.8-0.8-1.6-0.8-2.4v-0.8c0-0.8-0.8-1.6-0.8-2.4v-0.8c0-0.8-0.8-1.6-0.8-2.4v-0.8
		c0-0.8-0.8-1.6-0.8-2.4v-0.8c0-0.8-0.8-1.6-0.8-2.4v-0.8c0-0.8-0.8-1.6-0.8-2.4v-0.8c0-0.8-0.8-1.6-0.8-2.4V256
		c0-0.8-0.8-1.6-0.8-2.4v-0.8c0-0.8-0.8-1.6-0.8-2.4v-0.8c0-0.8-0.8-1.6-0.8-2.4v-0.8c0-0.8-0.8-1.6-0.8-2.4v-0.8
		c0-0.8-0.8-1.6-0.8-2.4v-0.8c0-0.8-0.8-1.6-0.8-2.4v-0.8c0-0.8-0.8-1.6-0.8-2.4v-0.8c0-0.8-0.8-1.6-0.8-2.4v-0.8
		c0-0.8-0.8-1.6-0.8-2.4v-0.8c0-0.8-0.8-1.6-0.8-2.4v-0.8c0-0.8-0.8-1.6-0.8-2.4v-0.8c0-0.8-0.8-1.6-0.8-2.4v-0.8
		c0-0.8-0.8-1.6-0.8-2.4V215c0-0.8-0.8-1.6-0.8-2.4v-0.8c0-0.8-0.8-1.6-0.8-2.4v-0.8c0-0.8-0.8-1.6-0.8-2.4v-0.8
		c0-0.8-0.8-1.6-0.8-2.4v-0.8c0-0.8-0.8-1.6-0.8-2.4v-0.8c0-0.8-0.8-1.6-0.8-2.4v-0.8c0-0.8-0.8-1.6-0.8-2.4V193
		c0-0.8-0.8-1.6-0.8-2.4v-0.8c0-0.8-0.8-1.6-0.8-2.4v-0.8c0-0.8-0.8-1.6-0.8-2.4v-0.8c0-0.8-0.8-1.6-0.8-2.4v-0.8
		c0-0.8-0.8-1.6-0.8-2.4v-0.8c0-0.8-0.8-1.6-0.8-2.4v-0.8c0-0.8-0.8-1.6-0.8-2.4v-0.8c0-0.8-0.8-1.6-0.8-2.4v-0.8
		c0-0.8-0.8-1.6-0.8-2.4v-0.8c0-0.8-0.8-1.6-0.8-2.4v-0.8c0-0.8-0.8-1.6-0.8-2.4v-0.8c0-0.8-0.8-1.6-0.8-2.4v-0.8
		c0-0.8-0.8-1.6-0.8-2.4V152c0-0.8-0.8-1.6-0.8-2.4v-0.8c0-0.8-0.8-1.6-0.8-2.4v-0.8c0-0.8-0.8-1.6-0.8-2.4v-0.8
		c0-0.8-0.8-1.6-0.8-2.4v-0.8c0-0.8-0.8-1.6-0.8-2.4v-0.8c0-0.8-0.8-1.6-0.8-2.4v-0.8c0-0.8-0.8-1.6-0.8-2.4V130
		c0-0.8-0.8-1.6-0.8-2.4v-0.8c0-0.8-0.8-1.6-0.8-2.4v-0.8c0-0.8-0.8-1.6-0.8-2.4v-0.8c0-0.8-0.8-1.6-0.8-2.4v-0.8
		c0-0.8-0.8-1.6-0.8-2.4v-0.8c0-0.8-0.8-1.6-0.8-2.4v-0.8c0-0.8-0.8-1.6-0.8-2.4v-0.8c0-0.8-0.8-1.6-0.8-2.4v-0.8
		c0-0.8-0.8-1.6-0.8-2.4v-0.8c0-0.8-0.8-1.6-0.8-2.4v-0.8c0-0.8-0.8-1.6-0.8-2.4v-0.8c0-0.8-0.8-1.6-0.8-2.4v-0.8
		c0-0.8-0.8-1.6-0.8-2.4V89c0-0.8-0.8-1.6-0.8-2.4v-0.8c0-0.8-0.8-1.6-0.8-1.6v-0.8c0-0.8-0.8-1.6-0.8-2.4v-0.8
		c0-0.8-0.8-1.6-0.8-2.4v-0.8c0-0.8-0.8-1.6-0.8-2.4V74c0-0.8-0.8-1.6-0.8-2.4v-0.8c0-0.8-0.8-1.6-0.8-2.4v-0.8
		c0-0.8-0.8-1.6-0.8-2.4v-0.8c0-0.8-0.8-1.6-0.8-2.4v-0.8c0-0.8-0.8-1.6-0.8-2.4v-0.8c0-0.8-0.8-1.6-0.8-2.4v-0.8
		c0-0.8-0.8-1.6-0.8-2.4V52c0-0.8-0.8-1.6-0.8-2.4c-3.9-8.7-11-13.4-20.5-13.4c-21.3,0-42.5,7.1-55.9,18.9c-2.4-0.8-4.7-2.4-7.1-3.2
		c-0.8,0-1.6-0.8-2.4-0.8c-1.6-0.8-3.2-1.6-5.5-2.4c-0.8,0-1.6-0.8-3.2-0.8c-2.4-0.8-5.5-1.6-7.9-2.4l0,0c-0.8,0-2.4-0.8-3.9-0.8
		c-1.6,0-2.4-0.8-3.2-0.8l0,0c-2.4-0.8-4.7-0.8-6.3-1.6c-0.8,0-1.6,0-1.6-0.8l0,0c-2.4-0.8-4.7-0.8-7.1-1.6l0,0
		c-0.8,0-1.6,0-3.2-0.8l0,0c-3.9-0.8-7.9-1.6-11.8-1.6l0,0l0,0c-2.4,0-4.7-0.8-7.9-0.8l0,0c-3.9,0-7.9-0.8-11.8-0.8
		c-36.2,0-63,9.5-82.7,18.9c-3.9-3.2-7.9-6.3-12.6-8.7c0,0-0.8-0.8-1.6-0.8l0,0c-3.9-1.6-7.1-3.2-11-4.7l0,0
		c-2.4-0.8-4.7-1.6-7.1-2.4l0,0c-0.8,0-2.4-0.8-3.2-0.8c-1.6,0-3.2-0.8-4.7-0.8l0,0c-5.5-0.8-10.2-1.6-15.8-1.6
		c-9.5,0-16.5,4.7-20.5,13.4s-3.2,21.3,1.6,32.3c0,0.8,0.8,1.6,0.8,2.4c0,0.8,0.8,1.6,0.8,2.4c0,0.8,0.8,1.6,0.8,2.4
		c0,0.8,0.8,1.6,0.8,2.4c0,0.8,0.8,1.6,0.8,2.4c0,0.8,0.8,1.6,0.8,2.4c0,0.8,0.8,1.6,0.8,2.4c0,0.8,0.8,1.6,0.8,2.4
		c0,0.8,0.8,1.6,0.8,2.4c0,0.8,0.8,1.6,0.8,2.4c0,0.8,0.8,1.6,0.8,2.4c0,0.8,0.8,1.6,0.8,2.4c0,0.8,0.8,1.6,0.8,2.4
		c0,0.8,0.8,1.6,0.8,2.4c0,0.8,0.8,1.6,0.8,2.4c0,0.8,0.8,1.6,0.8,2.4c0,0.8,0.8,1.6,0.8,2.4c0,0.8,0.8,1.6,0.8,2.4
		c0,0.8,0.8,1.6,0.8,2.4c0,0.8,0.8,1.6,0.8,2.4s0.8,1.6,0.8,2.4c0,0.8,0.8,1.6,0.8,2.4c0,0.8,0.8,1.6,0.8,2.4c0,0.8,0.8,1.6,0.8,2.4
		c0,0.8,0.8,1.6,0.8,2.4c0,0.8,0.8,1.6,0.8,2.4s0.8,1.6,0.8,2.4c0,0.8,0.8,1.6,0.8,2.4c0,0.8,0.8,1.6,0.8,2.4c0,0.8,0.8,1.6,0.8,2.4
		c0,0.8,0.8,1.6,0.8,2.4s0.8,1.6,0.8,2.4c0,0.8,0.8,1.6,0.8,2.4c0,0.8,0,0.8,0.8,1.6c-1.6,37.8,4.7,74,16.5,104.8
		c0,0.8,0.8,1.6,0.8,2.4s0.8,1.6,0.8,2.4s0.8,1.6,0.8,2.4c0,0.8,0.8,1.6,0.8,2.4c0,0.8,0.8,1.6,0.8,2.4c0,0.8,0.8,1.6,0.8,2.4
		c0,0.8,0.8,1.6,0.8,2.4c0,0.8,0.8,1.6,0.8,2.4s0.8,1.6,0.8,2.4s0.8,1.6,0.8,2.4s0.8,1.6,0.8,2.4s0.8,1.6,0.8,2.4
		c0,0.8,0.8,1.6,0.8,2.4c0,0.8,0.8,1.6,0.8,2.4c0,0.8,0.8,1.6,0.8,2.4c0,0.8,0.8,1.6,0.8,2.4c0,0.8,0.8,1.6,0.8,2.4
		c0,0.8,0.8,1.6,0.8,2.4s0.8,1.6,0.8,2.4s0.8,1.6,0.8,2.4s0.8,1.6,0.8,2.4s0.8,1.6,0.8,2.4c0,0.8,0.8,1.6,0.8,2.4
		c0,0.8,0.8,1.6,0.8,2.4c0,0.8,0.8,1.6,0.8,2.4c0,0.8,0.8,1.6,0.8,2.4c0,0.8,0.8,1.6,0.8,2.4s0.8,1.6,0.8,2.4s0.8,1.6,0.8,2.4
		s0.8,1.6,0.8,2.4s0.8,1.6,0.8,2.4c0,0.8,0.8,1.6,0.8,2.4c0,0.8,0.8,1.6,0.8,2.4c0,0.8,0.8,1.6,0.8,2.4c0,0.8,0.8,1.6,0.8,2.4
		c0,0.8,0.8,1.6,0.8,2.4s0.8,1.6,0.8,2.4s0.8,1.6,0.8,2.4s0.8,1.6,0.8,2.4s0.8,1.6,0.8,2.4c0,0.8,0.8,1.6,0.8,2.4
		c0,0.8,0.8,1.6,0.8,2.4c0,0.8,0.8,1.6,0.8,2.4c0,0.8,0.8,1.6,0.8,2.4c0,0.8,0.8,1.6,0.8,2.4c0,0.8,0.8,1.6,0.8,2.4s0.8,1.6,0.8,2.4
		s0.8,1.6,0.8,2.4s0.8,1.6,0.8,2.4c0,0.8,0.8,1.6,0.8,2.4c0,0.8,0.8,1.6,0.8,2.4c0,0.8,0.8,1.6,0.8,2.4c0,0.8,0.8,1.6,0.8,2.4
		c0,0.8,0.8,1.6,0.8,2.4c0,0.8,0.8,1.6,0.8,2.4c0,0.8,0.8,1.6,0.8,2.4c0,0.8,0.8,1.6,0.8,2.4c0,0.8,0.8,1.6,0.8,2.4
		c0,0.8,0.8,1.6,0.8,2.4c0,0.8,0.8,1.6,0.8,2.4c0,0.8,0.8,1.6,0.8,2.4c0,0.8,0.8,1.6,0.8,2.4c0,0.8,0.8,1.6,0.8,2.4
		c0,0.8,0.8,1.6,0.8,2.4c0,0.8,0.8,1.6,0.8,2.4c0,0.8,0.8,1.6,0.8,2.4c0,0.8,0.8,1.6,0.8,2.4c0,0.8,0.8,1.6,0.8,2.4
		c0,0.8,0.8,1.6,0.8,2.4c0,0.8,0.8,1.6,0.8,2.4c0,0.8,0.8,1.6,0.8,2.4c0,0.8,0.8,1.6,0.8,2.4c0,0.8,0.8,1.6,0.8,2.4
		c0,0.8,0.8,1.6,0.8,2.4c11,1.6,22.8,2.4,33.9,2.4C373.4,512,471.8,433.2,502.5,325.3z"/>
	<path id="XMLID_5_" class="st2" d="M256,415.9c-31.5,0-59.1-15-81.1-42.5c-37-45.7-51.2-122.1-37.8-196.1
		c-9.5-3.9-18.9-11-29.1-22.1c-11.8-13.4-16.5-33.9-11-46.5c3.9-8.7,11-13.4,20.5-13.4c21.3,0,42.5,7.1,55.9,18.9
		c20.5-9.5,47.3-18.9,82.7-18.9c36.2,0,63,9.5,82.7,18.9c13.4-11.8,34.7-18.9,55.9-18.9c9.5,0,16.5,4.7,20.5,13.4
		c5.5,13.4,0.8,33.9-11,46.5c-10.2,11-19.7,18.1-29.1,22.1c13.4,74-0.8,149.7-37.8,196.1C315.1,401.7,287.5,415.9,256,415.9z"/>
	<path id="XMLID_6_" class="st3" d="M334,118.9c1.6-1.6,3.2-3.2,4.7-3.9c-7.1-3.2-15.8-7.1-25.2-10.2h-0.8c-2.4-0.8-4.7-1.6-6.3-1.6
		c-1.6-0.8-3.2-0.8-4.7-1.6c-1.6,0-2.4-0.8-3.9-0.8c-2.4-0.8-4.7-0.8-7.1-1.6c-0.8,0-1.6,0-3.2-0.8c-3.2-0.8-5.5-0.8-8.7-1.6
		c-1.6,0-2.4,0-3.9-0.8c-2.4,0-4.7-0.8-7.9-0.8c-3.9,0-7.9-0.8-11.8-0.8c-2.4,0-3.9,0-6.3,0C282.8,97.7,316.7,109.5,334,118.9z"/>
	<path id="XMLID_7_" class="st3" d="M415.1,109.5c-3.9-8.7-11-13.4-20.5-13.4c-2.4,0-5.5,0-7.9,0c7.1,1.6,13.4,5.5,16.5,12.6
		c5.5,13.4,0.8,33.9-11,46.5c-10.2,11-19.7,18.1-29.1,22.1c13.4,74-0.8,149.7-37.8,196.1c-20.5,26-46.5,40.2-75.6,41.7
		c2.4,0,3.9,0,6.3,0c31.5,0,59.1-15,81.1-42.5c37-45.7,51.2-122.1,37.8-196.1c9.5-3.9,18.9-11,29.1-22.1
		C415.9,142.6,420.6,122.1,415.1,109.5z"/>
	<path id="XMLID_8_" class="st3" d="M167,119.7c1.6-1.6,3.9-3.9,6.3-4.7c-3.9-3.2-7.9-6.3-12.6-8.7c0,0-0.8-0.8-1.6-0.8
		c-1.6-0.8-3.2-1.6-4.7-2.4c-1.6-0.8-3.2-1.6-4.7-1.6c-0.8,0-0.8,0-1.6-0.8c-2.4-0.8-4.7-1.6-7.1-2.4l0,0c-2.4-0.8-4.7-0.8-7.9-1.6
		l0,0c-2.4-0.8-4.7-0.8-7.1-0.8h-0.8c-2.4,0-5.5,0-7.9,0c-1.6,0-2.4,0-3.9,0C131.5,97.7,155.2,109.5,167,119.7z"/>
	<path id="XMLID_9_" class="st4" d="M256,295.4c-45.7,0-83.5,21.3-93.7,60.7c3.9,6.3,7.9,11.8,11.8,17.3
		c22.1,27.6,50.4,42.5,81.1,42.5c31.5,0,59.1-15,81.1-42.5c3.9-5.5,8.7-11,11.8-17.3C339.5,316.7,301.7,295.4,256,295.4z"/>
	<path id="XMLID_10_" class="st5" d="M349.7,356.8c-0.8-4.7-3.2-9.5-4.7-13.4c-5.5,11-11.8,21.3-18.9,30.7
		c-20.5,26-46.5,40.2-75.6,41.7l0,0c2.4,0,3.9,0,6.3,0c31.5,0,59.1-15,81.1-42.5c2.4-2.4,3.9-5.5,6.3-8.7
		C345.8,362.3,347.4,359.2,349.7,356.8z"/>
	<path id="XMLID_11_" class="st6" d="M181.2,180.4h-11c-5.5,0-11-3.9-11-10.2s4.7-10.2,11-10.2h11c5.5,0,11,3.9,11,10.2
		S187.5,180.4,181.2,180.4z"/>
	<path id="XMLID_12_" class="st6" d="M219.8,159.9h-11c-5.5,0-11-3.9-11-10.2c0-6.3,4.7-10.2,11-10.2h11c5.5,0,11,3.9,11,10.2
		C230.8,156,226.1,159.9,219.8,159.9z"/>
	<path id="XMLID_13_" class="st6" d="M267,180.4h-21.3c-5.5,0-11-3.9-11-10.2s4.7-10.2,11-10.2H267c5.5,0,11,3.9,11,10.2
		S272.5,180.4,267,180.4z"/>
	<path id="XMLID_14_" class="st6" d="M330.8,180.4h11c5.5,0,11-3.9,11-10.2s-4.7-10.2-11-10.2h-11c-5.5,0-11,3.9-11,10.2
		S324.5,180.4,330.8,180.4z"/>
	<path id="XMLID_15_" class="st6" d="M292.2,159.9h11c5.5,0,11-3.9,11-10.2c0-6.3-4.7-10.2-11-10.2h-11c-5.5,0-11,3.9-11,10.2
		C281.2,156,285.9,159.9,292.2,159.9z"/>
	<circle id="XMLID_16_" class="st7" cx="201.6" cy="244.2" r="15.8"/>
	<circle id="XMLID_17_" class="st8" cx="201.6" cy="244.2" r="7.9"/>
	<circle id="XMLID_18_" class="st7" cx="310.4" cy="244.2" r="15.8"/>
	<circle id="XMLID_19_" class="st8" cx="310.4" cy="244.2" r="7.9"/>
	<path id="XMLID_20_" class="st9" d="M161.5,126c-10.2-8.7-27.6-14.2-44.1-14.2c-3.2,0-4.7,0.8-5.5,3.9c-3.2,6.3,0,20.5,7.9,29.9
		c7.9,8.7,15,14.2,22.1,17.3C146.5,149.7,153.6,136.3,161.5,126z"/>
	<path id="XMLID_21_" class="st9" d="M348.9,126c10.2-8.7,27.6-14.2,44.1-14.2c3.2,0,4.7,0.8,5.5,3.9c3.2,6.3,0,20.5-7.9,29.9
		c-7.9,8.7-15,14.2-22.1,17.3C363.9,149.7,356.8,136.3,348.9,126z"/>
	<path id="XMLID_22_" class="st8" d="M256,348.9c-2.4,0-3.9-1.6-3.9-3.9v-18.9c0-2.4,1.6-3.9,3.9-3.9s3.9,1.6,3.9,3.9V345
		C259.9,347.4,258.4,348.9,256,348.9z"/>
	<path id="XMLID_23_" class="st8" d="M297,364.7c-1.6,0-2.4-0.8-3.2-1.6c-6.3-8.7-21.3-14.2-37.8-14.2s-31.5,5.5-37.8,14.2
		c-1.6,1.6-3.9,2.4-5.5,0.8c-1.6-1.6-2.4-3.9-0.8-5.5c7.9-11,25.2-17.3,44.1-17.3c18.9,0,36.2,7.1,44.1,17.3
		c1.6,1.6,0.8,3.9-0.8,5.5C298.5,364.7,297.7,364.7,297,364.7z"/>
	<path id="XMLID_24_" class="st8" d="M294.6,287.5c-3.9-3.9-9.5-4.7-14.2-4.7H256h-24.4c-4.7,0-10.2,0.8-14.2,4.7
		c-2.4,2.4-2.4,6.3,0,8.7c12.6,15,20.5,22.8,20.5,22.8c3.2,3.2,8.7,7.9,11.8,11l0,0c1.6,1.6,3.9,2.4,6.3,2.4s4.7-0.8,6.3-2.4l0,0
		c3.2-3.2,8.7-7.9,11.8-11c0,0,7.9-7.9,20.5-22.8C297,294.6,297,290.7,294.6,287.5z"/>
</g>
</svg>
