<?xml version="1.0" encoding="utf-8"?>
<!-- Generator: Adobe Illustrator 24.1.1, SVG Export Plug-In . SVG Version: 6.00 Build 0)  -->
<svg version="1.1" id="Layer_1" xmlns="http://www.w3.org/2000/svg" xmlns:xlink="http://www.w3.org/1999/xlink" x="0px" y="0px"
	 viewBox="0 0 512 512" style="enable-background:new 0 0 512 512;" xml:space="preserve">
<style type="text/css">
	.st0{fill:#C2D5D8;}
	.st1{fill:#B7C9CC;}
	.st2{fill:#FFD464;}
	.st3{fill:#FFE399;}
	.st4{fill:#F2C95F;}
	.st5{fill:#FFD599;}
	.st6{fill:#F2CA91;}
	.st7{fill:#C23527;}
	.st8{fill:#B33124;}
	.st9{fill:#CC803D;}
	.st10{fill:#BF7839;}
	.st11{fill:#F5F5F5;}
	.st12{fill:#242424;}
</style>
<g id="XMLID_1_">
	<circle id="XMLID_3_" class="st0" cx="256" cy="256" r="256"/>
	<path id="XMLID_4_" class="st1" d="M476.6,386.8c0-0.8-0.8-0.8-0.8-1.6s-0.8-1.6-0.8-2.4c0-0.8-0.8-1.6-0.8-2.4s-0.8-1.6-0.8-2.4
		c0-0.8-0.8-1.6-0.8-2.4c0-0.8-0.8-1.6-0.8-2.4c0-0.8-0.8-1.6-0.8-2.4c0-0.8-0.8-1.6-0.8-2.4c0-0.8-0.8-1.6-0.8-2.4
		s-0.8-1.6-0.8-2.4s-0.8-1.6-0.8-2.4s-0.8-1.6-0.8-2.4s-0.8-1.6-0.8-2.4c0-0.8-0.8-1.6-0.8-2.4c0-0.8-0.8-1.6-0.8-2.4
		c0-0.8-0.8-1.6-0.8-2.4c0-0.8-0.8-1.6-0.8-2.4c0-0.8-0.8-1.6-0.8-2.4c0-0.8-0.8-1.6-0.8-2.4s-0.8-1.6-0.8-2.4s-0.8-1.6-0.8-2.4
		s-0.8-1.6-0.8-2.4s-0.8-1.6-0.8-2.4c0-0.8-0.8-1.6-0.8-2.4c0-0.8-0.8-1.6-0.8-2.4c0-0.8-0.8-1.6-0.8-2.4c0-0.8-0.8-1.6-0.8-2.4
		c0-0.8-0.8-1.6-0.8-2.4s-0.8-1.6-0.8-2.4s-0.8-1.6-0.8-2.4s-0.8-1.6-0.8-2.4s-0.8-1.6-0.8-2.4c0-0.8-0.8-1.6-0.8-2.4
		c0-0.8-0.8-1.6-0.8-2.4c0-0.8-0.8-1.6-0.8-2.4c0-0.8-0.8-1.6-0.8-2.4c0-0.8-0.8-1.6-0.8-2.4s-0.8-1.6-0.8-2.4s-0.8-1.6-0.8-2.4
		s-0.8-1.6-0.8-2.4s-0.8-1.6-0.8-2.4c0-0.8-0.8-1.6-0.8-2.4c0-0.8-0.8-1.6-0.8-2.4c0-0.8-0.8-1.6-0.8-2.4c0-0.8-0.8-1.6-0.8-2.4
		c0-0.8-0.8-1.6-0.8-2.4c0-0.8-0.8-1.6-0.8-2.4s-0.8-1.6-0.8-2.4s-0.8-1.6-0.8-2.4s-0.8-1.6-0.8-2.4c0-0.8-0.8-1.6-0.8-2.4
		c0-0.8-0.8-1.6-0.8-2.4c0-0.8-0.8-1.6-0.8-2.4c0-0.8-0.8-1.6-0.8-2.4c0-0.8-0.8-1.6-0.8-2.4c0-0.8-0.8-1.6-0.8-2.4
		c0-0.8-0.8-1.6-0.8-2.4s-0.8-1.6-0.8-2.4c0-0.8-0.8-1.6-0.8-2.4c0-0.8-0.8-1.6-0.8-2.4c0-0.8-0.8-1.6-0.8-2.4
		c0-0.8-0.8-1.6-0.8-2.4s-0.8-1.6-0.8-2.4c0-0.8-0.8-1.6-0.8-2.4c0-0.8-0.8-1.6-0.8-2.4c0-0.8-0.8-1.6-0.8-2.4
		c-1.6-5.5-6.3-11.8-16.5-18.1c-5.5-3.2-11.8-4.7-18.1-4.7c-0.8,0-2.4,0-3.2,0c-20.5,1.6-41,17.3-64.6,34.7
		c-2.4,2.4-5.5,3.9-8.7,6.3c-1.6-0.8-3.2-1.6-4.7-2.4c-0.8,0-0.8,0-1.6-0.8c-1.6-0.8-2.4-0.8-3.9-1.6c-0.8,0-1.6,0-2.4-0.8
		c-1.6,0-2.4-0.8-3.9-0.8c-0.8,0-2.4,0-3.2-0.8c-0.8,0-1.6,0-2.4,0c-1.6,0-3.9-0.8-5.5-0.8l0,0c-6.3-0.8-13.4-0.8-18.9-0.8l0,0
		c-7.1-6.3-13.4-14.2-19.7-22.8l0,0c0-0.8-0.8-1.6-0.8-2.4s-0.8-1.6-0.8-2.4c0-0.8-0.8-1.6-0.8-2.4c0-0.8-0.8-1.6-0.8-2.4
		c0-0.8-0.8-1.6-0.8-2.4c0-0.8-0.8-1.6-0.8-2.4c0-0.8-0.8-1.6-0.8-2.4c0-0.8-0.8-1.6-0.8-2.4c0-0.8-0.8-1.6-0.8-2.4
		c0-0.8-0.8-1.6-0.8-2.4s-0.8-1.6-0.8-2.4c0-0.8-0.8-1.6-0.8-2.4c0-0.8-0.8-1.6-0.8-2.4c0-0.8-0.8-1.6-0.8-2.4
		c0-0.8-0.8-1.6-0.8-2.4s-0.8-1.6-0.8-2.4c0-0.8-0.8-1.6-0.8-2.4c0-0.8-0.8-1.6-0.8-2.4c0-0.8-0.8-1.6-0.8-2.4
		c0-0.8-0.8-1.6-0.8-2.4c0-0.8-0.8-1.6-0.8-2.4c0-0.8-0.8-1.6-0.8-2.4c0-0.8-0.8-1.6-0.8-2.4c0-0.8-0.8-1.6-0.8-2.4
		s-0.8-1.6-0.8-2.4c0-0.8-0.8-1.6-0.8-2.4c0-0.8-0.8-1.6-0.8-2.4c0-0.8-0.8-1.6-0.8-2.4c0-0.8-0.8-1.6-0.8-2.4s-0.8-1.6-0.8-2.4
		c0-0.8-0.8-1.6-0.8-2.4c0-0.8-0.8-1.6-0.8-2.4c0-0.8-0.8-1.6-0.8-2.4s-0.8-1.6-0.8-2.4c0-0.8-0.8-1.6-0.8-2.4
		c0-0.8-0.8-1.6-0.8-2.4c0-0.8-0.8-1.6-0.8-2.4c-1.6-4.7-3.9-8.7-6.3-11.8c0-0.8,0-0.8-0.8-0.8c0-0.8-0.8-1.6-0.8-2.4
		c0-0.8-0.8-1.6-0.8-2.4c0-0.8-0.8-1.6-0.8-2.4c0-0.8-0.8-1.6-0.8-2.4c0-0.8-0.8-1.6-0.8-2.4c0-0.8-0.8-1.6-0.8-2.4
		c0-0.8-0.8-1.6-0.8-2.4c-0.8-3.2-2.4-4.7-4.7-5.5c-0.8,0-1.6,0-2.4,0h-0.8c-0.8,0-0.8,0-1.6,0h-0.8c-0.8,0-0.8,0-1.6,0.8
		c-3.9,1.6-6.3,3.9-9.5,3.2c-0.8,0-1.6-0.8-2.4-1.6c-1.6-0.8-2.4-2.4-3.9-3.9l0,0c-0.8,0-0.8-0.8-1.6-0.8h-0.8c-0.8,0-0.8,0-1.6-0.8
		h-0.8c-0.8,0-1.6,0-2.4,0s-1.6,0-2.4,0c-6.3,1.6-6.3,7.1-10.2,8.7c-2.4,0.8-4.7-0.8-7.9-1.6l0,0c-1.6,0-3.2,0-5.5,0.8l0,0l0,0
		c-0.8,0.8-2.4,1.6-3.9,3.2c-3.2,3.2-3.2,6.3-0.8,9.5c0,0.8,0.8,1.6,0.8,2.4c0,0.8,0.8,1.6,0.8,2.4c0,0.8,0.8,1.6,0.8,2.4
		c0,0.8,0.8,1.6,0.8,2.4c0,0.8,0.8,1.6,0.8,2.4c0,0.8,0,0.8,0.8,1.6c-2.4,4.7-3.9,10.2-3.9,16.5l-18.9,37.8c-1.6,3.2-1.6,6.3,0,9.5
		c0,0.8,0.8,1.6,0.8,2.4s0.8,1.6,0.8,2.4c0,0.8,0.8,1.6,0.8,2.4c0,0.8,0.8,1.6,0.8,2.4c0,0.8,0.8,1.6,0.8,2.4s0.8,1.6,0.8,2.4
		c0,0.8,0.8,1.6,0.8,2.4c0,0.8,0.8,1.6,0.8,2.4c0,0.8,0.8,1.6,0.8,2.4c0,0.8,0.8,1.6,0.8,2.4s0.8,1.6,0.8,2.4c0,0.8,0.8,1.6,0.8,2.4
		c0,0.8,0.8,1.6,0.8,2.4c0,0.8,0.8,1.6,0.8,2.4c0,0.8,0.8,1.6,0.8,2.4c0,0.8,0.8,1.6,0.8,2.4c0,0.8,0.8,1.6,0.8,2.4
		c0,0.8,0.8,1.6,0.8,2.4c0,0.8,0.8,1.6,0.8,2.4s0.8,1.6,0.8,2.4c0,0.8,0.8,1.6,0.8,2.4c0,0.8,0.8,1.6,0.8,2.4c0,0.8,0.8,1.6,0.8,2.4
		c0,0.8,0.8,1.6,0.8,2.4s0.8,1.6,0.8,2.4c0,0.8,0.8,1.6,0.8,2.4c0,0.8,0.8,1.6,0.8,2.4c0,0.8,0.8,1.6,0.8,2.4c0,0.8,0.8,1.6,0.8,2.4
		c0,0.8,0.8,1.6,0.8,2.4c0,0.8,0.8,1.6,0.8,2.4c0,0.8,0.8,1.6,0.8,2.4s0.8,1.6,0.8,2.4s0.8,1.6,0.8,2.4s0.8,1.6,0.8,2.4
		s0.8,1.6,0.8,2.4c0,0.8,0.8,1.6,0.8,2.4c0,0.8,0.8,1.6,0.8,2.4c0,0.8,0.8,1.6,0.8,2.4c0,0.8,0.8,1.6,0.8,2.4c0,0.8,0.8,1.6,0.8,2.4
		s0.8,1.6,0.8,2.4s0.8,1.6,0.8,2.4s0.8,1.6,0.8,2.4s0.8,1.6,0.8,2.4c0,0.8,0.8,1.6,0.8,2.4c0,0.8,0.8,1.6,0.8,2.4
		c0,0.8,0.8,1.6,0.8,2.4c0,0.8,0.8,1.6,0.8,2.4c0,0.8,0.8,1.6,0.8,2.4s0.8,1.6,0.8,2.4s0.8,1.6,0.8,2.4s0.8,1.6,0.8,2.4
		s0.8,1.6,0.8,2.4c0,0.8,0.8,1.6,0.8,2.4c0,0.8,0.8,1.6,0.8,2.4c0,0.8,0.8,1.6,0.8,2.4c0,0.8,0.8,1.6,0.8,2.4c0,0.8,0.8,1.6,0.8,2.4
		c0,0.8,0.8,1.6,0.8,2.4s0.8,1.6,0.8,2.4s0.8,1.6,0.8,2.4s0.8,1.6,0.8,2.4c0,0.8,0.8,1.6,0.8,2.4c0,0.8,0.8,1.6,0.8,2.4
		c0,0.8,0.8,1.6,0.8,2.4c0,0.8,0.8,1.6,0.8,2.4c0,0.8,0.8,1.6,0.8,2.4c0,0.8,0.8,1.6,0.8,2.4s0.8,1.6,0.8,2.4s0.8,1.6,0.8,2.4
		s0.8,1.6,0.8,2.4s0.8,1.6,0.8,2.4c0,0.8,0.8,1.6,0.8,2.4c0,0.8,0.8,1.6,0.8,2.4c0,0.8,0.8,1.6,0.8,2.4c0,0.8,0.8,1.6,0.8,2.4
		c0,0.8,0.8,1.6,0.8,2.4s0.8,1.6,0.8,2.4s0.8,1.6,0.8,2.4s0.8,1.6,0.8,2.4s0.8,1.6,0.8,2.4c0,0.8,0.8,1.6,0.8,2.4
		c0,0.8,0.8,1.6,0.8,2.4c0,0.8,0.8,1.6,0.8,2.4c0,0.8,0.8,1.6,0.8,2.4c0,0.8,0.8,1.6,0.8,2.4c0,0.8,0.8,1.6,0.8,2.4
		c0,0.8,0.8,1.6,0.8,2.4c0,0.8,0.8,1.6,0.8,2.4c0,0.8,0.8,1.6,0.8,2.4c0,0.8,0.8,1.6,0.8,2.4c0,0.8,0.8,1.6,0.8,2.4
		c0,0.8,0.8,1.6,0.8,2.4c0,0.8,0.8,1.6,0.8,2.4c0,0.8,0.8,1.6,0.8,2.4c0,0.8,0.8,1.6,0.8,2.4c0,0.8,0.8,1.6,0.8,2.4
		c0,0.8,0.8,1.6,0.8,2.4c0,0.8,0.8,1.6,0.8,2.4c0,0.8,0.8,1.6,0.8,2.4c0,0.8,0.8,1.6,0.8,2.4c0,0.8,0.8,1.6,0.8,2.4
		c0,0.8,0.8,1.6,0.8,2.4c0,0.8,0.8,1.6,0.8,2.4c0,0.8,0.8,1.6,0.8,2.4c0,0.8,0.8,1.6,0.8,2.4c0,0.8,0.8,1.6,0.8,2.4
		c0,0.8,0.8,1.6,0.8,2.4c0,0.8,0.8,1.6,0.8,2.4c0,0.8,0.8,1.6,0.8,2.4c0,0.8,0.8,1.6,0.8,2.4c0,0.8,0.8,1.6,0.8,2.4
		c0,0.8,0.8,1.6,0.8,2.4c0,0.8,0.8,1.6,0.8,2.4c0,0.8,0.8,1.6,0.8,2.4c0,0.8,0.8,1.6,0.8,2.4c0,0.8,0.8,1.6,0.8,2.4
		c0,0.8,0.8,1.6,0.8,2.4c0,0.8,0.8,1.6,0.8,2.4c0,0.8,0.8,1.6,0.8,2.4c0,0.8,0.8,1.6,0.8,2.4c0,0.8,0.8,1.6,0.8,2.4
		c0,0.8,0.8,1.6,0.8,2.4c0,0.8,0.8,1.6,0.8,2.4c0,0.8,0.8,1.6,0.8,2.4c0,0.8,0.8,1.6,0.8,2.4c0,0.8,0.8,1.6,0.8,2.4
		c0,0.8,0.8,1.6,0.8,2.4c0,0.8,0.8,1.6,0.8,2.4c0,0.8,0.8,1.6,0.8,2.4c0,0.8,0.8,1.6,0.8,2.4c0,0.8,0.8,1.6,0.8,2.4
		c0,0.8,0.8,1.6,0.8,2.4l0.8,0.8c7.1,0.8,14.2,0.8,21.3,0.8C349.7,512,431.7,461.6,476.6,386.8z"/>
	<path id="XMLID_5_" class="st2" d="M109.5,185.9c-3.2,0-5.5-1.6-7.9-3.9c-2.4-3.2-3.2-7.1-0.8-11l19.7-40.2
		c2.4-4.7,8.7-7.1,13.4-4.7c4.7,2.4,7.1,8.7,4.7,13.4l8.7,15.8c5.5-1.6,11,1.6,11.8,7.1c1.6,5.5-1.6,11-7.1,11.8l-40.2,10.2
		C111.1,185.9,110.3,185.9,109.5,185.9z"/>
	<path id="XMLID_6_" class="st3" d="M110.3,174.1c-0.8,0-1.6,0-1.6-0.8c-2.4-0.8-3.2-3.2-1.6-5.5l6.3-13.4c0.8-2.4,3.2-3.2,5.5-1.6
		c2.4,0.8,3.2,3.2,1.6,5.5l-6.3,13.4C113.4,173.3,111.9,174.1,110.3,174.1z"/>
	<path id="XMLID_7_" class="st4" d="M159.1,163.8c-1.6-5.5-7.1-8.7-11.8-7.1l-8.7-15.8c2.4-4.7,0.8-11-4.7-13.4
		c-4.7-2.4-9.5-0.8-12.6,3.2c2.4,3.2,2.4,7.1,0.8,10.2l8.7,15.8c5.5-1.6,11,1.6,11.8,7.1c1.6,5.5-1.6,11-7.1,11.8l-32.3,7.9
		c1.6,1.6,3.9,2.4,6.3,2.4c0.8,0,1.6,0,2.4,0l40.2-10.2C157.5,174.1,160.7,168.6,159.1,163.8z"/>
	<path id="XMLID_8_" class="st2" d="M269.4,396.2V356c0-5.5-4.7-10.2-10.2-10.2s-10.2,4.7-10.2,10.2v40.2c-5.5,0-10.2,4.7-10.2,10.2
		s4.7,10.2,10.2,10.2h19.7c5.5,0,10.2-4.7,10.2-10.2S274.9,396.2,269.4,396.2z"/>
	<path id="XMLID_9_" class="st5" d="M253.6,236.3c16.5,0,33.9,0.8,45.7,7.9c3.2-2.4,5.5-3.9,8.7-6.3c25.2-18.9,47.3-34.7,67.7-34.7
		c6.3,0,12.6,1.6,18.1,4.7c18.9,10.2,18.9,24.4,17.3,29.9c-2.4,11-11.8,19.7-25.2,25.2c2.4,4.7,3.2,9.5,1.6,15
		c-3.2,10.2-13.4,17.3-34.7,22.1c0,0.8,0,1.6,0,2.4c0,35.4-42.5,64.6-94.5,64.6c-44.1,0-78-17.3-88.2-44.1L253.6,236.3z"/>
	<path id="XMLID_10_" class="st6" d="M295.4,247.3c1.6-0.8,3.2-2.4,4.7-3.2c-13.4-7.9-32.3-7.9-45.7-7.9l0,0
		C266.2,236.3,285.9,241.8,295.4,247.3z"/>
	<path id="XMLID_11_" class="st6" d="M394.6,207.2c-5.5-3.2-11.8-4.7-18.1-4.7c-2.4,0-3.9,0-6.3,0.8c4.7,0.8,8.7,2.4,12.6,3.9
		c18.9,10.2,18.9,24.4,17.3,29.9c-2.4,11-11.8,19.7-25.2,25.2c2.4,4.7,3.2,9.5,1.6,15c-3.2,10.2-13.4,17.3-34.7,22.1
		c0,0.8,0,1.6,0,2.4c0,33.9-39.4,62.2-88.2,63.8c2.4,0,3.9,0,6.3,0c52,0,94.5-29.1,94.5-64.6c0-0.8,0-1.6,0-2.4
		c20.5-4.7,31.5-11.8,34.7-22.1c1.6-5.5,0.8-10.2-1.6-15c13.4-4.7,22.8-14.2,25.2-25.2C412.8,231.6,413.5,218.2,394.6,207.2z"/>
	<path id="XMLID_12_" class="st7" d="M132.3,115.8c-7.9-6.3-20.5-13.4-12.6-22.1c7.9-8.7,11.8-0.8,17.3-2.4
		c4.7-1.6,3.9-8.7,12.6-9.5c8.7,0,9.5,5.5,13.4,7.1c3.9,1.6,8.7-5.5,16.5-3.9c7.9,2.4,7.1,22.8,0,26.8
		C171.7,116.6,132.3,115.8,132.3,115.8z"/>
	<path id="XMLID_13_" class="st8" d="M154.4,89.8c1.6,0.8,3.2,0,5.5-1.6c-2.4-2.4-4.7-5.5-11-5.5c-1.6,0-2.4,0-3.2,0.8
		C149.7,85.1,151.2,89,154.4,89.8z"/>
	<path id="XMLID_14_" class="st8" d="M178.8,85.9c-2.4-0.8-4.7,0-7.1,0.8c6.3,3.9,5.5,22.1-0.8,26c-4.7,3.2-26,3.2-38.6,3.9l0,0
		c0,0,39.4,0.8,46.5-3.9C185.9,108.7,185.9,88.2,178.8,85.9z"/>
	<path id="XMLID_15_" class="st8" d="M128.4,92.2c0.8,0,1.6-0.8,1.6-0.8c-2.4-0.8-3.9-0.8-7.1,0C125.2,92.2,126.8,92.9,128.4,92.2z"
		/>
	<path id="XMLID_16_" class="st6" d="M239.5,326.1c-5.5,0-10.2-4.7-10.2-10.2s4.7-10.2,10.2-10.2c55.1,0,59.9-15.8,59.9-29.9
		c0-5.5,4.7-10.2,10.2-10.2s10.2,4.7,10.2,10.2C319.8,326.1,263.9,326.1,239.5,326.1z"/>
	<path id="XMLID_17_" class="st9" d="M253.6,236.3c-26.8-26-48.8-73.3-53.6-91.4v-8.7c0-22.8-16.5-40.2-40.2-40.2
		c-22.8,0-40.2,16.5-40.2,40.2c0,16.5,8.7,30.7,22.1,37.8c0,0.8,0.8,0.8,0.8,1.6c3.2,7.9,9.5,21.3,7.1,50.4l-0.8,13.4
		c-2.4,38.6-3.9,62.2,22.1,83.5l0.8,0.8c9.5-3.2,17.3-9.5,22.1-18.1c17.3-3.2,31.5-15.8,34.7-31.5c18.1-5.5,30.7-20.5,30.7-37.8
		C257.6,236.3,255.2,236.3,253.6,236.3z"/>
	<path id="XMLID_18_" class="st10" d="M253.6,236.3c-26.8-26-48.8-73.3-53.6-91.4v-8.7c0-22.8-16.5-40.2-40.2-40.2
		c-2.4,0-3.9,0-6.3,0.8c19.7,2.4,33.9,18.1,33.9,39.4v8.7c5.5,18.1,36.2,78,59.9,91.4c0,17.3-13.4,32.3-30.7,37.8
		c-3.2,15.8-17.3,28.4-34.7,31.5c-3.2,5.5-8.7,10.2-14.2,14.2c0.8,0.8,2.4,2.4,3.9,3.2l0.8,0.8c9.5-3.2,17.3-9.5,22.1-18.1
		c17.3-3.2,31.5-15.8,34.7-31.5c18.1-5.5,30.7-20.5,30.7-37.8C257.6,236.3,255.2,236.3,253.6,236.3z"/>
	<circle id="XMLID_19_" class="st11" cx="156.8" cy="133.9" r="15.8"/>
	<circle id="XMLID_20_" class="st12" cx="156.8" cy="133.9" r="7.9"/>
</g>
</svg>
