<?xml version="1.0" encoding="utf-8"?>
<!-- Generator: Adobe Illustrator 24.1.1, SVG Export Plug-In . SVG Version: 6.00 Build 0)  -->
<svg version="1.1" id="Layer_1" xmlns="http://www.w3.org/2000/svg" xmlns:xlink="http://www.w3.org/1999/xlink" x="0px" y="0px"
	 viewBox="0 0 512 512" style="enable-background:new 0 0 512 512;" xml:space="preserve">
<style type="text/css">
	.st0{fill:#F2CF61;}
	.st1{fill:#E6C45C;}
	.st2{fill:#333333;}
	.st3{fill:#404040;}
	.st4{fill:#B3B3B3;}
	.st5{fill:#1A1A1A;}
	.st6{fill:#0D0D0D;}
	.st7{fill:#F5F5F5;}
	.st8{fill:#242424;}
</style>
<g id="XMLID_1_">
	<circle id="XMLID_3_" class="st0" cx="256" cy="256" r="256"/>
	<path id="XMLID_4_" class="st1" d="M495.5,346.6c0-0.8-0.8-1.6-0.8-2.4c0-0.8-0.8-1.6-0.8-2.4c0-0.8-0.8-1.6-0.8-2.4
		c0-0.8-0.8-1.6-0.8-2.4c0-0.8-0.8-1.6-0.8-2.4s-0.8-1.6-0.8-2.4s-0.8-1.6-0.8-2.4s-0.8-1.6-0.8-2.4s-0.8-1.6-0.8-2.4
		c0-0.8-0.8-1.6-0.8-2.4c0-0.8-0.8-1.6-0.8-2.4c0-0.8-0.8-1.6-0.8-2.4c0-0.8-0.8-1.6-0.8-2.4c0-0.8-0.8-1.6-0.8-2.4
		s-0.8-1.6-0.8-2.4s-0.8-1.6-0.8-2.4s-0.8-1.6-0.8-2.4s-0.8-1.6-0.8-2.4c0-0.8-0.8-1.6-0.8-2.4c0-0.8-0.8-1.6-0.8-2.4
		c0-0.8-0.8-1.6-0.8-2.4c0-0.8-0.8-1.6-0.8-2.4c0-0.8-0.8-1.6-0.8-2.4s-0.8-1.6-0.8-2.4s-0.8-1.6-0.8-2.4s-0.8-1.6-0.8-2.4
		s-0.8-1.6-0.8-2.4c0-0.8-0.8-1.6-0.8-2.4c0-0.8-0.8-1.6-0.8-2.4c0-0.8-0.8-1.6-0.8-2.4c0-0.8-0.8-1.6-0.8-2.4
		c0-0.8-0.8-1.6-0.8-2.4c0-0.8-0.8-1.6-0.8-2.4s-0.8-1.6-0.8-2.4s-0.8-1.6-0.8-2.4s-0.8-1.6-0.8-2.4s-0.8-1.6-0.8-2.4
		c0-0.8-0.8-1.6-0.8-2.4c0-0.8-0.8-1.6-0.8-2.4s-0.8-1.6-0.8-2.4c0-0.8-0.8-1.6-0.8-2.4c0-0.8-0.8-1.6-0.8-2.4
		c0-0.8-0.8-1.6-0.8-2.4c0-0.8-0.8-1.6-0.8-2.4c0-0.8-0.8-1.6-0.8-2.4c0-0.8-0.8-1.6-0.8-2.4c0-0.8-0.8-1.6-0.8-2.4
		c0-0.8-0.8-1.6-0.8-2.4s-0.8-1.6-0.8-2.4c0-0.8-0.8-1.6-0.8-2.4c0-0.8-0.8-1.6-0.8-2.4c0-0.8-0.8-1.6-0.8-2.4
		c0-0.8-0.8-1.6-0.8-2.4s-0.8-1.6-0.8-2.4c0-0.8-0.8-1.6-0.8-2.4c0-0.8-0.8-1.6-0.8-2.4c0-0.8-0.8-1.6-0.8-2.4s-0.8-1.6-0.8-2.4
		c0-0.8-0.8-1.6-0.8-2.4c0-0.8-0.8-1.6-0.8-2.4c0-0.8-0.8-1.6-0.8-2.4c0-0.8-0.8-1.6-0.8-2.4s-0.8-1.6-0.8-2.4
		c0-0.8-0.8-1.6-0.8-2.4c0-0.8-0.8-1.6-0.8-2.4c0-0.8-0.8-1.6-0.8-2.4c0-0.8-0.8-1.6-0.8-2.4s-0.8-1.6-0.8-2.4
		c0-0.8-0.8-1.6-0.8-2.4c0-0.8-0.8-1.6-0.8-2.4c0-0.8-0.8-1.6-0.8-2.4s-0.8-1.6-0.8-2.4c0-0.8-0.8-1.6-0.8-2.4
		c0-0.8-0.8-1.6-0.8-2.4c0-0.8-0.8-1.6-0.8-2.4c0-0.8-0.8-1.6-0.8-2.4s-0.8-1.6-0.8-2.4c0-0.8-0.8-1.6-0.8-2.4
		c0-0.8-0.8-1.6-0.8-2.4c0-0.8-0.8-1.6-0.8-2.4c0-0.8-0.8-1.6-0.8-2.4c0-0.8-0.8-1.6-0.8-2.4c-3.9-11.8-15-19.7-28.4-19.7
		c-2.4,0-4.7,0-7.1,0l0,0c-25.2,2.4-43.3,15.8-54.4,31.5c-0.8-0.8-2.4-1.6-3.2-3.2c-19.7-16.5-45.7-18.9-65.4-18.9
		c-23.6,0-52,6.3-68.5,22.1c-0.8-1.6-1.6-2.4-2.4-3.9v-0.8c-0.8-0.8-1.6-1.6-2.4-2.4c-0.8-0.8-1.6-1.6-1.6-1.6l-0.8-0.8
		c-12.6-13.4-29.1-21.3-48-22.1h-0.8c-1.6,0-3.2,0-5.5,0c-1.6,0-3.2,0-4.7,0l0,0l0,0c-15,2.4-25.2,14.2-25.2,29.9v69.3
		c0,5.5,0.8,9.5,3.2,14.2c0,0.8,0.8,1.6,0.8,2.4c0,0.8,0.8,1.6,0.8,2.4c0,0.8,0.8,1.6,0.8,2.4c0,0.8,0.8,1.6,0.8,2.4
		c0,0.8,0.8,1.6,0.8,2.4s0.8,1.6,0.8,2.4s0.8,1.6,0.8,2.4s0.8,1.6,0.8,2.4s0.8,1.6,0.8,2.4c0,0.8,0.8,1.6,0.8,2.4
		c0,0.8,0.8,1.6,0.8,2.4c0,0.8,0.8,1.6,0.8,2.4c0,0.8,0.8,1.6,0.8,2.4c0,0.8,0.8,1.6,0.8,2.4s0.8,1.6,0.8,2.4s0.8,1.6,0.8,2.4
		s0.8,1.6,0.8,2.4s0.8,1.6,0.8,2.4c0,0.8,0.8,1.6,0.8,2.4c0,0.8,0.8,1.6,0.8,2.4c0,0.8,0.8,1.6,0.8,2.4c0,0.8,0.8,1.6,0.8,2.4
		c0,0.8,0.8,1.6,0.8,2.4s0.8,1.6,0.8,2.4s0.8,1.6,0.8,2.4s0.8,1.6,0.8,2.4s0.8,1.6,0.8,2.4c0,0.8,0.8,1.6,0.8,2.4
		c0,0.8,0.8,1.6,0.8,2.4c0,0.8,0.8,1.6,0.8,2.4c0,0.8,0.8,1.6,0.8,2.4c0,0.8,0.8,1.6,0.8,2.4c0,0.8,0.8,1.6,0.8,2.4s0.8,1.6,0.8,2.4
		s0.8,1.6,0.8,2.4s0.8,1.6,0.8,2.4c0,0.8,0.8,1.6,0.8,2.4c0,0.8,0.8,1.6,0.8,2.4c0,0.8,0.8,1.6,0.8,2.4c0,0.8,0.8,1.6,0.8,2.4
		c0,0.8,0.8,1.6,0.8,2.4c0,0.8,0.8,1.6,0.8,2.4s0.8,1.6,0.8,2.4s0.8,1.6,0.8,2.4s0.8,1.6,0.8,2.4s0.8,1.6,0.8,2.4
		c0,0.8,0.8,1.6,0.8,2.4c0,0.8,0.8,1.6,0.8,2.4c0,0.8,0.8,1.6,0.8,2.4c0,0.8,0.8,1.6,0.8,2.4c0,0.8,0.8,1.6,0.8,2.4s0.8,1.6,0.8,2.4
		s0.8,1.6,0.8,2.4s0.8,1.6,0.8,2.4s0.8,1.6,0.8,2.4c0,0.8,0.8,1.6,0.8,2.4c0,0.8,0.8,1.6,0.8,2.4c0,0.8,0.8,1.6,0.8,2.4
		c0,0.8,0.8,1.6,0.8,2.4c0,0.8,0.8,1.6,0.8,2.4c0,0.8,0.8,1.6,0.8,2.4c0,0.8,0.8,1.6,0.8,2.4c0,0.8,0.8,1.6,0.8,2.4
		c0,0.8,0.8,1.6,0.8,2.4c0,0.8,0.8,1.6,0.8,2.4c0,0.8,0.8,1.6,0.8,2.4c0,0.8,0.8,1.6,0.8,2.4c0,0.8,0.8,1.6,0.8,2.4
		c0,0.8,0.8,1.6,0.8,2.4c0,0.8,0.8,1.6,0.8,2.4c0,0.8,0.8,1.6,0.8,2.4c0,0.8,0.8,1.6,0.8,2.4c0,0.8,0.8,1.6,0.8,2.4
		c0,0.8,0.8,1.6,0.8,2.4c0,0.8,0.8,1.6,0.8,2.4c0,0.8,0.8,1.6,0.8,2.4c0,0.8,0.8,1.6,0.8,2.4c0,0.8,0.8,1.6,0.8,2.4
		c0,0.8,0.8,1.6,0.8,2.4c0,0.8,0.8,1.6,0.8,2.4c0,0.8,0.8,1.6,0.8,2.4c0,0.8,0.8,1.6,0.8,2.4c0,0.8,0.8,1.6,0.8,2.4
		c0,0.8,0.8,1.6,0.8,2.4c0,0.8,0.8,1.6,0.8,2.4c0,0.8,0.8,1.6,0.8,2.4c0,0.8,0.8,1.6,0.8,2.4c0,0.8,0.8,1.6,0.8,2.4
		c0,0.8,0.8,1.6,0.8,2.4c0,0.8,0.8,1.6,0.8,2.4c0,0.8,0.8,1.6,0.8,2.4c0,0.8,0.8,1.6,0.8,2.4c0,0.8,0.8,1.6,0.8,2.4
		c0,0.8,0.8,1.6,0.8,2.4c0,0.8,0.8,1.6,0.8,2.4c0,0.8,0.8,1.6,0.8,2.4c0,0.8,0.8,1.6,0.8,2.4c0,0.8,0.8,1.6,0.8,2.4
		c0,0.8,0.8,1.6,0.8,2.4c0,0.8,0.8,1.6,0.8,2.4c0,0.8,0.8,1.6,0.8,2.4c0,0.8,0.8,1.6,0.8,2.4c0,0.8,0.8,1.6,0.8,2.4
		c0,0.8,0.8,1.6,0.8,2.4c0,0.8,0.8,1.6,0.8,2.4c0,0.8,0.8,1.6,0.8,2.4c0,0.8,0.8,1.6,0.8,2.4c0,0.8,0.8,1.6,0.8,2.4
		c0,0.8,0.8,1.6,0.8,2.4l0,0c15.8,3.2,32.3,4.7,48.8,4.7C365.5,512,459.2,443.5,495.5,346.6z"/>
	<path id="XMLID_5_" class="st2" d="M320.6,163.1c1.6-2.4,2.4-3.9,3.9-5.5c-20.5-18.9-48-22.1-68.5-22.1c-1.6,0-3.9,0-6.3,0
		C272.5,137.1,304.8,148.9,320.6,163.1z"/>
	<path id="XMLID_6_" class="st2" d="M181.2,163.8c2.4-2.4,3.9-4.7,6.3-6.3C172.5,137.1,152,126,126,126c-1.6,0-3.2,0-4.7,0
		C146.5,128.4,170.1,148.9,181.2,163.8z"/>
	<path id="XMLID_7_" class="st2" d="M386,126c-2.4,0-4.7,0-7.1,0c15,2.4,25.2,14.2,25.2,29.9v69.3c0,18.1-12.6,30.7-29.9,30.7H386
		c17.3,0,29.9-12.6,29.9-30.7V156C415.9,138.6,403.3,126,386,126z"/>
	<path id="XMLID_8_" class="st3" d="M386,126c-29.1,0-49.6,15-61.4,31.5c-17.3-15.8-44.9-22.1-68.5-22.1s-52,6.3-68.5,22.1
		C175.7,141,155.2,126,126,126c-17.3,0-29.9,12.6-29.9,29.9v69.3c0,18.1,12.6,30.7,29.9,30.7h12.6c-2.4,7.1-2.4,14.2-2.4,19.7
		c0,61.4,28.4,97.7,85.1,107.1v-6.3c0-18.9,15.8-34.7,34.7-34.7s34.7,15.8,34.7,34.7v6.3c56.7-10.2,85.1-45.7,85.1-107.1
		c0-5.5,0-12.6-2.4-19.7H386c17.3,0,29.9-12.6,29.9-30.7V156C415.9,138.6,403.3,126,386,126z"/>
	<path id="XMLID_9_" class="st4" d="M256,386c12.6,0,24.4-0.8,34.7-3.2v-38.6c0-18.9-15.8-34.7-34.7-34.7s-34.7,15.8-34.7,34.7v38.6
		C231.6,385.2,243.4,386,256,386z"/>
	<path id="XMLID_10_" class="st2" d="M291.4,382.8c55.9-10.2,84.3-45.7,84.3-107.1c0-5.5,0-12.6-2.4-19.7h-11.8
		c2.4,7.1,2.4,14.2,2.4,19.7c0,56.7-24.4,92.2-73.3,104.8L291.4,382.8L291.4,382.8z"/>
	<ellipse id="XMLID_11_" class="st5" cx="256" cy="348.2" rx="23.6" ry="4.7"/>
	<path id="XMLID_12_" class="st5" d="M256,345.8c-16.5,0-29.9-13.4-29.9-29.1v-41c0-16.5,13.4-29.9,29.9-29.9s29.9,13.4,29.9,29.9
		v41C285.9,333.2,272.5,345.8,256,345.8z"/>
	<path id="XMLID_13_" class="st6" d="M256,245.8c-2.4,0-3.9,0-6.3,0.8c13.4,3.2,23.6,15,23.6,29.1v41c0,14.2-10.2,26-23.6,28.4
		c1.6,0,3.9,0.8,6.3,0.8c16.5,0,29.9-13.4,29.9-29.1v-41C285.9,259.9,272.5,245.8,256,245.8z"/>
	<path id="XMLID_14_" class="st7" d="M206.4,256c-16.5,0-29.9-13.4-29.9-29.9s13.4-29.9,29.9-29.9s29.9,13.4,29.9,29.9
		S222.9,256,206.4,256z"/>
	<circle id="XMLID_15_" class="st8" cx="206.4" cy="226.1" r="10.2"/>
	<path id="XMLID_16_" class="st7" d="M305.6,256c-16.5,0-29.9-13.4-29.9-29.9s13.4-29.9,29.9-29.9s29.9,13.4,29.9,29.9
		C336.3,242.6,322.2,256,305.6,256z"/>
	<circle id="XMLID_17_" class="st8" cx="305.6" cy="226.1" r="10.2"/>
	<path id="XMLID_18_" class="st4" d="M177.2,170.9l-2.4-3.9c-6.3-9.5-21.3-25.2-48-25.2c-7.9,0-14.2,5.5-14.2,14.2v69.3
		c0,8.7,5.5,14.2,14.2,14.2h15.8C148.9,215.8,163.8,188.3,177.2,170.9z"/>
	<path id="XMLID_19_" class="st4" d="M334.8,170.9l2.4-3.9c6.3-9.5,21.3-25.2,48-25.2c7.9,0,14.2,5.5,14.2,14.2v69.3
		c0,8.7-5.5,14.2-14.2,14.2h-15.8C363.1,215.8,348.2,188.3,334.8,170.9z"/>
</g>
</svg>
