<?xml version="1.0" encoding="utf-8"?>
<!-- Generator: Adobe Illustrator 24.1.1, SVG Export Plug-In . SVG Version: 6.00 Build 0)  -->
<svg version="1.1" id="Layer_1" xmlns="http://www.w3.org/2000/svg" xmlns:xlink="http://www.w3.org/1999/xlink" x="0px" y="0px"
	 viewBox="0 0 512 512" style="enable-background:new 0 0 512 512;" xml:space="preserve">
<style type="text/css">
	.st0{fill:#2D4452;}
	.st1{fill:#233540;}
	.st2{fill:#45998B;}
	.st3{fill:#3A8074;}
	.st4{fill:#EDEDED;}
	.st5{fill:#10141C;}
	.st6{fill:#F2B255;}
	.st7{fill:#E6A951;}
</style>
<g id="XMLID_1_">
	<circle id="XMLID_3_" class="st0" cx="256" cy="254.4" r="254.4"/>
	<path id="XMLID_4_" class="st1" d="M486.9,360.1c0-0.8-0.8-1.6-0.8-2.3c0-0.8-0.8-1.6-0.8-2.3c0-0.8-0.8-1.6-0.8-2.3
		s-0.8-1.6-0.8-2.3s-0.8-1.6-0.8-2.3c0-0.8-0.8-1.6-0.8-2.3c0-0.8-0.8-1.6-0.8-2.3s-0.8-1.6-0.8-2.3s-0.8-1.6-0.8-2.3
		c0-0.8-0.8-1.6-0.8-2.3s-0.8-1.6-0.8-2.3s-0.8-1.6-0.8-2.3c0-0.8-0.8-1.6-0.8-2.3c0-0.8-0.8-1.6-0.8-2.3s-0.8-1.6-0.8-2.3
		s-0.8-1.6-0.8-2.3c0-0.8-0.8-1.6-0.8-2.3c0-0.8-0.8-1.6-0.8-2.3s-0.8-1.6-0.8-2.3s-0.8-1.6-0.8-2.3c0-0.8-0.8-1.6-0.8-2.3
		c0-0.8-0.8-1.6-0.8-2.3s-0.8-1.6-0.8-2.3s-0.8-1.6-0.8-2.3c0-0.8-0.8-1.6-0.8-2.3s-0.8-1.6-0.8-2.3s-0.8-1.6-0.8-2.3
		c0-0.8-0.8-1.6-0.8-2.3c0-0.8-0.8-1.6-0.8-2.3s-0.8-1.6-0.8-2.3s-0.8-1.6-0.8-2.3c0-0.8-0.8-1.6-0.8-2.3c0-0.8-0.8-1.6-0.8-2.3
		s-0.8-1.6-0.8-2.3s-0.8-1.6-0.8-2.3c0-0.8-0.8-1.6-0.8-2.3c0-0.8-0.8-1.6-0.8-2.3s-0.8-1.6-0.8-2.3s-0.8-1.6-0.8-2.3
		c0-0.8-0.8-1.6-0.8-2.3s-0.8-1.6-0.8-2.3s-0.8-1.6-0.8-2.3c0-0.8-0.8-1.6-0.8-2.3c0-0.8-0.8-1.6-0.8-2.3c0-0.8-0.8-1.6-0.8-2.3
		c0-0.8-0.8-1.6-0.8-2.3c0-0.8-0.8-1.6-0.8-2.3c0-0.8-0.8-1.6-0.8-2.3c0-0.8-0.8-1.6-0.8-2.3c0-0.8-0.8-1.6-0.8-2.3
		c0-0.8-0.8-1.6-0.8-2.3c0-0.8-0.8-1.6-0.8-2.3c0-0.8-0.8-1.6-0.8-2.3c0-0.8-0.8-1.6-0.8-2.3c0-0.8-0.8-1.6-0.8-2.3
		c0-0.8-0.8-1.6-0.8-2.3c0-0.8-0.8-1.6-0.8-2.3c0-0.8-0.8-1.6-0.8-2.3c0-0.8-0.8-1.6-0.8-2.3c0-0.8-0.8-1.6-0.8-2.3
		c0-0.8-0.8-1.6-0.8-2.3c0-0.8-0.8-1.6-0.8-2.3c0-0.8-0.8-1.6-0.8-2.3c0-0.8-0.8-1.6-0.8-2.3c0-0.8-0.8-1.6-0.8-2.3
		c0-0.8-0.8-1.6-0.8-2.3c0-0.8-0.8-1.6-0.8-2.3c0-0.8-0.8-1.6-0.8-2.3c0-0.8-0.8-1.6-0.8-2.3c0-0.8-0.8-1.6-0.8-2.3
		c0-0.8-0.8-1.6-0.8-2.3c0-0.8-0.8-1.6-0.8-2.3c0-0.8-0.8-1.6-0.8-2.3c0-0.8-0.8-1.6-0.8-2.3c0-0.8-0.8-1.6-0.8-2.3
		c0-0.8-0.8-1.6-0.8-2.3c0-0.8-0.8-1.6-0.8-2.3c0-0.8-0.8-1.6-0.8-2.3c0-0.8-0.8-1.6-0.8-2.3c0-0.8-0.8-1.6-0.8-2.3
		c0-0.8-0.8-1.6-0.8-2.3c0-0.8-0.8-1.6-0.8-2.3c-2.3-6.3-6.3-12.5-11-20.4c-1.6-2.3-3.9-0.8-3.9,1.6c0,2.3,0,3.9,0,6.3l0,0
		c0,1.6,0,3.9,0,5.5c-1.6,21.1-15.7,30.5-28.2,25.8l0,0c-0.8,0-0.8,0-1.6-0.8c-0.8-0.8-1.6-0.8-2.3-1.6l0,0c0-0.8-0.8-1.6-0.8-2.3
		c0-0.8-0.8-1.6-0.8-2.3c0-0.8-0.8-1.6-0.8-2.3c0-0.8-0.8-1.6-0.8-2.3c0-0.8-0.8-1.6-0.8-2.3s-0.8-1.6-0.8-2.3
		c0-0.8-0.8-1.6-0.8-2.3c0-0.8-0.8-1.6-0.8-2.3c0-0.8-0.8-1.6-0.8-2.3c0-0.8-0.8-1.6-0.8-2.3c0-0.8-0.8-1.6-0.8-2.3
		c0-0.8-0.8-1.6-0.8-2.3c0-0.8-0.8-1.6-0.8-2.3c0-0.8-0.8-1.6-0.8-2.3c0-0.8-0.8-1.6-0.8-2.3c-0.8-3.9-4.7-7-9.4-7
		c-34.4,0-77.5,7.8-104.1,69.7c-41.5,21.9-67.3,62.6-90,98.6c-14.9,23.5-28.2,45.4-43.1,54c-3.9,2.3-5.5,7-4.7,11
		c0,0.8,0.8,1.6,0.8,2.3l0,0c0,0.8,0.8,1.6,0.8,2.3l0,0c0,0.8,0.8,1.6,0.8,2.3l0,0c0,0.8,0.8,1.6,0.8,2.3l0,0c0,0.8,0.8,1.6,0.8,2.3
		l0,0c0,0.8,0.8,1.6,0.8,2.3l0,0c0,0.8,0.8,1.6,0.8,2.3l0,0c0,0.8,0.8,1.6,0.8,2.3l0,0c0,0.8,0.8,1.6,0.8,2.3l0,0
		c0,0.8,0.8,1.6,0.8,2.3l0,0c0,0.8,0.8,1.6,0.8,2.3l0,0c0,0.8,0.8,1.6,0.8,2.3l0,0c0,0.8,0.8,1.6,0.8,2.3l0,0c0,0.8,0.8,1.6,0.8,2.3
		l0,0c0,0.8,0.8,1.6,0.8,2.3l0,0c0,0.8,0.8,1.6,0.8,2.3l0,0c0,0.8,0.8,1.6,0.8,2.3l0,0c0,0.8,0.8,1.6,0.8,2.3l0,0
		c0,0.8,0.8,1.6,0.8,2.3l0,0c0,0.8,0.8,1.6,0.8,2.3l0,0c0,0.8,0.8,1.6,0.8,2.3l0,0c0,0.8,0.8,1.6,0.8,2.3l0,0c0,0.8,0.8,1.6,0.8,2.3
		l0,0c0,0.8,0.8,1.6,0.8,2.3l0,0c0,0.8,0.8,1.6,0.8,2.3l0,0c0,0.8,0.8,1.6,0.8,2.3l0,0c0,0.8,0.8,1.6,0.8,2.3l0,0
		c0,0.8,0.8,1.6,0.8,2.3l0,0c0,0.8,0.8,1.6,0.8,2.3l0,0c0,0.8,0.8,1.6,0.8,2.3l0,0c0,0.8,0.8,1.6,0.8,2.3l0,0c0,0.8,0.8,1.6,0.8,2.3
		l0,0c0,0.8,0.8,1.6,0.8,2.3l0,0c0,0.8,0.8,1.6,0.8,2.3l0,0c0,0.8,0.8,1.6,0.8,2.3l0,0c0,0.8,0.8,1.6,0.8,2.3l0,0
		c0,0.8,0.8,1.6,0.8,2.3l0,0c0,0.8,0.8,1.6,0.8,2.3l0,0c0,0.8,0.8,1.6,0.8,2.3l0,0c0,0.8,0.8,1.6,0.8,2.3l0,0c0,0.8,0.8,1.6,0.8,2.3
		l0,0c0,0.8,0.8,1.6,0.8,2.3l0,0c0,0.8,0.8,1.6,0.8,2.3l0,0c0,0.8,0.8,1.6,0.8,2.3l0,0c0,0.8,0.8,1.6,0.8,2.3l0,0
		c0,0.8,0.8,1.6,0.8,2.3l0,0c0,0,0,0.8,0.8,0.8c34.4,18,74.4,28.2,115.9,28.2C358.6,508.9,447,447.8,486.9,360.1L486.9,360.1z"/>
	<path id="XMLID_5_" class="st2" d="M329.6,298.3c4.7,2.3,7,7.8,4.7,13.3c-8.6,17.2-7,41.5-1.6,47c3.1,3.1,3.9,6.3,2.3,10.2
		c-1.6,3.9-4.7,5.5-8.6,5.5h-48.5c-5.5,0-9.4-3.1-9.4-8.6v-18.8h-20.4v18.8c0,5.5-3.9,8.6-9.4,8.6h-38.4c-5.5,0-11.7-3.1-11.7-8.6
		v-13.3c-15.7,8.6-50.9,22.7-85.3,22.7c-4.7,0-7.8-3.1-8.6-7c-0.8-3.9,0.8-8.6,4.7-11c14.1-8.6,28.2-31.3,43.1-54
		c23.5-36.8,49.3-79.1,93.2-100.2c4.7-2.3,11-0.8,13.3,4.7L329.6,298.3z"/>
	<path id="XMLID_6_" class="st3" d="M329.6,299.1l-82.2-92.4c-2.3-4.7-7.8-7-13.3-4.7c-3.1,1.6-6.3,3.1-9.4,4.7
		c-0.8,2.3-2.3,5.5-3.1,7.8c-17.2,44.6,45.4,109.6,95.5,109.6c3.9,0,8.6-0.8,12.5-1.6c0.8-3.9,2.3-7.8,3.9-11.7
		C336.6,306.9,335.1,301.4,329.6,299.1z"/>
	<path id="XMLID_7_" class="st3" d="M187.1,347.6c-14.1,7.8-54.8,25.1-86.1,27.4c0.8,0,1.6,0,2.3,0c27.4,0,58.7-8.6,86.1-22.7
		L187.1,347.6z"/>
	<path id="XMLID_8_" class="st3" d="M237.2,365.6c0,5.5-4.7,8.6-10.2,8.6h11.7c5.5,0,10.2-3.1,10.2-8.6v-18.8h-11.7V365.6z"/>
	<path id="XMLID_9_" class="st3" d="M334.3,311.6c2.3-4.7,0.8-10.2-4.7-13.3l-82.2-91.6c-2.3-4.7-7.8-7-13.3-4.7
		c-0.8,0-1.6,0.8-1.6,0.8c0.8,0.8,2.3,2.3,3.1,3.1l82.2,92.4c4.7,2.3,7,7.8,4.7,13.3c-8.6,17.2-7,41.5-1.6,47
		c3.1,3.1,3.9,6.3,2.3,10.2c-1.6,3.9-4.7,5.5-8.6,5.5h11.7c3.9,0,7-1.6,8.6-5.5c1.6-3.9,0.8-7-2.3-10.2
		C327.2,353.1,325.7,328.8,334.3,311.6z"/>
	<path id="XMLID_10_" class="st2" d="M395.4,209c11.7-12.5,25.8-32.9,0-68.9c-1.6-2.3-3.9-0.8-3.9,1.6c3.1,31.3-14.9,43.8-29,37.6
		c-12.5-5.5-16.4-18.8-17.2-36c0-5.5-4.7-9.4-9.4-9.4c-35.2,0-79.9,8.6-105.7,73.6c-17.2,44.6,45.4,109.6,95.5,109.6
		c7.8,0,15.7-1.6,22.7-3.9l0,0h0.8l0,0c11-3.9,25.8-11.7,38.4-20.4c-9.4-13.3-11.7-36-12.5-39.1c4.7-8.6,15.7-18.8,29.7-32.1
		C401.6,216.9,398.5,212.9,395.4,209z"/>
	<path id="XMLID_11_" class="st3" d="M332.7,143.3c0.8,18,4.7,30.5,17.2,36c4.7,1.6,9.4,2.3,13.3,0.8c-0.8,0-0.8,0-1.6-0.8
		c-12.5-5.5-16.4-18.8-17.2-36c0-5.5-4.7-9.4-9.4-9.4c-3.1,0-6.3,0-10.2,0C329.6,135.4,332.7,138.6,332.7,143.3z"/>
	<path id="XMLID_12_" class="st3" d="M395.4,140.1c-1.6-2.3-3.9-0.8-3.9,1.6c0.8,4.7,0.8,8.6,0,11.7c14.1,27.4,1.6,44.6-8.6,54.8
		c3.9,3.9,7.8,10.2,11,14.1c-13.3,13.3-18.8,16.4-23.5,25.1c0.8,3.9,0,26.6,9.4,40.7c-12.5,8.6-32.9,21.1-43.1,24.3l0,0h-0.8l0,0
		c-5.5,1.6-11,3.1-16.4,3.9c2.3,0,3.9,0,6.3,0c7.8,0,15.7-1.6,22.7-3.9l0,0h0.8l0,0c11-3.9,25.8-11.7,38.4-20.4
		c-9.4-13.3-11.7-36-12.5-39.1c4.7-8.6,15.7-18.8,29.7-32.1c-2.3-3.9-5.5-7.8-9.4-11.7C406.3,196.5,421.2,176.1,395.4,140.1z"/>
	<circle id="XMLID_13_" class="st4" cx="325.7" cy="211.4" r="19.6"/>
	<path id="XMLID_14_" class="st5" d="M335.1,211.4c0,5.5-4.7,9.4-9.4,9.4c-5.5,0-9.4-4.7-9.4-9.4c0-5.5,4.7-9.4,9.4-9.4
		C331.2,201.2,335.1,205.9,335.1,211.4z"/>
	<path id="XMLID_15_" class="st6" d="M403.2,278.7c0.8-0.8,0.8-2.3,0-3.1c-4.7-0.8-11-3.9-16.4-8.6c-3.9-3.9-6.3-7.8-8.6-10.2
		c19.6-1.6,29,7.8,37.6,16.4c0.8,0.8,2.3-0.8,2.3-1.6c0.8-17.2-2.3-34.4-13.3-50.9c-13.3,0-26.6,7-33.7,20.4
		c-9.4,18-3.9,39.9,13.3,49.3c0.8,0.8,2.3,0.8,3.1,1.6C393.8,287.3,399.3,282.6,403.2,278.7z"/>
	<path id="XMLID_16_" class="st7" d="M402.4,276.4c-4.7-0.8-11-3.9-16.4-8.6c-3.1-3.9-6.3-7-7.8-10.2c-3.9-0.8-7.8-0.8-12.5-0.8l0,0
		c2.3,3.1,4.7,6.3,8.6,10.2c5.5,4.7,11.7,7.8,16.4,8.6c0.8,0,0.8,1.6,0,3.1c-2.3,3.1-6.3,6.3-11,9.4c0.8,0.8,2.3,1.6,3.1,2.3
		s2.3,0.8,3.1,1.6c6.3-4.7,12.5-9.4,15.7-13.3C404,277.9,404,276.4,402.4,276.4z"/>
	<path id="XMLID_17_" class="st7" d="M404.7,220.8c-3.9,0-7,0.8-11,1.6c8.6,14.1,12.5,28.2,12.5,43.1c3.1,2.3,6.3,5.5,9.4,8.6
		c0.8,0.8,2.3-0.8,2.3-1.6C418.8,254.4,415.7,237.2,404.7,220.8z"/>
</g>
</svg>
