<?xml version="1.0" encoding="utf-8"?>
<!-- Generator: Adobe Illustrator 24.1.1, SVG Export Plug-In . SVG Version: 6.00 Build 0)  -->
<svg version="1.1" id="Layer_1" xmlns="http://www.w3.org/2000/svg" xmlns:xlink="http://www.w3.org/1999/xlink" x="0px" y="0px"
	 viewBox="0 0 512 512" style="enable-background:new 0 0 512 512;" xml:space="preserve">
<style type="text/css">
	.st0{fill:#B2E3FF;}
	.st1{fill:#A9D7F2;}
	.st2{fill:#E6E6E6;}
	.st3{fill:#D9D9D9;}
	.st4{fill:#EDEDED;}
	.st5{fill:#E78244;}
	.st6{fill:#2D4452;}
</style>
<g id="XMLID_1_">
	<circle id="XMLID_3_" class="st0" cx="256" cy="256" r="256"/>
	<path id="XMLID_4_" class="st1" d="M189,503.3c21.3,5.5,44.1,8.7,67,8.7c95.3,0,178.8-52,222.1-129.2l0,0c0-0.8-0.8-1.6-0.8-2.4
		s-0.8-1.6-0.8-2.4c0-0.8-0.8-1.6-0.8-2.4c0-0.8-0.8-1.6-0.8-2.4c0-0.8-0.8-1.6-0.8-2.4c0-0.8-0.8-1.6-0.8-2.4
		c0-0.8-0.8-1.6-0.8-2.4s-0.8-1.6-0.8-2.4s-0.8-1.6-0.8-2.4s-0.8-1.6-0.8-2.4s-0.8-1.6-0.8-2.4c0-0.8-0.8-1.6-0.8-2.4
		c0-0.8-0.8-1.6-0.8-2.4c0-0.8-0.8-1.6-0.8-2.4c0-0.8-0.8-1.6-0.8-2.4c0-0.8-0.8-1.6-0.8-2.4c0-0.8-0.8-1.6-0.8-2.4
		s-0.8-1.6-0.8-2.4s-0.8-1.6-0.8-2.4s-0.8-1.6-0.8-2.4s-0.8-1.6-0.8-2.4c0-0.8-0.8-1.6-0.8-2.4c0-0.8-0.8-1.6-0.8-2.4
		c0-0.8-0.8-1.6-0.8-2.4c0-0.8-0.8-1.6-0.8-2.4c0-0.8-0.8-1.6-0.8-2.4s-0.8-1.6-0.8-2.4s-0.8-1.6-0.8-2.4s-0.8-1.6-0.8-2.4
		s-0.8-1.6-0.8-2.4c0-0.8-0.8-1.6-0.8-2.4c0-0.8-0.8-1.6-0.8-2.4c0-0.8-0.8-1.6-0.8-2.4c0-0.8-0.8-1.6-0.8-2.4
		c0-0.8-0.8-1.6-0.8-2.4s-0.8-1.6-0.8-2.4s-0.8-1.6-0.8-2.4s-0.8-1.6-0.8-2.4s-0.8-1.6-0.8-2.4c0-0.8-0.8-1.6-0.8-2.4
		c0-0.8-0.8-1.6-0.8-2.4c0-0.8-0.8-1.6-0.8-2.4c0-0.8-0.8-1.6-0.8-2.4c0-0.8-0.8-1.6-0.8-2.4c0-0.8-0.8-1.6-0.8-2.4
		s-0.8-1.6-0.8-2.4s-0.8-1.6-0.8-2.4s-0.8-1.6-0.8-2.4c0-0.8-0.8-1.6-0.8-2.4c0-0.8-0.8-1.6-0.8-2.4c0-0.8-0.8-1.6-0.8-2.4
		c0-0.8-0.8-1.6-0.8-2.4c0-0.8-0.8-1.6-0.8-2.4c0-0.8-0.8-1.6-0.8-2.4c0-0.8-0.8-1.6-0.8-2.4s-0.8-1.6-0.8-2.4
		c0-0.8-0.8-1.6-0.8-2.4c0-0.8-0.8-1.6-0.8-2.4c0-0.8-0.8-1.6-0.8-2.4c0-0.8-0.8-1.6-0.8-2.4s-0.8-1.6-0.8-2.4
		c0-0.8-0.8-1.6-0.8-2.4c0-0.8-0.8-1.6-0.8-2.4c0-0.8-0.8-1.6-0.8-2.4c0-0.8-0.8-1.6-0.8-2.4c0-0.8-0.8-1.6-0.8-2.4
		c0-0.8-0.8-1.6-0.8-2.4c0-0.8-0.8-1.6-0.8-2.4c0-0.8-0.8-1.6-0.8-2.4s-0.8-1.6-0.8-2.4c0-0.8-0.8-1.6-0.8-2.4
		c0-0.8-0.8-1.6-0.8-2.4c0-0.8-0.8-1.6-0.8-2.4c0-0.8-0.8-1.6-0.8-2.4s-0.8-1.6-0.8-2.4c0-0.8-0.8-1.6-0.8-2.4
		c0-0.8-0.8-1.6-0.8-2.4c0-0.8-0.8-1.6-0.8-2.4c0-0.8-0.8-1.6-0.8-2.4c0-0.8-0.8-1.6-0.8-2.4c0-0.8-0.8-1.6-0.8-2.4
		c0-0.8-0.8-1.6-0.8-2.4c0-0.8-0.8-1.6-0.8-2.4s-0.8-1.6-0.8-2.4c0-0.8-0.8-1.6-0.8-2.4c0-0.8-0.8-1.6-0.8-2.4
		c0-0.8-0.8-1.6-0.8-2.4c0-0.8-0.8-1.6-0.8-2.4s-0.8-1.6-0.8-2.4c0-0.8-0.8-1.6-0.8-2.4c0-0.8-0.8-1.6-0.8-2.4
		c0-0.8-0.8-1.6-0.8-2.4c0-0.8-0.8-1.6-0.8-2.4c0-0.8-0.8-1.6-0.8-2.4c0-0.8-0.8-1.6-0.8-2.4c0-0.8-0.8-1.6-0.8-2.4
		c0-0.8-0.8-1.6-0.8-2.4s-0.8-1.6-0.8-2.4c0-0.8-0.8-1.6-0.8-2.4c0-0.8-0.8-1.6-0.8-2.4c0-0.8-0.8-1.6-0.8-2.4
		c0-0.8-0.8-1.6-0.8-2.4c-1.6-3.2-3.2-7.1-4.7-10.2c-1.6-3.2-4.7-5.5-8.7-5.5c-0.8,0-1.6,0-2.4,0h-0.8h-0.8
		c-1.6,0.8-3.9,2.4-4.7,3.9c-41.7,23.6-62.2,44.1-88.2,70.9l-3.2,3.9c0-0.8-0.8-0.8-0.8-1.6c0-0.8-0.8-1.6-0.8-2.4
		c0-0.8-0.8-1.6-0.8-2.4c0-0.8-0.8-1.6-0.8-2.4c0-0.8-0.8-1.6-0.8-2.4c0-0.8-0.8-1.6-0.8-2.4s-0.8-1.6-0.8-2.4
		c0-0.8-0.8-1.6-0.8-2.4c0-0.8-0.8-1.6-0.8-2.4c0-0.8-0.8-1.6-0.8-2.4s-0.8-1.6-0.8-2.4c0-0.8-0.8-1.6-0.8-2.4
		c0-0.8-0.8-1.6-0.8-2.4c0-0.8-0.8-1.6-0.8-2.4c0-0.8-0.8-1.6-0.8-2.4s-0.8-1.6-0.8-2.4c0-0.8-0.8-1.6-0.8-2.4
		c0-0.8-0.8-1.6-0.8-2.4c0-0.8-0.8-1.6-0.8-2.4c0-0.8-0.8-1.6-0.8-2.4c0-0.8-0.8-1.6-0.8-2.4c0-0.8-0.8-1.6-0.8-2.4
		c0-0.8-0.8-1.6-0.8-2.4c0-0.8-0.8-1.6-0.8-2.4s-0.8-1.6-0.8-2.4c0-0.8-0.8-1.6-0.8-2.4c0-0.8-0.8-1.6-0.8-2.4
		c0-0.8-0.8-1.6-0.8-2.4c0-0.8-0.8-1.6-0.8-2.4s-0.8-1.6-0.8-2.4c0-0.8-0.8-1.6-0.8-2.4c-1.6-3.2-2.4-6.3-3.9-9.5
		c-7.9-15.8-16.5-23.6-26-23.6c-0.8,0-1.6,0-2.4,0l0,0c-3.9,1.6-7.1,4.7-7.1,9.5c0,0.8-2.4,46.5-47.3,92.9
		c-18.9,19.7-20.5,41.7-15,59.1c-12.6,1.6-22.8,12.6-22.8,26c0,1.6,0,3.2,0.8,4.7l0,0l-22.8,20.5L189,503.3z"/>
	<path id="XMLID_5_" class="st2" d="M174.1,285.9c-2.4,0-5.5-0.8-7.1-3.2c-16.5-16.5-29.9-52.8,0-84.3
		c44.9-46.5,47.3-92.9,47.3-92.9c0-5.5,4.7-10.2,10.2-10.2c9.5,0,18.1,7.9,26,23.6c17.3,35.4,26.8,107.9-7.9,152.8
		c-3.2,4.7-9.5,5.5-14.2,1.6c-4.7-3.2-43.3,5.5-47.3,9.5C178.8,285.1,176.4,285.9,174.1,285.9z"/>
	<path id="XMLID_6_" class="st3" d="M168.6,282.8l-0.8,0.8c1.6,1.6,3.9,2.4,6.3,2.4s4.7-0.8,7.1-3.2c2.4-2.4,21.3-7.9,34.7-9.5
		C210.3,271,172.5,279.6,168.6,282.8z"/>
	<path id="XMLID_7_" class="st3" d="M249.7,118.9c-7.9-15.8-16.5-23.6-26-23.6c-1.6,0-3.9,0.8-4.7,1.6c7.1,3.2,13.4,10.2,18.9,22.1
		c17.3,35.4,26.8,107.9-7.9,152.8c-0.8,0.8-1.6,1.6-1.6,1.6c4.7,3.2,10.2,2.4,14.2-1.6C276.5,227.6,267,154.4,249.7,118.9z"/>
	<path id="XMLID_8_" class="st3" d="M241.8,271.8c11.8-15.8,18.9-34.7,22.1-54.4c-19.7,19.7-52.8,50.4-69.3,50.4
		c-3.2,0-7.1-3.2-11-7.1c-5.5-4.7-15-11-27.6-11c-1.6,0-3.2,0-4.7,0.8c2.4,13.4,9.5,24.4,16.5,32.3c1.6,2.4,4.7,3.2,7.1,3.2
		c2.4,0,4.7-0.8,7.1-3.2c3.9-3.9,42.5-12.6,47.3-9.5C231.6,277.3,237.9,276.5,241.8,271.8z"/>
	<path id="XMLID_9_" class="st4" d="M367.9,271c25.2-41.7,27.6-103.2,5.5-148.9c-1.6-3.2-4.7-5.5-8.7-5.5c-3.9,0-7.1,1.6-8.7,4.7
		c-22.1,32.3-42.5,52.8-68.5,79.6l-12.6,12.6c-15,15.8-60.7,62.2-81.1,62.2c-3.2,0-7.1-3.2-11-7.1c-5.5-4.7-15-11-27.6-11
		c-14.2,0-26,11.8-26,26c0,14.2,11.8,26,26,26c2.4,0,4.7,0,6.3-0.8c3.9,5.5,4.7,13.4,7.9,21.3c6.3,14.2,14.2,33.9,47.3,36.2
		c0.8,1.6,0.8,2.4,1.6,3.9c10.2,25.2,23.6,46.5,85.1,46.5c15.8,0,29.1-3.2,37.8-8.7c9.5-5.5,14.2-14.2,14.2-24.4
		c0-19.7-19.7-37.8-41.7-37.8c-19.7,0-33.9-7.9-38.6-20.5C326.1,320.6,353.7,293.8,367.9,271z"/>
	<polygon id="XMLID_10_" class="st3" points="149.7,309.6 149.7,308.8 148.9,308.8 	"/>
	<path id="XMLID_11_" class="st3" d="M170.9,269.4c8.7,9.5,19.7,7.9,22.8,7.1c-4.7-0.8-8.7-4.7-11-7.1c-5.5-4.7-15-11-27.6-11
		c-1.6,0-3.9,0-5.5,0.8C159.1,260.7,167,264.7,170.9,269.4z"/>
	<path id="XMLID_12_" class="st3" d="M367.9,271c25.2-41.7,27.6-103.2,5.5-148.9c-1.6-3.2-4.7-5.5-8.7-5.5c-2.4,0-4.7,0.8-6.3,2.4
		c1.6,0.8,2.4,2.4,3.2,3.9C383.6,169.4,382,230,356,271.8c-14.2,22.8-41,50.4-92.2,54.4c4.7,12.6,18.9,20.5,38.6,20.5
		c22.1,0,41.7,18.1,41.7,37.8c0,9.5-4.7,18.1-14.2,24.4c-7.9,4.7-18.9,7.9-33.1,8.7c2.4,0,4.7,0,7.1,0c15.8,0,29.1-3.2,37.8-8.7
		c9.5-5.5,14.2-14.2,14.2-24.4c0-19.7-19.7-37.8-41.7-37.8c-19.7,0-33.9-7.9-38.6-20.5C326.1,320.6,353.7,293.8,367.9,271z"/>
	<path id="XMLID_13_" class="st5" d="M130,289.1l-22.8,20.5c0,0,25.2-7.1,28.4-7.9C139.4,296.2,134.7,289.1,130,289.1z"/>
	<circle id="XMLID_14_" class="st6" cx="147.3" cy="280.4" r="3.9"/>
</g>
</svg>
