<?xml version="1.0" encoding="utf-8"?>
<!-- Generator: Adobe Illustrator 24.1.1, SVG Export Plug-In . SVG Version: 6.00 Build 0)  -->
<svg version="1.1" id="Layer_1" xmlns="http://www.w3.org/2000/svg" xmlns:xlink="http://www.w3.org/1999/xlink" x="0px" y="0px"
	 viewBox="0 0 512 512" style="enable-background:new 0 0 512 512;" xml:space="preserve">
<style type="text/css">
	.st0{fill:#2D4452;}
	.st1{fill:#233540;}
	.st2{fill:#FFD464;}
	.st3{fill:#F2C95F;}
	.st4{fill:#FFC066;}
	.st5{fill:#F2B661;}
	.st6{fill:#E78244;}
	.st7{fill:#D97A40;}
	.st8{fill:#F5F5F5;}
	.st9{fill:#242424;}
</style>
<g id="XMLID_1_">
	<circle id="XMLID_3_" class="st0" cx="256" cy="256" r="256"/>
	<path id="XMLID_4_" class="st1" d="M493.1,352.1c0-0.8-0.8-1.6-0.8-2.4c0-0.8-0.8-1.6-0.8-2.4c0-0.8-0.8-1.6-0.8-2.4
		c0-0.8-0.8-1.6-0.8-2.4s-0.8-1.6-0.8-2.4s-0.8-1.6-0.8-2.4s-0.8-1.6-0.8-2.4s-0.8-1.6-0.8-2.4c0-0.8-0.8-1.6-0.8-2.4
		c0-0.8-0.8-1.6-0.8-2.4c0-0.8-0.8-1.6-0.8-2.4c0-0.8-0.8-1.6-0.8-2.4c0-0.8-0.8-1.6-0.8-2.4s-0.8-1.6-0.8-2.4s-0.8-1.6-0.8-2.4
		s-0.8-1.6-0.8-2.4s-0.8-1.6-0.8-2.4c0-0.8-0.8-1.6-0.8-2.4c0-0.8-0.8-1.6-0.8-2.4c0-0.8-0.8-1.6-0.8-2.4c0-0.8-0.8-1.6-0.8-2.4
		c0-0.8-0.8-1.6-0.8-2.4c0-0.8-0.8-1.6-0.8-2.4s-0.8-1.6-0.8-2.4s-0.8-1.6-0.8-2.4s-0.8-1.6-0.8-2.4c0-0.8-0.8-1.6-0.8-2.4
		c0-0.8-0.8-1.6-0.8-2.4c0-0.8-0.8-1.6-0.8-2.4c0-0.8-0.8-1.6-0.8-2.4c0-0.8-0.8-1.6-0.8-2.4c0-0.8-0.8-1.6-0.8-2.4
		s-0.8-1.6-0.8-2.4s-0.8-1.6-0.8-2.4s-0.8-1.6-0.8-2.4s-0.8-1.6-0.8-2.4c0-0.8-0.8-1.6-0.8-2.4c0-0.8-0.8-1.6-0.8-2.4
		c0-0.8-0.8-1.6-0.8-2.4c0-0.8-0.8-1.6-0.8-2.4c0-0.8-0.8-1.6-0.8-2.4c0-0.8-0.8-1.6-0.8-2.4c0-0.8-0.8-1.6-0.8-2.4
		c0-0.8-0.8-1.6-0.8-2.4c0-0.8-0.8-1.6-0.8-2.4c0-0.8-0.8-1.6-0.8-2.4c0-0.8-0.8-1.6-0.8-2.4s-0.8-1.6-0.8-2.4
		c0-0.8-0.8-1.6-0.8-2.4c0-0.8-0.8-1.6-0.8-2.4c0-0.8-0.8-1.6-0.8-2.4c0-0.8-0.8-1.6-0.8-2.4s-0.8-1.6-0.8-2.4
		c0-0.8-0.8-1.6-0.8-2.4c0-0.8-0.8-1.6-0.8-2.4c0-0.8-0.8-1.6-0.8-2.4c0-0.8-0.8-1.6-0.8-2.4c0-0.8-0.8-1.6-0.8-2.4
		c0-0.8-0.8-1.6-0.8-2.4c0-0.8-0.8-1.6-0.8-2.4c0-0.8-0.8-1.6-0.8-2.4s-0.8-1.6-0.8-2.4c0-0.8-0.8-1.6-0.8-2.4
		c0-0.8-0.8-1.6-0.8-2.4c0-0.8-0.8-1.6-0.8-2.4c0-0.8-0.8-1.6-0.8-2.4s-0.8-1.6-0.8-2.4c0-0.8-0.8-1.6-0.8-2.4
		c0-0.8-0.8-1.6-0.8-2.4c0-0.8-0.8-1.6-0.8-2.4c0-0.8-0.8-1.6-0.8-2.4c0-0.8-0.8-1.6-0.8-2.4c0-0.8-0.8-1.6-0.8-2.4
		c-1.6-3.9-3.9-7.1-7.1-7.1c-0.8,0-1.6,0-2.4,0c-7.1,1.6-12.6,7.9-21.3,8.7c-1.6,0-3.2,0-4.7-0.8c-0.8,0-1.6-0.8-2.4-0.8l0,0
		c-2.4-1.6-4.7-3.2-6.3-4.7l0,0c-0.8-1.6-2.4-2.4-3.2-3.9l0,0c-0.8-0.8-0.8-1.6-1.6-2.4l-15.8-7.1l0,0c0-0.8-0.8-1.6-0.8-2.4
		c0-0.8-0.8-1.6-0.8-2.4c-7.9-22.8-30.7-38.6-58.3-38.6c-33.9,0-61.4,25.2-61.4,57.5c0,7.1,1.6,14.2,3.9,20.5c0,0.8,0.8,1.6,0.8,2.4
		c0,0.8,0.8,1.6,0.8,2.4c0,0.8,0.8,1.6,0.8,2.4s0.8,1.6,0.8,2.4c0,0.8,0.8,1.6,0.8,2.4c0,0.8,0.8,1.6,0.8,2.4c0,0.8,0.8,1.6,0.8,2.4
		c0,0.8,0.8,1.6,0.8,2.4s0.8,1.6,0.8,2.4c0,0.8,0.8,1.6,0.8,2.4c0,0.8,0.8,1.6,0.8,2.4c0,0.8,0.8,1.6,0.8,2.4s0.8,1.6,0.8,2.4
		c0,0.8,0.8,1.6,0.8,2.4c0,0.8,0.8,1.6,0.8,2.4c0,0.8,0.8,1.6,0.8,2.4c0,0.8,0.8,1.6,0.8,2.4s0.8,1.6,0.8,2.4c0,0.8,0.8,1.6,0.8,2.4
		c0,0.8,0.8,0.8,0.8,1.6c0,12.6-6.3,20.5-11,25.2c-2.4,2.4-4.7,3.2-7.9,3.2l0,0H99.2c-5.5,0-9.5,3.2-9.5,7.9c0,5.5,0.8,11,3.2,15.8
		c0,0.8,0.8,1.6,0.8,2.4c0,0.8,0.8,1.6,0.8,2.4c0,0.8,0.8,1.6,0.8,2.4c0,0.8,0.8,1.6,0.8,2.4s0.8,1.6,0.8,2.4
		c0,6.3,1.6,14.2,1.6,18.9c0,5.5,1.6,11.8,3.9,18.1c0,0.8,0.8,1.6,0.8,2.4s0.8,1.6,0.8,2.4s0.8,1.6,0.8,2.4c0,0.8,0.8,1.6,0.8,2.4
		c0,0.8,0.8,1.6,0.8,2.4c0,0.8,0.8,1.6,0.8,2.4c0,0.8,0.8,1.6,0.8,2.4c0,0.8,0.8,1.6,0.8,2.4c0,0.8,0.8,1.6,0.8,2.4s0.8,1.6,0.8,2.4
		s0.8,1.6,0.8,2.4s0.8,1.6,0.8,2.4c0,0.8,0.8,1.6,0.8,2.4c0,0.8,0.8,1.6,0.8,2.4c0,0.8,0.8,1.6,0.8,2.4c0,0.8,0.8,1.6,0.8,2.4
		c0,0.8,0.8,1.6,0.8,2.4c0,0.8,0.8,1.6,0.8,2.4c0,0.8,0.8,1.6,0.8,2.4c0,0.8,0.8,1.6,0.8,2.4c0,0.8,0.8,1.6,0.8,2.4
		c0,0.8,0.8,1.6,0.8,2.4c0,0.8,0.8,1.6,0.8,2.4c0,0.8,0.8,1.6,0.8,2.4c0,0.8,0.8,1.6,0.8,2.4c0,0.8,0.8,1.6,0.8,2.4
		c0,0.8,0.8,1.6,0.8,2.4c0,0.8,0.8,1.6,0.8,2.4c0,0.8,0.8,1.6,0.8,2.4c0,0.8,0.8,1.6,0.8,2.4c0,0.8,0.8,1.6,0.8,2.4
		c0,0.8,0.8,1.6,0.8,2.4c0,0.8,0.8,1.6,0.8,2.4c0,0.8,0.8,1.6,0.8,2.4c0,0.8,0.8,1.6,0.8,2.4c0,0.8,0.8,1.6,0.8,2.4
		c0,0.8,0.8,1.6,0.8,2.4c0,0.8,0.8,1.6,0.8,2.4c0,0.8,0.8,1.6,0.8,2.4c0,0.8,0.8,1.6,0.8,2.4c0,0.8,0.8,1.6,0.8,2.4
		c0,0.8,0.8,1.6,0.8,2.4c0,0.8,0.8,1.6,0.8,2.4c0,0.8,0.8,1.6,0.8,2.4c0,0.8,0.8,1.6,0.8,2.4c0,0.8,0.8,1.6,0.8,2.4
		c0,0.8,0.8,1.6,0.8,2.4c0,0.8,0.8,1.6,0.8,2.4c0,0.8,0.8,1.6,0.8,2.4c0,0.8,0.8,1.6,0.8,2.4c0,0.8,0.8,1.6,0.8,2.4
		c0,0.8,0.8,1.6,0.8,2.4c0,0.8,0.8,1.6,0.8,2.4c0,0.8,0.8,1.6,0.8,2.4c0,0.8,0.8,1.6,0.8,2.4c0,0.8,0.8,1.6,0.8,2.4
		c0,0.8,0.8,1.6,0.8,2.4c0,0.8,0.8,1.6,0.8,2.4c0,0.8,0.8,1.6,0.8,2.4c0,0.8,0.8,1.6,0.8,2.4c0,0.8,0.8,1.6,0.8,2.4
		c28.4,11,59.9,17.3,92.2,17.3C363.1,512,455.3,445.8,493.1,352.1z"/>
	<path id="XMLID_5_" class="st2" d="M341.9,219l-18.9,2.4c0,0-28.4-8.7-29.1-26.8c0-1.6,0-3.2,0-3.9h-19.7c0,0.8-19.7,5.5-18.1,7.1
		c29.1,39.4,15.8,59.9,7.1,69.3c-2.4,2.4-4.7,3.2-7.9,3.2v16.5H109.5c-17.3,0-9.5,25.2-9.5,38.6c0,25.2,24.4,67.7,116.6,67.7
		c82.7,0,135.5-26.8,135.5-67.7C352.1,297.7,342.6,222.1,341.9,219z"/>
	<path id="XMLID_6_" class="st3" d="M341.9,219l-18.1,2.4c2.4,22.8,8.7,73.3,8.7,96.1c0,41-53.6,67.7-135.5,67.7
		c-28.4,0-50.4-3.9-67-10.2c18.1,11.8,45.7,20.5,86.6,20.5c82.7,0,135.5-26.8,135.5-67.7C352.1,297.7,342.6,222.1,341.9,219z"/>
	<path id="XMLID_7_" class="st4" d="M187.5,334.8c-57.5,0-97.7-21.3-97.7-54.4c0-5.5,4.7-7.9,9.5-7.9h174.9c5.5,0,9.5,3.2,9.5,7.9
		C283.6,313.5,245,334.8,187.5,334.8z"/>
	<path id="XMLID_8_" class="st5" d="M274.1,271.8h-11.8c5.5,0,9.5,3.2,9.5,7.9c0,32.3-36.2,53.6-91.4,54.4c2.4,0,4.7,0,7.1,0
		c57.5,0,96.1-21.3,96.1-54.4C283.6,274.9,279.6,271.8,274.1,271.8z"/>
	<ellipse id="XMLID_9_" class="st2" cx="311.1" cy="174.1" rx="61.4" ry="57.5"/>
	<path id="XMLID_10_" class="st3" d="M311.1,117.4c-2.4,0-3.9,0-6.3,0c30.7,3.2,55.1,27.6,55.1,56.7s-24.4,54.4-55.1,56.7
		c2.4,0,3.9,0,6.3,0c33.9,0,61.4-25.2,61.4-57.5S345,117.4,311.1,117.4z"/>
	<path id="XMLID_11_" class="st6" d="M370.2,159.9c-0.8,15-29.1,29.1-7.1,44.1c3.9,1.6,17.3,5.5,29.1,3.9
		c20.5-2.4,29.9-14.2,29.9-27.6c0-7.9-3.2-14.2-7.9-14.2c-8.7,0-14.2,8.7-23.6,8.7C379.7,175.7,374.2,165.4,370.2,159.9z"/>
	<path id="XMLID_12_" class="st7" d="M382,174.9c0.8,0,2.4,0,3.2-0.8c-7.1-2.4-11.8-9.5-15-14.2c0,2.4-0.8,4.7-2.4,7.9
		C371.8,171.7,375.7,174.9,382,174.9z"/>
	<path id="XMLID_13_" class="st7" d="M413.5,165.4c-1.6,0-3.2,0.8-4.7,0.8c3.2,2.4,5.5,7.1,5.5,13.4c0,13.4-9.5,25.2-29.9,27.6
		c-0.8,0-0.8,0-1.6,0c3.2,0,6.3,0,9.5,0c20.5-2.4,29.9-14.2,29.9-27.6C422.2,172.5,419.1,165.4,413.5,165.4z"/>
	<circle id="XMLID_14_" class="st8" cx="321.4" cy="162.3" r="11.8"/>
	<circle id="XMLID_15_" class="st9" cx="321.4" cy="162.3" r="7.9"/>
</g>
</svg>
