<?xml version="1.0" encoding="utf-8"?>
<!-- Generator: Adobe Illustrator 24.1.1, SVG Export Plug-In . SVG Version: 6.00 Build 0)  -->
<svg version="1.1" id="Layer_1" xmlns="http://www.w3.org/2000/svg" xmlns:xlink="http://www.w3.org/1999/xlink" x="0px" y="0px"
	 viewBox="0 0 512 512" style="enable-background:new 0 0 512 512;" xml:space="preserve">
<style type="text/css">
	.st0{fill:#2D4452;}
	.st1{fill:#233540;}
	.st2{fill:#B3B3B3;}
	.st3{fill:#A6A6A6;}
	.st4{fill:#F5F5F5;}
	.st5{fill:#242424;}
</style>
<g id="XMLID_1_">
	<circle id="XMLID_4_" class="st0" cx="256" cy="256" r="256"/>
	<path id="XMLID_5_" class="st1" d="M459.2,412L459.2,412v-1.6l-1.6-1.6v-1.6l-1.6-1.6v-0.8l-1.6-1.6v-0.8l-1.6-1.6v-1.6l-1.6-1.6
		v-1.6l-1.6-1.6v-1.6l-1.6-1.6v-1.6l-0.8,0v-1.6l-1.6-1.6v-1.6l-0.8-0.8v-0.8l-1.6-1.6v-1.6l-1.6-1.6v-1.6l4.7,2.4v-1.6l-1.6-1.6
		v-1.6l-1.6-0.8v-1.6l-1.6-1.6v-1.6l-1.6-1.6v-1.6l-1.6-1.6v-0.8l-1.6-0.8v-1.6l1.6,0.8v-1.6l-1.6-1.6v-1.6l-1.6-1.6v-1.6l-1.6-1.6
		v-1.6l-0.8-0.8v-1.6l-1.6-1.6v-1.6l-1.6-1.6v-0.8l-1.6-0.8v-1.6l3.2,1.6v-0.8l-1.6-1.6v-1.6l-1.6-1.6v-1.6l-0.8-1.6v-1.6l-0.8-1.6
		v-1.6l-0.8-1.6v-0.8l-0.8-1.6v-0.8l-1.6,0.8v-1.6l-0.8-1.6v-1.6l-0.8-1.6v-1.6l-0.8-1.6v-1.6l-1.6-1.6v-1.6c0-0.8-1.6-1.6-2.4-1.6
		h-1.6c0-0.8-0.8-1.6-0.8-2.4c0-0.8-0.8-1.6-0.8-2.4c0-0.8-0.8-1.6-0.8-2.4c0-0.8-0.8-1.6-0.8-2.4c0-0.8-0.8-1.6-0.8-2.4
		s-0.8-1.6-0.8-2.4s-0.8-1.6-0.8-2.4s-0.8-1.6-0.8-2.4s-0.8-1.6-0.8-2.4c0-0.8-0.8-1.6-0.8-2.4c0-0.8-0.8-1.6-0.8-3.2
		c0-0.8-0.8-1.6-0.8-2.4c0-0.8-0.8-1.6-0.8-2.4c0-0.8-0.8-1.6-0.8-2.4c0-0.8-0.8-1.6-0.8-2.4c0-0.8-0.8-1.6-0.8-2.4
		c0-0.8-0.8-1.6-0.8-2.4c0-0.8-0.8-1.6-0.8-2.4s-0.8-1.6-0.8-2.4s-0.8-1.6-0.8-2.4s-0.8-1.6-0.8-2.4c0-0.8-0.8-1.6-0.8-2.4
		c0-0.8-0.8-1.6-0.8-2.4c0-0.8-0.8-1.6-0.8-3.2c0-0.8-0.8-1.6-0.8-2.4c0-0.8-0.8-1.6-0.8-2.4c0-0.8-0.8-1.6-0.8-2.4
		c0-0.8-0.8-1.6-0.8-2.4c0-0.8-0.8-1.6-0.8-2.4c0-0.8-0.8-1.6-0.8-2.4c0-0.8-0.8-1.6-0.8-2.4s-0.8-1.6-0.8-2.4
		c0-0.8-0.8-1.6-0.8-2.4c0-0.8-0.8-1.6-0.8-2.4c0-0.8-0.8-1.6-0.8-2.4c0-0.8-0.8-1.6-0.8-2.4s-0.8-1.6-0.8-2.4
		c0-0.8-0.8-1.6-0.8-2.4c0-0.8-0.8-1.6-0.8-2.4c0-0.8-0.8-1.6-0.8-2.4c0-0.8-0.8-1.6-0.8-2.4c0-0.8-0.8-1.6-0.8-2.4
		c0-0.8-0.8-1.6-0.8-2.4c-21.3-52.8-51.2-91.4-87.4-107.1c-1.6-0.8-3.9-0.8-4.7-1.6h-1.6c-10.2-2.4-20.5-1.6-30.7,2.4
		c-55.9,0-104,52-130,135.5c-5.5,0.8-12.6,3.2-17.3,6.3c-5.5,4.7-9.5,11.8-9.5,18.1c0,3.9,0.8,7.1,0.8,10.2c0.8,3.2,0.8,5.5,1.6,8.7
		c0.8,5.5,1.6,12.6-0.8,16.5c-0.8,0.8,0,2.4,0.8,3.2c0,0.8,0,2.4,0.8,2.4c0,0.8,0,2.4,0.8,2.4c0,0.8,0,2.4,0.8,2.4
		c0,0.8,0,2.4,0.8,2.4c0,0.8,0,2.4,0.8,2.4c0,0.8,0,2.4,0.8,2.4c0,0.8,0,2.4,0.8,2.4v0.8c-3.9,26-5.5,55.1-5.5,84.3
		c0,1.6,0.8,3.9,1.6,4.7c0,0.8,0.8,1.6,0.8,2.4c0,0.8,0.8,1.6,0.8,2.4c0,0.8,0.8,1.6,0.8,2.4s0.8,1.6,0.8,2.4c0,0.8,0.8,1.6,0.8,2.4
		c0,0.8,0.8,1.6,0.8,2.4c0,0.8,0.8,1.6,0.8,2.4c0,0.8,0.8,1.6,0.8,2.4c0,0.8,0.8,1.6,0.8,2.4c0,0.8,0.8,1.6,0.8,2.4
		c0,0.8,0.8,1.6,0.8,2.4c0,0.8,0.8,1.6,0.8,2.4c0,0.8,0.8,1.6,0.8,2.4c0,0.8,0.8,1.6,0.8,2.4s0.8,1.6,0.8,2.4c0,0.8,0.8,1.6,0.8,2.4
		c0,0.8,0.8,1.6,0.8,2.4s0.8,1.6,0.8,2.4c0,0.8,0.8,1.6,0.8,2.4c0,0.8,0.8,1.6,0.8,2.4c0,0.8,0.8,1.6,0.8,2.4c0,0.8,0.8,1.6,0.8,2.4
		c0,0.8,0.8,1.6,0.8,2.4c0,0.8,0.8,1.6,0.8,2.4c0,0.8,0.8,1.6,0.8,2.4s0.8,1.6,0.8,2.4c0,0.8,0.8,1.6,0.8,2.4v0.8
		c38.6,23.6,84.3,36.2,132.3,36.2C338.7,512,412.8,472.6,459.2,412z"/>
	<path id="XMLID_6_" class="st2" d="M332.4,141.8c-25.2-25.2-53.6-40.2-83.5-40.2c-55.9,0-104,52-130,135.5
		c-5.5,0.8-12.6,3.2-17.3,6.3c-5.5,4.7-9.5,11.8-9.5,18.1c0,3.9,0.8,7.1,0.8,10.2c0.8,3.2,0.8,5.5,1.6,8.7
		c0.8,5.5,1.6,12.6-0.8,16.5c-0.8,0.8,0,2.4,0.8,3.2c0.8,0.8,2.4,0,3.2-0.8c2.4-3.2,2.4-6.3,3.2-9.5c0-3.2,0-6.3,0-9.5
		s-0.8-6.3-0.8-9.5c-0.8-3.2-0.8-5.5,0-8.7c0.8-4.7,3.9-10.2,7.1-13.4c3.2-2.4,6.3-3.2,10.2-3.9c-13.4,45.7-21.3,98.5-21.3,158.3
		c0,5.5,4.7,10.2,10.2,10.2H156h5.5c1.6-24.4,18.9-43.3,41-43.3s39.4,18.9,41,43.3h16.5h40.2c5.5,0,10.2-4.7,10.2-10.2
		c0-74,8.7-103.2,22.1-123.7L332.4,141.8z"/>
	<path id="XMLID_7_" class="st3" d="M189,371c-22.1,0-39.4,18.9-41,43.3h7.1h6.3c1.6-21.3,15-38.6,33.9-42.5
		C193.8,371,191.4,371,189,371z"/>
	<path id="XMLID_8_" class="st3" d="M332.4,141.8c-25.2-25.2-53.6-40.2-83.5-40.2c-2.4,0-4.7,0-7.1,0c27.6,2.4,53.6,15.8,76.4,39.4
		l0.8,138.6c-12.6,20.5-22.1,48.8-22.1,123.7c0,5.5-4.7,10.2-10.2,10.2h15c5.5,0,10.2-4.7,10.2-10.2c0-74,8.7-103.2,22.1-123.7
		L332.4,141.8z"/>
	<path id="XMLID_9_" class="st3" d="M278.8,108.7c-22.8-5.5-47.3-3.9-67,27.6c-15.8,26-33.9,103.2-4.7,138.6
		c23.6,28.4,65.4,32.3,118.2,12.6c0.8,0.8,1.6,2.4,2.4,3.2c2.4-3.9,3.9-7.1,5.5-11l-1.6-126C316.7,133.1,298.5,118.2,278.8,108.7z"
		/>
	<path id="XMLID_10_" class="st2" d="M382,413.5h15c5.5,0,10.2-4.7,10.2-10.2c0-0.8,0-1.6,0-2.4C406.4,254.4,360,131.5,286.7,100
		c-22.8-5.5-47.3-3.9-67,27.6c-15.8,26-33.9,103.2-4.7,137.8c23.6,28.4,65.4,32.3,118.2,12.6c15.8,19.7,37.8,53.6,37.8,123.7
		C371.8,408.8,375.7,413.5,382,413.5z"/>
	<path id="XMLID_11_" class="st3" d="M407.2,401.7c-0.8-146.5-47.3-269.4-120.5-300.9c-7.9-2.4-15.8-3.9-25.2-2.4
		c4.7,0.8,8.7,1.6,12.6,2.4c73.3,30.7,119.7,153.6,120.5,300.9c0,0.8,0,1.6,0,2.4c0,5.5-4.7,10.2-10.2,10.2h11.8
		c5.5,0,10.2-4.7,10.2-10.2C407.2,403.3,407.2,402.5,407.2,401.7z"/>
	<circle id="XMLID_12_" class="st4" cx="291.4" cy="187.5" r="7.9"/>
	<circle id="XMLID_13_" class="st5" cx="291.4" cy="187.5" r="3.9"/>
	<path id="XMLID_14_" class="st4" d="M307.2,265.5c3.2,8.7,10.2,16.5,18.1,23.6c7.9,6.3,17.3,11.8,27.6,15.8
		c10.2,4.7,20.5,7.1,31.5,8.7c11,1.6,22.1,1.6,33.1-0.8c0.8,0,2.4,0.8,2.4,1.6c0,0.8-0.8,2.4-1.6,2.4c-11,3.9-22.8,4.7-34.7,3.9
		c-11.8-0.8-23.6-3.2-34.7-5.5c-11-3.9-22.1-7.9-32.3-15c-4.7-3.9-10.2-7.1-14.2-11.8c-4.7-4.7-7.9-10.2-11-15.8v-0.8
		c-2.4-4.7,0-8.7,3.9-11C300.9,259.2,304.8,260.7,307.2,265.5z"/>
</g>
</svg>
