<?xml version="1.0" encoding="utf-8"?>
<!-- Generator: Adobe Illustrator 24.1.1, SVG Export Plug-In . SVG Version: 6.00 Build 0)  -->
<svg version="1.1" id="Layer_1" xmlns="http://www.w3.org/2000/svg" xmlns:xlink="http://www.w3.org/1999/xlink" x="0px" y="0px"
	 viewBox="0 0 512 512" style="enable-background:new 0 0 512 512;" xml:space="preserve">
<style type="text/css">
	.st0{fill:#C2D5D8;}
	.st1{fill:#B7C9CC;}
	.st2{fill:#E6E6E6;}
	.st3{fill:#CCCCCC;}
	.st4{fill:#F5F5F5;}
	.st5{fill:#242424;}
	.st6{fill:#CC803D;}
	.st7{fill:#B37035;}
	.st8{fill:#B36624;}
</style>
<g id="XMLID_1_">
	<circle id="XMLID_3_" class="st0" cx="256" cy="256" r="256"/>
	<path id="XMLID_4_" class="st1" d="M499.4,335.6c0,0,0-0.8-0.8-0.8c0-0.8-0.8-1.6-0.8-2.4s-0.8-1.6-0.8-2.4s-0.8-1.6-0.8-2.4
		s-0.8-1.6-0.8-2.4c0-0.8-0.8-1.6-0.8-2.4c0-0.8-0.8-1.6-0.8-2.4c0-0.8-0.8-1.6-0.8-2.4c0-0.8-0.8-1.6-0.8-2.4
		c0-0.8-0.8-1.6-0.8-2.4s-0.8-1.6-0.8-2.4s-0.8-1.6-0.8-2.4s-0.8-1.6-0.8-2.4s-0.8-1.6-0.8-2.4c0-0.8-0.8-1.6-0.8-2.4
		c0-0.8-0.8-1.6-0.8-2.4c0-0.8-0.8-1.6-0.8-2.4c0-0.8-0.8-1.6-0.8-2.4c0-0.8-0.8-1.6-0.8-2.4c0-0.8-0.8-1.6-0.8-2.4
		s-0.8-1.6-0.8-2.4s-0.8-1.6-0.8-2.4s-0.8-1.6-0.8-2.4c0-0.8-0.8-1.6-0.8-2.4c0-0.8-0.8-1.6-0.8-2.4c0-0.8-0.8-1.6-0.8-2.4
		c0-0.8-0.8-1.6-0.8-2.4c0-0.8-0.8-1.6-0.8-2.4c0-0.8-0.8-1.6-0.8-2.4s-0.8-1.6-0.8-2.4s-0.8-1.6-0.8-2.4s-0.8-1.6-0.8-2.4
		s-0.8-1.6-0.8-2.4c0-0.8-0.8-1.6-0.8-2.4c0-0.8-0.8-1.6-0.8-2.4s-0.8-1.6-0.8-2.4c0-0.8-0.8-1.6-0.8-2.4c0-0.8-0.8-1.6-0.8-2.4
		c0-0.8-0.8-1.6-0.8-2.4c0-0.8-0.8-1.6-0.8-2.4c0-0.8-0.8-1.6-0.8-2.4c0-0.8-0.8-1.6-0.8-2.4c0-0.8-0.8-1.6-0.8-2.4
		c0-0.8-0.8-1.6-0.8-2.4s-0.8-1.6-0.8-2.4c0-0.8-0.8-1.6-0.8-2.4c0-0.8-0.8-1.6-0.8-2.4c0-0.8-0.8-1.6-0.8-2.4
		c0-0.8-0.8-1.6-0.8-2.4s-0.8-1.6-0.8-2.4c0-0.8-0.8-1.6-0.8-2.4c0-0.8-0.8-1.6-0.8-2.4c0-0.8-0.8-1.6-0.8-2.4
		c0-0.8-0.8-1.6-0.8-2.4c0-0.8-0.8-1.6-0.8-2.4c0-0.8-0.8-1.6-0.8-2.4c0-0.8-0.8-1.6-0.8-2.4c0-0.8-0.8-1.6-0.8-2.4
		s-0.8-1.6-0.8-2.4c0-0.8-0.8-1.6-0.8-2.4c0-0.8-0.8-1.6-0.8-2.4c0-0.8-0.8-1.6-0.8-2.4c0-0.8-0.8-1.6-0.8-2.4s-0.8-1.6-0.8-2.4
		c0-0.8-0.8-1.6-0.8-2.4c0-0.8-0.8-1.6-0.8-2.4c0-0.8-0.8-1.6-0.8-2.4c0-0.8-0.8-1.6-0.8-2.4c0-0.8-0.8-1.6-0.8-2.4
		c0-0.8-0.8-1.6-0.8-2.4c0-0.8-0.8-1.6-0.8-2.4c0-0.8-0.8-1.6-0.8-2.4s-0.8-1.6-0.8-2.4c0-0.8-0.8-1.6-0.8-2.4
		c0-0.8-0.8-1.6-0.8-2.4c0-0.8-0.8-1.6-0.8-2.4c0-0.8-0.8-1.6-0.8-2.4s-0.8-1.6-0.8-2.4c0-0.8-0.8-1.6-0.8-2.4
		c0-0.8-0.8-1.6-0.8-2.4c0-0.8-0.8-1.6-0.8-2.4s-0.8-1.6-0.8-2.4c0-0.8-0.8-1.6-0.8-2.4c0-0.8-0.8-1.6-0.8-2.4
		c0-0.8-0.8-1.6-0.8-2.4c0-0.8-0.8-1.6-0.8-2.4s-0.8-1.6-0.8-2.4c0-0.8-0.8-1.6-0.8-2.4c0-0.8-0.8-1.6-0.8-2.4
		c0-0.8-0.8-1.6-0.8-2.4c0-0.8-0.8-1.6-0.8-2.4c0-0.8-0.8-1.6-0.8-2.4c0-0.8-0.8-1.6-0.8-2.4c0-0.8-0.8-1.6-0.8-2.4
		c0-0.8-0.8-1.6-0.8-2.4c-0.8-1.6-1.6-3.2-2.4-4.7c-1.6-1.6-4.7-3.2-7.1-3.2c-1.6,0-3.2,0-4.7,0s-3.2,0-3.9,0l0,0
		c-29.9,3.2-74,21.3-102.4,47.3c-1.6-0.8-3.9-2.4-5.5-3.2l-0.8-0.8c-0.8,0-0.8-0.8-1.6-0.8c-0.8,0-1.6-0.8-2.4-0.8l0,0
		c-4.7-1.6-9.5-2.4-14.2-2.4c-1.6,0-2.4,0-3.2,0c-2.4,0-3.9,0-6.3,0l0,0c-8.7,0.8-15.8,3.9-22.8,7.1c-6.3-5.5-12.6-11-20.5-15.8
		c-29.9-20.5-65.4-32.3-91.4-32.3c-0.8,0-0.8,0-1.6,0c-0.8,0-0.8,0-1.6,0l0,0c-1.6,0.8-3.2,1.6-3.9,2.4c-21.3-4.7-22.1-2.4-22.1,0.8
		c0.8,23.6,11.8,52,21.3,77.2c3.2,8.7,6.3,16.5,8.7,24.4v55.9v11.8c0,1.6,0,3.9,0,5.5c0,0.8,0,0.8,0,1.6c0,1.6,0,2.4,0.8,3.9
		c0,0.8,0,0.8,0,1.6c0,1.6,0.8,3.2,0.8,4.7v0.8c0.8,1.6,0.8,3.2,1.6,4.7c0,0.8,0.8,1.6,0.8,1.6c0,0.8,0.8,2.4,1.6,3.2
		c0,0,0,0.8,0.8,0.8c0,0.8,0,0.8,0.8,1.6c0,0,0,0.8,0.8,0.8c0,0.8,0,0.8,0.8,1.6c0,0,0,0.8,0.8,0.8c0,0.8,0,0.8,0.8,1.6
		c0,0,0,0.8,0.8,0.8c0,0.8,0,0.8,0.8,1.6c0,0,0,0.8,0.8,0.8c0,0.8,0,0.8,0.8,1.6c0,0,0,0.8,0.8,0.8c0,0.8,0,0.8,0.8,1.6
		c0,0,0,0.8,0.8,0.8c0,0.8,0,0.8,0.8,1.6c0,0,0,0.8,0.8,0.8c0,0.8,0,0.8,0.8,1.6c0,0,0,0.8,0.8,0.8c0,0.8,0,0.8,0.8,1.6
		c0,0,0,0.8,0.8,0.8c0,0.8,0,0.8,0.8,1.6c0,0,0,0.8,0.8,0.8c0,0.8,0,0.8,0.8,1.6c0,0.8,0,0.8,0.8,1.6c0,0.8,0,0.8,0.8,1.6
		c0,0,0,0.8,0.8,0.8c0,0.8,0,0.8,0.8,1.6c0,0,0,0.8,0.8,0.8c0,0.8,0,0.8,0.8,1.6c0,0,0,0.8,0.8,0.8c0,0.8,0,0.8,0.8,1.6
		c0,0,0,0.8,0.8,0.8c0,0.8,0,0.8,0.8,1.6c0,0,0,0.8,0.8,0.8c0,0.8,0,0.8,0.8,1.6c0,0,0,0.8,0.8,0.8c0,0.8,0,0.8,0.8,1.6
		c0,0,0,0.8,0.8,0.8c0,0.8,0,0.8,0.8,1.6c0,0,0,0.8,0.8,0.8c0,0.8,0,0.8,0.8,1.6c0,0,0,0.8,0.8,0.8c0,0.8,0,0.8,0.8,1.6
		c0,0,0,0.8,0.8,0.8c0,0.8,0,0.8,0.8,1.6c0,0,0,0.8,0.8,0.8c0,0.8,0,0.8,0.8,1.6c0,0,0,0.8,0.8,0.8c0,0.8,0,0.8,0.8,1.6
		c0,0,0,0.8,0.8,0.8c0,0.8,0,0.8,0.8,1.6c0,0,0,0.8,0.8,0.8c0,0.8,0,0.8,0.8,1.6c0,0,0,0.8,0.8,0.8c0,0.8,0,0.8,0.8,1.6
		c0,0,0,0.8,0.8,0.8c0,0.8,0,0.8,0.8,1.6c0,0,0,0.8,0.8,0.8c0,0.8,0,0.8,0.8,1.6c0,0,0,0.8,0.8,0.8c0,0.8,0,0.8,0.8,1.6
		c0,0,0,0.8,0.8,0.8c0,0.8,0,0.8,0.8,1.6c0,0,0,0.8,0.8,0.8c0,0.8,0,0.8,0.8,1.6c0,0,0,0.8,0.8,0.8c0,0.8,0,0.8,0.8,1.6
		c0,0,0,0.8,0.8,0.8c0,0.8,0,0.8,0.8,1.6c0,0,0,0.8,0.8,0.8c0,0.8,0,0.8,0.8,1.6c0,0,0,0.8,0.8,0.8c0,0.8,0,0.8,0.8,1.6
		c0,0.8,0,0.8,0.8,1.6c0,0.8,0,0.8,0.8,1.6c0,0.8,0,0.8,0.8,0.8c0,0.8,0,0.8,0.8,1.6c0,0,0,0.8,0.8,0.8c0,0.8,0,0.8,0.8,1.6
		c0,0,0,0.8,0.8,0.8c0,0.8,0,0.8,0.8,1.6c0,0,0,0.8,0.8,0.8c0,0.8,0,0.8,0.8,1.6c0,0,0,0.8,0.8,0.8c0,0.8,0,0.8,0.8,1.6
		c0,0,0,0.8,0.8,0.8c0,0.8,0,0.8,0.8,1.6c0,0,0,0.8,0.8,0.8c0,0.8,0,0.8,0.8,1.6c0,0,0,0.8,0.8,0.8c0,0.8,0,0.8,0.8,1.6
		c0,0,0,0.8,0.8,0.8c0,0.8,0,0.8,0.8,1.6c0,0,0,0.8,0.8,0.8c0,0.8,0,0.8,0.8,1.6c0,0,0,0.8,0.8,0.8c0,0.8,0,0.8,0.8,1.6
		c0,0,0,0.8,0.8,0.8c0,0.8,0,0.8,0.8,1.6c0,0,0,0.8,0.8,0.8c0,0.8,0,0.8,0.8,1.6c0,0,0,0.8,0.8,0.8c0,0.8,0,0.8,0.8,1.6
		c0,0,0,0.8,0.8,0.8c0,0.8,0,0.8,0.8,1.6c0,0,0,0.8,0.8,0.8c0,0.8,0,0.8,0.8,1.6c0,0,0,0.8,0.8,0.8c0,0.8,0,0.8,0.8,1.6
		c0,0,0,0.8,0.8,0.8c0,0.8,0,0.8,0.8,1.6c0,0,0,0.8,0.8,0.8c0,0.8,0,0.8,0.8,1.6c0,0,0,0.8,0.8,0.8c0,0.8,0,0.8,0.8,1.6
		c0,0,0,0.8,0.8,0.8c0,0.8,0,0.8,0.8,1.6c0,0,0,0.8,0.8,0.8c0,0.8,0,0.8,0.8,1.6c0,0,0,0.8,0.8,0.8c0,0.8,0,0.8,0.8,1.6
		c0,0,0,0.8,0.8,0.8c0,0.8,0,0.8,0.8,1.6c0,0.8,0,0.8,0.8,1.6c0,0.8,0,0.8,0.8,1.6c0,0,0,0.8,0.8,0.8c0,0.8,0,0.8,0.8,1.6
		c0,0,0,0.8,0.8,0.8c0,0.8,0,0.8,0.8,1.6c0,0,0,0.8,0.8,0.8c0,0.8,0,0.8,0.8,1.6c0,0,0,0.8,0.8,0.8c0,0.8,0,0.8,0.8,1.6
		c0,0,0,0.8,0.8,0.8c0,0.8,0,0.8,0.8,1.6c0,0,0,0.8,0.8,0.8c0,0.8,0,0.8,0.8,1.6c0,0,0,0.8,0.8,0.8c0,0.8,0,0.8,0.8,1.6
		c0,0,0,0.8,0.8,0.8c0,0.8,0,0.8,0.8,1.6c0,0,0,0.8,0.8,0.8c0,0.8,0,0.8,0.8,1.6c0,0,0,0.8,0.8,0.8c0,0.8,0,0.8,0.8,1.6
		c0,0,0,0.8,0.8,0.8c0,0.8,0,0.8,0.8,1.6c0,0,0,0.8,0.8,0.8c0,0.8,0,0.8,0.8,1.6c0,0,0,0.8,0.8,0.8c0,0.8,0,0.8,0.8,1.6
		c0,0,0,0.8,0.8,0.8c0,0.8,0,0.8,0.8,1.6c0,0,0,0.8,0.8,0.8c0,0.8,0,0.8,0.8,1.6c0,0,0,0.8,0.8,0.8c0,0.8,0,0.8,0.8,1.6
		c0,0,0,0.8,0.8,0.8c0,0.8,0,0.8,0.8,1.6c0,0,0,0.8,0.8,0.8c0,0.8,0,0.8,0.8,1.6c0,0,0,0.8,0.8,0.8c0,0.8,0,0.8,0.8,1.6
		c0,0,0,0.8,0.8,0.8c0,0.8,0,0.8,0.8,1.6c0,0,0,0.8,0.8,0.8c0,0.8,0,0.8,0.8,1.6c0,0,0,0.8,0.8,0.8v0.8c10.2,1.6,20.5,1.6,30.7,1.6
		C369.4,512,465.5,438,499.4,335.6z"/>
	<path id="XMLID_5_" class="st2" d="M386,276.5c-5.5-14.2-10.2-33.9-10.2-68.5H256H136.3c0,34.7-4.7,54.4-10.2,68.5
		c-5.5,14.2,11,26.8,22.8,35.4c45.7,35.4,49.6,72.5,107.1,72.5s61.4-37,107.1-72.5C374.9,302.5,391.5,290.7,386,276.5z"/>
	<path id="XMLID_6_" class="st3" d="M386,276.5c-5.5-14.2-10.2-33.9-10.2-68.5h-11.8c0,34.7,4.7,54.4,10.2,68.5
		c5.5,14.2-11,26.8-22.8,35.4c-44.1,33.9-49.6,69.3-100.8,71.7c1.6,0,3.9,0,6.3,0c57.5,0,61.4-37,107.1-72.5
		C374.9,302.5,391.5,290.7,386,276.5z"/>
	<circle id="XMLID_7_" class="st4" cx="299.3" cy="256.8" r="19.7"/>
	<circle id="XMLID_8_" class="st5" cx="299.3" cy="256.8" r="11.8"/>
	<circle id="XMLID_9_" class="st4" cx="211.1" cy="256.8" r="19.7"/>
	<circle id="XMLID_10_" class="st5" cx="211.1" cy="256.8" r="11.8"/>
	<path id="XMLID_11_" class="st6" d="M403.3,99.2c-1.6-1.6-4.7-3.2-7.1-3.2c-29.9,0-79.6,18.9-111.1,48c-7.9-4.7-18.1-7.9-28.4-7.9
		c-10.2,0-20.5,3.2-28.4,7.9c-31.5-28.4-81.9-48-111.1-48c-2.4,0-5.5,0.8-7.1,3.2c-3.2,1.6-3.9,3.9-3.9,7.1
		c0.8,23.6,11.8,52,21.3,77.2c3.2,8.7,6.3,28.4,8.7,36.2c106.3-2.4,100,95.3,100,126h40.2c0-31.5-6.3-128.4,100-126V208
		c2.4-7.9,5.5-15.8,8.7-24.4c9.5-25.2,20.5-53.6,20.5-77.2C405.7,103.2,404.9,100.8,403.3,99.2z"/>
	<path id="XMLID_12_" class="st7" d="M280.4,147.3c1.6-1.6,3.2-2.4,4.7-3.9c-7.9-4.7-18.9-7.9-29.1-7.9c-2.4,0-3.9,0-6.3,0
		C258.4,137.1,274.1,143.4,280.4,147.3z"/>
	<path id="XMLID_13_" class="st7" d="M403.3,99.2c-1.6-1.6-4.7-3.2-7.1-3.2c-3.2,0-5.5,0-8.7,0.8c1.6,0.8,3.2,1.6,3.9,2.4
		c1.6,1.6,3.2,4.7,3.2,7.1c-0.8,23.6-11,52-21.3,77.2c-3.2,8.7-6.3,16.5-8.7,24.4v11.8c-106.3-2.4-100.8,94.5-100.8,126h11.8
		c0-31.5-6.3-128.4,100-126V208c2.4-7.9,5.5-15.8,8.7-24.4c10.2-25.2,21.3-53.6,21.3-77.2C405.7,103.2,404.9,100.8,403.3,99.2z"/>
	<path id="XMLID_14_" class="st7" d="M219,147.3c2.4-1.6,5.5-2.4,7.9-3.9c-32.3-29.1-81.9-48-111.1-48c-0.8,0-2.4,0-3.2,0.8
		C143.4,100,190.6,121.3,219,147.3z"/>
	<path id="XMLID_15_" class="st5" d="M256,375.7c-10.2-10.2-19.7-18.9-19.7-29.9c0-11,8.7-19.7,19.7-19.7s19.7,8.7,19.7,19.7
		C275.7,356.8,266.2,366.3,256,375.7z"/>
	<path id="XMLID_16_" class="st8" d="M386,115.8c-10.2,0-59.9,10.2-70.1,29.9c10.2,10.2,49.6,40.2,49.6,40.2
		C375.7,166.2,386,126,386,115.8z"/>
	<path id="XMLID_17_" class="st8" d="M126,115.8c10.2,0,59.9,10.2,70.1,29.9c-10.2,10.2-49.6,40.2-49.6,40.2
		C136.3,166.2,126,126,126,115.8z"/>
</g>
</svg>
