<?xml version="1.0" encoding="utf-8"?>
<!-- Generator: Adobe Illustrator 24.1.1, SVG Export Plug-In . SVG Version: 6.00 Build 0)  -->
<svg version="1.1" id="Layer_1" xmlns="http://www.w3.org/2000/svg" xmlns:xlink="http://www.w3.org/1999/xlink" x="0px" y="0px"
	 viewBox="0 0 512 512" style="enable-background:new 0 0 512 512;" xml:space="preserve">
<style type="text/css">
	.st0{fill:#2D4452;}
	.st1{fill:#233540;}
	.st2{fill:#CC803D;}
	.st3{fill:#BF7839;}
	.st4{fill:#E6BF5A;}
	.st5{fill:#D9B455;}
	.st6{fill:#CCA950;}
	.st7{fill:#242424;}
	.st8{fill:#F5F5F5;}
</style>
<g id="XMLID_1_">
	<circle id="XMLID_3_" class="st0" cx="256" cy="256" r="256"/>
	<path id="XMLID_4_" class="st1" d="M486,367.9v-0.8c0-0.8-0.8-1.6-0.8-2.4s-0.8-1.6-0.8-2.4c0-0.8-0.8-1.6-0.8-2.4
		c0-0.8-0.8-1.6-0.8-2.4c0-0.8-0.8-1.6-0.8-2.4c0-0.8-0.8-1.6-0.8-2.4c0-0.8-0.8-1.6-0.8-2.4s-0.8-1.6-0.8-2.4s-0.8-1.6-0.8-2.4
		s-0.8-1.6-0.8-2.4s-0.8-1.6-0.8-2.4c0-0.8-0.8-1.6-0.8-2.4c0-0.8-0.8-1.6-0.8-2.4c0-0.8-0.8-1.6-0.8-2.4c0-0.8-0.8-1.6-0.8-2.4
		c0-0.8-0.8-1.6-0.8-2.4s-0.8-1.6-0.8-2.4s-0.8-1.6-0.8-2.4s-0.8-1.6-0.8-2.4s-0.8-1.6-0.8-2.4c0-0.8-0.8-1.6-0.8-2.4
		c0-0.8-0.8-1.6-0.8-2.4c0-0.8-0.8-1.6-0.8-2.4c0-0.8-0.8-1.6-0.8-2.4c0-0.8-0.8-1.6-0.8-2.4c0-0.8-0.8-1.6-0.8-2.4
		s-0.8-1.6-0.8-2.4s-0.8-1.6-0.8-2.4s-0.8-1.6-0.8-2.4c0-0.8-0.8-1.6-0.8-2.4c0-0.8-0.8-1.6-0.8-2.4c0-0.8-0.8-1.6-0.8-2.4
		c0-0.8-0.8-1.6-0.8-2.4c0-0.8-0.8-1.6-0.8-2.4c0-0.8-0.8-1.6-0.8-2.4s-0.8-1.6-0.8-2.4s-0.8-1.6-0.8-2.4s-0.8-1.6-0.8-2.4
		s-0.8-1.6-0.8-2.4c0-0.8-0.8-1.6-0.8-2.4c0-0.8-0.8-1.6-0.8-2.4c0-0.8-0.8-1.6-0.8-2.4c0-0.8-0.8-1.6-0.8-2.4
		c0-0.8-0.8-1.6-0.8-2.4s-0.8-1.6-0.8-2.4s-0.8-1.6-0.8-2.4s-0.8-1.6-0.8-2.4s-0.8-1.6-0.8-2.4c0-0.8-0.8-1.6-0.8-2.4
		c0-0.8-0.8-1.6-0.8-2.4s-0.8-1.6-0.8-2.4c0-0.8-0.8-1.6-0.8-2.4c0-0.8-0.8-1.6-0.8-2.4c0-0.8-0.8-1.6-0.8-2.4
		c0-0.8-0.8-1.6-0.8-2.4s-0.8-1.6-0.8-2.4c0-0.8-0.8-1.6-0.8-2.4c0-0.8-0.8-1.6-0.8-2.4c0-0.8-0.8-1.6-0.8-2.4
		c0-0.8-0.8-1.6-0.8-2.4c0-0.8-0.8-1.6-0.8-2.4c0-0.8-0.8-1.6-0.8-2.4c0-0.8-0.8-1.6-0.8-2.4c0-0.8-0.8-1.6-0.8-2.4
		s-0.8-1.6-0.8-2.4c0-0.8-0.8-1.6-0.8-2.4c0-0.8-0.8-1.6-0.8-2.4c0-0.8-0.8-1.6-0.8-2.4c0-0.8-0.8-1.6-0.8-2.4s-0.8-1.6-0.8-2.4
		c0-0.8-0.8-1.6-0.8-2.4c0-0.8-0.8-1.6-0.8-2.4c0-0.8-0.8-1.6-0.8-2.4c0-0.8-0.8-1.6-0.8-2.4c0-0.8-0.8-1.6-0.8-2.4
		c0-0.8-0.8-1.6-0.8-2.4c0-0.8-0.8-1.6-0.8-2.4c0-0.8-0.8-1.6-0.8-2.4s-0.8-1.6-0.8-2.4c0-0.8-0.8-1.6-0.8-2.4
		c0-0.8-0.8-1.6-0.8-2.4c0-0.8-0.8-1.6-0.8-2.4c0-0.8-0.8-1.6-0.8-2.4s-0.8-1.6-0.8-2.4C382,110.3,337.1,76.4,256,76.4
		c-116.6,0-159.1,71.7-159.1,159.1c0,15,3.2,27.6,7.9,39.4c0,0.8,0.8,1.6,0.8,2.4s0.8,1.6,0.8,2.4s0.8,1.6,0.8,2.4s0.8,1.6,0.8,2.4
		c0,0.8,0.8,1.6,0.8,2.4c0,0.8,0.8,1.6,0.8,2.4c0,0.8,0.8,1.6,0.8,2.4c0,0.8,0.8,1.6,0.8,2.4c0,0.8,0.8,1.6,0.8,2.4s0.8,1.6,0.8,2.4
		s0.8,1.6,0.8,2.4s0.8,1.6,0.8,2.4s0.8,1.6,0.8,2.4c0,0.8,0.8,1.6,0.8,2.4c0,0.8,0.8,1.6,0.8,2.4c0,0.8,0.8,1.6,0.8,2.4
		c0,0.8,0.8,1.6,0.8,2.4c0,0.8,0.8,1.6,0.8,2.4c0,0.8,0.8,1.6,0.8,2.4s0.8,1.6,0.8,2.4s0.8,1.6,0.8,2.4s0.8,1.6,0.8,2.4
		s0.8,1.6,0.8,2.4c0,0.8,0.8,1.6,0.8,2.4c0,0.8,0.8,1.6,0.8,2.4c0,0.8,0.8,1.6,0.8,2.4c0,0.8,0.8,1.6,0.8,2.4c0,0.8,0.8,1.6,0.8,2.4
		s0.8,1.6,0.8,2.4s0.8,1.6,0.8,2.4s0.8,1.6,0.8,2.4s0.8,1.6,0.8,2.4c0,0.8,0.8,1.6,0.8,2.4c0,0.8,0.8,1.6,0.8,2.4
		c0,0.8,0.8,1.6,0.8,2.4c0,0.8,0.8,1.6,0.8,2.4c0,0.8,0.8,1.6,0.8,2.4s0.8,1.6,0.8,2.4s0.8,1.6,0.8,2.4s0.8,1.6,0.8,2.4
		s0.8,1.6,0.8,2.4c0,0.8,0.8,1.6,0.8,2.4c0,0.8,0.8,1.6,0.8,2.4c0,0.8,0.8,1.6,0.8,2.4c0,0.8,0.8,1.6,0.8,2.4c0,0.8,0.8,1.6,0.8,2.4
		c0,0.8,0.8,1.6,0.8,2.4c0,0.8,0.8,1.6,0.8,2.4c0,0.8,0.8,1.6,0.8,2.4c0,0.8,0.8,1.6,0.8,2.4c0,0.8,0.8,1.6,0.8,2.4
		c0,0.8,0.8,1.6,0.8,2.4c0,0.8,0.8,1.6,0.8,2.4c0,0.8,0.8,1.6,0.8,2.4c0,0.8,0.8,1.6,0.8,2.4c0,0.8,0.8,1.6,0.8,2.4
		c0,0.8,0.8,1.6,0.8,2.4c0,0.8,0.8,1.6,0.8,2.4c0,0.8,0.8,1.6,0.8,2.4c0,0.8,0.8,1.6,0.8,2.4c0,0.8,0.8,1.6,0.8,2.4
		c0,0.8,0.8,1.6,0.8,2.4c0,0.8,0.8,1.6,0.8,2.4c0,0.8,0.8,1.6,0.8,2.4c0,0.8,0.8,1.6,0.8,2.4c0,0.8,0.8,1.6,0.8,2.4
		c0,0.8,0.8,1.6,0.8,2.4c0,0.8,0.8,1.6,0.8,2.4c0,0.8,0.8,1.6,0.8,2.4c0,0.8,0.8,1.6,0.8,2.4c0,0.8,0.8,1.6,0.8,2.4
		c0,0.8,0.8,1.6,0.8,2.4c0,0.8,0.8,1.6,0.8,2.4c0,0.8,0.8,1.6,0.8,2.4c0,0.8,0.8,1.6,0.8,2.4c0,0.8,0.8,1.6,0.8,2.4
		c0,0.8,0.8,1.6,0.8,2.4c0,0.8,0.8,1.6,0.8,2.4c0,0.8,0.8,1.6,0.8,2.4c0,0.8,0.8,1.6,0.8,2.4c0,0.8,0.8,1.6,0.8,2.4
		c0,0.8,0.8,1.6,0.8,2.4c0,0.8,0.8,1.6,0.8,2.4c0,0.8,0.8,1.6,0.8,2.4c0,0.8,0.8,1.6,0.8,2.4c0,0.8,0.8,1.6,0.8,2.4
		c0,0.8,0.8,1.6,0.8,2.4c0,0.8,0.8,1.6,0.8,2.4c0,0.8,0.8,1.6,0.8,2.4c0,0.8,0.8,1.6,0.8,2.4c0,0.8,0.8,1.6,0.8,2.4
		c0,0.8,0.8,1.6,0.8,2.4c0,0.8,0.8,1.6,0.8,2.4c0,0.8,0.8,0.8,0.8,1.6c18.9,4.7,38.6,7.1,59.1,7.1C356.8,512,444.3,452.9,486,367.9z
		"/>
	<path id="XMLID_5_" class="st2" d="M256,75.6c-116.6,0-159.1,71.7-159.1,159.1c0,89,98.5,115.8,159.1,193.8
		c60.7-77.2,159.1-104.8,159.1-193S372.6,75.6,256,75.6z"/>
	<path id="XMLID_6_" class="st3" d="M256,75.6c-2.4,0-4.7,0-7.1,0C360,78,401.7,148.9,401.7,234.7c0,85.1-92.2,113.4-152.8,184.3
		c2.4,2.4,4.7,5.5,7.1,7.9c60.7-77.2,159.1-104.8,159.1-193C415.1,147.3,372.6,75.6,256,75.6z"/>
	<circle id="XMLID_7_" class="st4" cx="337.1" cy="174.1" r="45.7"/>
	<circle id="XMLID_8_" class="st4" cx="174.9" cy="174.1" r="45.7"/>
	<path id="XMLID_9_" class="st5" d="M337.1,129.2c-1.6,0-3.2,0-4.7,0c22.8,2.4,41,21.3,41,44.9s-18.1,42.5-41,44.9
		c1.6,0,3.2,0,4.7,0c25.2,0,45.7-20.5,45.7-45.7C382,149.7,362.3,129.2,337.1,129.2z"/>
	<path id="XMLID_10_" class="st5" d="M174.9,129.2c-1.6,0-3.2,0-4.7,0c22.8,2.4,41,21.3,41,44.9s-18.1,42.5-41,44.9
		c1.6,0,3.2,0,4.7,0c25.2,0,45.7-20.5,45.7-45.7C220.6,149.7,200.1,129.2,174.9,129.2z"/>
	<path id="XMLID_11_" class="st6" d="M337.1,204c-16.5,0-29.1-13.4-29.1-29.1c0-16.5,13.4-29.1,29.1-29.1
		c16.5,0,29.1,13.4,29.1,29.1S352.9,204,337.1,204z"/>
	<path id="XMLID_12_" class="st6" d="M174.9,204c-16.5,0-29.1-13.4-29.1-29.1c0-16.5,13.4-29.1,29.1-29.1
		c16.5,0,29.1,13.4,29.1,29.1S191.4,204,174.9,204z"/>
	<path id="XMLID_13_" class="st4" d="M256,141.8c-71.7,0-107.9,41-107.9,123.7c0,44.9,10.2,66.2,31.5,75.6
		c3.2,61.4,27.6,95.3,76.4,95.3s73.3-33.9,76.4-95.3c21.3-9.5,31.5-30.7,31.5-75.6C363.9,182,327.7,141.8,256,141.8z"/>
	<path id="XMLID_14_" class="st5" d="M256,141.8c-2.4,0-4.7,0-7.1,0c67.7,2.4,101.6,43.3,101.6,123.7c0,44.9-10.2,66.2-31.5,75.6
		c-3.2,58.3-25.2,92.2-69.3,95.3c2.4,0,4.7,0,7.1,0c48.8,0,73.3-33.9,76.4-95.3c21.3-9.5,31.5-30.7,31.5-75.6
		C363.9,182,327.7,141.8,256,141.8z"/>
	<path id="XMLID_15_" class="st5" d="M256,240.2c-22.1,0-41.7,4.7-52,11v12.6v9.5v63.8h104v-63.8v-9.5v-12.6
		C297.7,245,278.1,240.2,256,240.2z"/>
	<path id="XMLID_16_" class="st4" d="M309.6,336.3c-24.4,0-44.9,15-52.8,37l0,0l0,0c-7.9-21.3-29.1-37-52.8-37
		c-7.9,0-15.8,1.6-22.8,4.7c3.2,61.4,27.6,95.3,76.4,95.3s73.3-33.9,76.4-95.3C325.3,337.9,317.4,336.3,309.6,336.3z"/>
	<path id="XMLID_17_" class="st5" d="M267,435.6c2.4,0,3.9-0.8,6.3-0.8c0.8,0,0.8,0,1.6,0c2.4-0.8,3.9-0.8,6.3-1.6
		c0.8,0,1.6-0.8,2.4-0.8c1.6-0.8,3.2-0.8,4.7-1.6c0.8,0,1.6-0.8,2.4-1.6c1.6-0.8,3.2-1.6,3.9-2.4c0.8-0.8,1.6-0.8,2.4-1.6
		c1.6-0.8,2.4-1.6,3.9-3.2c0.8-0.8,1.6-1.6,2.4-1.6c0.8-0.8,2.4-1.6,3.2-3.2c0.8-0.8,1.6-1.6,2.4-2.4c0.8-0.8,1.6-2.4,3.2-3.2
		c0.8-0.8,1.6-2.4,2.4-3.2s1.6-2.4,2.4-3.2c0.8-1.6,1.6-2.4,2.4-3.9c0.8-0.8,0.8-2.4,1.6-3.2c0.8-1.6,1.6-3.2,2.4-4.7
		c0.8-0.8,0.8-2.4,1.6-3.2c0.8-1.6,1.6-3.2,1.6-5.5c0-0.8,0.8-2.4,0.8-3.2c0.8-2.4,0.8-3.9,1.6-6.3c0-0.8,0.8-1.6,0.8-3.2
		c0.8-2.4,0.8-4.7,1.6-7.1c0-0.8,0-1.6,0.8-2.4c0.8-2.4,0.8-5.5,0.8-7.9c0-0.8,0-1.6,0-2.4c0-3.2,0.8-5.5,0.8-8.7c0-0.8,0-1.6,0-2.4
		c-2.4-0.8-5.5-2.4-7.9-3.2c-1.6,0.8-3.2,1.6-5.5,2.4c-3.2,58.3-25.2,92.2-69.3,95.3c2.4,0,4.7,0,7.1,0c3.2,0,6.3,0,8.7-0.8
		C265.5,435.6,266.2,435.6,267,435.6z"/>
	<path id="XMLID_18_" class="st7" d="M301.7,333.2c6.3,0,7.9,3.9,3.2,8.7l-41,41c-4.7,4.7-12.6,4.7-16.5,0l-41-41
		c-4.7-4.7-3.2-8.7,3.2-8.7H301.7z"/>
	<circle id="XMLID_19_" class="st8" cx="208" cy="272.5" r="19.7"/>
	<circle id="XMLID_20_" class="st7" cx="208" cy="272.5" r="7.9"/>
	<circle id="XMLID_21_" class="st8" cx="304" cy="272.5" r="19.7"/>
	<circle id="XMLID_22_" class="st7" cx="304" cy="272.5" r="7.9"/>
	<path id="XMLID_23_" class="st7" d="M288.3,383.6c-4.7,0-7.9,3.9-7.9,7.9c0,4.7-3.9,7.9-7.9,7.9c-4.7,0-7.9-3.9-7.9-7.9v-17.3
		c0-4.7-3.9-7.9-7.9-7.9c-4.7,0-7.9,3.9-7.9,7.9v17.3c0,4.7-3.9,7.9-7.9,7.9c-4.7,0-7.9-3.9-7.9-7.9c0-4.7-3.9-7.9-7.9-7.9
		c-4.7,0-7.9,3.9-7.9,7.9c0,13.4,11,23.6,23.6,23.6c6.3,0,11.8-2.4,15.8-6.3c3.9,3.9,10.2,6.3,15.8,6.3c13.4,0,23.6-11,23.6-23.6
		C296.2,387.5,292.2,383.6,288.3,383.6z"/>
</g>
</svg>
