<?xml version="1.0" encoding="utf-8"?>
<!-- Generator: Adobe Illustrator 24.1.1, SVG Export Plug-In . SVG Version: 6.00 Build 0)  -->
<svg version="1.1" id="Layer_1" xmlns="http://www.w3.org/2000/svg" xmlns:xlink="http://www.w3.org/1999/xlink" x="0px" y="0px"
	 viewBox="0 0 512 512" style="enable-background:new 0 0 512 512;" xml:space="preserve">
<style type="text/css">
	.st0{fill:#E16B5A;}
	.st1{fill:#D16354;}
	.st2{fill:#FFC066;}
	.st3{fill:#F2B661;}
	.st4{fill:#BF8F4D;}
	.st5{fill:#D9A357;}
	.st6{fill:#CC9952;}
	.st7{fill:#F5F5F5;}
	.st8{fill:#242424;}
	.st9{fill:#FFE399;}
	.st10{fill:#F2D891;}
</style>
<g id="XMLID_1_">
	<circle id="XMLID_3_" class="st0" cx="256" cy="256" r="256"/>
	<path id="XMLID_4_" class="st1" d="M493.9,349.7L493.9,349.7c0-0.8-0.8-1.6-0.8-2.4c0-0.8-0.8-1.6-0.8-2.4c0-0.8-0.8-1.6-0.8-2.4
		s-0.8-1.6-0.8-2.4s-0.8-1.6-0.8-2.4s-0.8-1.6-0.8-2.4s-0.8-1.6-0.8-2.4c0-0.8-0.8-1.6-0.8-2.4c0-0.8-0.8-1.6-0.8-2.4
		c0-0.8-0.8-1.6-0.8-2.4c0-0.8-0.8-1.6-0.8-2.4c0-0.8-0.8-1.6-0.8-2.4s-0.8-1.6-0.8-2.4s-0.8-1.6-0.8-2.4s-0.8-1.6-0.8-2.4
		s-0.8-1.6-0.8-2.4c0-0.8-0.8-1.6-0.8-2.4c0-0.8-0.8-1.6-0.8-2.4c0-0.8-0.8-1.6-0.8-2.4c0-0.8-0.8-1.6-0.8-2.4
		c0-0.8-0.8-1.6-0.8-2.4c0-0.8-0.8-1.6-0.8-2.4s-0.8-1.6-0.8-2.4s-0.8-1.6-0.8-2.4s-0.8-1.6-0.8-2.4c0-0.8-0.8-1.6-0.8-2.4
		c0-0.8-0.8-1.6-0.8-2.4c0-0.8-0.8-1.6-0.8-2.4c0-0.8-0.8-1.6-0.8-2.4c0-0.8-0.8-1.6-0.8-2.4c0-0.8-0.8-1.6-0.8-2.4
		s-0.8-1.6-0.8-2.4s-0.8-1.6-0.8-2.4s-0.8-1.6-0.8-2.4s-0.8-1.6-0.8-2.4c0-0.8-0.8-1.6-0.8-2.4c0-0.8-0.8-1.6-0.8-2.4
		c0-0.8-0.8-1.6-0.8-2.4c0-0.8-0.8-1.6-0.8-2.4c0-0.8-0.8-1.6-0.8-2.4c0-0.8-0.8-1.6-0.8-2.4c0-0.8-0.8-1.6-0.8-2.4
		c0-0.8-0.8-1.6-0.8-2.4c0-0.8-0.8-1.6-0.8-2.4c0-0.8-0.8-1.6-0.8-2.4c0-0.8-0.8-1.6-0.8-2.4s-0.8-1.6-0.8-2.4
		c0-0.8-0.8-1.6-0.8-2.4c0-0.8-0.8-1.6-0.8-2.4c0-0.8-0.8-1.6-0.8-2.4c0-0.8-0.8-1.6-0.8-2.4s-0.8-1.6-0.8-2.4
		c0-0.8-0.8-1.6-0.8-2.4c0-0.8-0.8-1.6-0.8-2.4c0-0.8-0.8-1.6-0.8-2.4c0-0.8-0.8-1.6-0.8-2.4c0-0.8-0.8-1.6-0.8-2.4
		c0-0.8-0.8-1.6-0.8-2.4c0-0.8-0.8-1.6-0.8-2.4c0-0.8-0.8-1.6-0.8-2.4s-0.8-1.6-0.8-2.4c0-0.8-0.8-1.6-0.8-2.4
		c0-0.8-0.8-1.6-0.8-2.4c0-0.8-0.8-1.6-0.8-2.4c0-0.8-0.8-1.6-0.8-2.4s-0.8-1.6-0.8-2.4c0-0.8-0.8-1.6-0.8-2.4
		c0-0.8-0.8-1.6-0.8-2.4c0-0.8-0.8-1.6-0.8-2.4c0-0.8-0.8-1.6-0.8-2.4c0-0.8-0.8-1.6-0.8-2.4c0-0.8-0.8-1.6-0.8-2.4
		c0-0.8-0.8-1.6-0.8-2.4c0-0.8-0.8-1.6-0.8-2.4s-0.8-1.6-0.8-2.4c0-0.8-0.8-1.6-0.8-2.4c0-0.8-0.8-1.6-0.8-2.4
		c0-0.8-0.8-1.6-0.8-2.4c0-0.8-0.8-1.6-0.8-2.4s-0.8-1.6-0.8-2.4c0-0.8-0.8-1.6-0.8-2.4c0-0.8-0.8-1.6-0.8-2.4
		c0-0.8-0.8-1.6-0.8-2.4c-8.7-22.8-30.7-32.3-56.7-32.3c-1.6,0-3.2,0-4.7,0c-12.6,0.8-23.6,7.1-33.1,15.8
		c-18.1-10.2-38.6-15.8-60.7-15.8s-43.3,5.5-60.7,15.8c-10.2-9.5-23.6-15.8-37.8-15.8c-2.4,0-4.7,0-7.1,0l0,0
		c-30.7,2.4-54.4,18.9-54.4,55.9c0,20.5,3.2,37,7.9,49.6c0,0.8,0.8,1.6,0.8,2.4c0,0.8,0.8,1.6,0.8,2.4s0.8,1.6,0.8,2.4
		c0,0.8,0.8,1.6,0.8,2.4c0,0.8,0.8,1.6,0.8,2.4c0,0.8,0.8,1.6,0.8,2.4c0,0.8,0.8,1.6,0.8,2.4c0,0.8,0.8,1.6,0.8,2.4
		c0,0.8,0.8,1.6,0.8,2.4c0,0.8,0.8,1.6,0.8,2.4c0,0.8,0.8,1.6,0.8,2.4s0.8,1.6,0.8,2.4c0,0.8,0.8,1.6,0.8,2.4s0.8,1.6,0.8,2.4
		c0,0.8,0.8,1.6,0.8,2.4c0,0.8,0.8,1.6,0.8,2.4c0,0.8,0.8,1.6,0.8,2.4c0,0.8,0.8,1.6,0.8,2.4c0,0.8,0.8,1.6,0.8,2.4s0.8,1.6,0.8,2.4
		s0.8,1.6,0.8,2.4s0.8,1.6,0.8,2.4s0.8,1.6,0.8,2.4c0,0.8,0.8,1.6,0.8,2.4c0,0.8,0.8,1.6,0.8,2.4c0,0.8,0.8,1.6,0.8,2.4
		c0,0.8,0.8,1.6,0.8,2.4c0,0.8,0.8,1.6,0.8,2.4s0.8,1.6,0.8,2.4s0.8,1.6,0.8,2.4s0.8,1.6,0.8,2.4s0.8,1.6,0.8,2.4
		c0,0.8,0.8,1.6,0.8,2.4c0,0.8,0.8,1.6,0.8,2.4c0,0.8,0.8,1.6,0.8,2.4c0,0.8,0.8,1.6,0.8,2.4c0,0.8,0.8,1.6,0.8,2.4
		c0,0.8,0.8,1.6,0.8,2.4s0.8,1.6,0.8,2.4s0.8,1.6,0.8,2.4s0.8,1.6,0.8,2.4c0,0.8,0.8,1.6,0.8,2.4c0,0.8,0.8,1.6,0.8,2.4
		c0,0.8,0.8,1.6,0.8,2.4c0,0.8,0.8,1.6,0.8,2.4c0,0.8,0.8,1.6,0.8,2.4c0,0.8,0.8,1.6,0.8,2.4s0.8,1.6,0.8,2.4s0.8,1.6,0.8,2.4
		s0.8,1.6,0.8,2.4s0.8,1.6,0.8,2.4c0,0.8,0.8,1.6,0.8,2.4c0,0.8,0.8,1.6,0.8,2.4c0,0.8,0.8,1.6,0.8,2.4c0,0.8,0.8,1.6,0.8,2.4
		c0,0.8,0.8,1.6,0.8,2.4s0.8,1.6,0.8,2.4s0.8,1.6,0.8,2.4s0.8,1.6,0.8,2.4s0.8,1.6,0.8,2.4c0,0.8,0.8,1.6,0.8,2.4
		c0,0.8,0.8,1.6,0.8,2.4c0,0.8,0.8,1.6,0.8,2.4c0,0.8,0.8,1.6,0.8,2.4c0,0.8,0.8,1.6,0.8,2.4s0.8,1.6,0.8,2.4c0,0.8,0.8,1.6,0.8,2.4
		c0,0.8,0.8,1.6,0.8,2.4c0,0.8,0.8,1.6,0.8,2.4c0,0.8,0.8,1.6,0.8,2.4c0,0.8,0.8,1.6,0.8,2.4c0,0.8,0.8,1.6,0.8,2.4
		c0,0.8,0.8,1.6,0.8,2.4c0,0.8,0.8,1.6,0.8,2.4c0,0.8,0.8,1.6,0.8,2.4c0,0.8,0.8,1.6,0.8,2.4c0,0.8,0.8,1.6,0.8,2.4
		c0,0.8,0.8,1.6,0.8,2.4c0,0.8,0.8,1.6,0.8,2.4c0,0.8,0.8,1.6,0.8,2.4c0,0.8,0.8,1.6,0.8,2.4c0,0.8,0.8,1.6,0.8,2.4
		c0,0.8,0.8,1.6,0.8,2.4c0,0.8,0.8,1.6,0.8,2.4c0,0.8,0.8,1.6,0.8,2.4c0,0.8,0.8,1.6,0.8,2.4c0,0.8,0.8,1.6,0.8,2.4
		c0,0.8,0.8,1.6,0.8,2.4c0,0.8,0.8,1.6,0.8,2.4c0,0.8,0.8,1.6,0.8,2.4c0,0.8,0.8,1.6,0.8,2.4c0,0.8,0.8,1.6,0.8,2.4
		c0,0.8,0.8,1.6,0.8,2.4c0,0.8,0.8,1.6,0.8,2.4c0,0.8,0.8,1.6,0.8,2.4c0,0.8,0.8,1.6,0.8,2.4c0,0.8,0.8,1.6,0.8,2.4
		c0,0.8,0.8,1.6,0.8,2.4c0,0.8,0.8,1.6,0.8,2.4c0,0.8,0.8,1.6,0.8,2.4c0,0.8,0.8,1.6,0.8,2.4c0,0.8,0.8,1.6,0.8,2.4
		c0,0.8,0.8,1.6,0.8,2.4c0,0.8,0.8,1.6,0.8,2.4c0,0.8,0.8,1.6,0.8,2.4c0,0.8,0.8,1.6,0.8,2.4c0,0.8,0.8,1.6,0.8,2.4
		c0,0.8,0.8,1.6,0.8,2.4c0,0.8,0.8,1.6,0.8,2.4c0,0.8,0.8,1.6,0.8,2.4c0,0.8,0.8,1.6,0.8,2.4c0,0.8,0.8,1.6,0.8,2.4
		c0,0.8,0.8,1.6,0.8,2.4c0,0.8,0.8,1.6,0.8,2.4c0,0.8,0.8,1.6,0.8,2.4c0,0.8,0.8,1.6,0.8,2.4c0,0.8,0.8,1.6,0.8,2.4
		c0,0.8,0.8,1.6,0.8,2.4v0.8c11,1.6,22.8,2.4,34.7,2.4C364.7,512,456.9,444.3,493.9,349.7z"/>
	<path id="XMLID_5_" class="st2" d="M218.2,185.9c0,40.2-27.6,72.5-61.4,72.5s-61.4-26-61.4-88.2c0-40.2,27.6-55.9,61.4-55.9
		C191.4,113.4,218.2,145.7,218.2,185.9z"/>
	<path id="XMLID_6_" class="st3" d="M157.5,113.4c-2.4,0-4.7,0-7.1,0c31.5,3.2,56.7,33.9,56.7,72.5c0,37.8-24.4,68.5-55.9,72.5
		c2.4,0,3.9,0,6.3,0c33.9,0,61.4-32.3,61.4-72.5S191.4,113.4,157.5,113.4z"/>
	<path id="XMLID_7_" class="st4" d="M157.5,241.8c-39.4,0-44.9-45.7-44.9-72.5s15-40.2,44.9-40.2c25.2,0,44.9,25.2,44.9,56.7
		C202.4,216.6,182,241.8,157.5,241.8z"/>
	<path id="XMLID_8_" class="st2" d="M293.8,185.9c0,40.2,27.6,72.5,61.4,72.5c33.9,0,61.4-26,61.4-88.2c0-40.2-27.6-55.9-61.4-55.9
		C320.6,113.4,293.8,145.7,293.8,185.9z"/>
	<path id="XMLID_9_" class="st3" d="M354.5,113.4c-1.6,0-3.2,0-4.7,0c30.7,2.4,54.4,18.9,54.4,55.9c0,58.3-23.6,85.1-55.1,88.2
		c1.6,0,3.9,0,5.5,0c33.9,0,61.4-26,61.4-88.2C415.9,129.2,388.3,113.4,354.5,113.4z"/>
	<path id="XMLID_10_" class="st4" d="M354.5,241.8c-25.2,0-44.9-25.2-44.9-56.7c0-30.7,20.5-56.7,44.9-56.7
		c29.9,0,44.9,13.4,44.9,40.2C400.1,196.1,393.8,241.8,354.5,241.8z"/>
	<path id="XMLID_11_" class="st5" d="M374.2,231.6c0-70.1-52.8-118.2-118.2-118.2s-118.2,48.8-118.2,118.2
		c0,34.7,13.4,59.1,34.7,75.6c1.6,51.2,38.6,92.2,84.3,92.2s82.7-41,84.3-92.2C361.6,290.7,374.2,266.2,374.2,231.6z"/>
	<path id="XMLID_12_" class="st6" d="M256,113.4c-2.4,0-3.9,0-6.3,0c63,3.2,112.6,50.4,112.6,118.2c0,34.7-13.4,59.1-34.7,75.6
		c-1.6,48.8-35.4,88.2-78,91.4c2.4,0,3.9,0,6.3,0c45.7,0,82.7-41,84.3-92.2c21.3-15.8,34.7-40.2,34.7-75.6
		C374.2,161.5,321.4,113.4,256,113.4z"/>
	<circle id="XMLID_13_" class="st7" cx="211.9" cy="215.8" r="19.7"/>
	<circle id="XMLID_14_" class="st8" cx="211.9" cy="215.8" r="7.9"/>
	<circle id="XMLID_15_" class="st7" cx="300.1" cy="215.8" r="19.7"/>
	<circle id="XMLID_16_" class="st8" cx="300.1" cy="215.8" r="7.9"/>
	<path id="XMLID_17_" class="st9" d="M256,374.9c-33.1,0-60.7-32.3-60.7-70.9c0-39.4,26.8-70.9,60.7-70.9
		c33.1,0,60.7,32.3,60.7,70.9S289.1,374.9,256,374.9z"/>
	<path id="XMLID_18_" class="st10" d="M256,232.4c-2.4,0-3.9,0-6.3,0c30.7,3.9,54.4,33.9,54.4,70.9s-23.6,67-54.4,70.9
		c2.4,0,3.9,0,6.3,0c33.1,0,60.7-32.3,60.7-70.9S289.1,232.4,256,232.4z"/>
	<path id="XMLID_19_" class="st8" d="M256,264.7c-1.6,0-3.2-0.8-3.9-2.4c-1.6-2.4-3.9-3.9-5.5-3.9c-3.2-0.8-7.1,0-8.7,2.4
		c-1.6,1.6-3.9,1.6-5.5,0c-1.6-1.6-1.6-3.9,0-5.5c3.9-3.9,10.2-5.5,15.8-3.9c5.5,0.8,9.5,3.9,11.8,7.9c0.8,1.6,0,4.7-1.6,5.5
		C257.6,264.7,256.8,264.7,256,264.7z"/>
	<path id="XMLID_20_" class="st8" d="M256,264.7c-0.8,0-1.6,0-1.6-0.8c-1.6-0.8-2.4-3.2-1.6-5.5c2.4-4.7,6.3-7.1,11.8-7.9
		c5.5-0.8,11.8,0.8,15.8,3.9c1.6,1.6,1.6,3.9,0,5.5c-1.6,1.6-3.9,1.6-5.5,0c-2.4-1.6-5.5-3.2-8.7-2.4c-1.6,0-4.7,1.6-5.5,3.9
		C259.2,263.9,257.6,264.7,256,264.7z"/>
	<path id="XMLID_21_" class="st8" d="M256,281.2c-2.4,0-3.9-1.6-3.9-3.9v-16.5c0-2.4,1.6-3.9,3.9-3.9s3.9,1.6,3.9,3.9v16.5
		C259.9,278.8,258.4,281.2,256,281.2z"/>
	<ellipse id="XMLID_22_" class="st8" cx="267.8" cy="339.5" rx="15.8" ry="4.7"/>
</g>
</svg>
