<?xml version="1.0" encoding="utf-8"?>
<!-- Generator: Adobe Illustrator 24.1.1, SVG Export Plug-In . SVG Version: 6.00 Build 0)  -->
<svg version="1.1" id="Layer_1" xmlns="http://www.w3.org/2000/svg" xmlns:xlink="http://www.w3.org/1999/xlink" x="0px" y="0px"
	 viewBox="0 0 512 512" style="enable-background:new 0 0 512 512;" xml:space="preserve">
<style type="text/css">
	.st0{fill:#E16B5A;}
	.st1{fill:#D16354;}
	.st2{fill:#B3B3B3;}
	.st3{fill:#A6A6A6;}
	.st4{fill:#999999;}
	.st5{fill:#CCCCCC;}
	.st6{fill:#BFBFBF;}
	.st7{fill:#242424;}
	.st8{fill:#1A1A1A;}
	.st9{fill:#F5F5F5;}
	.st10{fill:#E6E6E6;}
</style>
<g id="XMLID_1_">
	<circle id="XMLID_3_" class="st0" cx="256" cy="256" r="256"/>
	<path id="XMLID_4_" class="st1" d="M182,501c23.6,7.1,48,11,74,11c106.3,0,196.9-64.6,235.5-156c0-0.8-0.8-1.6-0.8-1.6
		c0-0.8-0.8-1.6-0.8-2.4c0-0.8-0.8-1.6-0.8-2.4c0-0.8-0.8-1.6-0.8-2.4c0-0.8-0.8-1.6-0.8-2.4c0-0.8-0.8-1.6-0.8-2.4
		s-0.8-1.6-0.8-2.4s-0.8-1.6-0.8-2.4s-0.8-1.6-0.8-2.4s-0.8-1.6-0.8-2.4c0-0.8-0.8-1.6-0.8-2.4c0-0.8-0.8-1.6-0.8-2.4
		c0-0.8-0.8-1.6-0.8-2.4c0-0.8-0.8-1.6-0.8-2.4c0-0.8-0.8-1.6-0.8-2.4s-0.8-1.6-0.8-2.4s-0.8-1.6-0.8-2.4s-0.8-1.6-0.8-2.4
		s-0.8-1.6-0.8-2.4c0-0.8-0.8-1.6-0.8-2.4c0-0.8-0.8-1.6-0.8-2.4c0-0.8-0.8-1.6-0.8-2.4c0-0.8-0.8-1.6-0.8-2.4
		c0-0.8-0.8-1.6-0.8-2.4c0-0.8-0.8-1.6-0.8-2.4s-0.8-1.6-0.8-2.4s-0.8-1.6-0.8-2.4s-0.8-1.6-0.8-2.4c0-0.8-0.8-1.6-0.8-2.4
		c0-0.8-0.8-1.6-0.8-2.4c0-0.8-0.8-1.6-0.8-2.4c0-0.8-0.8-1.6-0.8-2.4c0-0.8-0.8-1.6-0.8-2.4c0-0.8-0.8-1.6-0.8-2.4
		s-0.8-1.6-0.8-2.4s-0.8-1.6-0.8-2.4s-0.8-1.6-0.8-2.4s-0.8-1.6-0.8-2.4c0-0.8-0.8-1.6-0.8-2.4c0-0.8-0.8-1.6-0.8-2.4
		c0-0.8-0.8-1.6-0.8-2.4c0-0.8-0.8-1.6-0.8-2.4c0-0.8-0.8-1.6-0.8-2.4c0-0.8-0.8-1.6-0.8-2.4c0-0.8-0.8-1.6-0.8-2.4
		c0-0.8-0.8-1.6-0.8-2.4c0-0.8-0.8-1.6-0.8-2.4c0-0.8-0.8-1.6-0.8-2.4c0-0.8-0.8-1.6-0.8-2.4s-0.8-1.6-0.8-2.4
		c0-0.8-0.8-1.6-0.8-2.4c0-0.8-0.8-1.6-0.8-2.4c0-0.8-0.8-1.6-0.8-2.4c0-0.8-0.8-1.6-0.8-2.4s-0.8-1.6-0.8-2.4
		c0-0.8-0.8-1.6-0.8-2.4c0-0.8-0.8-1.6-0.8-2.4c0-0.8-0.8-1.6-0.8-2.4c0-0.8-0.8-1.6-0.8-2.4c0-0.8-0.8-1.6-0.8-2.4
		c0-0.8-0.8-1.6-0.8-2.4c0-0.8-0.8-1.6-0.8-2.4c0-0.8-0.8-1.6-0.8-2.4s-0.8-1.6-0.8-2.4c0-0.8-0.8-1.6-0.8-2.4
		c0-0.8-0.8-1.6-0.8-2.4c0-0.8-0.8-1.6-0.8-2.4c0-0.8-0.8-1.6-0.8-2.4s-0.8-1.6-0.8-2.4c0-0.8-0.8-1.6-0.8-2.4
		c0-0.8-0.8-1.6-0.8-2.4c0-0.8-0.8-1.6-0.8-2.4c0-0.8-0.8-1.6-0.8-2.4c0-0.8-0.8-1.6-0.8-2.4c0-0.8-0.8-1.6-0.8-2.4
		c0-0.8-0.8-1.6-0.8-2.4c0-0.8-0.8-1.6-0.8-2.4s-0.8-1.6-0.8-2.4c0-0.8-0.8-1.6-0.8-2.4c0-0.8-0.8-1.6-0.8-2.4
		c0-0.8-0.8-1.6-0.8-2.4c0-0.8-0.8-1.6-0.8-2.4s-0.8-1.6-0.8-2.4c-13.4-33.1-44.9-56.7-83.5-56.7c-22.8,0-46.5,11-64.6,29.9
		c-1.6,0-3.9,0-5.5,0c-1.6,0-3.9,0-5.5,0C248.9,115,225.3,104,202.4,104c-50.4,0-89.8,39.4-89.8,89.8c0,14.2,3.2,28.4,8.7,40.2
		c0,0.8,0.8,1.6,0.8,2.4c0,0.8,0.8,1.6,0.8,2.4c0,0.8,0.8,1.6,0.8,2.4c0,0.8,0.8,1.6,0.8,2.4c0,0.8,0.8,1.6,0.8,2.4
		c0,0.8,0.8,1.6,0.8,2.4c0,0.8,0.8,1.6,0.8,2.4c0,0.8,0.8,1.6,0.8,2.4s0.8,1.6,0.8,2.4c0,0.8,0.8,1.6,0.8,2.4s0.8,1.6,0.8,2.4
		c0,0.8,0.8,1.6,0.8,2.4c0,0.8,0.8,1.6,0.8,2.4c0,0.8,0.8,1.6,0.8,2.4c0,0.8,0.8,1.6,0.8,2.4c0,0.8,0.8,1.6,0.8,2.4s0.8,1.6,0.8,2.4
		s0.8,1.6,0.8,2.4s0.8,1.6,0.8,2.4s0.8,1.6,0.8,2.4c0,0.8,0.8,1.6,0.8,2.4c0,0.8,0.8,1.6,0.8,2.4c0,0.8,0.8,1.6,0.8,2.4
		c0,0.8,0.8,1.6,0.8,2.4c0,0.8,0.8,1.6,0.8,2.4s0.8,1.6,0.8,2.4s0.8,1.6,0.8,2.4s0.8,1.6,0.8,2.4s0.8,1.6,0.8,2.4
		c0,0.8,0.8,1.6,0.8,2.4c0,0.8,0.8,1.6,0.8,2.4c0,0.8,0.8,1.6,0.8,2.4c0,0.8,0.8,1.6,0.8,2.4c0,0.8,0.8,1.6,0.8,2.4
		c0,0.8,0.8,1.6,0.8,2.4s0.8,1.6,0.8,2.4s0.8,1.6,0.8,2.4s0.8,1.6,0.8,2.4c0,0.8,0.8,1.6,0.8,2.4c0,0.8,0.8,1.6,0.8,2.4
		c0,0.8,0.8,0.8,0.8,1.6l-23.6,6.3c-2.4,0.8-3.2,3.2-3.2,4.7L182,501z"/>
	<path id="XMLID_5_" class="st2" d="M175.7,275.7L175.7,275.7c-46.5-3.2-80.3-41-80.3-89.8c0-50.4,39.4-89.8,89.8-89.8
		c24.4,0,48.8,11.8,67.7,33.1c3.9,3.9,3.2,10.2-0.8,14.2s-66.2,117.4-67,122.9C185.9,271.8,181.2,275.7,175.7,275.7z"/>
	<path id="XMLID_6_" class="st3" d="M253.6,129.2c-18.1-21.3-43.3-33.1-67.7-33.1c-2.4,0-3.9,0-6.3,0c22.8,1.6,44.9,13.4,62.2,33.1
		c3.9,3.9,3.2,10.2-0.8,14.2s-66.2,117.4-67,122.9c0,3.9-2.4,7.1-5.5,8.7c2.4,0,4.7,0.8,7.1,0.8h0.8c5.5,0,9.5-3.9,10.2-9.5
		c0.8-5.5,62.2-119.7,67-122.9C256.8,140.2,256.8,133.9,253.6,129.2z"/>
	<path id="XMLID_7_" class="st4" d="M171.7,259.2c-34.7-5.5-59.9-35.4-59.9-73.3c0-41.7,32.3-74,74-74c18.1,0,37,8.7,52,24.4
		c-3.9,6.3-12.6,21.3-34.7,60.7C182,237.1,174.1,252.8,171.7,259.2z"/>
	<path id="XMLID_8_" class="st2" d="M336.3,275.7c-5.5,0-9.5-3.9-10.2-9.5c-0.8-5.5-62.2-119.7-67-122.9c-3.9-3.9-4.7-10.2-0.8-14.2
		c18.1-21.3,43.3-33.1,67.7-33.1c50.4,0,89.8,39.4,89.8,89.8C415.9,234.7,382.8,272.5,336.3,275.7L336.3,275.7z"/>
	<path id="XMLID_9_" class="st3" d="M326.1,96.1c-1.6,0-3.9,0-5.5,0c47.3,3.2,83.5,41.7,83.5,89.8c0,46.5-29.9,82.7-72.5,89
		c1.6,0.8,2.4,0.8,3.9,0.8h0.8c45.7-3.2,79.6-41,79.6-89.8C415.9,135.5,376.5,96.1,326.1,96.1z"/>
	<path id="XMLID_10_" class="st4" d="M340.3,259.2c-2.4-7.1-10.2-22.1-32.3-63c-21.3-39.4-29.9-54.4-34.7-60.7
		c15-15.8,33.9-24.4,52-24.4c41.7,0,74,32.3,74,74C400.1,224.5,374.9,254.4,340.3,259.2z"/>
	<path id="XMLID_11_" class="st5" d="M256,415.9c-55.9,0-89.8-158.3-89.8-200.1c0-50.4,39.4-89.8,89.8-89.8s89.8,39.4,89.8,89.8
		C345.8,257.6,311.9,415.9,256,415.9z"/>
	<path id="XMLID_12_" class="st6" d="M256,126c-2.4,0-5.5,0-7.9,0c46.5,3.9,81.9,41.7,81.9,89.8c0,39.4-30.7,185.1-81.9,199.3
		c2.4,0.8,5.5,0.8,7.9,0.8c55.9,0,89.8-158.3,89.8-200.1C345.8,165.4,306.4,126,256,126z"/>
	<path id="XMLID_13_" class="st7" d="M256,415.9c17.3,0,31.5-14.2,44.1-36.2c-3.2-7.1-7.1-10.2-7.1-11C280.4,356,267,356,256,356
		s-24.4,0-37,12.6c-0.8,0.8-3.9,4.7-7.1,11C224.5,401.7,238.7,415.9,256,415.9z"/>
	<path id="XMLID_14_" class="st8" d="M259.9,415.9c0.8,0,1.6,0,2.4,0h0.8c0.8,0,1.6,0,2.4-0.8h0.8c0.8,0,1.6-0.8,2.4-0.8h0.8
		c1.6-0.8,3.9-1.6,5.5-3.2l0,0c0.8-0.8,1.6-1.6,3.2-1.6l0,0c8.7-6.3,16.5-16.5,23.6-28.4c-3.2-7.1-7.1-10.2-7.1-11
		c-0.8-0.8-0.8-0.8-1.6-1.6c-11.8,24.4-26.8,43.3-43.3,47.3h0.8c0.8,0,1.6,0.8,3.2,0.8h0.8c1.6,0,2.4,0,3.9,0c0.8,0,1.6,0,3.2,0
		L259.9,415.9z"/>
	<circle id="XMLID_15_" class="st9" cx="215.8" cy="226.1" r="19.7"/>
	<circle id="XMLID_16_" class="st7" cx="215.8" cy="226.1" r="7.9"/>
	<path id="XMLID_17_" class="st9" d="M296.2,245.8c-11,0-19.7-8.7-19.7-19.7c0-11,8.7-19.7,19.7-19.7s19.7,8.7,19.7,19.7
		C315.9,237.1,307.2,245.8,296.2,245.8z"/>
	<circle id="XMLID_18_" class="st7" cx="296.2" cy="226.1" r="7.9"/>
	<path id="XMLID_19_" class="st10" d="M140.2,389.9c-1.6,0-2.4-0.8-3.2-1.6c-0.8-1.6-0.8-4.7,1.6-5.5l71.7-42.5
		c1.6-0.8,4.7-0.8,5.5,1.6c0.8,1.6,0.8,4.7-1.6,5.5l-71.7,42.5C141.8,389.9,141,389.9,140.2,389.9z"/>
	<path id="XMLID_20_" class="st10" d="M131.5,365.5c-1.6,0-3.2-0.8-3.9-2.4c-0.8-2.4,0-4.7,2.4-5.5l80.3-34.7c2.4-0.8,4.7,0,5.5,2.4
		c0.8,2.4,0,4.7-2.4,5.5l-80.3,34.7C132.3,365.5,132.3,365.5,131.5,365.5z"/>
	<path id="XMLID_21_" class="st10" d="M122.1,340.3c-1.6,0-3.2-0.8-3.9-3.2c-0.8-2.4,0.8-4.7,3.2-4.7l89.8-25.2
		c2.4-0.8,3.9,0.8,4.7,3.2c0.8,2.4-0.8,4.7-3.2,4.7l-89.8,25.2H122.1z"/>
	<path id="XMLID_22_" class="st10" d="M371.8,389.9c1.6,0,2.4-0.8,3.2-1.6c0.8-1.6,0.8-4.7-1.6-5.5l-71.7-42.5
		c-1.6-0.8-4.7-0.8-5.5,1.6c-0.8,1.6-0.8,4.7,1.6,5.5l71.7,42.5C370.2,389.9,371,389.9,371.8,389.9z"/>
	<path id="XMLID_23_" class="st10" d="M380.5,365.5c1.6,0,3.2-0.8,3.9-2.4c0.8-2.4,0-4.7-2.4-5.5L301.7,323c-2.4-0.8-4.7,0-5.5,2.4
		s0,4.7,2.4,5.5l80.3,34.7C379.7,365.5,379.7,365.5,380.5,365.5z"/>
	<path id="XMLID_24_" class="st10" d="M389.9,340.3c1.6,0,3.2-0.8,3.9-3.2c0.8-2.4-0.8-4.7-3.2-4.7l-89.8-25.2
		c-2.4-0.8-3.9,0.8-4.7,3.2c-0.8,2.4,0.8,4.7,3.2,4.7l89.8,25.2H389.9z"/>
</g>
</svg>
