<?xml version="1.0" encoding="utf-8"?>
<!-- Generator: Adobe Illustrator 24.1.1, SVG Export Plug-In . SVG Version: 6.00 Build 0)  -->
<svg version="1.1" id="Layer_1" xmlns="http://www.w3.org/2000/svg" xmlns:xlink="http://www.w3.org/1999/xlink" x="0px" y="0px"
	 viewBox="0 0 512 512" style="enable-background:new 0 0 512 512;" xml:space="preserve">
<style type="text/css">
	.st0{fill:#B2E3FF;}
	.st1{fill:#A9D8F2;}
	.st2{fill:#FFD464;}
	.st3{fill:#E6BF5A;}
	.st4{fill:#F5F5F5;}
	.st5{fill:#242424;}
	.st6{fill:#1A1A1A;}
</style>
<g id="XMLID_1_">
	<circle id="XMLID_3_" class="st0" cx="256" cy="256" r="256"/>
	<path id="XMLID_4_" class="st1" d="M410.4,460L410.4,460c-0.8-1.6-0.8-2.4-1.6-3.2c0-0.8-0.8-1.6-0.8-2.4c0-0.8-0.8-1.6-0.8-2.4
		c0-0.8-0.8-1.6-0.8-2.4c0-0.8-0.8-1.6-0.8-2.4c0-0.8-0.8-1.6-0.8-2.4c0-0.8-0.8-1.6-0.8-2.4c0-0.8-0.8-1.6-0.8-2.4
		c0-0.8-0.8-1.6-0.8-2.4c0-0.8-0.8-1.6-0.8-2.4c0-0.8-0.8-1.6-0.8-2.4c0-0.8-0.8-1.6-0.8-2.4c0-0.8-0.8-1.6-0.8-2.4
		c0-0.8-0.8-1.6-0.8-2.4c0-0.8-0.8-1.6-0.8-2.4c0-0.8-0.8-1.6-0.8-2.4c0-0.8-0.8-1.6-0.8-2.4c0-0.8-0.8-1.6-0.8-2.4
		c0-0.8-0.8-1.6-0.8-2.4c0-0.8-0.8-1.6-0.8-2.4c0-0.8-0.8-1.6-0.8-2.4c0-0.8-0.8-1.6-0.8-2.4c0-0.8-0.8-1.6-0.8-2.4
		c0-0.8-0.8-1.6-0.8-2.4c0-0.8-0.8-1.6-0.8-2.4c0-0.8-0.8-1.6-0.8-2.4c0-0.8-0.8-1.6-0.8-2.4c0-0.8-0.8-1.6-0.8-2.4
		c0-0.8-0.8-1.6-0.8-2.4c0-0.8-0.8-1.6-0.8-2.4c0-0.8-0.8-1.6-0.8-2.4c0-0.8-0.8-1.6-0.8-2.4c0-0.8-0.8-1.6-0.8-2.4
		s-0.8-1.6-0.8-2.4s-0.8-1.6-0.8-2.4c0-0.8-0.8-1.6-0.8-2.4c0-0.8-0.8-1.6-0.8-2.4c0-0.8-0.8-1.6-0.8-2.4c0-0.8-0.8-1.6-0.8-2.4
		c0-0.8-0.8-1.6-0.8-2.4s-0.8-1.6-0.8-2.4s-0.8-1.6-0.8-2.4s-0.8-1.6-0.8-2.4s-0.8-1.6-0.8-2.4c0-0.8-0.8-1.6-0.8-2.4
		c0-0.8-0.8-1.6-0.8-2.4c0-0.8-0.8-1.6-0.8-2.4c0-0.8-0.8-1.6-0.8-2.4c0-0.8-0.8-1.6-0.8-2.4s-0.8-1.6-0.8-2.4s-0.8-1.6-0.8-2.4
		s-0.8-1.6-0.8-2.4s-0.8-1.6-0.8-2.4c0-0.8-0.8-1.6-0.8-2.4c0-0.8-0.8-1.6-0.8-2.4c0-0.8-0.8-1.6-0.8-2.4c0-0.8-0.8-1.6-0.8-2.4
		c0-0.8-0.8-1.6-0.8-2.4c0-0.8-0.8-1.6-0.8-2.4s-0.8-1.6-0.8-2.4s-0.8-1.6-0.8-2.4s-0.8-1.6-0.8-2.4s-0.8-1.6-0.8-2.4
		c0-0.8-0.8-1.6-0.8-2.4c0-0.8-0.8-1.6-0.8-2.4c0-0.8-0.8-1.6-0.8-2.4c0-0.8-0.8-1.6-0.8-2.4c0-0.8-0.8-1.6-0.8-2.4
		s-0.8-1.6-0.8-2.4s-0.8-1.6-0.8-2.4s-0.8-1.6-0.8-2.4s-0.8-1.6-0.8-2.4c0-0.8-0.8-1.6-0.8-2.4c0-0.8-0.8-1.6-0.8-2.4
		c0-0.8-0.8-1.6-0.8-2.4c0-0.8-0.8-1.6-0.8-2.4c0-0.8-0.8-1.6-0.8-2.4s-0.8-1.6-0.8-2.4s-0.8-1.6-0.8-2.4s-0.8-1.6-0.8-2.4
		s-0.8-1.6-0.8-2.4c0-0.8-0.8-1.6-0.8-2.4c0-0.8-0.8-1.6-0.8-2.4c0-0.8-0.8-1.6-0.8-2.4c0-0.8-0.8-1.6-0.8-2.4
		c0-0.8-0.8-1.6-0.8-2.4c0-0.8-0.8-1.6-0.8-2.4c0-0.8-0.8-1.6-0.8-2.4s-0.8-1.6-0.8-2.4c0-0.8-0.8-1.6-0.8-2.4
		c0-0.8-0.8-1.6-0.8-2.4c0-0.8-0.8-1.6-0.8-2.4c0-0.8-0.8-1.6-0.8-2.4s-0.8-1.6-0.8-2.4c0-0.8-0.8-1.6-0.8-2.4
		c0-0.8-0.8-1.6-0.8-2.4c0-0.8-0.8-1.6-0.8-2.4s-0.8-1.6-0.8-2.4c0-0.8-0.8-1.6-0.8-2.4c0-0.8-0.8-1.6-0.8-2.4
		c0-0.8-0.8-1.6-0.8-2.4c0-0.8-0.8-1.6-0.8-2.4s-0.8-1.6-0.8-2.4c0-0.8-0.8-1.6-0.8-2.4c0-0.8-0.8-1.6-0.8-2.4
		c0-0.8-0.8-1.6-0.8-2.4c0-0.8-0.8-1.6-0.8-2.4c0-0.8-0.8-1.6-0.8-2.4c0-0.8-0.8-1.6-0.8-2.4c0-0.8-0.8-1.6-0.8-2.4
		c0-0.8-0.8-1.6-0.8-2.4s-0.8-1.6-0.8-2.4c0-0.8-0.8-1.6-0.8-2.4c0-0.8-0.8-1.6-0.8-2.4c0-0.8-0.8-1.6-0.8-2.4
		c0-0.8-0.8-1.6-0.8-2.4s-0.8-1.6-0.8-2.4c0-0.8-0.8-1.6-0.8-2.4c0-0.8-0.8-1.6-0.8-2.4c0-0.8-0.8-1.6-0.8-2.4
		c0-0.8-0.8-1.6-0.8-2.4c0-0.8-0.8-1.6-0.8-2.4c0-0.8-0.8-1.6-0.8-2.4c0-0.8-0.8-1.6-0.8-2.4c0-0.8-0.8-1.6-0.8-2.4
		s-0.8-1.6-0.8-2.4c0-0.8-0.8-1.6-0.8-2.4c0-0.8-0.8-1.6-0.8-2.4c-6.3-16.5-12.6-28.4-19.7-34.7c-9.5-9.5-22.8-14.2-37.8-14.2l0,0
		c-26.8,0-46.5,22.8-47.3,23.6c-1.6,1.6-2.4,3.9-2.4,5.5s0,3.9-0.8,5.5l0,0l-0.8,0.8c-0.8,0-0.8,0.8-1.6,0.8l0,0
		c-0.8,0.8-1.6,0.8-2.4,1.6l0,0c-0.8,0.8-1.6,0.8-2.4,1.6l0,0c-15.8,9.5-41,25.2-41,30.7c0,0,0.8,0.8,1.6,1.6v0.8
		c0,0,0.8,0.8,1.6,1.6v0.8c0,0,0.8,0.8,1.6,1.6v0.8c0,0,0.8,0.8,1.6,1.6v0.8c0,0,0.8,0.8,1.6,1.6v0.8c0,0,0.8,0.8,1.6,1.6v0.8
		c0,0,0.8,0.8,1.6,1.6v0.8c0,0,0.8,0.8,1.6,1.6v0.8c0,0,0.8,0.8,1.6,1.6v0.8c0,0,0.8,0.8,1.6,1.6v0.8c0,0,0.8,0.8,1.6,1.6v0.8
		c0,0,0.8,0.8,1.6,1.6v0.8c0,0,0.8,0.8,1.6,1.6v0.8c0,0,0.8,0.8,1.6,1.6v0.8c0,0,0.8,0.8,1.6,1.6v0.8c0,0,0.8,0.8,1.6,1.6v0.8
		c0,0,0.8,0.8,1.6,1.6v0.8c0,0,0.8,0.8,1.6,1.6v0.8c0,0,0.8,0.8,1.6,1.6v0.8c0,0,0.8,0.8,1.6,1.6v0.8c0,0,0.8,0.8,1.6,1.6v0.8
		c0,0,0.8,0.8,1.6,1.6v0.8c0,0,0.8,0.8,1.6,1.6v0.8c0,0,0.8,0.8,1.6,1.6v0.8c0,0,0.8,0.8,1.6,1.6v0.8c0,0,0.8,0.8,1.6,1.6v0.8
		c0,0,0.8,0.8,1.6,1.6v0.8c0,0,0.8,0.8,1.6,1.6v0.8c0,0,0.8,0.8,1.6,1.6v0.8c0,0,0.8,0.8,1.6,1.6v0.8c0,0,0.8,0.8,1.6,1.6v0.8
		c0,0,0.8,0.8,1.6,1.6v0.8c0,0,0.8,0.8,1.6,1.6v0.8c0,0,0.8,0.8,1.6,1.6v0.8c0,0,0.8,0.8,1.6,1.6v0.8c0,0,0.8,0.8,1.6,1.6v0.8
		c0,0,0.8,0.8,1.6,1.6v0.8c0,0,0.8,0.8,1.6,1.6v0.8c0,0,0.8,0.8,1.6,1.6v0.8c0,0.8,0.8,0.8,1.6,1.6v0.8c0,0,0.8,0.8,1.6,1.6v0.8
		c0,0,0.8,0.8,1.6,1.6v0.8c0,0,0.8,0.8,1.6,1.6v0.8c0,0,0.8,0.8,1.6,1.6v0.8c0,0,0.8,0.8,1.6,1.6v0.8c0,0,0.8,0.8,1.6,1.6v0.8
		c0,0,0.8,0.8,1.6,1.6v0.8c0,0.8,0.8,0.8,1.6,1.6v0.8c0,0.8,0.8,0.8,1.6,1.6v0.8c0,0,0.8,0.8,1.6,1.6v0.8c0,0,0.8,0.8,1.6,1.6v0.8
		c0,0.8,0.8,0.8,1.6,1.6v0.8c0,0,0,0.8,0.8,1.6v0.8v0.8v0.8c3.2,17.3,7.9,32.3,13.4,44.9c0,0.8,0.8,1.6,0.8,2.4s0.8,1.6,0.8,2.4
		s0.8,1.6,0.8,2.4s0.8,1.6,0.8,2.4s0.8,1.6,0.8,2.4c0,0.8,0.8,1.6,0.8,2.4c0,0.8,0.8,1.6,0.8,2.4c0,0.8,0.8,1.6,0.8,2.4
		c0,0.8,0.8,1.6,0.8,2.4c0,0.8,0.8,1.6,0.8,2.4s0.8,1.6,0.8,2.4s0.8,1.6,0.8,2.4s0.8,1.6,0.8,2.4s0.8,1.6,0.8,2.4v0.8l0,0
		l-80.3,14.2c-3.2,2.4-4.7,7.1-3.2,11c0,0.8,0.8,1.6,0.8,1.6v0.8c0,0.8,0.8,1.6,0.8,1.6v0.8c0,0.8,0.8,1.6,0.8,1.6v0.8
		c0,0.8,0.8,1.6,0.8,1.6v0.8c0,0.8,0.8,1.6,0.8,1.6v0.8c0,0.8,0.8,1.6,0.8,1.6v0.8c0,0.8,0.8,1.6,0.8,1.6v0.8c0,0.8,0.8,1.6,0.8,1.6
		v0.8c0,0.8,0.8,1.6,0.8,1.6v0.8c0,0.8,0.8,1.6,0.8,1.6v0.8c0,0.8,0.8,1.6,0.8,1.6v0.8c0,0.8,0.8,1.6,0.8,1.6v0.8
		c0,0.8,0.8,1.6,0.8,1.6v0.8c0,0.8,0.8,1.6,0.8,1.6v0.8c0,0.8,0.8,1.6,0.8,1.6v0.8c0,0.8,0.8,1.6,0.8,1.6v0.8c0,0.8,0.8,1.6,0.8,1.6
		v0.8c0,0.8,0.8,1.6,0.8,1.6v0.8c0,0.8,0.8,1.6,0.8,1.6v0.8c0,0.8,0.8,1.6,0.8,1.6v0.8c0,0.8,0.8,1.6,0.8,1.6v0.8
		c0,0.8,0.8,1.6,0.8,1.6v0.8c0,0.8,0.8,1.6,0.8,1.6v0.8c0,0.8,0.8,1.6,0.8,1.6v0.8c0,0.8,0.8,1.6,0.8,1.6v0.8c0,0.8,0.8,1.6,0.8,1.6
		v0.8c0,0.8,0.8,1.6,0.8,1.6v0.8c0,0.8,0.8,1.6,0.8,1.6v0.8c0,0.8,0.8,1.6,0.8,1.6v0.8c0,0.8,0.8,1.6,0.8,1.6v0.8
		c0,0.8,0.8,1.6,0.8,1.6v0.8c0,0.8,0.8,1.6,0.8,1.6v0.8c0,0.8,0.8,1.6,0.8,1.6v0.8c0,0.8,0.8,1.6,0.8,1.6v0.8c0,0.8,0.8,1.6,0.8,1.6
		v0.8c0,0.8,0.8,1.6,0.8,1.6v0.8c0,0.8,0.8,1.6,0.8,1.6v0.8c0,0.8,0.8,1.6,0.8,1.6v0.8c0,0.8,0.8,1.6,0.8,1.6v0.8
		c0,0.8,0.8,1.6,0.8,1.6v0.8c0,0.8,0.8,0.8,0.8,1.6c12.6,2.4,26,3.2,39.4,3.2C314.3,512,367.9,492.3,410.4,460z"/>
	<path id="XMLID_5_" class="st2" d="M175.7,185.9c-0.8,0-1.6,0-2.4,0c0,0-46.5-15.8-46.5-19.7c0-8.7,54.4-38.6,54.4-38.6
		c4.7-3.2,11-1.6,13.4,3.9c3.2,4.7,0.8,11-3.9,13.4L178,167c5.5,1.6,8.7,7.1,7.1,12.6C184.3,182.7,180.4,185.9,175.7,185.9z"/>
	<path id="XMLID_6_" class="st3" d="M180.4,127.6c0,0-5.5,3.2-13.4,7.9c-1.6,16.5-2.4,32.3-3.2,47.3c5.5,1.6,8.7,3.2,8.7,3.2
		c0.8,0,1.6,0,2.4,0c4.7,0,8.7-3.2,9.5-7.1c1.6-5.5-1.6-11-7.1-12.6l12.6-22.1c4.7-3.2,6.3-8.7,3.9-13.4
		C191.4,126,185.1,124.5,180.4,127.6z"/>
	<path id="XMLID_7_" class="st2" d="M295.4,415.9H185.1c-3.9,0-7.9-2.4-9.5-7.1c-1.6-3.9,0-8.7,3.2-11l40.2-29.9l11.8,15.8
		l63.8,11.8L295.4,415.9L295.4,415.9z"/>
	<path id="XMLID_8_" class="st3" d="M219.8,367.9l-13.4,9.5c7.9,8.7,16.5,16.5,26.8,22.1c22.8,12.6,44.9,15.8,56.7,16.5h5.5v-19.7
		l-63.8-11.8L219.8,367.9z"/>
	<path id="XMLID_9_" class="st4" d="M302.5,415.9c-9.5,0-34.7-1.6-60.7-16.5c-50.4-28.4-72.5-96.9-69.3-212.7
		c0-7.9,48.8-17.3,79.6,28.4c55.9,54.4,76.4,200.1,76.4,200.1h-22.1C305.6,415.9,304,415.9,302.5,415.9z"/>
	<path id="XMLID_10_" class="st5" d="M380.5,397c-11.8-8.7-31.5-22.1-37-27.6c-3.2-6.3-10.2-38.6-17.3-67c0-0.8-0.8-1.6-0.8-2.4l0,0
		c-1.6-7.9-3.9-15.8-5.5-23.6c0-0.8-0.8-2.4-0.8-3.2c-18.9-79.6-36.2-144.1-55.9-163.1c-9.5-9.5-22.8-14.2-37.8-14.2l0,0
		c-26.8,0-46.5,22.8-47.3,23.6c-1.6,1.6-2.4,3.9-2.4,5.5c-2.4,22.1-3.2,42.5-3.9,62.2c3.9-0.8,8.7-0.8,13.4-0.8
		c12.6,0,29.9,3.9,29.9,40.2c0,0.8,0,0.8,0,1.6c4.7,29.9,23.6,126.8,56.7,137.8c0.8,0,2.4,0.8,3.2,0.8c1.6,0,3.9-0.8,5.5-1.6
		c2.4-1.6,3.9-3.9,4.7-7.1c3.9-33.9,4.7-55.9,4.7-70.9c5.5,37.8,11.8,104,37.8,129.2h48l0,0c5.5,0,10.2-4.7,10.2-10.2
		C386,401.7,383.6,398.6,380.5,397z"/>
	<path id="XMLID_11_" class="st6" d="M289.9,287.5c0.8,15-11.8,35.4-16.5,69.3c0,3.2-1.6,5.5-3.9,7.1c0.8,0.8,2.4,0.8,3.2,1.6
		c0.8,0,2.4,0.8,3.2,0.8c1.6,0,3.9-0.8,5.5-1.6c2.4-1.6,3.9-3.9,4.7-7.1C285.9,352.9,294.6,319,289.9,287.5z"/>
	<path id="XMLID_12_" class="st6" d="M380.5,397c-11.8-8.7-31.5-22.1-37-27.6c-3.2-6.3-10.2-38.6-17.3-67c0-0.8-0.8-1.6-0.8-2.4l0,0
		c-1.6-7.9-3.9-15.8-5.5-23.6c0-0.8-0.8-2.4-0.8-3.2c-18.9-79.6-36.2-144.1-55.9-163.1c-9.5-9.5-22.8-14.2-37.8-14.2l0,0
		c-1.6,0-3.9,0-5.5,0c12.6,1.6,23.6,6.3,31.5,14.2c19.7,18.9,37,83.5,55.9,163.1c0,0.8,0.8,2.4,0.8,3.2c1.6,7.9,3.9,15.8,5.5,23.6
		l0,0c0,0.8,0.8,1.6,0.8,2.4c6.3,28.4,14.2,59.9,17.3,67c5.5,5.5,25.2,18.9,37,27.6c3.2,1.6,5.5,4.7,5.5,8.7
		c0,5.5-4.7,10.2-10.2,10.2h11.8l0,0c5.5,0,10.2-4.7,10.2-10.2C386,401.7,383.6,398.6,380.5,397z"/>
	<path id="XMLID_13_" class="st4" d="M205.6,158.3c-3.2,0-6.3-1.6-8.7-3.2c-2.4-2.4-3.2-5.5-3.2-8.7c0-3.2,1.6-6.3,3.2-8.7
		c4.7-4.7,12.6-4.7,17.3,0c2.4,2.4,3.2,5.5,3.2,8.7c0,3.2-1.6,6.3-3.9,8.7C211.9,156.8,208.7,158.3,205.6,158.3z"/>
	<path id="XMLID_14_" class="st5" d="M205.6,154.4c-2.4,0-3.9-0.8-5.5-2.4c-1.6-1.6-2.4-3.9-2.4-5.5c0-2.4,0.8-3.9,2.4-5.5
		c3.2-3.2,8.7-3.2,11,0c1.6,1.6,2.4,3.9,2.4,5.5c0,2.4-0.8,3.9-2.4,5.5S208,154.4,205.6,154.4z"/>
</g>
</svg>
