<?xml version="1.0" encoding="utf-8"?>
<!-- Generator: Adobe Illustrator 24.1.1, SVG Export Plug-In . SVG Version: 6.00 Build 0)  -->
<svg version="1.1" id="Layer_1" xmlns="http://www.w3.org/2000/svg" xmlns:xlink="http://www.w3.org/1999/xlink" x="0px" y="0px"
	 viewBox="0 0 512 512" style="enable-background:new 0 0 512 512;" xml:space="preserve">
<g>
	<path d="M456.4,320.7c-5.3-16.3-10.9-32.4-17.1-48.3l-23.1-57.5c0.1-0.7,0.3-11.9,0.3-17.8C416.6,98.8,370.2,0,256,0
		S95.4,98.8,95.4,197.2c0,5.8,0.3,17.2,0.3,17.8l-23.1,57.5c-6.2,15.9-11.8,32-17.1,48.3c-21.7,70.1-14.7,99.1-9.3,99.8
		c11.5,1.3,44.8-52.7,44.8-52.7c0,31.3,16.1,72.3,51.1,101.8c-13,4-29.1,10.2-39.4,17.8c-9.2,6.8-8.1,13.7-6.4,16.6
		c7.3,12.3,125.5,7.8,159.6,4c34.2,3.8,152.3,8.3,159.7-4c1.7-2.8,2.8-9.7-6.4-16.6c-10.4-7.6-26.4-13.8-39.4-17.8
		c34.9-29.6,51.1-70.5,51.1-101.8c0,0,33.3,54.2,44.8,52.7C471.2,419.9,478.2,390.7,456.4,320.7L456.4,320.7z M270.1,103.4
		c0.8-22.5,14.1-40.1,29.6-39.4c15.5,0.7,27.3,19.4,26.5,41.9c-0.8,22.4-14.1,40.1-29.6,39.3C281.2,144.6,269.3,125.8,270.1,103.4z
		 M212.3,64c15.5-0.7,28.7,16.9,29.6,39.4c0.8,22.4-11.1,41.1-26.5,41.8c-15.5,0.8-28.7-16.9-29.6-39.3
		C185,83.4,196.9,64.7,212.3,64z M158.3,176.9c4.1-9.2,45.7-19.3,97.4-19.3h0.5c51.6,0,93.3,10.2,97.4,19.3l0.3,1.3l-0.6,1.8
		c-3.5,5.1-49.7,30.2-97.1,30.2h-0.6c-47.4,0-93.6-25.1-97.1-30.2L158.3,176.9L158.3,176.9z M380.7,360.8
		c-4.8,78.5-51.3,127.7-123.2,128.5h-2.9c-71.9-0.8-118.5-50-123.2-128.5c-1.7-28.7,0-53.2,3.1-73.2c6.8,1.4,13.6,2.7,20.5,3.8v74.8
		c0,0,35.3,7.2,70.7,2.2v-68.7c10.4,0.6,20.5,0.8,30,0.7h0.5c35.8,0.5,79.2-4.3,121.2-12.7C380.7,307.7,382.3,332.1,380.7,360.8
		L380.7,360.8z M223.6,123.8c6.7-0.9,11.6-8.7,10.8-17.6c-0.8-8.9-6.7-15.4-13.4-14.5c-6.7,0.8-11.6,8.7-10.8,17.6
		C210.9,118.2,216.8,124.7,223.6,123.8L223.6,123.8z M308.9,110c1.7,0.8,4.7,0.9,6.2-3.1c0.8-2.1,0.5-3.6-0.3-4.6
		c-0.5-0.8-2.8-2.5-7.9-3.8c-19.3-4.8-28.6,8.2-29.9,10.6c-0.9,1.6-0.2,3.8,1.2,4.9l3.8-0.2C294.3,100.5,307.8,109.5,308.9,110
		L308.9,110z"/>
</g>
</svg>
