<?xml version="1.0" encoding="utf-8"?>
<!-- Generator: Adobe Illustrator 24.1.1, SVG Export Plug-In . SVG Version: 6.00 Build 0)  -->
<svg version="1.1" id="Layer_1" xmlns="http://www.w3.org/2000/svg" xmlns:xlink="http://www.w3.org/1999/xlink" x="0px" y="0px"
	 viewBox="0 0 512 512" style="enable-background:new 0 0 512 512;" xml:space="preserve">
<style type="text/css">
	.st0{fill:#CA4638;}
	.st1{fill:#FFFFFF;}
</style>
<g id="XMLID_1_">
	<circle id="XMLID_3_" class="st0" cx="256" cy="256" r="256"/>
	<path id="XMLID_6_" class="st1" d="M382.6,307.2c41.9-102.4-41.9-185.3-132.2-189c-17.7,1.9-34.4,2.8-48.4,10.2
		c-34.4,14-65.2,47.5-76.3,82.9c-31.7,96.8,57.7,198.3,162,178.7c20.5,31.7,75.4,32.6,75.4,32.6v-20.5c0,0-29.8-9.3-34.4-27.9
		C348.2,352.8,370.5,337.9,382.6,307.2z M309.1,331.4c-0.9,0.9-1.9,0.9-3.7,1.9c-18.6-31.7-65.2-32.6-65.2-32.6v27.9
		c0,0,23.3,9.3,27,27c0.9,0.9,1.9,1.9,3.7,3.7c-95,28.9-130.3-167.6-40-205.7c14-9.3,35.4-4.7,48.4,1.9
		C343.5,191.8,343.5,270.9,309.1,331.4z"/>
</g>
</svg>
