<?xml version="1.0" encoding="utf-8"?>
<!-- Generator: Adobe Illustrator 24.1.1, SVG Export Plug-In . SVG Version: 6.00 Build 0)  -->
<svg version="1.1" id="Layer_1" xmlns="http://www.w3.org/2000/svg" xmlns:xlink="http://www.w3.org/1999/xlink" x="0px" y="0px"
	 viewBox="0 0 512 512" style="enable-background:new 0 0 512 512;" xml:space="preserve">
<style type="text/css">
	.st0{fill:#FF4500;}
	.st1{fill:#FFFFFF;}
</style>
<g>
	<circle class="st0" cx="256" cy="256" r="256"/>
	<path class="st1" d="M426.3,258.4c0-20.8-16.8-37.2-37.2-37.2c-10.1,0-19.2,4-25.9,10.4c-25.6-18.3-60.7-30.2-99.8-31.7l17.1-80
		l55.5,11.9c0.6,14,12.2,25.3,26.6,25.3c14.6,0,26.6-11.9,26.6-26.6c0-14.6-11.9-26.5-26.6-26.5c-10.4,0-19.5,6.1-23.8,15l-62-13.1
		c-1.8-0.3-3.7,0-4.9,0.9c-1.5,0.9-2.4,2.4-2.7,4.3l-18.9,89.1c-39.7,1.2-75.4,13.1-101.3,31.7c-6.7-6.4-15.9-10.4-25.9-10.4
		c-20.8,0-37.2,16.8-37.2,37.2c0,15.3,9.2,28.1,22,33.9c-0.6,3.7-0.9,7.3-0.9,11.3c0,57.4,66.8,104.1,149.2,104.1
		s149.2-46.4,149.2-104.1c0-3.7-0.3-7.6-0.9-11.3C417.1,286.8,426.3,273.7,426.3,258.4z M170.5,285c0-14.6,11.9-26.5,26.6-26.5
		c14.6,0,26.6,11.9,26.6,26.5c0,14.6-11.9,26.6-26.6,26.6C182.4,311.8,170.5,299.6,170.5,285z M319.2,355.5
		C300.9,373.8,266.1,375,256,375c-10.4,0-45.2-1.5-63.2-19.5c-2.7-2.7-2.7-7,0-9.8c2.7-2.7,7-2.7,9.8,0c11.6,11.6,36,15.6,53.4,15.6
		s42.1-4,53.4-15.6c2.7-2.7,7-2.7,9.8,0C321.6,348.5,321.6,352.7,319.2,355.5z M314.3,311.8c-14.6,0-26.5-11.9-26.5-26.5
		c0-14.6,11.9-26.5,26.5-26.5c14.7,0,26.6,11.9,26.6,26.5C340.8,299.6,328.9,311.8,314.3,311.8z"/>
</g>
</svg>
