<?xml version="1.0" encoding="utf-8"?>
<!-- Generator: Adobe Illustrator 19.0.0, SVG Export Plug-In . SVG Version: 6.00 Build 0)  -->
<svg version="1.1" id="Layer_1" xmlns="http://www.w3.org/2000/svg" xmlns:xlink="http://www.w3.org/1999/xlink" x="0px" y="0px"
	 viewBox="0 0 500 500" style="enable-background:new 0 0 500 500;" xml:space="preserve">
<style type="text/css">
	.st0{fill:#FFFC00;}
	.st1{fill:#FFFFFF;}
	.st2{fill:#030303;}
</style>
<g id="XMLID_1_">
	<path id="XMLID_3_" class="st0" d="M374.3,67.5c32.1,0,58.2,26,58.2,58.2v248.7c0,32.1-26,58.2-58.2,58.2H125.7
		c-32.1,0-58.2-26-58.2-58.2V125.7c0-32.1,26-58.2,58.2-58.2H374.3z"/>
	<path id="XMLID_4_" class="st1" d="M251.3,375.5c-0.7,0-1.4,0-2-0.1h0c-0.4,0-0.9,0.1-1.3,0.1c-15.8,0-26-7.2-35.8-14.1
		c-6.8-4.8-13.2-9.3-20.7-10.6c-3.7-0.6-7.3-0.9-10.9-0.9c-6.4,0-11.4,1-15.1,1.7c-2.2,0.4-4.2,0.8-5.6,0.8c-1.5,0-3.2-0.3-3.9-2.8
		c-0.6-2.1-1.1-4.2-1.5-6.2c-1.1-5.1-1.9-8.3-4.1-8.6c-25.1-3.9-32.3-9.2-33.9-12.9c-0.2-0.5-0.4-1.1-0.4-1.6
		c-0.1-1.4,0.9-2.7,2.4-2.9c38.6-6.4,55.9-45.8,56.7-47.5l0.1-0.1c2.4-4.8,2.8-8.9,1.4-12.4c-2.7-6.2-11.3-9-17-10.8
		c-1.4-0.4-2.7-0.9-3.8-1.3c-11.4-4.5-12.4-9.1-11.9-11.5c0.8-4,6.1-6.8,10.5-6.8c1.2,0,2.2,0.2,3.1,0.6c5.1,2.4,9.8,3.6,13.8,3.6
		c5.5,0,7.9-2.3,8.2-2.6c-0.1-2.6-0.3-5.3-0.5-8.2c-1.2-18.3-2.6-40.9,3.2-53.9c17.3-38.8,54-41.8,64.9-41.8c0.3,0,4.8,0,4.8,0
		l0.6,0c10.9,0,47.7,3,65,41.9c5.8,13,4.3,35.7,3.2,53.9l0,0.8c-0.2,2.5-0.3,5-0.4,7.4c0.3,0.3,2.5,2.4,7.5,2.6h0
		c3.8-0.1,8.2-1.4,13-3.6c1.4-0.7,3-0.8,4-0.8c1.6,0,3.3,0.3,4.6,0.9l0.1,0c3.9,1.4,6.4,4.1,6.5,6.9c0.1,2.7-2,6.7-12,10.7
		c-1,0.4-2.4,0.8-3.8,1.3c-5.7,1.8-14.4,4.6-17,10.8c-1.4,3.4-1,7.6,1.4,12.4l0.1,0.1c0.7,1.7,18,41.1,56.7,47.5
		c1.4,0.2,2.4,1.5,2.4,3c0,0.5-0.2,1.1-0.4,1.6c-1.6,3.7-8.8,9-33.9,12.9c-2.1,0.3-2.8,3-4.1,8.6c-0.4,2-0.9,4-1.5,6.2
		c-0.5,1.8-1.7,2.7-3.6,2.7h-0.3c-1.3,0-3.2-0.2-5.6-0.7c-4.3-0.8-9-1.6-15.1-1.6c-3.5,0-7.2,0.3-10.9,0.9
		c-7.5,1.3-13.9,5.8-20.7,10.6C277.4,368.3,267.2,375.5,251.3,375.5z"/>
	<path id="XMLID_7_" class="st2" d="M252.3,127.3c10.3,0,45.7,2.8,62.4,40.2c5.5,12.3,4.1,34.6,3,52.6c-0.2,2.8-0.4,5.6-0.5,8.2
		l-0.1,1.1l0.8,0.8c0.3,0.3,3.2,3.3,9.5,3.6l0.1,0l0.1,0c4.2-0.2,8.9-1.5,14.1-3.9c0.8-0.4,1.8-0.5,2.8-0.5c1.2,0,2.5,0.2,3.6,0.7
		l0.2,0.1c2.7,0.9,4.6,2.7,4.6,4.3c0,0.9-0.7,4.2-10.2,8c-0.9,0.4-2.2,0.8-3.6,1.2c-6.2,2-15.6,5-18.8,12.4
		c-1.8,4.2-1.3,9.2,1.4,14.7c1.1,2.6,18.9,42.6,58.8,49.2c0,0.2-0.1,0.4-0.2,0.6c-0.7,1.6-5,7.1-31.7,11.2
		c-4.2,0.6-5.2,5.3-6.4,10.8c-0.4,2-0.9,3.9-1.5,6c-0.2,0.6-0.2,0.7-0.9,0.7c-0.1,0-0.2,0-0.3,0c-1.2,0-3-0.2-5.1-0.7
		c-3.8-0.7-9-1.7-15.6-1.7c-3.7,0-7.5,0.3-11.4,1c-8.2,1.4-14.9,6.1-21.9,11.1c-9.5,6.7-19.3,13.6-34.2,13.6c-0.6,0-1.3,0-1.9-0.1
		l-0.2,0l-0.2,0c-0.4,0-0.7,0-1.1,0c-14.9,0-24.7-6.9-34.2-13.6c-7.1-5-13.7-9.7-21.9-11.1c-3.8-0.6-7.7-1-11.4-1
		c-6.6,0-11.8,1-15.6,1.8c-2.1,0.4-3.9,0.8-5.1,0.8c-1,0-1-0.1-1.2-0.8c-0.6-2-1-4.1-1.5-6c-1.2-5.5-2.2-10.2-6.4-10.8
		c-26.8-4.1-31.1-9.7-31.7-11.2c-0.1-0.2-0.2-0.5-0.2-0.7c39.9-6.6,57.7-46.5,58.8-49.2c2.7-5.6,3.2-10.5,1.4-14.7
		c-3.2-7.4-12.6-10.4-18.8-12.4c-1.4-0.4-2.7-0.8-3.6-1.2c-8.1-3.2-10.6-6.4-10.2-8.3c0.4-2.2,4.3-4.5,7.7-4.5
		c0.8,0,1.4,0.1,1.9,0.4c5.5,2.6,10.5,3.9,15,3.9c6.9,0,10-3.2,10.4-3.6l0.8-0.8l-0.1-1.1c-0.1-2.6-0.3-5.4-0.5-8.2
		c-1.1-17.9-2.5-40.2,3-52.6c16.6-37.3,51.9-40.2,62.3-40.2c0.3,0,4.8,0,4.8,0C251.9,127.3,252.1,127.3,252.3,127.3 M252.3,121.7
		L252.3,121.7c-0.2,0-0.5,0-0.7,0c0,0-4.4,0-4.7,0c-11.3,0-49.4,3.1-67.4,43.5c-6.1,13.6-4.6,36.7-3.4,55.2c0.1,2.2,0.3,4.5,0.4,6.6
		c-0.9,0.5-2.6,1.2-5.3,1.2c-3.6,0-7.8-1.1-12.6-3.4c-1.3-0.6-2.7-0.9-4.3-0.9c-5.6,0-12.2,3.7-13.3,9.1c-0.7,3.9,1,9.7,13.7,14.7
		c1.1,0.5,2.5,0.9,4,1.3c5.2,1.7,13.1,4.2,15.3,9.2c1.1,2.6,0.7,6-1.3,10c0,0.1-0.1,0.2-0.1,0.3c-0.7,1.6-17.4,39.7-54.5,45.8
		c-2.9,0.5-4.9,3-4.7,5.9c0,0.9,0.3,1.7,0.6,2.5c2.8,6.5,14.5,11.3,35.9,14.6c0.7,1,1.5,4.4,1.9,6.5c0.4,2.1,0.9,4.2,1.6,6.4
		c0.6,2.2,2.3,4.8,6.6,4.8c1.7,0,3.8-0.4,6.2-0.9c3.6-0.7,8.4-1.6,14.6-1.6c3.4,0,6.9,0.3,10.4,0.9c6.9,1.2,12.8,5.3,19.6,10.1
		c9.7,6.9,20.7,14.7,37.5,14.7c0.5,0,0.9,0,1.4,0c0.5,0,1.2,0,2,0c16.7,0,27.8-7.8,37.5-14.7c6.8-4.8,12.7-9,19.6-10.1
		c3.5-0.6,7-0.9,10.4-0.9c5.8,0,10.4,0.7,14.6,1.5c2.6,0.5,4.7,0.8,6.2,0.8l0.2,0h0.2c3.2,0,5.4-1.7,6.3-4.7
		c0.6-2.2,1.1-4.3,1.6-6.3c0.5-2.1,1.2-5.5,1.9-6.4c21.4-3.3,33.1-8.1,35.9-14.6c0.4-0.8,0.6-1.7,0.6-2.6c0.2-2.9-1.9-5.4-4.7-5.9
		c-37.1-6.1-53.8-44.2-54.5-45.8c0-0.1-0.1-0.2-0.1-0.3c-2-4-2.4-7.4-1.3-10c2.1-5,10-7.6,15.3-9.2c1.5-0.5,2.8-0.9,4-1.3
		c9.3-3.7,13.9-8.1,13.8-13.3c-0.1-4.1-3.3-7.7-8.3-9.5l0,0c-1.7-0.7-3.7-1.1-5.7-1.1c-1.4,0-3.4,0.2-5.2,1.1
		c-4.4,2.1-8.4,3.2-11.8,3.3c-2.3-0.1-3.7-0.7-4.6-1.1c0.1-1.9,0.2-3.8,0.4-5.8l0-0.8c1.2-18.6,2.6-41.6-3.4-55.2
		C301.8,124.8,263.6,121.7,252.3,121.7z"/>
</g>
</svg>
